<svg xmlns="http://www.w3.org/2000/svg" viewBox="0 0 500 500"><g id="freepik--background-simple--inject-2"><path d="M226.78,463.85s80,12.84,142.74-43.37,80-147.62,95.92-221.23S447.52,60.17,385,39.19s-89.57,32.39-166.7,49.25S117.7,97.93,63.49,154.72s-41.71,164.44,27,232.92S226.78,463.85,226.78,463.85Z" style="fill:#002A7C"></path><path d="M226.78,463.85s80,12.84,142.74-43.37,80-147.62,95.92-221.23S447.52,60.17,385,39.19s-89.57,32.39-166.7,49.25S117.7,97.93,63.49,154.72s-41.71,164.44,27,232.92S226.78,463.85,226.78,463.85Z" style="fill:#fff;opacity:0.7000000000000001"></path></g><g id="freepik--Gears--inject-2"><g style="opacity:0.30000000000000004"><path d="M448.52,117.7V105.09l-12.07-1.72a43.7,43.7,0,0,0-6.93-16.89l7.34-9.79L428,67.78l-9.76,7.31a43.67,43.67,0,0,0-16.84-7l-1.73-12.12H387L385.29,68A43.67,43.67,0,0,0,368.41,75l-9.79-7.34-8.92,8.91L357,86.27a43.81,43.81,0,0,0-7,16.84l-12.11,1.74v12.6l12.07,1.72a43.7,43.7,0,0,0,6.93,16.89l-7.34,9.79,8.91,8.91,9.76-7.31a43.51,43.51,0,0,0,16.84,7l1.73,12.12h12.6l1.73-12.07A43.66,43.66,0,0,0,418,147.6l9.79,7.34,8.92-8.91-7.32-9.76a43.81,43.81,0,0,0,7-16.84ZM393.2,141.82a30.55,30.55,0,1,1,30.55-30.55A30.56,30.56,0,0,1,393.2,141.82Z" style="fill:none;stroke:#000;stroke-miterlimit:10"></path><path d="M483.45,192.89v-9l-8.63-1.24a31.19,31.19,0,0,0-5-12.07l5.25-7-6.37-6.37-7,5.23a31.28,31.28,0,0,0-12-5l-1.24-8.66h-9l-1.23,8.63a31.24,31.24,0,0,0-12.08,5l-7-5.25-6.37,6.37,5.23,7a31.11,31.11,0,0,0-5,12l-8.67,1.24v9L413,194a31.19,31.19,0,0,0,5,12.07l-5.25,7L419,219.4l7-5.23a31.33,31.33,0,0,0,12,5l1.24,8.66h9l1.24-8.63a31.3,31.3,0,0,0,12.08-5l7,5.25,6.37-6.37-5.23-7a31.26,31.26,0,0,0,5-12Zm-39.56,17.26a21.85,21.85,0,1,1,21.85-21.85A21.85,21.85,0,0,1,443.89,210.15Z" style="fill:none;stroke:#000;stroke-miterlimit:10"></path><path d="M99.4,336.55v-9l-8.64-1.23a31.22,31.22,0,0,0-5-12.08l5.25-7-6.38-6.37-7,5.23a31.15,31.15,0,0,0-12-5l-1.23-8.67h-9L54.18,301a31.24,31.24,0,0,0-12.08,5l-7-5.25-6.37,6.37,5.23,7a31.33,31.33,0,0,0-5,12l-8.67,1.24v9l8.64,1.23a31.28,31.28,0,0,0,5,12.08l-5.25,7L35,363.06l7-5.23a31.37,31.37,0,0,0,12,5l1.24,8.66h9l1.23-8.63a31.37,31.37,0,0,0,12.08-4.95l7,5.24,6.37-6.37-5.23-7a31.22,31.22,0,0,0,5-12ZM59.83,353.81A21.85,21.85,0,1,1,81.68,332,21.85,21.85,0,0,1,59.83,353.81Z" style="fill:none;stroke:#000;stroke-miterlimit:10"></path></g></g><g id="freepik--Device--inject-2"><path d="M260.3,445.49h-93l3.13-3.88a34,34,0,0,0,7.6-21.38V396.44h71.57v23.79a34,34,0,0,0,7.6,21.38Z" style="fill:#fff;stroke:#263238;stroke-linecap:round;stroke-linejoin:round"></path><rect x="177.99" y="396.44" width="71.57" height="15.37" style="fill:#263238"></rect><rect x="69.96" y="192.73" width="287.64" height="211.2" rx="8.48" style="fill:#263238;stroke:#263238;stroke-linecap:round;stroke-linejoin:round"></rect><path d="M70,371.11H357.6a0,0,0,0,1,0,0v24.34a8.48,8.48,0,0,1-8.48,8.48H78.44A8.48,8.48,0,0,1,70,395.45V371.11A0,0,0,0,1,70,371.11Z" style="fill:#fff;stroke:#263238;stroke-linecap:round;stroke-linejoin:round"></path><rect x="84.43" y="205.87" width="258.7" height="149.21" style="fill:#002A7C;stroke:#fff;stroke-linecap:round;stroke-linejoin:round"></rect><rect x="167.26" y="445.49" width="93.06" height="4.25" style="fill:#fff;stroke:#263238;stroke-linecap:round;stroke-linejoin:round"></rect></g><g id="freepik--Code--inject-2"><circle cx="247.54" cy="231.16" r="95.08" transform="translate(-90.95 242.74) rotate(-45)" style="fill:#fff;stroke:#263238;stroke-linecap:round;stroke-linejoin:round;opacity:0.43"></circle><path d="M278.85,235.54a2.92,2.92,0,0,0,3,0,2.39,2.39,0,0,0,.87-1.12,4.37,4.37,0,0,0,.28-1.64v-4.61a4.39,4.39,0,0,0-.28-1.65,2.33,2.33,0,0,0-.86-1.11,2.65,2.65,0,0,0-1.5-.39,2.7,2.7,0,0,0-1.52.39,2.41,2.41,0,0,0-.87,1.11,4.6,4.6,0,0,0-.27,1.65v4.61a4.39,4.39,0,0,0,.28,1.63A2.39,2.39,0,0,0,278.85,235.54Zm.27-7.38a4.37,4.37,0,0,1,.1-1,1.47,1.47,0,0,1,.35-.73,1,1,0,0,1,.79-.28,1,1,0,0,1,.77.28,1.47,1.47,0,0,1,.35.73,5.07,5.07,0,0,1,.09,1v4.65a4.17,4.17,0,0,1-.1.94,1.54,1.54,0,0,1-.35.75,1,1,0,0,1-.76.29,1,1,0,0,1-.77-.29,1.56,1.56,0,0,1-.37-.75,4.83,4.83,0,0,1-.1-.94Z" style="fill:#263238"></path><path d="M192.61,236a2.55,2.55,0,0,0,1.49-.41,2.39,2.39,0,0,0,.87-1.12,4.37,4.37,0,0,0,.28-1.64v-4.61a4.6,4.6,0,0,0-.27-1.65,2.46,2.46,0,0,0-.86-1.11,3.14,3.14,0,0,0-3,0,2.33,2.33,0,0,0-.86,1.11,4.39,4.39,0,0,0-.28,1.65v4.61a4.39,4.39,0,0,0,.28,1.63,2.35,2.35,0,0,0,.88,1.12A2.51,2.51,0,0,0,192.61,236Zm-1.23-7.8a5.07,5.07,0,0,1,.09-1,1.4,1.4,0,0,1,.36-.73,1.21,1.21,0,0,1,1.55,0,1.47,1.47,0,0,1,.35.73,5.07,5.07,0,0,1,.09,1v4.65a4.83,4.83,0,0,1-.09.94,1.64,1.64,0,0,1-.36.75,1,1,0,0,1-.76.29,1,1,0,0,1-.76-.29,1.48,1.48,0,0,1-.37-.75,4.17,4.17,0,0,1-.1-.94Z" style="fill:#263238"></path><path d="M194.92,285.41a2.61,2.61,0,0,0-1.51-.4,2.64,2.64,0,0,0-1.52.4,2.26,2.26,0,0,0-.86,1.1,4.39,4.39,0,0,0-.28,1.65v4.62a4.3,4.3,0,0,0,.28,1.62,2.37,2.37,0,0,0,.88,1.13,2.58,2.58,0,0,0,1.5.41,2.54,2.54,0,0,0,1.49-.4,2.44,2.44,0,0,0,.87-1.12,4.41,4.41,0,0,0,.28-1.64v-4.62a4.6,4.6,0,0,0-.27-1.65A2.38,2.38,0,0,0,194.92,285.41Zm-.3,7.38a4.94,4.94,0,0,1-.09.95,1.66,1.66,0,0,1-.36.74,1,1,0,0,1-.76.29,1,1,0,0,1-.76-.29,1.48,1.48,0,0,1-.37-.74,4.25,4.25,0,0,1-.1-.95v-4.64a4.92,4.92,0,0,1,.09-1,1.43,1.43,0,0,1,.36-.74,1.21,1.21,0,0,1,1.55,0,1.51,1.51,0,0,1,.35.74,4.92,4.92,0,0,1,.09,1Z" style="fill:#263238"></path><path d="M194.46,250.83V240.12h-1.07a2.11,2.11,0,0,1-.48.46,3.51,3.51,0,0,1-.6.33c-.21.09-.41.16-.61.23s-.37.11-.52.14v1.07l.29,0,.63-.12.65-.13L193,242v8.86Z" style="fill:#263238"></path><path d="M191.52,212.19l.64-.13.3-.08v8.86h1.42V210.12h-1.07a2.19,2.19,0,0,1-.49.47,3.84,3.84,0,0,1-.59.33,5.65,5.65,0,0,1-.61.22l-.52.15v1.07l.29-.05Z" style="fill:#263238"></path><path d="M269,300.23a2.56,2.56,0,0,0-1.5-.4,2.62,2.62,0,0,0-1.52.4,2.34,2.34,0,0,0-.87,1.1,4.64,4.64,0,0,0-.27,1.65v4.62a4.3,4.3,0,0,0,.28,1.62,2.42,2.42,0,0,0,.87,1.13,2.64,2.64,0,0,0,1.51.41,2.57,2.57,0,0,0,1.49-.41,2.36,2.36,0,0,0,.87-1.11,4.44,4.44,0,0,0,.28-1.64V303a4.42,4.42,0,0,0-.28-1.65A2.26,2.26,0,0,0,269,300.23Zm-.29,7.38a4.25,4.25,0,0,1-.1.95,1.55,1.55,0,0,1-.35.74,1,1,0,0,1-.76.3,1,1,0,0,1-.76-.3,1.48,1.48,0,0,1-.37-.74,4.25,4.25,0,0,1-.1-.95V303a5.1,5.1,0,0,1,.09-1,1.44,1.44,0,0,1,.36-.73,1.21,1.21,0,0,1,1.55,0,1.51,1.51,0,0,1,.35.73,5.1,5.1,0,0,1,.09,1Z" style="fill:#263238"></path><path d="M197.36,220.55a2.62,2.62,0,0,0,1.5.41,2.65,2.65,0,0,0,1.5-.4,2.44,2.44,0,0,0,.87-1.12,4.44,4.44,0,0,0,.28-1.64v-4.62a4.39,4.39,0,0,0-.28-1.65,2.26,2.26,0,0,0-.86-1.1,3.05,3.05,0,0,0-3,0,2.34,2.34,0,0,0-.87,1.1,4.6,4.6,0,0,0-.27,1.65v4.62a4.3,4.3,0,0,0,.28,1.62A2.42,2.42,0,0,0,197.36,220.55Zm.27-7.38a5.08,5.08,0,0,1,.1-1,1.51,1.51,0,0,1,.35-.73,1.06,1.06,0,0,1,.78-.28,1,1,0,0,1,.78.28,1.51,1.51,0,0,1,.35.73,5.1,5.1,0,0,1,.09,1v4.64a4.25,4.25,0,0,1-.1.95,1.55,1.55,0,0,1-.35.74,1.15,1.15,0,0,1-1.53,0,1.57,1.57,0,0,1-.37-.74,4.94,4.94,0,0,1-.1-.95Z" style="fill:#263238"></path><path d="M198,227.05a1.5,1.5,0,0,0,.3-.08v8.87h1.42V225.12h-1.07a2.14,2.14,0,0,1-.49.46,2.46,2.46,0,0,1-.59.33,5.77,5.77,0,0,1-.61.23c-.2.06-.37.11-.52.14v1.08l.29-.06.63-.12A6.51,6.51,0,0,0,198,227.05Z" style="fill:#263238"></path><path d="M195.26,280.82V270.11h-1.07a2,2,0,0,1-.49.46,3.08,3.08,0,0,1-.59.33,5.77,5.77,0,0,1-.61.23c-.2.06-.37.11-.52.14v1.07l.29,0,.63-.12.65-.13a1.09,1.09,0,0,0,.29-.08v8.86Z" style="fill:#263238"></path><path d="M195.13,255.42a2.56,2.56,0,0,0-1.5-.4,2.62,2.62,0,0,0-1.52.4,2.34,2.34,0,0,0-.87,1.1,4.6,4.6,0,0,0-.27,1.65v4.62a4.33,4.33,0,0,0,.28,1.62,2.47,2.47,0,0,0,.87,1.13,2.64,2.64,0,0,0,1.51.41,2.57,2.57,0,0,0,1.49-.41,2.41,2.41,0,0,0,.87-1.11,4.44,4.44,0,0,0,.28-1.64v-4.62a4.39,4.39,0,0,0-.28-1.65A2.26,2.26,0,0,0,195.13,255.42Zm-.29,7.38a4.17,4.17,0,0,1-.1.94,1.54,1.54,0,0,1-.35.75,1.14,1.14,0,0,1-1.52,0,1.4,1.4,0,0,1-.37-.75,4.17,4.17,0,0,1-.1-.94v-4.64a5.1,5.1,0,0,1,.09-1,1.4,1.4,0,0,1,.36-.73,1.21,1.21,0,0,1,1.55,0,1.47,1.47,0,0,1,.35.73,5.1,5.1,0,0,1,.09,1Z" style="fill:#263238"></path><path d="M157.87,250.55a2.31,2.31,0,0,0,.86-1.12,4.4,4.4,0,0,0,.29-1.64v-4.62a4.37,4.37,0,0,0-.28-1.64,2.29,2.29,0,0,0-.86-1.11,3.05,3.05,0,0,0-3,0,2.36,2.36,0,0,0-.87,1.11,4.58,4.58,0,0,0-.28,1.64v3.34c.2,1.19.41,2.37.65,3.54a2.16,2.16,0,0,0,.51.49,3,3,0,0,0,3,0Zm-2.63-1.8a4.94,4.94,0,0,1-.1-.95v-4.64a4.31,4.31,0,0,1,.1-1,1.51,1.51,0,0,1,.35-.74,1.06,1.06,0,0,1,.78-.28,1,1,0,0,1,.78.28,1.51,1.51,0,0,1,.35.74,5,5,0,0,1,.09,1v4.64a4.25,4.25,0,0,1-.1.95,1.55,1.55,0,0,1-.36.75,1,1,0,0,1-.76.29,1,1,0,0,1-.76-.29A1.66,1.66,0,0,1,155.24,248.75Z" style="fill:#263238"></path><path d="M185.85,240.42a2.29,2.29,0,0,0-.86,1.11,4.37,4.37,0,0,0-.28,1.64v4.62a4.39,4.39,0,0,0,.28,1.63,2.46,2.46,0,0,0,.88,1.12,2.58,2.58,0,0,0,1.5.41,2.52,2.52,0,0,0,1.49-.4,2.39,2.39,0,0,0,.87-1.12,4.4,4.4,0,0,0,.29-1.64v-4.62a4.58,4.58,0,0,0-.28-1.64,2.34,2.34,0,0,0-.86-1.11,2.67,2.67,0,0,0-1.51-.4A2.72,2.72,0,0,0,185.85,240.42Zm2.64,1.77a4.31,4.31,0,0,1,.1,1v4.64a4.94,4.94,0,0,1-.1.95,1.75,1.75,0,0,1-.36.75,1,1,0,0,1-.76.29,1,1,0,0,1-.76-.29,1.56,1.56,0,0,1-.37-.75,4.25,4.25,0,0,1-.1-.95v-4.64a5,5,0,0,1,.09-1,1.43,1.43,0,0,1,.36-.74,1.06,1.06,0,0,1,.78-.28,1,1,0,0,1,.77.28A1.51,1.51,0,0,1,188.49,242.19Z" style="fill:#263238"></path><path d="M182.84,285.41a2.59,2.59,0,0,0-1.51-.4,2.64,2.64,0,0,0-1.52.4,2.26,2.26,0,0,0-.86,1.1,4.39,4.39,0,0,0-.28,1.65v4.62a4.5,4.5,0,0,0,.28,1.62,2.44,2.44,0,0,0,.88,1.13,2.58,2.58,0,0,0,1.5.41,2.52,2.52,0,0,0,1.49-.4,2.44,2.44,0,0,0,.87-1.12,4.4,4.4,0,0,0,.29-1.64v-4.62a4.6,4.6,0,0,0-.28-1.65A2.32,2.32,0,0,0,182.84,285.41Zm-.29,7.38a4.94,4.94,0,0,1-.1.95,1.66,1.66,0,0,1-.36.74,1,1,0,0,1-.76.29,1,1,0,0,1-.76-.29,1.48,1.48,0,0,1-.37-.74,4.25,4.25,0,0,1-.1-.95v-4.64a4.92,4.92,0,0,1,.09-1,1.43,1.43,0,0,1,.36-.74,1.06,1.06,0,0,1,.78-.28,1,1,0,0,1,.77.28,1.42,1.42,0,0,1,.35.74,4.25,4.25,0,0,1,.1,1Z" style="fill:#263238"></path><path d="M178.45,265.54a2.58,2.58,0,0,0,1.5.41,2.55,2.55,0,0,0,1.49-.41,2.41,2.41,0,0,0,.87-1.11,4.44,4.44,0,0,0,.28-1.64v-4.62a4.6,4.6,0,0,0-.27-1.65,2.38,2.38,0,0,0-.86-1.1,3.07,3.07,0,0,0-3,0,2.26,2.26,0,0,0-.86,1.1,4.39,4.39,0,0,0-.28,1.65v4.62a4.33,4.33,0,0,0,.28,1.62A2.42,2.42,0,0,0,178.45,265.54Zm.27-7.38a5.1,5.1,0,0,1,.09-1,1.4,1.4,0,0,1,.36-.73,1.21,1.21,0,0,1,1.55,0,1.47,1.47,0,0,1,.35.73,5.1,5.1,0,0,1,.09,1v4.64a4.17,4.17,0,0,1-.1.94,1.54,1.54,0,0,1-.35.75,1,1,0,0,1-.76.29,1,1,0,0,1-.76-.29,1.48,1.48,0,0,1-.37-.75,4.17,4.17,0,0,1-.1-.94Z" style="fill:#263238"></path><path d="M223.1,315.21a3.51,3.51,0,0,1-.6.33,5.51,5.51,0,0,1-.6.22l-.53.15V317l.29-.05.64-.12.64-.13.3-.08v6.5l1.41.36v-8.72h-1.07A2.14,2.14,0,0,1,223.1,315.21Z" style="fill:#263238"></path><path d="M178.74,273.16a4.58,4.58,0,0,0-.28-1.64,2.39,2.39,0,0,0-.86-1.11,3.12,3.12,0,0,0-3,0,2.35,2.35,0,0,0-.87,1.11,4.37,4.37,0,0,0-.28,1.64v4.62a4.39,4.39,0,0,0,.29,1.63,2.44,2.44,0,0,0,.87,1.12,2.51,2.51,0,0,0,1.5.41,2.58,2.58,0,0,0,1.5-.4,2.44,2.44,0,0,0,.86-1.12,4.36,4.36,0,0,0,.29-1.64Zm-1.43,4.63a4.85,4.85,0,0,1-.1.95,1.75,1.75,0,0,1-.36.75,1,1,0,0,1-.76.29,1,1,0,0,1-.76-.29,1.66,1.66,0,0,1-.37-.75,4.19,4.19,0,0,1-.1-.95v-4.64a5,5,0,0,1,.09-1,1.43,1.43,0,0,1,.36-.74,1.06,1.06,0,0,1,.78-.27,1,1,0,0,1,.77.27,1.51,1.51,0,0,1,.36.74,5,5,0,0,1,.09,1Z" style="fill:#263238"></path><path d="M231.15,315.05a3.05,3.05,0,0,0-3,0,2.28,2.28,0,0,0-.87,1.1,4.6,4.6,0,0,0-.28,1.65v4.62a4.29,4.29,0,0,0,.29,1.62v0q2.07.45,4.17.81a2.51,2.51,0,0,0,.55-.82,4.44,4.44,0,0,0,.29-1.64V317.8a4.6,4.6,0,0,0-.28-1.65A2.32,2.32,0,0,0,231.15,315.05Zm-.29,7.38a4.25,4.25,0,0,1-.1.95,1.66,1.66,0,0,1-.36.74.93.93,0,0,1-.76.29,1,1,0,0,1-.76-.29,1.57,1.57,0,0,1-.37-.74,4.25,4.25,0,0,1-.1-.95v-4.64a5.1,5.1,0,0,1,.09-1,1.52,1.52,0,0,1,.36-.73,1.06,1.06,0,0,1,.78-.28,1,1,0,0,1,.78.28,1.61,1.61,0,0,1,.35.73,5.1,5.1,0,0,1,.09,1Z" style="fill:#263238"></path><path d="M155,235.84V225.12H154a1.91,1.91,0,0,1-.48.46,2.52,2.52,0,0,1-.6.33c-.09.05-.19.07-.28.11,0,.4,0,.79-.05,1.19l.13,0c.24,0,.45-.08.64-.13a1.5,1.5,0,0,0,.3-.08v8.87Z" style="fill:#263238"></path><path d="M185.58,277.78v-4.62a4.58,4.58,0,0,0-.28-1.64,2.39,2.39,0,0,0-.86-1.11,3.12,3.12,0,0,0-3,0,2.29,2.29,0,0,0-.87,1.11,4.37,4.37,0,0,0-.28,1.64v4.62a4.39,4.39,0,0,0,.29,1.63,2.44,2.44,0,0,0,.87,1.12,2.51,2.51,0,0,0,1.5.41,2.58,2.58,0,0,0,1.5-.4,2.44,2.44,0,0,0,.86-1.12A4.36,4.36,0,0,0,185.58,277.78Zm-1.43,0a4.85,4.85,0,0,1-.1.95,1.75,1.75,0,0,1-.36.75,1,1,0,0,1-.76.29,1,1,0,0,1-.76-.29,1.66,1.66,0,0,1-.37-.75,4.19,4.19,0,0,1-.1-.95v-4.64a5,5,0,0,1,.09-1,1.43,1.43,0,0,1,.36-.74,1.06,1.06,0,0,1,.78-.27,1,1,0,0,1,.77.27,1.42,1.42,0,0,1,.35.74,4.31,4.31,0,0,1,.1,1Z" style="fill:#263238"></path><path d="M186.87,300.39a3.51,3.51,0,0,1-.6.33,5.65,5.65,0,0,1-.61.22l-.52.15v1.07l.29-.05.64-.12.64-.13a1.94,1.94,0,0,0,.29-.08v2.69c.47.39.95.77,1.42,1.14v-5.69h-1.07A2,2,0,0,1,186.87,300.39Z" style="fill:#263238"></path><path d="M183.11,228.18v4.61a4.39,4.39,0,0,0,.28,1.63,2.35,2.35,0,0,0,.88,1.12,2.51,2.51,0,0,0,1.5.42,2.55,2.55,0,0,0,1.49-.41,2.39,2.39,0,0,0,.87-1.12,4.37,4.37,0,0,0,.28-1.64v-4.61a4.6,4.6,0,0,0-.27-1.65,2.46,2.46,0,0,0-.86-1.11,2.67,2.67,0,0,0-1.51-.39,2.72,2.72,0,0,0-1.52.39,2.33,2.33,0,0,0-.86,1.11A4.39,4.39,0,0,0,183.11,228.18Zm1.43,0a5.07,5.07,0,0,1,.09-1,1.4,1.4,0,0,1,.36-.73,1.21,1.21,0,0,1,1.55,0,1.47,1.47,0,0,1,.35.73,5.06,5.06,0,0,1,.1,1v4.65a4.83,4.83,0,0,1-.1.94,1.64,1.64,0,0,1-.36.75,1,1,0,0,1-.76.29,1,1,0,0,1-.76-.29,1.48,1.48,0,0,1-.37-.75,4.17,4.17,0,0,1-.1-.94Z" style="fill:#263238"></path><path d="M188.29,255.42a2.56,2.56,0,0,0-1.5-.4,2.62,2.62,0,0,0-1.52.4,2.26,2.26,0,0,0-.86,1.1,4.39,4.39,0,0,0-.28,1.65v4.62a4.33,4.33,0,0,0,.28,1.62,2.42,2.42,0,0,0,.88,1.13,2.58,2.58,0,0,0,1.5.41,2.55,2.55,0,0,0,1.49-.41,2.41,2.41,0,0,0,.87-1.11,4.44,4.44,0,0,0,.28-1.64v-4.62a4.39,4.39,0,0,0-.28-1.65A2.26,2.26,0,0,0,188.29,255.42ZM188,262.8a4.17,4.17,0,0,1-.1.94,1.54,1.54,0,0,1-.35.75,1,1,0,0,1-.76.29,1,1,0,0,1-.76-.29,1.48,1.48,0,0,1-.37-.75,4.17,4.17,0,0,1-.1-.94v-4.64a5.1,5.1,0,0,1,.09-1,1.4,1.4,0,0,1,.36-.73,1.21,1.21,0,0,1,1.55,0,1.47,1.47,0,0,1,.35.73,5.1,5.1,0,0,1,.09,1Z" style="fill:#263238"></path><path d="M315.67,220.55a2.58,2.58,0,0,0,1.5.41,2.65,2.65,0,0,0,1.5-.4,2.49,2.49,0,0,0,.86-1.12,4.44,4.44,0,0,0,.29-1.64v-4.62a4.6,4.6,0,0,0-.28-1.65,2.32,2.32,0,0,0-.86-1.1,3.05,3.05,0,0,0-3,0,2.28,2.28,0,0,0-.87,1.1,4.6,4.6,0,0,0-.28,1.65v4.62a4.29,4.29,0,0,0,.29,1.62A2.42,2.42,0,0,0,315.67,220.55Zm.27-7.38a5.1,5.1,0,0,1,.09-1,1.52,1.52,0,0,1,.36-.73,1.06,1.06,0,0,1,.78-.28,1,1,0,0,1,.78.28,1.61,1.61,0,0,1,.35.73,5.1,5.1,0,0,1,.09,1v4.64a4.25,4.25,0,0,1-.1.95,1.66,1.66,0,0,1-.36.74.93.93,0,0,1-.76.29,1,1,0,0,1-.76-.29,1.57,1.57,0,0,1-.37-.74,4.25,4.25,0,0,1-.1-.95Z" style="fill:#263238"></path><path d="M186.28,212.19l.65-.13.29-.08v8.86h1.42V210.12h-1.07a2,2,0,0,1-.49.47,3.08,3.08,0,0,1-.59.33,5.65,5.65,0,0,1-.61.22l-.52.15v1.07l.29-.05Z" style="fill:#263238"></path><path d="M209.67,264.43a4.44,4.44,0,0,0,.28-1.64v-4.62a4.39,4.39,0,0,0-.28-1.65,2.26,2.26,0,0,0-.86-1.1,3.05,3.05,0,0,0-3,0,2.34,2.34,0,0,0-.87,1.1,4.6,4.6,0,0,0-.27,1.65v4.62a4.33,4.33,0,0,0,.28,1.62,2.47,2.47,0,0,0,.87,1.13,2.62,2.62,0,0,0,1.5.41,2.58,2.58,0,0,0,1.5-.41A2.41,2.41,0,0,0,209.67,264.43Zm-1.15-1.63a4.17,4.17,0,0,1-.1.94,1.54,1.54,0,0,1-.35.75,1.15,1.15,0,0,1-1.53,0,1.56,1.56,0,0,1-.37-.75,4.83,4.83,0,0,1-.1-.94v-4.64a5.08,5.08,0,0,1,.1-1,1.47,1.47,0,0,1,.35-.73,1,1,0,0,1,.78-.28,1,1,0,0,1,.78.28,1.47,1.47,0,0,1,.35.73,5.1,5.1,0,0,1,.09,1Z" style="fill:#263238"></path><path d="M274.63,265.54a2.62,2.62,0,0,0,1.5.41,2.58,2.58,0,0,0,1.5-.41,2.41,2.41,0,0,0,.87-1.11,4.44,4.44,0,0,0,.28-1.64v-4.62a4.39,4.39,0,0,0-.28-1.65,2.26,2.26,0,0,0-.86-1.1,3.05,3.05,0,0,0-3,0,2.34,2.34,0,0,0-.87,1.1,4.6,4.6,0,0,0-.27,1.65v4.62a4.33,4.33,0,0,0,.28,1.62A2.47,2.47,0,0,0,274.63,265.54Zm.27-7.38a5.08,5.08,0,0,1,.1-1,1.47,1.47,0,0,1,.35-.73,1,1,0,0,1,.78-.28,1,1,0,0,1,.78.28,1.47,1.47,0,0,1,.35.73,5.1,5.1,0,0,1,.09,1v4.64a4.17,4.17,0,0,1-.1.94,1.54,1.54,0,0,1-.35.75,1.15,1.15,0,0,1-1.53,0,1.56,1.56,0,0,1-.37-.75,4.83,4.83,0,0,1-.1-.94Z" style="fill:#263238"></path><path d="M231.49,280.82V270.11h-1.07a2.11,2.11,0,0,1-.48.46,3.51,3.51,0,0,1-.6.33,5.63,5.63,0,0,1-.6.23l-.53.14v1.07l.29,0,.64-.12.64-.13a1.5,1.5,0,0,0,.3-.08v8.86Z" style="fill:#263238"></path><path d="M234.17,225.42a2.29,2.29,0,0,0-.87,1.11,4.39,4.39,0,0,0-.28,1.65v4.61a4.39,4.39,0,0,0,.29,1.63,2.39,2.39,0,0,0,.87,1.12,2.51,2.51,0,0,0,1.5.42,2.58,2.58,0,0,0,1.5-.41,2.44,2.44,0,0,0,.86-1.12,4.36,4.36,0,0,0,.29-1.64v-4.61a4.6,4.6,0,0,0-.28-1.65,2.39,2.39,0,0,0-.86-1.11,3.12,3.12,0,0,0-3,0Zm2.64,1.77a5.07,5.07,0,0,1,.09,1v4.65a4.83,4.83,0,0,1-.1.94,1.64,1.64,0,0,1-.36.75,1,1,0,0,1-.76.29,1,1,0,0,1-.76-.29,1.56,1.56,0,0,1-.37-.75,4.17,4.17,0,0,1-.1-.94v-4.65a5.07,5.07,0,0,1,.09-1,1.4,1.4,0,0,1,.36-.73,1,1,0,0,1,.78-.28,1,1,0,0,1,.77.28A1.48,1.48,0,0,1,236.81,227.19Z" style="fill:#263238"></path><path d="M231.56,220.55a2.58,2.58,0,0,0,1.5.41,2.65,2.65,0,0,0,1.5-.4,2.49,2.49,0,0,0,.86-1.12,4.44,4.44,0,0,0,.29-1.64v-4.62a4.6,4.6,0,0,0-.28-1.65,2.32,2.32,0,0,0-.86-1.1,3.05,3.05,0,0,0-3,0,2.28,2.28,0,0,0-.87,1.1,4.6,4.6,0,0,0-.28,1.65v4.62a4.29,4.29,0,0,0,.29,1.62A2.42,2.42,0,0,0,231.56,220.55Zm.27-7.38a5.1,5.1,0,0,1,.09-1,1.52,1.52,0,0,1,.36-.73,1.06,1.06,0,0,1,.78-.28,1,1,0,0,1,.78.28,1.61,1.61,0,0,1,.35.73,5.1,5.1,0,0,1,.09,1v4.64a4.25,4.25,0,0,1-.1.95,1.66,1.66,0,0,1-.36.74.93.93,0,0,1-.76.29,1,1,0,0,1-.76-.29,1.57,1.57,0,0,1-.37-.74,4.25,4.25,0,0,1-.1-.95Z" style="fill:#263238"></path><path d="M207,285.41a2.56,2.56,0,0,0-1.5-.4,2.62,2.62,0,0,0-1.52.4,2.34,2.34,0,0,0-.87,1.1,4.6,4.6,0,0,0-.27,1.65v4.62a4.3,4.3,0,0,0,.28,1.62,2.42,2.42,0,0,0,.87,1.13,2.64,2.64,0,0,0,1.51.41,2.57,2.57,0,0,0,1.49-.4,2.44,2.44,0,0,0,.87-1.12,4.41,4.41,0,0,0,.28-1.64v-4.62a4.39,4.39,0,0,0-.28-1.65A2.26,2.26,0,0,0,207,285.41Zm-.29,7.38a4.25,4.25,0,0,1-.1.95,1.55,1.55,0,0,1-.35.74,1.14,1.14,0,0,1-1.52,0,1.5,1.5,0,0,1-.38-.74,4.94,4.94,0,0,1-.09-.95v-4.64a4.92,4.92,0,0,1,.09-1,1.43,1.43,0,0,1,.36-.74,1.21,1.21,0,0,1,1.55,0,1.51,1.51,0,0,1,.35.74,4.92,4.92,0,0,1,.09,1Z" style="fill:#263238"></path><path d="M207,270.41a2.63,2.63,0,0,0-1.5-.39,2.7,2.7,0,0,0-1.52.39,2.41,2.41,0,0,0-.87,1.11,4.58,4.58,0,0,0-.27,1.64v4.62a4.39,4.39,0,0,0,.28,1.63,2.44,2.44,0,0,0,.87,1.12,3,3,0,0,0,3,0,2.39,2.39,0,0,0,.87-1.12,4.37,4.37,0,0,0,.28-1.64v-4.62a4.37,4.37,0,0,0-.28-1.64A2.33,2.33,0,0,0,207,270.41Zm-.29,7.38a4.19,4.19,0,0,1-.1.95,1.63,1.63,0,0,1-.35.75,1.14,1.14,0,0,1-1.52,0,1.57,1.57,0,0,1-.38-.75,4.86,4.86,0,0,1-.09-.95v-4.64a5,5,0,0,1,.09-1,1.43,1.43,0,0,1,.36-.74,1.25,1.25,0,0,1,1.55,0,1.51,1.51,0,0,1,.35.74,5,5,0,0,1,.09,1Z" style="fill:#263238"></path><path d="M276.23,220.55a3,3,0,0,0,3,0,2.44,2.44,0,0,0,.87-1.12,4.44,4.44,0,0,0,.28-1.64v-4.62a4.39,4.39,0,0,0-.28-1.65,2.26,2.26,0,0,0-.86-1.1,2.56,2.56,0,0,0-1.5-.4,2.62,2.62,0,0,0-1.52.4,2.34,2.34,0,0,0-.87,1.1,4.6,4.6,0,0,0-.27,1.65v4.62a4.3,4.3,0,0,0,.28,1.62A2.42,2.42,0,0,0,276.23,220.55Zm.27-7.38a5.08,5.08,0,0,1,.1-1,1.51,1.51,0,0,1,.35-.73,1.07,1.07,0,0,1,.79-.28,1,1,0,0,1,.77.28,1.51,1.51,0,0,1,.35.73,5.1,5.1,0,0,1,.09,1v4.64a4.25,4.25,0,0,1-.1.95,1.55,1.55,0,0,1-.35.74,1,1,0,0,1-.76.29,1,1,0,0,1-.77-.29,1.57,1.57,0,0,1-.37-.74,4.94,4.94,0,0,1-.1-.95Z" style="fill:#263238"></path><path d="M224.72,220.55a2.58,2.58,0,0,0,1.5.41,2.65,2.65,0,0,0,1.5-.4,2.49,2.49,0,0,0,.86-1.12,4.44,4.44,0,0,0,.29-1.64v-4.62a4.39,4.39,0,0,0-.28-1.65,2.32,2.32,0,0,0-.86-1.1,3.05,3.05,0,0,0-3,0,2.28,2.28,0,0,0-.87,1.1,4.6,4.6,0,0,0-.28,1.65v4.62a4.29,4.29,0,0,0,.29,1.62A2.42,2.42,0,0,0,224.72,220.55Zm.27-7.38a5.1,5.1,0,0,1,.09-1,1.62,1.62,0,0,1,.36-.73,1.06,1.06,0,0,1,.78-.28,1,1,0,0,1,.78.28,1.61,1.61,0,0,1,.35.73,5.1,5.1,0,0,1,.09,1v4.64a4.25,4.25,0,0,1-.1.95,1.66,1.66,0,0,1-.36.74.93.93,0,0,1-.76.29,1,1,0,0,1-.76-.29,1.57,1.57,0,0,1-.37-.74,4.25,4.25,0,0,1-.1-.95Z" style="fill:#263238"></path><path d="M246.33,226.28v1.08l.29-.06.64-.12c.23,0,.45-.08.64-.13a1.5,1.5,0,0,0,.3-.08v8.87h1.41V225.12h-1.07a1.91,1.91,0,0,1-.48.46,2.52,2.52,0,0,1-.6.33,5.77,5.77,0,0,1-.61.23C246.65,226.2,246.48,226.25,246.33,226.28Z" style="fill:#263238"></path><path d="M230.34,250.55a2.44,2.44,0,0,0,.86-1.12,4.4,4.4,0,0,0,.29-1.64v-4.62a4.37,4.37,0,0,0-.28-1.64,2.34,2.34,0,0,0-.86-1.11,3.05,3.05,0,0,0-3,0,2.3,2.3,0,0,0-.87,1.11,4.58,4.58,0,0,0-.28,1.64v4.62a4.39,4.39,0,0,0,.29,1.63,2.44,2.44,0,0,0,.87,1.12,3,3,0,0,0,3,0Zm-2.63-1.8a4.25,4.25,0,0,1-.1-.95v-4.64a5,5,0,0,1,.09-1,1.51,1.51,0,0,1,.36-.74,1.06,1.06,0,0,1,.78-.28,1,1,0,0,1,.78.28,1.6,1.6,0,0,1,.35.74,5,5,0,0,1,.09,1v4.64a4.25,4.25,0,0,1-.1.95,1.75,1.75,0,0,1-.36.75,1,1,0,0,1-.76.29,1,1,0,0,1-.76-.29A1.66,1.66,0,0,1,227.71,248.75Z" style="fill:#263238"></path><path d="M227.94,226.14l-.53.14v1.08l.29-.06.64-.12c.24,0,.45-.08.64-.13a1.5,1.5,0,0,0,.3-.08v8.87h1.41V225.12h-1.07a1.91,1.91,0,0,1-.48.46,2.52,2.52,0,0,1-.6.33A5.63,5.63,0,0,1,227.94,226.14Z" style="fill:#263238"></path><path d="M226.47,265.83V255.11H225.4a2.14,2.14,0,0,1-.48.47,3.51,3.51,0,0,1-.6.33l-.6.22-.53.15v1.07l.29-.05.64-.12.64-.14a1.5,1.5,0,0,0,.3-.08v8.87Z" style="fill:#263238"></path><path d="M181.05,212.19l.64-.13A1.94,1.94,0,0,0,182,212v8.86h1.42V210.12h-1.07a2,2,0,0,1-.48.47,3.51,3.51,0,0,1-.6.33,5.65,5.65,0,0,1-.61.22l-.52.15v1.07l.29-.05Z" style="fill:#263238"></path><path d="M280.36,251a2.57,2.57,0,0,0,1.49-.4,2.39,2.39,0,0,0,.87-1.12,4.41,4.41,0,0,0,.28-1.64v-4.62a4.37,4.37,0,0,0-.28-1.64,2.29,2.29,0,0,0-.86-1.11,2.65,2.65,0,0,0-1.5-.4,2.7,2.7,0,0,0-1.52.4,2.36,2.36,0,0,0-.87,1.11,4.58,4.58,0,0,0-.27,1.64v4.62a4.39,4.39,0,0,0,.28,1.63,2.44,2.44,0,0,0,.87,1.12A2.64,2.64,0,0,0,280.36,251Zm-1.24-7.79a5,5,0,0,1,.1-1,1.51,1.51,0,0,1,.35-.74,1.07,1.07,0,0,1,.79-.28,1,1,0,0,1,.77.28,1.51,1.51,0,0,1,.35.74,5,5,0,0,1,.09,1v4.64a4.25,4.25,0,0,1-.1.95,1.63,1.63,0,0,1-.35.75,1,1,0,0,1-.76.29,1,1,0,0,1-.77-.29,1.66,1.66,0,0,1-.37-.75,4.94,4.94,0,0,1-.1-.95Z" style="fill:#263238"></path><path d="M204.2,220.55a2.62,2.62,0,0,0,1.5.41,2.65,2.65,0,0,0,1.5-.4,2.44,2.44,0,0,0,.87-1.12,4.66,4.66,0,0,0,.28-1.64v-4.62a4.39,4.39,0,0,0-.28-1.65,2.26,2.26,0,0,0-.86-1.1,3.05,3.05,0,0,0-3,0,2.34,2.34,0,0,0-.87,1.1,4.6,4.6,0,0,0-.28,1.65v4.62a4.29,4.29,0,0,0,.29,1.62A2.42,2.42,0,0,0,204.2,220.55Zm.27-7.38a4.4,4.4,0,0,1,.1-1,1.51,1.51,0,0,1,.35-.73,1.06,1.06,0,0,1,.78-.28,1,1,0,0,1,.78.28,1.51,1.51,0,0,1,.35.73,5.1,5.1,0,0,1,.09,1v4.64a4.25,4.25,0,0,1-.1.95,1.47,1.47,0,0,1-.36.74.93.93,0,0,1-.76.29,1,1,0,0,1-.76-.29,1.57,1.57,0,0,1-.37-.74,4.94,4.94,0,0,1-.1-.95Z" style="fill:#263238"></path><path d="M203.18,235.54a2.92,2.92,0,0,0,3,0,2.39,2.39,0,0,0,.87-1.12,4.37,4.37,0,0,0,.28-1.64v-4.61a4.39,4.39,0,0,0-.28-1.65,2.33,2.33,0,0,0-.86-1.11,2.63,2.63,0,0,0-1.5-.39,2.7,2.7,0,0,0-1.52.39,2.41,2.41,0,0,0-.87,1.11,4.6,4.6,0,0,0-.27,1.65v4.61a4.39,4.39,0,0,0,.28,1.63A2.39,2.39,0,0,0,203.18,235.54Zm.27-7.38a5.06,5.06,0,0,1,.1-1,1.4,1.4,0,0,1,.36-.73,1.21,1.21,0,0,1,1.55,0,1.47,1.47,0,0,1,.35.73,5.07,5.07,0,0,1,.09,1v4.65a4.17,4.17,0,0,1-.1.94,1.54,1.54,0,0,1-.35.75,1,1,0,0,1-.76.29,1,1,0,0,1-.77-.29,1.56,1.56,0,0,1-.37-.75,4.83,4.83,0,0,1-.1-.94Z" style="fill:#263238"></path><path d="M206.54,250.83V240.12h-1.07a2.39,2.39,0,0,1-.49.46,3.42,3.42,0,0,1-.59.33c-.21.09-.41.16-.61.23s-.37.11-.52.14v1.07l.29,0,.63-.12.64-.13.3-.08v8.86Z" style="fill:#263238"></path><path d="M155.89,220.55a2.58,2.58,0,0,0,1.5.41,2.65,2.65,0,0,0,1.5-.4,2.49,2.49,0,0,0,.86-1.12,4.44,4.44,0,0,0,.29-1.64v-4.62a4.39,4.39,0,0,0-.28-1.65,2.32,2.32,0,0,0-.86-1.1,3.05,3.05,0,0,0-3,0,2.28,2.28,0,0,0-.87,1.1,4.6,4.6,0,0,0-.28,1.65v4.62a4.29,4.29,0,0,0,.29,1.62A2.42,2.42,0,0,0,155.89,220.55Zm.27-7.38a5.1,5.1,0,0,1,.09-1,1.62,1.62,0,0,1,.36-.73,1.06,1.06,0,0,1,.78-.28,1,1,0,0,1,.78.28,1.61,1.61,0,0,1,.35.73,5.1,5.1,0,0,1,.09,1v4.64a4.25,4.25,0,0,1-.1.95,1.66,1.66,0,0,1-.36.74.93.93,0,0,1-.76.29,1,1,0,0,1-.76-.29,1.57,1.57,0,0,1-.37-.74,4.25,4.25,0,0,1-.1-.95Z" style="fill:#263238"></path><path d="M198.94,285.57a3.42,3.42,0,0,1-.59.33,5.65,5.65,0,0,1-.61.22c-.2.07-.37.11-.52.15v1.07l.29,0,.63-.12.65-.13.29-.08v8.86h1.42V285.1h-1.07A2.19,2.19,0,0,1,198.94,285.57Z" style="fill:#263238"></path><path d="M198,250.54a2.58,2.58,0,0,0,1.5.41,2.54,2.54,0,0,0,1.49-.4,2.39,2.39,0,0,0,.87-1.12,4.41,4.41,0,0,0,.28-1.64v-4.62a4.58,4.58,0,0,0-.27-1.64,2.41,2.41,0,0,0-.86-1.11,3.07,3.07,0,0,0-3,0,2.29,2.29,0,0,0-.86,1.11,4.37,4.37,0,0,0-.28,1.64v4.62a4.39,4.39,0,0,0,.28,1.63A2.4,2.4,0,0,0,198,250.54Zm.27-7.38a5,5,0,0,1,.09-1,1.43,1.43,0,0,1,.36-.74,1.21,1.21,0,0,1,1.55,0,1.51,1.51,0,0,1,.35.74,5,5,0,0,1,.09,1v4.64a4.25,4.25,0,0,1-.1.95,1.63,1.63,0,0,1-.35.75,1,1,0,0,1-.76.29,1,1,0,0,1-.76-.29,1.56,1.56,0,0,1-.37-.75,4.25,4.25,0,0,1-.1-.95Z" style="fill:#263238"></path><path d="M203.11,262.79v-4.62a4.39,4.39,0,0,0-.28-1.65,2.26,2.26,0,0,0-.86-1.1,2.56,2.56,0,0,0-1.5-.4,2.62,2.62,0,0,0-1.52.4,2.34,2.34,0,0,0-.87,1.1,4.6,4.6,0,0,0-.27,1.65v4.62a4.33,4.33,0,0,0,.28,1.62,2.47,2.47,0,0,0,.87,1.13,2.64,2.64,0,0,0,1.51.41,2.57,2.57,0,0,0,1.49-.41,2.41,2.41,0,0,0,.87-1.11A4.44,4.44,0,0,0,203.11,262.79Zm-1.43,0a4.17,4.17,0,0,1-.1.94,1.54,1.54,0,0,1-.35.75,1,1,0,0,1-.76.29,1,1,0,0,1-.77-.29,1.56,1.56,0,0,1-.37-.75,4.83,4.83,0,0,1-.1-.94v-4.64a5.08,5.08,0,0,1,.1-1,1.4,1.4,0,0,1,.36-.73,1.21,1.21,0,0,1,1.55,0,1.47,1.47,0,0,1,.35.73,5.1,5.1,0,0,1,.09,1Z" style="fill:#263238"></path><path d="M198.94,270.57a3.42,3.42,0,0,1-.59.33,5.77,5.77,0,0,1-.61.23c-.2.06-.37.11-.52.14v1.07l.29,0,.63-.12.65-.13a1.27,1.27,0,0,0,.29-.08v8.86h1.42V270.11h-1.07A2.39,2.39,0,0,1,198.94,270.57Z" style="fill:#263238"></path><path d="M158.71,225.58a2.52,2.52,0,0,1-.6.33,5.05,5.05,0,0,1-.61.23,5.19,5.19,0,0,1-.52.14v1.08l.29-.06.64-.12c.24,0,.45-.08.64-.13a1.5,1.5,0,0,0,.3-.08v8.87h1.41V225.12h-1.07A1.91,1.91,0,0,1,158.71,225.58Z" style="fill:#263238"></path><path d="M207,300.23a2.56,2.56,0,0,0-1.5-.4,2.62,2.62,0,0,0-1.52.4,2.34,2.34,0,0,0-.87,1.1,4.64,4.64,0,0,0-.27,1.65v4.62a4.3,4.3,0,0,0,.28,1.62,2.42,2.42,0,0,0,.87,1.13,2.64,2.64,0,0,0,1.51.41,2.57,2.57,0,0,0,1.49-.41,2.36,2.36,0,0,0,.87-1.11,4.44,4.44,0,0,0,.28-1.64V303a4.42,4.42,0,0,0-.28-1.65A2.26,2.26,0,0,0,207,300.23Zm-.29,7.38a4.25,4.25,0,0,1-.1.95,1.55,1.55,0,0,1-.35.74,1.11,1.11,0,0,1-1.52,0,1.5,1.5,0,0,1-.38-.74,4.94,4.94,0,0,1-.09-.95V303a5.1,5.1,0,0,1,.09-1,1.44,1.44,0,0,1,.36-.73,1.21,1.21,0,0,1,1.55,0,1.51,1.51,0,0,1,.35.73,5.1,5.1,0,0,1,.09,1Z" style="fill:#263238"></path><path d="M211,315.21a3.84,3.84,0,0,1-.59.33,5.65,5.65,0,0,1-.61.22l-.52.15V317l.29-.05.63-.12.64-.13.3-.08V319l1.42.58v-4.85H211.5A2.14,2.14,0,0,1,211,315.21Z" style="fill:#263238"></path><path d="M163.92,270.41a2.67,2.67,0,0,0-1.51-.39,2.7,2.7,0,0,0-1.49.38l.57,1.25c0-.07.09-.15.14-.21a1.06,1.06,0,0,1,.78-.27,1,1,0,0,1,.78.27,1.6,1.6,0,0,1,.35.74,5,5,0,0,1,.09,1v2.76c.45.84.91,1.67,1.38,2.5,0-.21.05-.41.05-.63v-4.62a4.37,4.37,0,0,0-.28-1.64A2.39,2.39,0,0,0,163.92,270.41Z" style="fill:#263238"></path><path d="M327.9,265.83V255.11h-1.07a2.2,2.2,0,0,1-.49.47,3.08,3.08,0,0,1-.59.33c-.21.08-.41.16-.61.22l-.52.15v1.07l.29-.05.63-.12.65-.14a1.27,1.27,0,0,0,.29-.08v8.87Z" style="fill:#263238"></path><path d="M322.92,270.57a3.08,3.08,0,0,1-.59.33,5.77,5.77,0,0,1-.61.23c-.2.06-.37.11-.52.14v1.07l.29,0,.63-.12.65-.13a1.27,1.27,0,0,0,.29-.08v8.86h1.42V270.11h-1.07A2.16,2.16,0,0,1,322.92,270.57Z" style="fill:#263238"></path><path d="M331.58,255.58a3.42,3.42,0,0,1-.59.33c-.21.08-.41.16-.61.22l-.52.15v1.07l.29-.05.63-.12.65-.14a1.27,1.27,0,0,0,.29-.08v8.87h1.42V255.11h-1.07A2.43,2.43,0,0,1,331.58,255.58Z" style="fill:#263238"></path><path d="M338.22,220.55a3,3,0,0,0,3,0,2.33,2.33,0,0,0,.71-.84c-.26-2.14-.59-4.24-1-6.33v4.42a4.25,4.25,0,0,1-.1.95,1.55,1.55,0,0,1-.35.74,1.14,1.14,0,0,1-1.52,0,1.5,1.5,0,0,1-.38-.74,4.94,4.94,0,0,1-.09-.95v-4.64a5.1,5.1,0,0,1,.09-1,1.44,1.44,0,0,1,.36-.73,1.21,1.21,0,0,1,1.55,0l.08.12c-.1-.49-.2-1-.32-1.48a3,3,0,0,0-.53-.07,2.62,2.62,0,0,0-1.52.4,2.34,2.34,0,0,0-.87,1.1,4.6,4.6,0,0,0-.27,1.65v4.62a4.3,4.3,0,0,0,.28,1.62A2.42,2.42,0,0,0,338.22,220.55Z" style="fill:#263238"></path><path d="M157.69,255.58a3.51,3.51,0,0,1-.6.33l-.6.22-.53.15v.49l.16.55.13,0,.64-.12.64-.14a1.5,1.5,0,0,0,.3-.08v5.73c.37,1.05.75,2.1,1.16,3.14h.25V255.11h-1.07A2.14,2.14,0,0,1,157.69,255.58Z" style="fill:#263238"></path><path d="M312.45,285.57a3.51,3.51,0,0,1-.6.33,5,5,0,0,1-.61.22c-.19.07-.37.11-.52.15v1.07l.29,0,.64-.12.64-.13.3-.08v8.86H314V285.1h-1.07A2,2,0,0,1,312.45,285.57Z" style="fill:#263238"></path><path d="M254.09,315.21a3.08,3.08,0,0,1-.59.33,5.65,5.65,0,0,1-.61.22l-.52.15V317l.29-.05.63-.12.65-.13.29-.08v8.86h1.42V314.74h-1.07A2,2,0,0,1,254.09,315.21Z" style="fill:#263238"></path><path d="M247.21,280.82V270.11h-1.07a2.33,2.33,0,0,1-.48.46,3.51,3.51,0,0,1-.6.33,5.77,5.77,0,0,1-.61.23c-.2.06-.37.11-.52.14v1.07l.29,0,.63-.12.65-.13a1.09,1.09,0,0,0,.29-.08v8.86Z" style="fill:#263238"></path><path d="M317.69,285.57a3.51,3.51,0,0,1-.6.33,5.65,5.65,0,0,1-.61.22c-.2.07-.37.11-.52.15v1.07l.29,0,.64-.12.64-.13.3-.08v8.23l1.41-1.59v-8.5h-1.07A2,2,0,0,1,317.69,285.57Z" style="fill:#263238"></path><path d="M242,315.21a3.51,3.51,0,0,1-.6.33,5.65,5.65,0,0,1-.61.22l-.52.15V317l.29-.05.64-.12.64-.13.3-.08v8.86h1.41V314.74H242.5A2.14,2.14,0,0,1,242,315.21Z" style="fill:#263238"></path><path d="M273,300.39a3.84,3.84,0,0,1-.59.33,5.65,5.65,0,0,1-.61.22l-.52.15v1.07l.29-.05.63-.12.64-.13.3-.08v8.86h1.42V299.92H273.5A2.19,2.19,0,0,1,273,300.39Z" style="fill:#263238"></path><path d="M312.91,279.42a4.36,4.36,0,0,0,.29-1.64v-4.62a4.58,4.58,0,0,0-.28-1.64,2.39,2.39,0,0,0-.86-1.11,2.67,2.67,0,0,0-1.51-.39,2.72,2.72,0,0,0-1.52.39,2.33,2.33,0,0,0-.86,1.11,4.37,4.37,0,0,0-.28,1.64v4.62a4.6,4.6,0,0,0,.28,1.63,2.46,2.46,0,0,0,.88,1.12,3,3,0,0,0,3,0A2.39,2.39,0,0,0,312.91,279.42Zm-1.14-1.63a4.85,4.85,0,0,1-.1.95,1.75,1.75,0,0,1-.36.75,1,1,0,0,1-.76.29,1,1,0,0,1-.76-.29,1.56,1.56,0,0,1-.37-.75,4.19,4.19,0,0,1-.1-.95v-4.64a5,5,0,0,1,.09-1,1.43,1.43,0,0,1,.36-.74,1,1,0,0,1,.78-.27,1,1,0,0,1,.77.27,1.42,1.42,0,0,1,.35.74,4.31,4.31,0,0,1,.1,1Z" style="fill:#263238"></path><path d="M269,315.05a2.56,2.56,0,0,0-1.5-.4,2.62,2.62,0,0,0-1.52.4,2.34,2.34,0,0,0-.87,1.1,4.6,4.6,0,0,0-.27,1.65v4.62a4.3,4.3,0,0,0,.28,1.62,3,3,0,0,0,.28.5c.51-.09,1-.19,1.51-.3a.66.66,0,0,1-.17-.12,1.48,1.48,0,0,1-.37-.74,4.25,4.25,0,0,1-.1-.95v-4.64a5.1,5.1,0,0,1,.09-1,1.44,1.44,0,0,1,.36-.73,1.21,1.21,0,0,1,1.55,0,1.51,1.51,0,0,1,.35.73,5.1,5.1,0,0,1,.09,1v4.64a4.25,4.25,0,0,1-.1.95,1.6,1.6,0,0,1-.23.55l1.62-.38a5,5,0,0,0,.14-1.13V317.8a4.39,4.39,0,0,0-.28-1.65A2.26,2.26,0,0,0,269,315.05Z" style="fill:#263238"></path><path d="M281.06,315.05a3.05,3.05,0,0,0-3,0,2.34,2.34,0,0,0-.87,1.1,4.6,4.6,0,0,0-.27,1.65v3.8l1.42-.47v-3.34a4.4,4.4,0,0,1,.1-1,1.51,1.51,0,0,1,.35-.73,1.06,1.06,0,0,1,.78-.28,1,1,0,0,1,.78.28,1.51,1.51,0,0,1,.35.73,5.1,5.1,0,0,1,.09,1v2.46l1.43-.53V317.8a4.39,4.39,0,0,0-.28-1.65A2.26,2.26,0,0,0,281.06,315.05Z" style="fill:#263238"></path><path d="M175,265.83V255.11h-1.07a2.14,2.14,0,0,1-.48.47,3.51,3.51,0,0,1-.6.33c-.21.08-.41.16-.61.22l-.52.15v1.07l.29-.05.63-.12.65-.14a1.09,1.09,0,0,0,.29-.08v8.87Z" style="fill:#263238"></path><path d="M287.9,315.05a3.05,3.05,0,0,0-3,0,2.34,2.34,0,0,0-.87,1.1,4.6,4.6,0,0,0-.28,1.65v1.3l1.43-.61v-.7a4.4,4.4,0,0,1,.1-1,1.51,1.51,0,0,1,.35-.73,1.06,1.06,0,0,1,.78-.28,1,1,0,0,1,.78.28,1.51,1.51,0,0,1,.35.73,5.73,5.73,0,0,1,.06.61l1.35-.64a3.06,3.06,0,0,0-.17-.63A2.26,2.26,0,0,0,287.9,315.05Z" style="fill:#263238"></path><path d="M331,270.41a3.14,3.14,0,0,0-3,0,2.33,2.33,0,0,0-.86,1.11,4.37,4.37,0,0,0-.28,1.64v4.62a4.39,4.39,0,0,0,.28,1.63,2.4,2.4,0,0,0,.88,1.12,2.22,2.22,0,0,0,.64.3c.22-.36.44-.72.65-1.09a.88.88,0,0,1-.55-.25,1.56,1.56,0,0,1-.37-.75,4.19,4.19,0,0,1-.1-.95v-4.64a5,5,0,0,1,.09-1,1.43,1.43,0,0,1,.36-.74,1.25,1.25,0,0,1,1.55,0,1.51,1.51,0,0,1,.35.74,5,5,0,0,1,.09,1v4.13c.49-.88,1-1.76,1.43-2.66v-1.46a4.37,4.37,0,0,0-.28-1.64A2.38,2.38,0,0,0,331,270.41Z" style="fill:#263238"></path><path d="M176,285.41a3.05,3.05,0,0,0-3,0,2.22,2.22,0,0,0-.87,1.1,4.39,4.39,0,0,0-.28,1.65v.53l1.43,1.83v-2.37a4.92,4.92,0,0,1,.09-1,1.43,1.43,0,0,1,.36-.74,1.06,1.06,0,0,1,.78-.28,1,1,0,0,1,.77.28,1.42,1.42,0,0,1,.35.74,4.25,4.25,0,0,1,.1,1v4.64a3.93,3.93,0,0,1-.07.6l1.1,1.23c0-.07.08-.13.11-.2a4.4,4.4,0,0,0,.29-1.64v-4.62a4.6,4.6,0,0,0-.28-1.65A2.32,2.32,0,0,0,176,285.41Z" style="fill:#263238"></path><path d="M336.61,255.42a2.34,2.34,0,0,0-.87,1.1,4.6,4.6,0,0,0-.27,1.65v4.62a4.33,4.33,0,0,0,.28,1.62,2.43,2.43,0,0,0,.56.83c.23-.58.45-1.16.66-1.75a3.84,3.84,0,0,1-.07-.69v-4.64a5.1,5.1,0,0,1,.09-1,1.47,1.47,0,0,1,.35-.73,1,1,0,0,1,.79-.28,1,1,0,0,1,.77.28,1.27,1.27,0,0,1,.22.33c.13-.47.27-.94.39-1.42a3,3,0,0,0-2.9.06Z" style="fill:#263238"></path><path d="M342.35,234.79a1,1,0,0,1-.77-.29,1.56,1.56,0,0,1-.37-.75,4.83,4.83,0,0,1-.09-.94v-4.65a5.07,5.07,0,0,1,.09-1,1.47,1.47,0,0,1,.35-.73,1,1,0,0,1,.79-.28l.14,0c0-.39,0-.77-.07-1.16h-.07a2.7,2.7,0,0,0-1.52.39,2.41,2.41,0,0,0-.87,1.11,4.6,4.6,0,0,0-.27,1.65v4.61a4.39,4.39,0,0,0,.28,1.63,2.39,2.39,0,0,0,.87,1.12,2.56,2.56,0,0,0,1.51.42l.16,0c0-.4,0-.79.05-1.18A1.33,1.33,0,0,1,342.35,234.79Z" style="fill:#263238"></path><path d="M194.92,300.23a2.61,2.61,0,0,0-1.51-.4,2.64,2.64,0,0,0-1.52.4,2.26,2.26,0,0,0-.86,1.1,4.42,4.42,0,0,0-.28,1.65v4.43l1.52,1.11a4.53,4.53,0,0,1-.09-.91V303a5.1,5.1,0,0,1,.09-1,1.44,1.44,0,0,1,.36-.73,1.21,1.21,0,0,1,1.55,0,1.51,1.51,0,0,1,.35.73,5.1,5.1,0,0,1,.09,1v4.64a4.94,4.94,0,0,1-.09.95,1.66,1.66,0,0,1-.36.74.77.77,0,0,1-.43.24c.39.27.78.54,1.18.8a2.41,2.41,0,0,0,.85-1.1,4.44,4.44,0,0,0,.28-1.64V303a4.64,4.64,0,0,0-.27-1.65A2.38,2.38,0,0,0,194.92,300.23Z" style="fill:#263238"></path><path d="M219.07,315.05a3.05,3.05,0,0,0-3,0,2.34,2.34,0,0,0-.87,1.1,4.6,4.6,0,0,0-.28,1.65v2.68l1.43.51v-3.2a4.4,4.4,0,0,1,.1-1,1.51,1.51,0,0,1,.35-.73,1.06,1.06,0,0,1,.78-.28,1,1,0,0,1,.78.28,1.51,1.51,0,0,1,.35.73,5.1,5.1,0,0,1,.09,1v4l1.43.44V317.8a4.39,4.39,0,0,0-.28-1.65A2.26,2.26,0,0,0,219.07,315.05Z" style="fill:#263238"></path><path d="M223.1,300.39a3.51,3.51,0,0,1-.6.33,5.51,5.51,0,0,1-.6.22l-.53.15v1.07l.29-.05.64-.12.64-.13.3-.08v8.86h1.41V299.92h-1.07A2,2,0,0,1,223.1,300.39Z" style="fill:#263238"></path><path d="M262.15,315.05a3.07,3.07,0,0,0-3,0,2.26,2.26,0,0,0-.86,1.1,4.39,4.39,0,0,0-.28,1.65v4.62a4.3,4.3,0,0,0,.28,1.62,2.37,2.37,0,0,0,.88,1.13,1.88,1.88,0,0,0,.59.27c.84-.1,1.67-.22,2.49-.35a2.38,2.38,0,0,0,.78-1,4.44,4.44,0,0,0,.28-1.64V317.8a4.39,4.39,0,0,0-.28-1.65A2.3,2.3,0,0,0,262.15,315.05Zm-.3,7.38a4.25,4.25,0,0,1-.1.95,1.55,1.55,0,0,1-.35.74,1,1,0,0,1-.76.29,1,1,0,0,1-.76-.29,1.48,1.48,0,0,1-.37-.74,4.25,4.25,0,0,1-.1-.95v-4.64a5.1,5.1,0,0,1,.09-1,1.44,1.44,0,0,1,.36-.73,1.21,1.21,0,0,1,1.55,0,1.51,1.51,0,0,1,.35.73,5.1,5.1,0,0,1,.09,1Z" style="fill:#263238"></path><path d="M341,240.58a3.42,3.42,0,0,1-.59.33c-.21.09-.41.16-.61.23s-.37.11-.52.14v1.07l.29,0,.63-.12.64-.13.3-.08v5.77c.45-2.51.79-5.06,1-7.62h-.68A2.39,2.39,0,0,1,341,240.58Z" style="fill:#263238"></path><path d="M308.42,300.23a3.05,3.05,0,0,0-3,0,2.28,2.28,0,0,0-.87,1.1,4.63,4.63,0,0,0-.28,1.65v4.51c.48-.36,1-.72,1.43-1.09V303a5.1,5.1,0,0,1,.09-1,1.52,1.52,0,0,1,.36-.73,1.06,1.06,0,0,1,.78-.28,1,1,0,0,1,.78.28,1.61,1.61,0,0,1,.35.73,5.1,5.1,0,0,1,.09,1v1.47l1.43-1.2V303a4.63,4.63,0,0,0-.28-1.65A2.32,2.32,0,0,0,308.42,300.23Z" style="fill:#263238"></path><path d="M265.25,226.28v1.08l.29-.06.63-.12c.24,0,.45-.08.64-.13a1.5,1.5,0,0,0,.3-.08v8.87h1.42V225.12h-1.07a2.14,2.14,0,0,1-.49.46,2.67,2.67,0,0,1-.59.33,5.77,5.77,0,0,1-.61.23C265.57,226.2,265.4,226.25,265.25,226.28Z" style="fill:#263238"></path><path d="M176.79,250.55a2.44,2.44,0,0,0,.86-1.12,4.4,4.4,0,0,0,.29-1.64v-4.62a4.58,4.58,0,0,0-.28-1.64,2.34,2.34,0,0,0-.86-1.11,3.05,3.05,0,0,0-3,0,2.3,2.3,0,0,0-.87,1.11,4.37,4.37,0,0,0-.28,1.64v4.62a4.39,4.39,0,0,0,.29,1.63,2.44,2.44,0,0,0,.87,1.12,3,3,0,0,0,3,0Zm-2.63-1.8a4.25,4.25,0,0,1-.1-.95v-4.64a5,5,0,0,1,.09-1,1.43,1.43,0,0,1,.36-.74,1.06,1.06,0,0,1,.78-.28,1,1,0,0,1,.77.28,1.51,1.51,0,0,1,.36.74,5,5,0,0,1,.09,1v4.64a4.25,4.25,0,0,1-.1.95,1.75,1.75,0,0,1-.36.75,1,1,0,0,1-.76.29,1,1,0,0,1-.76-.29A1.66,1.66,0,0,1,174.16,248.75Z" style="fill:#263238"></path><path d="M172.09,225a2.72,2.72,0,0,0-1.52.39,2.33,2.33,0,0,0-.86,1.11,4.39,4.39,0,0,0-.28,1.65v4.61a4.39,4.39,0,0,0,.28,1.63,2.41,2.41,0,0,0,.88,1.12,2.9,2.9,0,0,0,3,0,2.39,2.39,0,0,0,.87-1.12,4.36,4.36,0,0,0,.29-1.64v-4.61a4.6,4.6,0,0,0-.28-1.65,2.39,2.39,0,0,0-.86-1.11A2.67,2.67,0,0,0,172.09,225Zm1.22,7.78a4.83,4.83,0,0,1-.1.94,1.64,1.64,0,0,1-.36.75,1,1,0,0,1-.76.29,1,1,0,0,1-.76-.29,1.48,1.48,0,0,1-.37-.75,4.17,4.17,0,0,1-.1-.94v-4.65a5.07,5.07,0,0,1,.09-1,1.4,1.4,0,0,1,.36-.73,1,1,0,0,1,.78-.28,1,1,0,0,1,.77.28,1.39,1.39,0,0,1,.35.73,4.37,4.37,0,0,1,.1,1Z" style="fill:#263238"></path><path d="M175.81,212.19l.64-.13.3-.08v8.86h1.41V210.12h-1.07a2,2,0,0,1-.48.47,3.51,3.51,0,0,1-.6.33,5.65,5.65,0,0,1-.61.22l-.52.15v1.07l.29-.05Z" style="fill:#263238"></path><path d="M273,315.21a3.84,3.84,0,0,1-.59.33,5.65,5.65,0,0,1-.61.22l-.52.15V317l.29-.05.63-.12.64-.13.3-.08v6.13l1.42-.41v-7.58H273.5A2.43,2.43,0,0,1,273,315.21Z" style="fill:#263238"></path><path d="M176.55,226.53a4.39,4.39,0,0,0-.28,1.65v4.61a4.39,4.39,0,0,0,.28,1.63,2.35,2.35,0,0,0,.88,1.12,2.9,2.9,0,0,0,3,0,2.39,2.39,0,0,0,.87-1.12,4.37,4.37,0,0,0,.28-1.64v-4.61a4.6,4.6,0,0,0-.27-1.65,2.46,2.46,0,0,0-.86-1.11,2.67,2.67,0,0,0-1.51-.39,2.72,2.72,0,0,0-1.52.39A2.33,2.33,0,0,0,176.55,226.53Zm1.15,1.63a5.07,5.07,0,0,1,.09-1,1.4,1.4,0,0,1,.36-.73,1.21,1.21,0,0,1,1.55,0,1.47,1.47,0,0,1,.35.73,5.06,5.06,0,0,1,.1,1v4.65a4.83,4.83,0,0,1-.1.94,1.64,1.64,0,0,1-.36.75,1,1,0,0,1-.76.29,1,1,0,0,1-.76-.29,1.48,1.48,0,0,1-.37-.75,4.17,4.17,0,0,1-.1-.94Z" style="fill:#263238"></path><path d="M301.58,300.23a3.05,3.05,0,0,0-3,0,2.34,2.34,0,0,0-.87,1.1,4.63,4.63,0,0,0-.28,1.65v4.62a4.29,4.29,0,0,0,.29,1.62,2.42,2.42,0,0,0,.87,1.13,2.51,2.51,0,0,0,1.07.36c1-.66,2-1.32,2.94-2a4.73,4.73,0,0,0,.14-1.1V303a4.42,4.42,0,0,0-.28-1.65A2.26,2.26,0,0,0,301.58,300.23Zm-.29,7.38a4.25,4.25,0,0,1-.1.95,1.56,1.56,0,0,1-.36.74.94.94,0,0,1-.76.3,1,1,0,0,1-.76-.3,1.57,1.57,0,0,1-.37-.74,4.94,4.94,0,0,1-.1-.95V303a4.4,4.4,0,0,1,.1-1,1.51,1.51,0,0,1,.35-.73,1.06,1.06,0,0,1,.78-.28,1,1,0,0,1,.78.28,1.51,1.51,0,0,1,.35.73,5.1,5.1,0,0,1,.09,1Z" style="fill:#263238"></path><path d="M211,300.39a3.84,3.84,0,0,1-.59.33,5.65,5.65,0,0,1-.61.22l-.52.15v1.07l.29-.05.63-.12.64-.13.3-.08v8.86h1.42V299.92H211.5A2,2,0,0,1,211,300.39Z" style="fill:#263238"></path><path d="M250.07,315.05a2.59,2.59,0,0,0-1.51-.4,2.64,2.64,0,0,0-1.52.4,2.26,2.26,0,0,0-.86,1.1,4.39,4.39,0,0,0-.28,1.65v4.62a4.3,4.3,0,0,0,.28,1.62,2.37,2.37,0,0,0,.88,1.13,3,3,0,0,0,3,0,2.44,2.44,0,0,0,.87-1.12,4.44,4.44,0,0,0,.28-1.64V317.8a4.6,4.6,0,0,0-.27-1.65A2.38,2.38,0,0,0,250.07,315.05Zm-.29,7.38a4.94,4.94,0,0,1-.1.95,1.66,1.66,0,0,1-.36.74,1,1,0,0,1-.76.29,1,1,0,0,1-.76-.29,1.48,1.48,0,0,1-.37-.74,4.25,4.25,0,0,1-.1-.95v-4.64a5.1,5.1,0,0,1,.09-1,1.44,1.44,0,0,1,.36-.73,1.21,1.21,0,0,1,1.55,0,1.51,1.51,0,0,1,.35.73,4.4,4.4,0,0,1,.1,1Z" style="fill:#263238"></path><path d="M167,241.28v1.07l.29,0,.64-.12.64-.13.3-.08v8.86h1.41V240.12h-1.07a2.11,2.11,0,0,1-.48.46,3.51,3.51,0,0,1-.6.33c-.2.09-.41.16-.6.23Z" style="fill:#263238"></path><path d="M167.37,257.18,168,257a1.5,1.5,0,0,0,.3-.08v8.87h1.41V255.11h-1.07a2.14,2.14,0,0,1-.48.47,3.51,3.51,0,0,1-.6.33c-.21.08-.41.16-.61.22l-.52.15v1.07l.29-.05Z" style="fill:#263238"></path><path d="M169.57,220.55a2.58,2.58,0,0,0,1.5.41,2.65,2.65,0,0,0,1.5-.4,2.49,2.49,0,0,0,.86-1.12,4.44,4.44,0,0,0,.29-1.64v-4.62a4.6,4.6,0,0,0-.28-1.65,2.32,2.32,0,0,0-.86-1.1,3.05,3.05,0,0,0-3,0,2.22,2.22,0,0,0-.87,1.1,4.39,4.39,0,0,0-.28,1.65v4.62a4.29,4.29,0,0,0,.29,1.62A2.42,2.42,0,0,0,169.57,220.55Zm.27-7.38a5.1,5.1,0,0,1,.09-1,1.44,1.44,0,0,1,.36-.73,1.06,1.06,0,0,1,.78-.28,1,1,0,0,1,.77.28,1.52,1.52,0,0,1,.36.73,5.1,5.1,0,0,1,.09,1v4.64a4.94,4.94,0,0,1-.1.95,1.66,1.66,0,0,1-.36.74.93.93,0,0,1-.76.29,1,1,0,0,1-.76-.29,1.57,1.57,0,0,1-.37-.74,4.25,4.25,0,0,1-.1-.95Z" style="fill:#263238"></path><path d="M171.9,273.16a4.58,4.58,0,0,0-.28-1.64,2.39,2.39,0,0,0-.86-1.11,3.12,3.12,0,0,0-3,0,2.35,2.35,0,0,0-.87,1.11,4.58,4.58,0,0,0-.28,1.64v4.62a4.39,4.39,0,0,0,.29,1.63,2.44,2.44,0,0,0,.87,1.12,2.51,2.51,0,0,0,1.5.41,2.58,2.58,0,0,0,1.5-.4,2.44,2.44,0,0,0,.86-1.12,4.36,4.36,0,0,0,.29-1.64Zm-1.43,4.63a4.19,4.19,0,0,1-.1.95,1.75,1.75,0,0,1-.36.75,1,1,0,0,1-.76.29,1,1,0,0,1-.76-.29,1.66,1.66,0,0,1-.37-.75,4.19,4.19,0,0,1-.1-.95v-4.64a5,5,0,0,1,.09-1,1.51,1.51,0,0,1,.36-.74,1.06,1.06,0,0,1,.78-.27,1,1,0,0,1,.78.27,1.6,1.6,0,0,1,.35.74,5,5,0,0,1,.09,1Z" style="fill:#263238"></path><path d="M186.87,285.57a3.51,3.51,0,0,1-.6.33,5.65,5.65,0,0,1-.61.22c-.2.07-.37.11-.52.15v1.07l.29,0,.64-.12.64-.13A1.94,1.94,0,0,0,187,287v8.86h1.42V285.1h-1.07A2,2,0,0,1,186.87,285.57Z" style="fill:#263238"></path><path d="M164.48,265.83V255.11h-1.07a2.14,2.14,0,0,1-.48.47,3.51,3.51,0,0,1-.6.33c-.2.08-.41.16-.61.22l-.52.15v1.07l.29-.05.64-.12.64-.14a1.5,1.5,0,0,0,.3-.08v8.87Z" style="fill:#263238"></path><path d="M318.9,270.41a2.67,2.67,0,0,0-1.51-.39,2.72,2.72,0,0,0-1.52.39,2.33,2.33,0,0,0-.86,1.11,4.37,4.37,0,0,0-.28,1.64v4.62a4.6,4.6,0,0,0,.28,1.63,2.46,2.46,0,0,0,.88,1.12,3,3,0,0,0,3,0,2.39,2.39,0,0,0,.87-1.12,4.36,4.36,0,0,0,.29-1.64v-4.62a4.58,4.58,0,0,0-.28-1.64A2.39,2.39,0,0,0,318.9,270.41Zm-.29,7.38a4.85,4.85,0,0,1-.1.95,1.75,1.75,0,0,1-.36.75,1,1,0,0,1-.76.29,1,1,0,0,1-.76-.29,1.56,1.56,0,0,1-.37-.75,4.19,4.19,0,0,1-.1-.95v-4.64a5,5,0,0,1,.09-1,1.43,1.43,0,0,1,.36-.74,1,1,0,0,1,.78-.27,1,1,0,0,1,.77.27,1.51,1.51,0,0,1,.35.74,4.31,4.31,0,0,1,.1,1Z" style="fill:#263238"></path><path d="M164.72,240.42a3.05,3.05,0,0,0-3,0,2.36,2.36,0,0,0-.87,1.11,4.58,4.58,0,0,0-.28,1.64v4.62a4.39,4.39,0,0,0,.29,1.63,2.44,2.44,0,0,0,.87,1.12,3,3,0,0,0,3,0,2.37,2.37,0,0,0,.86-1.12,4.4,4.4,0,0,0,.29-1.64v-4.62a4.37,4.37,0,0,0-.28-1.64A2.29,2.29,0,0,0,164.72,240.42Zm-.29,7.38a4.25,4.25,0,0,1-.1.95,1.64,1.64,0,0,1-.36.75,1,1,0,0,1-.76.29,1,1,0,0,1-.76-.29,1.66,1.66,0,0,1-.37-.75,4.94,4.94,0,0,1-.1-.95v-4.64a4.31,4.31,0,0,1,.1-1,1.51,1.51,0,0,1,.35-.74,1.06,1.06,0,0,1,.78-.28,1,1,0,0,1,.78.28,1.51,1.51,0,0,1,.35.74,5,5,0,0,1,.09,1Z" style="fill:#263238"></path><path d="M198.94,300.39a3.42,3.42,0,0,1-.59.33,5.65,5.65,0,0,1-.61.22l-.52.15v1.07l.29-.05.63-.12.65-.13.29-.08v8.86h1.42V299.92h-1.07A2.19,2.19,0,0,1,198.94,300.39Z" style="fill:#263238"></path><path d="M188.47,270.57a3.51,3.51,0,0,1-.6.33,5.77,5.77,0,0,1-.61.23c-.2.06-.37.11-.52.14v1.07l.29,0,.64-.12.64-.13a1.5,1.5,0,0,0,.3-.08v8.86H190V270.11H189A2.11,2.11,0,0,1,188.47,270.57Z" style="fill:#263238"></path><path d="M162.73,220.55a2.58,2.58,0,0,0,1.5.41,2.65,2.65,0,0,0,1.5-.4,2.49,2.49,0,0,0,.86-1.12,4.44,4.44,0,0,0,.29-1.64v-4.62a4.6,4.6,0,0,0-.28-1.65,2.32,2.32,0,0,0-.86-1.1,3.05,3.05,0,0,0-3,0,2.28,2.28,0,0,0-.87,1.1,4.39,4.39,0,0,0-.28,1.65v4.62a4.29,4.29,0,0,0,.29,1.62A2.42,2.42,0,0,0,162.73,220.55Zm.27-7.38a5.1,5.1,0,0,1,.09-1,1.52,1.52,0,0,1,.36-.73,1.06,1.06,0,0,1,.78-.28,1,1,0,0,1,.78.28,1.61,1.61,0,0,1,.35.73,5.1,5.1,0,0,1,.09,1v4.64a4.25,4.25,0,0,1-.1.95,1.66,1.66,0,0,1-.36.74.93.93,0,0,1-.76.29,1,1,0,0,1-.76-.29,1.57,1.57,0,0,1-.37-.74,4.25,4.25,0,0,1-.1-.95Z" style="fill:#263238"></path><path d="M165.25,225a2.67,2.67,0,0,0-1.51.39,2.29,2.29,0,0,0-.87,1.11,4.39,4.39,0,0,0-.28,1.65v4.61a4.39,4.39,0,0,0,.29,1.63,2.33,2.33,0,0,0,.87,1.12,2.51,2.51,0,0,0,1.5.42,2.58,2.58,0,0,0,1.5-.41,2.44,2.44,0,0,0,.86-1.12,4.36,4.36,0,0,0,.29-1.64v-4.61a4.6,4.6,0,0,0-.28-1.65,2.39,2.39,0,0,0-.86-1.11A2.67,2.67,0,0,0,165.25,225Zm1.22,7.78a4.83,4.83,0,0,1-.1.94,1.64,1.64,0,0,1-.36.75,1,1,0,0,1-.76.29,1,1,0,0,1-.76-.29,1.56,1.56,0,0,1-.37-.75,4.17,4.17,0,0,1-.1-.94v-4.65a5.07,5.07,0,0,1,.09-1,1.4,1.4,0,0,1,.36-.73,1,1,0,0,1,.78-.28,1,1,0,0,1,.77.28,1.39,1.39,0,0,1,.35.73,4.37,4.37,0,0,1,.1,1Z" style="fill:#263238"></path><path d="M182.38,250.83V240.12h-1.07a2.11,2.11,0,0,1-.48.46,3.51,3.51,0,0,1-.6.33c-.21.09-.41.16-.61.23a5.19,5.19,0,0,1-.52.14v1.07l.29,0,.64-.12.64-.13.3-.08v8.86Z" style="fill:#263238"></path><path d="M269.39,220.55a3,3,0,0,0,3,0,2.44,2.44,0,0,0,.87-1.12,4.44,4.44,0,0,0,.28-1.64v-4.62a4.39,4.39,0,0,0-.28-1.65,2.26,2.26,0,0,0-.86-1.1,2.56,2.56,0,0,0-1.5-.4,2.62,2.62,0,0,0-1.52.4,2.34,2.34,0,0,0-.87,1.1,4.6,4.6,0,0,0-.27,1.65v4.62a4.3,4.3,0,0,0,.28,1.62A2.42,2.42,0,0,0,269.39,220.55Zm.28-7.38a5.1,5.1,0,0,1,.09-1,1.44,1.44,0,0,1,.36-.73,1.21,1.21,0,0,1,1.55,0,1.51,1.51,0,0,1,.35.73,5.1,5.1,0,0,1,.09,1v4.64a4.25,4.25,0,0,1-.1.95,1.55,1.55,0,0,1-.35.74,1,1,0,0,1-.76.29,1,1,0,0,1-.76-.29,1.41,1.41,0,0,1-.37-.74,4.25,4.25,0,0,1-.1-.95Z" style="fill:#263238"></path><path d="M317.06,265.54a2.41,2.41,0,0,0,.87-1.11,4.44,4.44,0,0,0,.29-1.64v-4.62a4.6,4.6,0,0,0-.28-1.65,2.32,2.32,0,0,0-.86-1.1,2.59,2.59,0,0,0-1.51-.4,2.64,2.64,0,0,0-1.52.4,2.26,2.26,0,0,0-.86,1.1,4.39,4.39,0,0,0-.28,1.65v4.62a4.33,4.33,0,0,0,.29,1.62,2.4,2.4,0,0,0,.87,1.13,2.58,2.58,0,0,0,1.5.41A2.53,2.53,0,0,0,317.06,265.54Zm-2.62-1.8a4.17,4.17,0,0,1-.1-.94v-4.64a5.1,5.1,0,0,1,.09-1,1.4,1.4,0,0,1,.36-.73,1,1,0,0,1,.78-.28,1,1,0,0,1,.77.28,1.39,1.39,0,0,1,.35.73,4.4,4.4,0,0,1,.1,1v4.64a4.83,4.83,0,0,1-.1.94,1.64,1.64,0,0,1-.36.75.93.93,0,0,1-.76.29,1,1,0,0,1-.76-.29A1.48,1.48,0,0,1,314.44,263.74Z" style="fill:#263238"></path><path d="M272,225.42a2.41,2.41,0,0,0-.87,1.11,4.6,4.6,0,0,0-.27,1.65v4.61a4.39,4.39,0,0,0,.28,1.63,2.39,2.39,0,0,0,.87,1.12,2.92,2.92,0,0,0,3,0,2.39,2.39,0,0,0,.87-1.12,4.37,4.37,0,0,0,.28-1.64v-4.61a4.39,4.39,0,0,0-.28-1.65,2.33,2.33,0,0,0-.86-1.11,2.63,2.63,0,0,0-1.5-.39A2.7,2.7,0,0,0,272,225.42Zm2.64,1.77a5.07,5.07,0,0,1,.09,1v4.65a4.17,4.17,0,0,1-.1.94,1.54,1.54,0,0,1-.35.75,1,1,0,0,1-.76.29,1,1,0,0,1-.77-.29,1.56,1.56,0,0,1-.37-.75,4.83,4.83,0,0,1-.09-.94v-4.65a5.07,5.07,0,0,1,.09-1,1.4,1.4,0,0,1,.36-.73,1.21,1.21,0,0,1,1.55,0A1.47,1.47,0,0,1,274.64,227.19Z" style="fill:#263238"></path><path d="M321.25,265.83h1.41V255.11h-1.07a2.14,2.14,0,0,1-.48.47,3.51,3.51,0,0,1-.6.33c-.21.08-.41.16-.61.22l-.52.15v1.07l.29-.05.64-.12L321,257a1.5,1.5,0,0,0,.3-.08Z" style="fill:#263238"></path><path d="M242,285.57a3.51,3.51,0,0,1-.6.33,5.65,5.65,0,0,1-.61.22c-.19.07-.37.11-.52.15v1.07l.29,0,.64-.12.64-.13.3-.08v8.86h1.41V285.1H242.5A2,2,0,0,1,242,285.57Z" style="fill:#263238"></path><path d="M244,265.83h1.41V255.11h-1.07a2.14,2.14,0,0,1-.48.47,3.51,3.51,0,0,1-.6.33c-.21.08-.41.16-.61.22l-.52.15v1.07l.29-.05.64-.12.64-.14a1.5,1.5,0,0,0,.3-.08Z" style="fill:#263238"></path><path d="M290.92,225.42a2.41,2.41,0,0,0-.87,1.11,4.6,4.6,0,0,0-.28,1.65v4.61a4.39,4.39,0,0,0,.29,1.63,2.39,2.39,0,0,0,.87,1.12,2.51,2.51,0,0,0,1.5.42,2.58,2.58,0,0,0,1.5-.41,2.37,2.37,0,0,0,.86-1.12,4.36,4.36,0,0,0,.29-1.64v-4.61a4.39,4.39,0,0,0-.28-1.65,2.33,2.33,0,0,0-.86-1.11,3.12,3.12,0,0,0-3,0Zm2.64,1.77a5.07,5.07,0,0,1,.09,1v4.65a4.17,4.17,0,0,1-.1.94,1.55,1.55,0,0,1-.36.75,1,1,0,0,1-.76.29,1,1,0,0,1-.76-.29,1.56,1.56,0,0,1-.37-.75,4.83,4.83,0,0,1-.1-.94v-4.65a5.07,5.07,0,0,1,.09-1,1.57,1.57,0,0,1,.36-.73,1,1,0,0,1,.78-.28,1,1,0,0,1,.78.28A1.47,1.47,0,0,1,293.56,227.19Z" style="fill:#263238"></path><path d="M240.56,280.82H242V270.11H240.9a2.11,2.11,0,0,1-.48.46,3.51,3.51,0,0,1-.6.33,5.77,5.77,0,0,1-.61.23c-.2.06-.37.11-.52.14v1.07l.29,0,.64-.12.64-.13a1.5,1.5,0,0,0,.3-.08Z" style="fill:#263238"></path><path d="M273,285.57a3.84,3.84,0,0,1-.59.33,5.65,5.65,0,0,1-.61.22c-.2.07-.37.11-.52.15v1.07l.29,0,.63-.12.64-.13.3-.08v8.86h1.42V285.1H273.5A2.19,2.19,0,0,1,273,285.57Z" style="fill:#263238"></path><path d="M238,285.41a3.05,3.05,0,0,0-3,0,2.28,2.28,0,0,0-.87,1.1,4.39,4.39,0,0,0-.28,1.65v4.62a4.29,4.29,0,0,0,.29,1.62,2.42,2.42,0,0,0,.87,1.13,3,3,0,0,0,3,0,2.49,2.49,0,0,0,.86-1.12,4.4,4.4,0,0,0,.29-1.64v-4.62a4.6,4.6,0,0,0-.28-1.65A2.32,2.32,0,0,0,238,285.41Zm-.29,7.38a4.94,4.94,0,0,1-.1.95,1.66,1.66,0,0,1-.36.74.93.93,0,0,1-.76.29,1,1,0,0,1-.76-.29,1.57,1.57,0,0,1-.37-.74,4.25,4.25,0,0,1-.1-.95v-4.64a4.92,4.92,0,0,1,.09-1,1.43,1.43,0,0,1,.36-.74,1.06,1.06,0,0,1,.78-.28,1,1,0,0,1,.77.28,1.51,1.51,0,0,1,.36.74,4.92,4.92,0,0,1,.09,1Z" style="fill:#263238"></path><path d="M250.07,285.41a2.59,2.59,0,0,0-1.51-.4,2.64,2.64,0,0,0-1.52.4,2.26,2.26,0,0,0-.86,1.1,4.39,4.39,0,0,0-.28,1.65v4.62a4.3,4.3,0,0,0,.28,1.62,2.37,2.37,0,0,0,.88,1.13,2.58,2.58,0,0,0,1.5.41,2.52,2.52,0,0,0,1.49-.4,2.44,2.44,0,0,0,.87-1.12,4.41,4.41,0,0,0,.28-1.64v-4.62a4.6,4.6,0,0,0-.27-1.65A2.38,2.38,0,0,0,250.07,285.41Zm-.29,7.38a4.94,4.94,0,0,1-.1.95,1.66,1.66,0,0,1-.36.74,1,1,0,0,1-.76.29,1,1,0,0,1-.76-.29,1.48,1.48,0,0,1-.37-.74,4.25,4.25,0,0,1-.1-.95v-4.64a4.92,4.92,0,0,1,.09-1,1.43,1.43,0,0,1,.36-.74,1.21,1.21,0,0,1,1.55,0,1.51,1.51,0,0,1,.35.74,4.25,4.25,0,0,1,.1,1Z" style="fill:#263238"></path><path d="M254.09,300.39a3.08,3.08,0,0,1-.59.33,5.65,5.65,0,0,1-.61.22l-.52.15v1.07l.29-.05.63-.12.65-.13a1.94,1.94,0,0,0,.29-.08v8.86h1.42V299.92h-1.07A1.83,1.83,0,0,1,254.09,300.39Z" style="fill:#263238"></path><path d="M252.45,280.82V270.11h-1.07a2.39,2.39,0,0,1-.49.46,3.42,3.42,0,0,1-.59.33,5.77,5.77,0,0,1-.61.23c-.2.06-.37.11-.52.14v1.07l.29,0,.63-.12.65-.13L251,272v8.86Z" style="fill:#263238"></path><path d="M250.07,300.23a2.59,2.59,0,0,0-1.51-.4,2.64,2.64,0,0,0-1.52.4,2.26,2.26,0,0,0-.86,1.1,4.42,4.42,0,0,0-.28,1.65v4.62a4.3,4.3,0,0,0,.28,1.62,2.37,2.37,0,0,0,.88,1.13,2.58,2.58,0,0,0,1.5.41,2.53,2.53,0,0,0,1.49-.41,2.36,2.36,0,0,0,.87-1.11,4.44,4.44,0,0,0,.28-1.64V303a4.64,4.64,0,0,0-.27-1.65A2.38,2.38,0,0,0,250.07,300.23Zm-.29,7.38a4.94,4.94,0,0,1-.1.95,1.66,1.66,0,0,1-.36.74,1,1,0,0,1-.76.3,1,1,0,0,1-.76-.3,1.48,1.48,0,0,1-.37-.74,4.25,4.25,0,0,1-.1-.95V303a5.1,5.1,0,0,1,.09-1,1.44,1.44,0,0,1,.36-.73,1.21,1.21,0,0,1,1.55,0,1.51,1.51,0,0,1,.35.73,4.4,4.4,0,0,1,.1,1Z" style="fill:#263238"></path><path d="M254.09,285.57a3.08,3.08,0,0,1-.59.33,5.65,5.65,0,0,1-.61.22c-.2.07-.37.11-.52.15v1.07l.29,0,.63-.12.65-.13a1.94,1.94,0,0,0,.29-.08v8.86h1.42V285.1h-1.07A1.83,1.83,0,0,1,254.09,285.57Z" style="fill:#263238"></path><path d="M294.74,285.41a3.05,3.05,0,0,0-3,0,2.34,2.34,0,0,0-.87,1.1,4.6,4.6,0,0,0-.28,1.65v4.62a4.29,4.29,0,0,0,.29,1.62,2.42,2.42,0,0,0,.87,1.13,3,3,0,0,0,3,0,2.42,2.42,0,0,0,.86-1.12,4.4,4.4,0,0,0,.29-1.64v-4.62a4.39,4.39,0,0,0-.28-1.65A2.26,2.26,0,0,0,294.74,285.41Zm-.29,7.38a4.25,4.25,0,0,1-.1.95,1.47,1.47,0,0,1-.36.74.93.93,0,0,1-.76.29,1,1,0,0,1-.76-.29,1.57,1.57,0,0,1-.37-.74,4.94,4.94,0,0,1-.1-.95v-4.64a4.25,4.25,0,0,1,.1-1,1.51,1.51,0,0,1,.35-.74,1.06,1.06,0,0,1,.78-.28,1,1,0,0,1,.78.28,1.51,1.51,0,0,1,.35.74,4.92,4.92,0,0,1,.09,1Z" style="fill:#263238"></path><path d="M294.74,300.23a3.05,3.05,0,0,0-3,0,2.34,2.34,0,0,0-.87,1.1,4.63,4.63,0,0,0-.28,1.65v4.62a4.29,4.29,0,0,0,.29,1.62,2.42,2.42,0,0,0,.87,1.13,2.95,2.95,0,0,0,3,0,2.34,2.34,0,0,0,.86-1.11,4.44,4.44,0,0,0,.29-1.64V303a4.42,4.42,0,0,0-.28-1.65A2.26,2.26,0,0,0,294.74,300.23Zm-.29,7.38a4.25,4.25,0,0,1-.1.95,1.47,1.47,0,0,1-.36.74.94.94,0,0,1-.76.3,1,1,0,0,1-.76-.3,1.57,1.57,0,0,1-.37-.74,4.94,4.94,0,0,1-.1-.95V303a4.4,4.4,0,0,1,.1-1,1.51,1.51,0,0,1,.35-.73,1.06,1.06,0,0,1,.78-.28,1,1,0,0,1,.78.28,1.51,1.51,0,0,1,.35.73,5.1,5.1,0,0,1,.09,1Z" style="fill:#263238"></path><path d="M242,300.39a3.51,3.51,0,0,1-.6.33,5.65,5.65,0,0,1-.61.22l-.52.15v1.07l.29-.05.64-.12.64-.13.3-.08v8.86h1.41V299.92H242.5A2,2,0,0,1,242,300.39Z" style="fill:#263238"></path><path d="M238,300.23a3.05,3.05,0,0,0-3,0,2.28,2.28,0,0,0-.87,1.1,4.42,4.42,0,0,0-.28,1.65v4.62a4.29,4.29,0,0,0,.29,1.62,2.42,2.42,0,0,0,.87,1.13,2.95,2.95,0,0,0,3,0,2.41,2.41,0,0,0,.86-1.11,4.44,4.44,0,0,0,.29-1.64V303a4.63,4.63,0,0,0-.28-1.65A2.32,2.32,0,0,0,238,300.23Zm-.29,7.38a4.94,4.94,0,0,1-.1.95,1.66,1.66,0,0,1-.36.74.94.94,0,0,1-.76.3,1,1,0,0,1-.76-.3,1.57,1.57,0,0,1-.37-.74,4.25,4.25,0,0,1-.1-.95V303a5.1,5.1,0,0,1,.09-1,1.44,1.44,0,0,1,.36-.73,1.06,1.06,0,0,1,.78-.28,1,1,0,0,1,.77.28,1.52,1.52,0,0,1,.36.73,5.1,5.1,0,0,1,.09,1Z" style="fill:#263238"></path><path d="M238.4,220.55a2.58,2.58,0,0,0,1.5.41,2.65,2.65,0,0,0,1.5-.4,2.49,2.49,0,0,0,.86-1.12,4.44,4.44,0,0,0,.29-1.64v-4.62a4.6,4.6,0,0,0-.28-1.65,2.32,2.32,0,0,0-.86-1.1,3.05,3.05,0,0,0-3,0,2.28,2.28,0,0,0-.87,1.1,4.39,4.39,0,0,0-.28,1.65v4.62a4.29,4.29,0,0,0,.29,1.62A2.42,2.42,0,0,0,238.4,220.55Zm.27-7.38a5.1,5.1,0,0,1,.09-1,1.52,1.52,0,0,1,.36-.73,1.06,1.06,0,0,1,.78-.28,1,1,0,0,1,.78.28,1.61,1.61,0,0,1,.35.73,5.1,5.1,0,0,1,.09,1v4.64a4.25,4.25,0,0,1-.1.95,1.66,1.66,0,0,1-.36.74.93.93,0,0,1-.76.29,1,1,0,0,1-.76-.29,1.57,1.57,0,0,1-.37-.74,4.25,4.25,0,0,1-.1-.95Z" style="fill:#263238"></path><path d="M236.8,265.54a2.95,2.95,0,0,0,3,0,2.46,2.46,0,0,0,.86-1.11,4.44,4.44,0,0,0,.29-1.64v-4.62a4.6,4.6,0,0,0-.28-1.65,2.32,2.32,0,0,0-.86-1.1,3.05,3.05,0,0,0-3,0,2.22,2.22,0,0,0-.87,1.1,4.39,4.39,0,0,0-.28,1.65v4.62a4.33,4.33,0,0,0,.29,1.62A2.47,2.47,0,0,0,236.8,265.54Zm.27-7.38a5.1,5.1,0,0,1,.09-1,1.4,1.4,0,0,1,.36-.73,1,1,0,0,1,.78-.28,1,1,0,0,1,.77.28,1.39,1.39,0,0,1,.35.73,4.4,4.4,0,0,1,.1,1v4.64a4.83,4.83,0,0,1-.1.94,1.64,1.64,0,0,1-.36.75.93.93,0,0,1-.76.29,1,1,0,0,1-.76-.29,1.56,1.56,0,0,1-.37-.75,4.17,4.17,0,0,1-.1-.94Z" style="fill:#263238"></path><path d="M282.47,212.19l.64-.13.3-.08v8.86h1.42V210.12h-1.08a2,2,0,0,1-.48.47,3.84,3.84,0,0,1-.59.33,5.65,5.65,0,0,1-.61.22l-.53.15v1.07l.3-.05Z" style="fill:#263238"></path><path d="M284.16,226.28v1.08l.29-.06.64-.12c.24,0,.45-.08.64-.13a1.5,1.5,0,0,0,.3-.08v8.87h1.42V225.12h-1.08a1.91,1.91,0,0,1-.48.46,2.67,2.67,0,0,1-.59.33,5.77,5.77,0,0,1-.61.23Z" style="fill:#263238"></path><path d="M242.52,251a2.58,2.58,0,0,0,1.5-.4,2.44,2.44,0,0,0,.86-1.12,4.4,4.4,0,0,0,.29-1.64v-4.62a4.58,4.58,0,0,0-.28-1.64,2.34,2.34,0,0,0-.86-1.11,3.05,3.05,0,0,0-3,0,2.25,2.25,0,0,0-.87,1.11,4.37,4.37,0,0,0-.28,1.64v4.62a4.39,4.39,0,0,0,.29,1.63,2.44,2.44,0,0,0,.87,1.12A2.58,2.58,0,0,0,242.52,251Zm-1.23-7.79a5,5,0,0,1,.09-1,1.43,1.43,0,0,1,.36-.74,1.06,1.06,0,0,1,.78-.28,1,1,0,0,1,.77.28,1.42,1.42,0,0,1,.35.74,4.31,4.31,0,0,1,.1,1v4.64a4.94,4.94,0,0,1-.1.95,1.75,1.75,0,0,1-.36.75,1,1,0,0,1-.76.29,1,1,0,0,1-.76-.29,1.66,1.66,0,0,1-.37-.75,4.25,4.25,0,0,1-.1-.95Z" style="fill:#263238"></path><path d="M301.58,285.41a3.05,3.05,0,0,0-3,0,2.34,2.34,0,0,0-.87,1.1,4.6,4.6,0,0,0-.28,1.65v4.62a4.29,4.29,0,0,0,.29,1.62,2.42,2.42,0,0,0,.87,1.13,3,3,0,0,0,3,0,2.42,2.42,0,0,0,.86-1.12,4.4,4.4,0,0,0,.29-1.64v-4.62a4.39,4.39,0,0,0-.28-1.65A2.26,2.26,0,0,0,301.58,285.41Zm-.29,7.38a4.25,4.25,0,0,1-.1.95,1.56,1.56,0,0,1-.36.74.93.93,0,0,1-.76.29,1,1,0,0,1-.76-.29,1.57,1.57,0,0,1-.37-.74,4.94,4.94,0,0,1-.1-.95v-4.64a4.25,4.25,0,0,1,.1-1,1.51,1.51,0,0,1,.35-.74,1.06,1.06,0,0,1,.78-.28,1,1,0,0,1,.78.28,1.51,1.51,0,0,1,.35.74,4.92,4.92,0,0,1,.09,1Z" style="fill:#263238"></path><path d="M288.31,220.55a2.58,2.58,0,0,0,1.5.41,2.65,2.65,0,0,0,1.5-.4,2.44,2.44,0,0,0,.87-1.12,4.44,4.44,0,0,0,.28-1.64v-4.62a4.39,4.39,0,0,0-.28-1.65,2.26,2.26,0,0,0-.86-1.1,3.05,3.05,0,0,0-3,0,2.34,2.34,0,0,0-.87,1.1,4.6,4.6,0,0,0-.27,1.65v4.62a4.3,4.3,0,0,0,.28,1.62A2.42,2.42,0,0,0,288.31,220.55Zm.27-7.38a4.4,4.4,0,0,1,.1-1,1.51,1.51,0,0,1,.35-.73,1.06,1.06,0,0,1,.78-.28,1,1,0,0,1,.78.28,1.51,1.51,0,0,1,.35.73,5.1,5.1,0,0,1,.09,1v4.64a4.25,4.25,0,0,1-.1.95,1.47,1.47,0,0,1-.36.74.93.93,0,0,1-.76.29,1,1,0,0,1-.76-.29,1.57,1.57,0,0,1-.37-.74,4.94,4.94,0,0,1-.1-.95Z" style="fill:#263238"></path><path d="M238,315.05a3.05,3.05,0,0,0-3,0,2.28,2.28,0,0,0-.87,1.1,4.39,4.39,0,0,0-.28,1.65v4.62a4.29,4.29,0,0,0,.29,1.62,2.42,2.42,0,0,0,.87,1.13,2.58,2.58,0,0,0,1.5.41,2.65,2.65,0,0,0,1.5-.4,2.49,2.49,0,0,0,.86-1.12,4.44,4.44,0,0,0,.29-1.64V317.8a4.6,4.6,0,0,0-.28-1.65A2.32,2.32,0,0,0,238,315.05Zm-.29,7.38a4.94,4.94,0,0,1-.1.95,1.66,1.66,0,0,1-.36.74.93.93,0,0,1-.76.29,1,1,0,0,1-.76-.29,1.57,1.57,0,0,1-.37-.74,4.25,4.25,0,0,1-.1-.95v-4.64a5.1,5.1,0,0,1,.09-1,1.44,1.44,0,0,1,.36-.73,1.06,1.06,0,0,1,.78-.28,1,1,0,0,1,.77.28,1.52,1.52,0,0,1,.36.73,5.1,5.1,0,0,1,.09,1Z" style="fill:#263238"></path><path d="M306.07,279.42a4.36,4.36,0,0,0,.29-1.64v-4.62a4.58,4.58,0,0,0-.28-1.64,2.39,2.39,0,0,0-.86-1.11,3.12,3.12,0,0,0-3,0,2.29,2.29,0,0,0-.87,1.11,4.37,4.37,0,0,0-.28,1.64v4.62a4.39,4.39,0,0,0,.29,1.63,2.44,2.44,0,0,0,.87,1.12,3,3,0,0,0,3,0A2.39,2.39,0,0,0,306.07,279.42Zm-1.14-1.63a4.85,4.85,0,0,1-.1.95,1.75,1.75,0,0,1-.36.75,1,1,0,0,1-.76.29,1,1,0,0,1-.76-.29,1.66,1.66,0,0,1-.37-.75,4.19,4.19,0,0,1-.1-.95v-4.64a5,5,0,0,1,.09-1,1.43,1.43,0,0,1,.36-.74,1.06,1.06,0,0,1,.78-.27,1,1,0,0,1,.77.27,1.42,1.42,0,0,1,.35.74,4.31,4.31,0,0,1,.1,1Z" style="fill:#263238"></path><path d="M237.18,250.55a2.44,2.44,0,0,0,.86-1.12,4.4,4.4,0,0,0,.29-1.64v-4.62a4.58,4.58,0,0,0-.28-1.64,2.34,2.34,0,0,0-.86-1.11,3.05,3.05,0,0,0-3,0,2.3,2.3,0,0,0-.87,1.11,4.37,4.37,0,0,0-.28,1.64v4.62a4.39,4.39,0,0,0,.29,1.63,2.44,2.44,0,0,0,.87,1.12,3,3,0,0,0,3,0Zm-2.63-1.8a4.25,4.25,0,0,1-.1-.95v-4.64a5,5,0,0,1,.09-1,1.43,1.43,0,0,1,.36-.74,1.06,1.06,0,0,1,.78-.28,1,1,0,0,1,.77.28,1.51,1.51,0,0,1,.36.74,5,5,0,0,1,.09,1v4.64a4.25,4.25,0,0,1-.1.95,1.75,1.75,0,0,1-.36.75,1,1,0,0,1-.76.29,1,1,0,0,1-.76-.29A1.66,1.66,0,0,1,234.55,248.75Z" style="fill:#263238"></path><path d="M235,272a1.5,1.5,0,0,0,.3-.08v8.86h1.41V270.11h-1.07a2.11,2.11,0,0,1-.48.46,3.51,3.51,0,0,1-.6.33,5.05,5.05,0,0,1-.61.23,5.19,5.19,0,0,1-.52.14v1.07l.29,0,.64-.12Z" style="fill:#263238"></path><path d="M299.23,279.42a4.36,4.36,0,0,0,.29-1.64v-4.62a4.58,4.58,0,0,0-.28-1.64,2.39,2.39,0,0,0-.86-1.11,3.12,3.12,0,0,0-3,0,2.29,2.29,0,0,0-.87,1.11,4.37,4.37,0,0,0-.28,1.64v4.62a4.39,4.39,0,0,0,.29,1.63,2.44,2.44,0,0,0,.87,1.12,2.51,2.51,0,0,0,1.5.41,2.58,2.58,0,0,0,1.5-.4A2.44,2.44,0,0,0,299.23,279.42Zm-1.14-1.63a4.85,4.85,0,0,1-.1.95,1.75,1.75,0,0,1-.36.75,1,1,0,0,1-.76.29,1,1,0,0,1-.76-.29,1.66,1.66,0,0,1-.37-.75,4.19,4.19,0,0,1-.1-.95v-4.64a5,5,0,0,1,.09-1,1.43,1.43,0,0,1,.36-.74,1.06,1.06,0,0,1,.78-.27,1,1,0,0,1,.77.27,1.51,1.51,0,0,1,.36.74,5,5,0,0,1,.09,1Z" style="fill:#263238"></path><path d="M307.23,265.54a2.95,2.95,0,0,0,3,0,2.46,2.46,0,0,0,.86-1.11,4.44,4.44,0,0,0,.29-1.64v-4.62a4.6,4.6,0,0,0-.28-1.65,2.32,2.32,0,0,0-.86-1.1,3.05,3.05,0,0,0-3,0,2.28,2.28,0,0,0-.87,1.1,4.6,4.6,0,0,0-.28,1.65v4.62a4.33,4.33,0,0,0,.29,1.62A2.47,2.47,0,0,0,307.23,265.54Zm.27-7.38a5.1,5.1,0,0,1,.09-1,1.48,1.48,0,0,1,.36-.73,1,1,0,0,1,.78-.28,1,1,0,0,1,.77.28,1.48,1.48,0,0,1,.36.73,5.1,5.1,0,0,1,.09,1v4.64a4.17,4.17,0,0,1-.1.94,1.64,1.64,0,0,1-.36.75.93.93,0,0,1-.76.29,1,1,0,0,1-.76-.29,1.56,1.56,0,0,1-.37-.75,4.17,4.17,0,0,1-.1-.94Z" style="fill:#263238"></path><path d="M297.76,225.42a2.41,2.41,0,0,0-.87,1.11,4.6,4.6,0,0,0-.28,1.65v4.61a4.39,4.39,0,0,0,.29,1.63,2.39,2.39,0,0,0,.87,1.12,2.51,2.51,0,0,0,1.5.42,2.58,2.58,0,0,0,1.5-.41,2.37,2.37,0,0,0,.86-1.12,4.36,4.36,0,0,0,.29-1.64v-4.61a4.39,4.39,0,0,0-.28-1.65,2.39,2.39,0,0,0-.86-1.11,3.12,3.12,0,0,0-3,0Zm2.64,1.77a5.07,5.07,0,0,1,.09,1v4.65a4.17,4.17,0,0,1-.1.94,1.64,1.64,0,0,1-.36.75,1,1,0,0,1-.76.29,1,1,0,0,1-.76-.29,1.56,1.56,0,0,1-.37-.75,4.83,4.83,0,0,1-.1-.94v-4.65a5.07,5.07,0,0,1,.09-1,1.57,1.57,0,0,1,.36-.73,1,1,0,0,1,.78-.28,1,1,0,0,1,.78.28A1.56,1.56,0,0,1,300.4,227.19Z" style="fill:#263238"></path><path d="M285.55,279.42a4.36,4.36,0,0,0,.29-1.64v-4.62a4.37,4.37,0,0,0-.28-1.64,2.39,2.39,0,0,0-.86-1.11,3.12,3.12,0,0,0-3,0,2.41,2.41,0,0,0-.87,1.11,4.58,4.58,0,0,0-.28,1.64v4.62a4.39,4.39,0,0,0,.29,1.63,2.44,2.44,0,0,0,.87,1.12,2.51,2.51,0,0,0,1.5.41,2.58,2.58,0,0,0,1.5-.4A2.37,2.37,0,0,0,285.55,279.42Zm-1.14-1.63a4.19,4.19,0,0,1-.1.95,1.75,1.75,0,0,1-.36.75,1,1,0,0,1-.76.29,1,1,0,0,1-.76-.29,1.66,1.66,0,0,1-.37-.75,4.85,4.85,0,0,1-.1-.95v-4.64a5,5,0,0,1,.09-1,1.61,1.61,0,0,1,.36-.74,1.06,1.06,0,0,1,.78-.27,1,1,0,0,1,.78.27,1.6,1.6,0,0,1,.35.74,5,5,0,0,1,.09,1Z" style="fill:#263238"></path><path d="M293.55,265.54a2.95,2.95,0,0,0,3,0,2.39,2.39,0,0,0,.86-1.11,4.44,4.44,0,0,0,.29-1.64v-4.62a4.39,4.39,0,0,0-.28-1.65,2.26,2.26,0,0,0-.86-1.1,3.05,3.05,0,0,0-3,0,2.34,2.34,0,0,0-.87,1.1,4.6,4.6,0,0,0-.28,1.65v4.62a4.33,4.33,0,0,0,.29,1.62A2.47,2.47,0,0,0,293.55,265.54Zm.27-7.38a4.4,4.4,0,0,1,.1-1,1.47,1.47,0,0,1,.35-.73,1,1,0,0,1,.78-.28,1,1,0,0,1,.78.28,1.47,1.47,0,0,1,.35.73,5.1,5.1,0,0,1,.09,1v4.64a4.17,4.17,0,0,1-.1.94,1.55,1.55,0,0,1-.36.75.93.93,0,0,1-.76.29,1,1,0,0,1-.76-.29,1.56,1.56,0,0,1-.37-.75,4.83,4.83,0,0,1-.1-.94Z" style="fill:#263238"></path><path d="M278.71,279.42a4.36,4.36,0,0,0,.29-1.64v-4.62a4.37,4.37,0,0,0-.28-1.64,2.33,2.33,0,0,0-.86-1.11,3.12,3.12,0,0,0-3,0,2.41,2.41,0,0,0-.87,1.11,4.58,4.58,0,0,0-.28,1.64v4.62a4.39,4.39,0,0,0,.29,1.63,2.44,2.44,0,0,0,.87,1.12,2.51,2.51,0,0,0,1.5.41,2.58,2.58,0,0,0,1.5-.4A2.37,2.37,0,0,0,278.71,279.42Zm-1.14-1.63a4.19,4.19,0,0,1-.1.95,1.64,1.64,0,0,1-.36.75,1,1,0,0,1-.76.29,1,1,0,0,1-.76-.29,1.66,1.66,0,0,1-.37-.75,4.85,4.85,0,0,1-.1-.95v-4.64a5,5,0,0,1,.09-1,1.61,1.61,0,0,1,.36-.74,1.06,1.06,0,0,1,.78-.27,1,1,0,0,1,.78.27,1.51,1.51,0,0,1,.35.74,5,5,0,0,1,.09,1Z" style="fill:#263238"></path><path d="M300.39,265.54a2.95,2.95,0,0,0,3,0,2.46,2.46,0,0,0,.86-1.11,4.44,4.44,0,0,0,.29-1.64v-4.62a4.6,4.6,0,0,0-.28-1.65,2.32,2.32,0,0,0-.86-1.1,3.05,3.05,0,0,0-3,0,2.28,2.28,0,0,0-.87,1.1,4.6,4.6,0,0,0-.28,1.65v4.62a4.33,4.33,0,0,0,.29,1.62A2.47,2.47,0,0,0,300.39,265.54Zm.27-7.38a5.1,5.1,0,0,1,.09-1,1.48,1.48,0,0,1,.36-.73,1,1,0,0,1,.78-.28,1,1,0,0,1,.78.28,1.56,1.56,0,0,1,.35.73,5.1,5.1,0,0,1,.09,1v4.64a4.17,4.17,0,0,1-.1.94,1.64,1.64,0,0,1-.36.75.93.93,0,0,1-.76.29,1,1,0,0,1-.76-.29,1.56,1.56,0,0,1-.37-.75,4.17,4.17,0,0,1-.1-.94Z" style="fill:#263238"></path><path d="M221.22,226.53a4.6,4.6,0,0,0-.28,1.65v4.61a4.39,4.39,0,0,0,.29,1.63,2.39,2.39,0,0,0,.87,1.12,2.51,2.51,0,0,0,1.5.42,2.58,2.58,0,0,0,1.5-.41,2.37,2.37,0,0,0,.86-1.12,4.36,4.36,0,0,0,.29-1.64v-4.61a4.39,4.39,0,0,0-.28-1.65,2.33,2.33,0,0,0-.86-1.11,3.12,3.12,0,0,0-3,0A2.41,2.41,0,0,0,221.22,226.53Zm1.15,1.63a5.07,5.07,0,0,1,.09-1,1.57,1.57,0,0,1,.36-.73,1,1,0,0,1,.78-.28,1,1,0,0,1,.78.28,1.56,1.56,0,0,1,.35.73,5.07,5.07,0,0,1,.09,1v4.65a4.17,4.17,0,0,1-.1.94,1.55,1.55,0,0,1-.36.75,1,1,0,0,1-.76.29,1,1,0,0,1-.76-.29,1.56,1.56,0,0,1-.37-.75,4.83,4.83,0,0,1-.1-.94Z" style="fill:#263238"></path><path d="M281.06,300.23a3.05,3.05,0,0,0-3,0,2.34,2.34,0,0,0-.87,1.1,4.64,4.64,0,0,0-.27,1.65v4.62a4.3,4.3,0,0,0,.28,1.62,2.42,2.42,0,0,0,.87,1.13,2.62,2.62,0,0,0,1.5.41,2.58,2.58,0,0,0,1.5-.41,2.36,2.36,0,0,0,.87-1.11,4.44,4.44,0,0,0,.28-1.64V303a4.42,4.42,0,0,0-.28-1.65A2.26,2.26,0,0,0,281.06,300.23Zm-.29,7.38a4.25,4.25,0,0,1-.1.95,1.47,1.47,0,0,1-.36.74.94.94,0,0,1-.76.3,1,1,0,0,1-.76-.3,1.57,1.57,0,0,1-.37-.74,4.94,4.94,0,0,1-.1-.95V303a4.4,4.4,0,0,1,.1-1,1.51,1.51,0,0,1,.35-.73,1.06,1.06,0,0,1,.78-.28,1,1,0,0,1,.78.28,1.51,1.51,0,0,1,.35.73,5.1,5.1,0,0,1,.09,1Z" style="fill:#263238"></path><path d="M304.6,225.42a2.35,2.35,0,0,0-.87,1.11,4.6,4.6,0,0,0-.28,1.65v4.61a4.39,4.39,0,0,0,.29,1.63,2.39,2.39,0,0,0,.87,1.12,2.51,2.51,0,0,0,1.5.42,2.58,2.58,0,0,0,1.5-.41,2.37,2.37,0,0,0,.86-1.12,4.36,4.36,0,0,0,.29-1.64v-4.61a4.39,4.39,0,0,0-.28-1.65,2.39,2.39,0,0,0-.86-1.11,3.12,3.12,0,0,0-3,0Zm2.64,1.77a5.07,5.07,0,0,1,.09,1v4.65a4.17,4.17,0,0,1-.1.94,1.64,1.64,0,0,1-.36.75,1,1,0,0,1-.76.29,1,1,0,0,1-.76-.29,1.56,1.56,0,0,1-.37-.75,4.83,4.83,0,0,1-.1-.94v-4.65a5.07,5.07,0,0,1,.09-1,1.57,1.57,0,0,1,.36-.73,1,1,0,0,1,.78-.28,1,1,0,0,1,.78.28A1.56,1.56,0,0,1,307.24,227.19Z" style="fill:#263238"></path><path d="M281.06,285.41a3.05,3.05,0,0,0-3,0,2.34,2.34,0,0,0-.87,1.1,4.6,4.6,0,0,0-.27,1.65v4.62a4.3,4.3,0,0,0,.28,1.62,2.42,2.42,0,0,0,.87,1.13,2.62,2.62,0,0,0,1.5.41,2.58,2.58,0,0,0,1.5-.4,2.44,2.44,0,0,0,.87-1.12,4.41,4.41,0,0,0,.28-1.64v-4.62a4.39,4.39,0,0,0-.28-1.65A2.26,2.26,0,0,0,281.06,285.41Zm-.29,7.38a4.25,4.25,0,0,1-.1.95,1.47,1.47,0,0,1-.36.74.93.93,0,0,1-.76.29,1,1,0,0,1-.76-.29,1.57,1.57,0,0,1-.37-.74,4.94,4.94,0,0,1-.1-.95v-4.64a4.25,4.25,0,0,1,.1-1,1.51,1.51,0,0,1,.35-.74,1.06,1.06,0,0,1,.78-.28,1,1,0,0,1,.78.28,1.51,1.51,0,0,1,.35.74,4.92,4.92,0,0,1,.09,1Z" style="fill:#263238"></path><path d="M311.6,240.12h-1.07a2.11,2.11,0,0,1-.48.46,3.51,3.51,0,0,1-.6.33c-.21.09-.41.16-.61.23s-.37.11-.52.14v1.07l.29,0,.64-.12.64-.13.3-.08v8.86h1.41Z" style="fill:#263238"></path><path d="M308.83,220.55a2.58,2.58,0,0,0,1.5.41,2.65,2.65,0,0,0,1.5-.4,2.49,2.49,0,0,0,.86-1.12,4.44,4.44,0,0,0,.29-1.64v-4.62a4.6,4.6,0,0,0-.28-1.65,2.32,2.32,0,0,0-.86-1.1,3.05,3.05,0,0,0-3,0,2.28,2.28,0,0,0-.87,1.1,4.6,4.6,0,0,0-.28,1.65v4.62a4.29,4.29,0,0,0,.29,1.62A2.42,2.42,0,0,0,308.83,220.55Zm.27-7.38a5.1,5.1,0,0,1,.09-1,1.52,1.52,0,0,1,.36-.73,1.06,1.06,0,0,1,.78-.28,1,1,0,0,1,.78.28,1.61,1.61,0,0,1,.35.73,5.1,5.1,0,0,1,.09,1v4.64a4.25,4.25,0,0,1-.1.95,1.66,1.66,0,0,1-.36.74.93.93,0,0,1-.76.29,1,1,0,0,1-.76-.29,1.57,1.57,0,0,1-.37-.74,4.25,4.25,0,0,1-.1-.95Z" style="fill:#263238"></path><path d="M287.9,300.23a3.05,3.05,0,0,0-3,0,2.34,2.34,0,0,0-.87,1.1,4.63,4.63,0,0,0-.28,1.65v4.62a4.29,4.29,0,0,0,.29,1.62,2.42,2.42,0,0,0,.87,1.13,2.95,2.95,0,0,0,3,0,2.34,2.34,0,0,0,.86-1.11,4.44,4.44,0,0,0,.29-1.64V303a4.42,4.42,0,0,0-.28-1.65A2.26,2.26,0,0,0,287.9,300.23Zm-.29,7.38a4.25,4.25,0,0,1-.1.95,1.47,1.47,0,0,1-.36.74.94.94,0,0,1-.76.3,1,1,0,0,1-.76-.3,1.57,1.57,0,0,1-.37-.74,4.94,4.94,0,0,1-.1-.95V303a4.4,4.4,0,0,1,.1-1,1.51,1.51,0,0,1,.35-.73,1.06,1.06,0,0,1,.78-.28,1,1,0,0,1,.78.28,1.51,1.51,0,0,1,.35.73,5.1,5.1,0,0,1,.09,1Z" style="fill:#263238"></path><path d="M263,270.57a3.84,3.84,0,0,1-.59.33,5.77,5.77,0,0,1-.61.23c-.2.06-.37.11-.52.14v1.07l.29,0,.63-.12.64-.13a1.5,1.5,0,0,0,.3-.08v8.86h1.42V270.11h-1.08A2.11,2.11,0,0,1,263,270.57Z" style="fill:#263238"></path><path d="M263.55,212.19l.65-.13a1.94,1.94,0,0,0,.29-.08v8.86h1.42V210.12h-1.07a2.19,2.19,0,0,1-.49.47,3.08,3.08,0,0,1-.59.33,5.65,5.65,0,0,1-.61.22l-.52.15v1.07l.29-.05Z" style="fill:#263238"></path><path d="M262.15,285.41a3.07,3.07,0,0,0-3,0,2.26,2.26,0,0,0-.86,1.1,4.39,4.39,0,0,0-.28,1.65v4.62a4.3,4.3,0,0,0,.28,1.62,2.37,2.37,0,0,0,.88,1.13,2.58,2.58,0,0,0,1.5.41,2.54,2.54,0,0,0,1.49-.4,2.44,2.44,0,0,0,.87-1.12,4.41,4.41,0,0,0,.28-1.64v-4.62a4.39,4.39,0,0,0-.28-1.65A2.3,2.3,0,0,0,262.15,285.41Zm-.3,7.38a4.25,4.25,0,0,1-.1.95,1.55,1.55,0,0,1-.35.74,1,1,0,0,1-.76.29,1,1,0,0,1-.76-.29,1.48,1.48,0,0,1-.37-.74,4.25,4.25,0,0,1-.1-.95v-4.64a4.92,4.92,0,0,1,.09-1,1.43,1.43,0,0,1,.36-.74,1.21,1.21,0,0,1,1.55,0,1.51,1.51,0,0,1,.35.74,4.92,4.92,0,0,1,.09,1Z" style="fill:#263238"></path><path d="M292.39,279.42a4.36,4.36,0,0,0,.29-1.64v-4.62a4.58,4.58,0,0,0-.28-1.64,2.39,2.39,0,0,0-.86-1.11,3.12,3.12,0,0,0-3,0,2.35,2.35,0,0,0-.87,1.11,4.58,4.58,0,0,0-.28,1.64v4.62a4.39,4.39,0,0,0,.29,1.63,2.44,2.44,0,0,0,.87,1.12,2.51,2.51,0,0,0,1.5.41,2.58,2.58,0,0,0,1.5-.4A2.37,2.37,0,0,0,292.39,279.42Zm-1.14-1.63a4.19,4.19,0,0,1-.1.95,1.75,1.75,0,0,1-.36.75,1,1,0,0,1-.76.29,1,1,0,0,1-.76-.29,1.66,1.66,0,0,1-.37-.75,4.19,4.19,0,0,1-.1-.95v-4.64a5,5,0,0,1,.09-1,1.61,1.61,0,0,1,.36-.74,1.06,1.06,0,0,1,.78-.27,1,1,0,0,1,.78.27,1.6,1.6,0,0,1,.35.74,5,5,0,0,1,.09,1Z" style="fill:#263238"></path><path d="M262.15,300.23a3.07,3.07,0,0,0-3,0,2.26,2.26,0,0,0-.86,1.1A4.42,4.42,0,0,0,258,303v4.62a4.3,4.3,0,0,0,.28,1.62,2.37,2.37,0,0,0,.88,1.13,2.58,2.58,0,0,0,1.5.41,2.55,2.55,0,0,0,1.49-.41,2.36,2.36,0,0,0,.87-1.11,4.44,4.44,0,0,0,.28-1.64V303a4.42,4.42,0,0,0-.28-1.65A2.3,2.3,0,0,0,262.15,300.23Zm-.3,7.38a4.25,4.25,0,0,1-.1.95,1.55,1.55,0,0,1-.35.74,1,1,0,0,1-.76.3,1,1,0,0,1-.76-.3,1.48,1.48,0,0,1-.37-.74,4.25,4.25,0,0,1-.1-.95V303a5.1,5.1,0,0,1,.09-1,1.44,1.44,0,0,1,.36-.73,1.21,1.21,0,0,1,1.55,0,1.51,1.51,0,0,1,.35.73,5.1,5.1,0,0,1,.09,1Z" style="fill:#263238"></path><path d="M299.52,250.83V240.12h-1.07a2.11,2.11,0,0,1-.48.46,3.51,3.51,0,0,1-.6.33c-.2.09-.41.16-.61.23a5.19,5.19,0,0,1-.52.14v1.07l.29,0,.64-.12.64-.13.3-.08v8.86Z" style="fill:#263238"></path><path d="M295.15,220.55a2.58,2.58,0,0,0,1.5.41,2.65,2.65,0,0,0,1.5-.4,2.42,2.42,0,0,0,.86-1.12,4.44,4.44,0,0,0,.29-1.64v-4.62a4.39,4.39,0,0,0-.28-1.65,2.26,2.26,0,0,0-.86-1.1,3.05,3.05,0,0,0-3,0,2.34,2.34,0,0,0-.87,1.1,4.6,4.6,0,0,0-.28,1.65v4.62a4.29,4.29,0,0,0,.29,1.62A2.42,2.42,0,0,0,295.15,220.55Zm.27-7.38a4.4,4.4,0,0,1,.1-1,1.51,1.51,0,0,1,.35-.73,1.06,1.06,0,0,1,.78-.28,1,1,0,0,1,.78.28,1.51,1.51,0,0,1,.35.73,5.1,5.1,0,0,1,.09,1v4.64a4.25,4.25,0,0,1-.1.95,1.56,1.56,0,0,1-.36.74.93.93,0,0,1-.76.29,1,1,0,0,1-.76-.29,1.57,1.57,0,0,1-.37-.74,4.94,4.94,0,0,1-.1-.95Z" style="fill:#263238"></path><path d="M287.45,250.83V240.12h-1.08a2.11,2.11,0,0,1-.48.46,3.84,3.84,0,0,1-.59.33c-.21.09-.41.16-.61.23l-.53.14v1.07l.29,0,.64-.12.64-.13.3-.08v8.86Z" style="fill:#263238"></path><path d="M259.8,279.42a4.37,4.37,0,0,0,.28-1.64v-4.62a4.37,4.37,0,0,0-.28-1.64,2.33,2.33,0,0,0-.86-1.11,2.63,2.63,0,0,0-1.5-.39,2.7,2.7,0,0,0-1.52.39,2.41,2.41,0,0,0-.87,1.11,4.58,4.58,0,0,0-.27,1.64v4.62a4.39,4.39,0,0,0,.28,1.63,2.44,2.44,0,0,0,.87,1.12,3,3,0,0,0,3,0A2.39,2.39,0,0,0,259.8,279.42Zm-1.15-1.63a4.19,4.19,0,0,1-.1.95,1.63,1.63,0,0,1-.35.75,1,1,0,0,1-.76.29,1,1,0,0,1-.77-.29,1.66,1.66,0,0,1-.37-.75,4.85,4.85,0,0,1-.1-.95v-4.64a5,5,0,0,1,.1-1,1.43,1.43,0,0,1,.36-.74,1.25,1.25,0,0,1,1.55,0,1.51,1.51,0,0,1,.35.74,5,5,0,0,1,.09,1Z" style="fill:#263238"></path><path d="M292.43,251a2.58,2.58,0,0,0,1.5-.4,2.37,2.37,0,0,0,.86-1.12,4.4,4.4,0,0,0,.29-1.64v-4.62a4.37,4.37,0,0,0-.28-1.64,2.29,2.29,0,0,0-.86-1.11,3.05,3.05,0,0,0-3,0,2.36,2.36,0,0,0-.87,1.11,4.58,4.58,0,0,0-.28,1.64v4.62a4.39,4.39,0,0,0,.29,1.63,2.44,2.44,0,0,0,.87,1.12A2.58,2.58,0,0,0,292.43,251Zm-1.23-7.79a4.31,4.31,0,0,1,.1-1,1.51,1.51,0,0,1,.35-.74,1.06,1.06,0,0,1,.78-.28,1,1,0,0,1,.78.28,1.51,1.51,0,0,1,.35.74,5,5,0,0,1,.09,1v4.64a4.25,4.25,0,0,1-.1.95,1.55,1.55,0,0,1-.36.75,1,1,0,0,1-.76.29,1,1,0,0,1-.76-.29,1.66,1.66,0,0,1-.37-.75,4.94,4.94,0,0,1-.1-.95Z" style="fill:#263238"></path><path d="M286.71,265.54a2.95,2.95,0,0,0,3,0,2.39,2.39,0,0,0,.86-1.11,4.44,4.44,0,0,0,.29-1.64v-4.62a4.39,4.39,0,0,0-.28-1.65,2.26,2.26,0,0,0-.86-1.1,3.05,3.05,0,0,0-3,0,2.34,2.34,0,0,0-.87,1.1,4.6,4.6,0,0,0-.28,1.65v4.62a4.33,4.33,0,0,0,.29,1.62A2.47,2.47,0,0,0,286.71,265.54Zm.27-7.38a4.4,4.4,0,0,1,.1-1,1.47,1.47,0,0,1,.35-.73,1,1,0,0,1,.78-.28,1,1,0,0,1,.78.28,1.47,1.47,0,0,1,.35.73,5.1,5.1,0,0,1,.09,1v4.64a4.17,4.17,0,0,1-.1.94,1.55,1.55,0,0,1-.36.75.93.93,0,0,1-.76.29,1,1,0,0,1-.76-.29,1.56,1.56,0,0,1-.37-.75,4.83,4.83,0,0,1-.1-.94Z" style="fill:#263238"></path><path d="M287.9,285.41a3.05,3.05,0,0,0-3,0,2.34,2.34,0,0,0-.87,1.1,4.6,4.6,0,0,0-.28,1.65v4.62a4.29,4.29,0,0,0,.29,1.62,2.42,2.42,0,0,0,.87,1.13,3,3,0,0,0,3,0,2.42,2.42,0,0,0,.86-1.12,4.4,4.4,0,0,0,.29-1.64v-4.62a4.39,4.39,0,0,0-.28-1.65A2.26,2.26,0,0,0,287.9,285.41Zm-.29,7.38a4.25,4.25,0,0,1-.1.95,1.47,1.47,0,0,1-.36.74.93.93,0,0,1-.76.29,1,1,0,0,1-.76-.29,1.57,1.57,0,0,1-.37-.74,4.94,4.94,0,0,1-.1-.95v-4.64a4.25,4.25,0,0,1,.1-1,1.51,1.51,0,0,1,.35-.74,1.06,1.06,0,0,1,.78-.28,1,1,0,0,1,.78.28,1.51,1.51,0,0,1,.35.74,4.92,4.92,0,0,1,.09,1Z" style="fill:#263238"></path><path d="M306.87,249.43a4.4,4.4,0,0,0,.29-1.64v-4.62a4.58,4.58,0,0,0-.28-1.64,2.34,2.34,0,0,0-.86-1.11,3.05,3.05,0,0,0-3,0,2.3,2.3,0,0,0-.87,1.11,4.58,4.58,0,0,0-.28,1.64v4.62a4.39,4.39,0,0,0,.29,1.63,2.44,2.44,0,0,0,.87,1.12,3,3,0,0,0,3,0A2.44,2.44,0,0,0,306.87,249.43Zm-1.14-1.63a4.25,4.25,0,0,1-.1.95,1.75,1.75,0,0,1-.36.75,1,1,0,0,1-.76.29,1,1,0,0,1-.76-.29,1.66,1.66,0,0,1-.37-.75,4.25,4.25,0,0,1-.1-.95v-4.64a5,5,0,0,1,.09-1,1.51,1.51,0,0,1,.36-.74,1.06,1.06,0,0,1,.78-.28,1,1,0,0,1,.78.28,1.6,1.6,0,0,1,.35.74,5,5,0,0,1,.09,1Z" style="fill:#263238"></path><path d="M328.84,226.28v1.08l.29-.06.63-.12c.24,0,.46-.08.65-.13a1.27,1.27,0,0,0,.29-.08v8.87h1.42V225.12h-1.07a2,2,0,0,1-.49.46,2.46,2.46,0,0,1-.59.33,5.77,5.77,0,0,1-.61.23C329.16,226.2,329,226.25,328.84,226.28Z" style="fill:#263238"></path><path d="M219.07,285.41a3.05,3.05,0,0,0-3,0,2.34,2.34,0,0,0-.87,1.1,4.6,4.6,0,0,0-.28,1.65v4.62a4.29,4.29,0,0,0,.29,1.62,2.42,2.42,0,0,0,.87,1.13,3,3,0,0,0,3,0,2.44,2.44,0,0,0,.87-1.12,4.62,4.62,0,0,0,.28-1.64v-4.62a4.39,4.39,0,0,0-.28-1.65A2.26,2.26,0,0,0,219.07,285.41Zm-.29,7.38a4.25,4.25,0,0,1-.1.95,1.47,1.47,0,0,1-.36.74.93.93,0,0,1-.76.29,1,1,0,0,1-.76-.29,1.57,1.57,0,0,1-.37-.74,4.94,4.94,0,0,1-.1-.95v-4.64a4.25,4.25,0,0,1,.1-1,1.51,1.51,0,0,1,.35-.74,1.06,1.06,0,0,1,.78-.28,1,1,0,0,1,.78.28,1.51,1.51,0,0,1,.35.74,4.92,4.92,0,0,1,.09,1Z" style="fill:#263238"></path><path d="M245.17,228.18a4.6,4.6,0,0,0-.28-1.65,2.39,2.39,0,0,0-.86-1.11,3.12,3.12,0,0,0-3,0,2.29,2.29,0,0,0-.87,1.11,4.39,4.39,0,0,0-.28,1.65v4.61a4.39,4.39,0,0,0,.29,1.63,2.33,2.33,0,0,0,.87,1.12,2.9,2.9,0,0,0,3,0,2.39,2.39,0,0,0,.87-1.12,4.36,4.36,0,0,0,.29-1.64Zm-1.43,4.63a4.83,4.83,0,0,1-.1.94,1.64,1.64,0,0,1-.36.75,1,1,0,0,1-.76.29,1,1,0,0,1-.76-.29,1.48,1.48,0,0,1-.37-.75,4.17,4.17,0,0,1-.1-.94v-4.65a5.07,5.07,0,0,1,.09-1,1.4,1.4,0,0,1,.36-.73,1,1,0,0,1,.78-.28,1,1,0,0,1,.77.28,1.39,1.39,0,0,1,.35.73,4.37,4.37,0,0,1,.1,1Z" style="fill:#263238"></path><path d="M219.68,255.58a3.51,3.51,0,0,1-.6.33l-.6.22-.53.15v1.07l.3-.05.63-.12.64-.14a1.5,1.5,0,0,0,.3-.08v8.87h1.41V255.11h-1.07A2.14,2.14,0,0,1,219.68,255.58Z" style="fill:#263238"></path><path d="M216.06,280.53a2.51,2.51,0,0,0,1.5.41,2.58,2.58,0,0,0,1.5-.4,2.31,2.31,0,0,0,.86-1.12,4.36,4.36,0,0,0,.29-1.64v-4.62a4.37,4.37,0,0,0-.28-1.64,2.33,2.33,0,0,0-.86-1.11,3.12,3.12,0,0,0-3,0,2.41,2.41,0,0,0-.87,1.11,4.58,4.58,0,0,0-.28,1.64v4.62a4.39,4.39,0,0,0,.29,1.63A2.44,2.44,0,0,0,216.06,280.53Zm.27-7.38a4.31,4.31,0,0,1,.1-1,1.51,1.51,0,0,1,.35-.74,1.06,1.06,0,0,1,.78-.27,1,1,0,0,1,.78.27,1.51,1.51,0,0,1,.35.74,5,5,0,0,1,.09,1v4.64a4.19,4.19,0,0,1-.1.95,1.55,1.55,0,0,1-.36.75,1,1,0,0,1-.76.29,1,1,0,0,1-.76-.29,1.66,1.66,0,0,1-.37-.75,4.85,4.85,0,0,1-.1-.95Z" style="fill:#263238"></path><path d="M327.15,212.19l.64-.13a1.94,1.94,0,0,0,.29-.08v8.86h1.42V210.12h-1.07a2,2,0,0,1-.48.47,3.51,3.51,0,0,1-.6.33,5.65,5.65,0,0,1-.61.22l-.52.15v1.07l.29-.05Z" style="fill:#263238"></path><path d="M224.36,249.43a4.4,4.4,0,0,0,.29-1.64v-4.62a4.37,4.37,0,0,0-.28-1.64,2.29,2.29,0,0,0-.86-1.11,3.05,3.05,0,0,0-3,0,2.36,2.36,0,0,0-.87,1.11,4.58,4.58,0,0,0-.28,1.64v4.62a4.39,4.39,0,0,0,.29,1.63,2.44,2.44,0,0,0,.87,1.12,3,3,0,0,0,3,0A2.37,2.37,0,0,0,224.36,249.43Zm-1.14-1.63a4.25,4.25,0,0,1-.1.95,1.64,1.64,0,0,1-.36.75,1,1,0,0,1-.76.29,1,1,0,0,1-.76-.29,1.66,1.66,0,0,1-.37-.75,4.94,4.94,0,0,1-.1-.95v-4.64a5,5,0,0,1,.09-1,1.61,1.61,0,0,1,.36-.74,1.06,1.06,0,0,1,.78-.28,1,1,0,0,1,.78.28,1.6,1.6,0,0,1,.35.74,5,5,0,0,1,.09,1Z" style="fill:#263238"></path><path d="M227.05,273.16a4.37,4.37,0,0,0-.28-1.64,2.33,2.33,0,0,0-.86-1.11,3.12,3.12,0,0,0-3,0,2.41,2.41,0,0,0-.87,1.11,4.58,4.58,0,0,0-.28,1.64v4.62a4.39,4.39,0,0,0,.29,1.63,2.44,2.44,0,0,0,.87,1.12,2.51,2.51,0,0,0,1.5.41,2.58,2.58,0,0,0,1.5-.4,2.37,2.37,0,0,0,.86-1.12,4.36,4.36,0,0,0,.29-1.64Zm-1.43,4.63a4.19,4.19,0,0,1-.1.95,1.64,1.64,0,0,1-.36.75,1,1,0,0,1-.76.29,1,1,0,0,1-.76-.29,1.66,1.66,0,0,1-.37-.75,4.85,4.85,0,0,1-.1-.95v-4.64a4.31,4.31,0,0,1,.1-1,1.51,1.51,0,0,1,.35-.74,1.06,1.06,0,0,1,.78-.27,1,1,0,0,1,.78.27,1.51,1.51,0,0,1,.35.74,5,5,0,0,1,.09,1Z" style="fill:#263238"></path><path d="M334.08,226.28v1.08l.29-.06.63-.12.65-.13.29-.08v8.87h1.42V225.12h-1.07a2.14,2.14,0,0,1-.49.46,2.46,2.46,0,0,1-.59.33,5.77,5.77,0,0,1-.61.23C334.4,226.2,334.23,226.25,334.08,226.28Z" style="fill:#263238"></path><path d="M216.51,264.43a4.66,4.66,0,0,0,.28-1.64v-4.62a4.39,4.39,0,0,0-.28-1.65,2.26,2.26,0,0,0-.86-1.1,3.05,3.05,0,0,0-3,0,2.34,2.34,0,0,0-.87,1.1,4.6,4.6,0,0,0-.28,1.65v4.62a4.33,4.33,0,0,0,.29,1.62,2.47,2.47,0,0,0,.87,1.13,2.62,2.62,0,0,0,1.5.41,2.58,2.58,0,0,0,1.5-.41A2.41,2.41,0,0,0,216.51,264.43Zm-1.15-1.63a4.17,4.17,0,0,1-.1.94,1.47,1.47,0,0,1-.36.75.93.93,0,0,1-.76.29,1,1,0,0,1-.76-.29,1.56,1.56,0,0,1-.37-.75,4.83,4.83,0,0,1-.1-.94v-4.64a4.4,4.4,0,0,1,.1-1,1.47,1.47,0,0,1,.35-.73,1,1,0,0,1,.78-.28,1,1,0,0,1,.78.28,1.47,1.47,0,0,1,.35.73,5.1,5.1,0,0,1,.09,1Z" style="fill:#263238"></path><path d="M223.1,285.57a3.51,3.51,0,0,1-.6.33,5.51,5.51,0,0,1-.6.22c-.2.07-.38.11-.53.15v1.07l.29,0,.64-.12.64-.13.3-.08v8.86h1.41V285.1h-1.07A2,2,0,0,1,223.1,285.57Z" style="fill:#263238"></path><path d="M332.38,212.19l.65-.13.29-.08v8.86h1.42V210.12h-1.07a2,2,0,0,1-.49.47,3.08,3.08,0,0,1-.59.33,5.65,5.65,0,0,1-.61.22l-.52.15v1.07l.29-.05Z" style="fill:#263238"></path><path d="M337,250.55a2.39,2.39,0,0,0,.87-1.12,4.41,4.41,0,0,0,.28-1.64v-4.62a4.37,4.37,0,0,0-.28-1.64,2.29,2.29,0,0,0-.86-1.11,2.63,2.63,0,0,0-1.5-.4,2.7,2.7,0,0,0-1.52.4,2.36,2.36,0,0,0-.87,1.11,4.58,4.58,0,0,0-.27,1.64v4.62a4.39,4.39,0,0,0,.28,1.63,2.44,2.44,0,0,0,.87,1.12,2.64,2.64,0,0,0,1.51.41A2.54,2.54,0,0,0,337,250.55Zm-2.63-1.8a4.94,4.94,0,0,1-.09-.95v-4.64a5,5,0,0,1,.09-1,1.43,1.43,0,0,1,.36-.74,1.21,1.21,0,0,1,1.55,0,1.51,1.51,0,0,1,.35.74,5,5,0,0,1,.09,1v4.64a4.25,4.25,0,0,1-.1.95,1.63,1.63,0,0,1-.35.75,1.14,1.14,0,0,1-1.52,0A1.57,1.57,0,0,1,334.37,248.75Z" style="fill:#263238"></path><path d="M217,250.83V240.12h-1.08a2.11,2.11,0,0,1-.48.46,3.84,3.84,0,0,1-.59.33c-.21.09-.42.16-.61.23l-.53.14v1.07l.3,0,.63-.12.64-.13.3-.08v8.86Z" style="fill:#263238"></path><path d="M211,220.55a2.6,2.6,0,0,0,1.5.41,2.65,2.65,0,0,0,1.5-.4,2.36,2.36,0,0,0,.86-1.12,4.44,4.44,0,0,0,.29-1.64v-4.62a4.39,4.39,0,0,0-.28-1.65,2.26,2.26,0,0,0-.86-1.1,3.05,3.05,0,0,0-3,0,2.34,2.34,0,0,0-.87,1.1,4.6,4.6,0,0,0-.28,1.65v4.62a4.29,4.29,0,0,0,.29,1.62A2.42,2.42,0,0,0,211,220.55Zm.27-7.38a4.4,4.4,0,0,1,.1-1,1.51,1.51,0,0,1,.35-.73,1.06,1.06,0,0,1,.78-.28,1,1,0,0,1,.78.28,1.51,1.51,0,0,1,.35.73,5.1,5.1,0,0,1,.09,1v4.64a4.25,4.25,0,0,1-.1.95,1.47,1.47,0,0,1-.36.74.93.93,0,0,1-.76.29,1,1,0,0,1-.76-.29,1.57,1.57,0,0,1-.37-.74,4.94,4.94,0,0,1-.1-.95Z" style="fill:#263238"></path><path d="M325.46,227v8.87h1.42V225.12h-1.07a1.91,1.91,0,0,1-.48.46,2.52,2.52,0,0,1-.6.33,5.77,5.77,0,0,1-.61.23c-.2.06-.37.11-.52.14v1.08l.29-.06.64-.12c.23,0,.45-.08.64-.13A1.09,1.09,0,0,0,325.46,227Z" style="fill:#263238"></path><path d="M216.26,227.18c.24,0,.45-.08.64-.13a1.5,1.5,0,0,0,.3-.08v8.87h1.42V225.12h-1.08a1.91,1.91,0,0,1-.48.46,2.67,2.67,0,0,1-.59.33,5.77,5.77,0,0,1-.61.23l-.53.14v1.08l.3-.06Z" style="fill:#263238"></path><path d="M269,285.41a2.56,2.56,0,0,0-1.5-.4,2.62,2.62,0,0,0-1.52.4,2.34,2.34,0,0,0-.87,1.1,4.6,4.6,0,0,0-.27,1.65v4.62a4.3,4.3,0,0,0,.28,1.62,2.42,2.42,0,0,0,.87,1.13,2.64,2.64,0,0,0,1.51.41,2.57,2.57,0,0,0,1.49-.4,2.44,2.44,0,0,0,.87-1.12,4.41,4.41,0,0,0,.28-1.64v-4.62a4.39,4.39,0,0,0-.28-1.65A2.26,2.26,0,0,0,269,285.41Zm-.29,7.38a4.25,4.25,0,0,1-.1.95,1.55,1.55,0,0,1-.35.74,1,1,0,0,1-.76.29,1,1,0,0,1-.76-.29,1.48,1.48,0,0,1-.37-.74,4.25,4.25,0,0,1-.1-.95v-4.64a4.92,4.92,0,0,1,.09-1,1.43,1.43,0,0,1,.36-.74,1.21,1.21,0,0,1,1.55,0,1.51,1.51,0,0,1,.35.74,4.92,4.92,0,0,1,.09,1Z" style="fill:#263238"></path><path d="M217.88,220.55a2.58,2.58,0,0,0,1.5.41,2.65,2.65,0,0,0,1.5-.4,2.42,2.42,0,0,0,.86-1.12,4.44,4.44,0,0,0,.29-1.64v-4.62a4.39,4.39,0,0,0-.28-1.65,2.26,2.26,0,0,0-.86-1.1,3.05,3.05,0,0,0-3,0,2.34,2.34,0,0,0-.87,1.1,4.6,4.6,0,0,0-.28,1.65v4.62a4.29,4.29,0,0,0,.29,1.62A2.42,2.42,0,0,0,217.88,220.55Zm.27-7.38a4.4,4.4,0,0,1,.1-1,1.51,1.51,0,0,1,.35-.73,1.06,1.06,0,0,1,.78-.28,1,1,0,0,1,.78.28,1.51,1.51,0,0,1,.35.73,5.1,5.1,0,0,1,.09,1v4.64a4.25,4.25,0,0,1-.1.95,1.56,1.56,0,0,1-.36.74.93.93,0,0,1-.76.29,1,1,0,0,1-.76-.29,1.57,1.57,0,0,1-.37-.74,4.94,4.94,0,0,1-.1-.95Z" style="fill:#263238"></path><path d="M330.17,240.42a2.63,2.63,0,0,0-1.5-.4,2.7,2.7,0,0,0-1.52.4,2.29,2.29,0,0,0-.86,1.11,4.37,4.37,0,0,0-.28,1.64v4.62a4.39,4.39,0,0,0,.28,1.63,2.4,2.4,0,0,0,.88,1.12,2.58,2.58,0,0,0,1.5.41,2.54,2.54,0,0,0,1.49-.4,2.39,2.39,0,0,0,.87-1.12,4.41,4.41,0,0,0,.28-1.64v-4.62a4.37,4.37,0,0,0-.28-1.64A2.29,2.29,0,0,0,330.17,240.42Zm-.29,7.38a4.25,4.25,0,0,1-.1.95,1.63,1.63,0,0,1-.35.75,1.14,1.14,0,0,1-1.52,0,1.48,1.48,0,0,1-.37-.75,4.25,4.25,0,0,1-.1-.95v-4.64a5,5,0,0,1,.09-1,1.43,1.43,0,0,1,.36-.74,1.21,1.21,0,0,1,1.55,0,1.51,1.51,0,0,1,.35.74,5,5,0,0,1,.09,1Z" style="fill:#263238"></path><path d="M211,270.57a3.84,3.84,0,0,1-.59.33,5.77,5.77,0,0,1-.61.23c-.2.06-.37.11-.52.14v1.07l.29,0,.63-.12.64-.13a1.5,1.5,0,0,0,.3-.08v8.86h1.42V270.11H211.5A2.11,2.11,0,0,1,211,270.57Z" style="fill:#263238"></path><path d="M211,285.57a3.84,3.84,0,0,1-.59.33,5.65,5.65,0,0,1-.61.22c-.2.07-.37.11-.52.15v1.07l.29,0,.63-.12.64-.13.3-.08v8.86h1.42V285.1H211.5A2,2,0,0,1,211,285.57Z" style="fill:#263238"></path><path d="M273.52,251a2.57,2.57,0,0,0,1.49-.4,2.39,2.39,0,0,0,.87-1.12,4.41,4.41,0,0,0,.28-1.64v-4.62a4.37,4.37,0,0,0-.28-1.64,2.29,2.29,0,0,0-.86-1.11,2.63,2.63,0,0,0-1.5-.4,2.7,2.7,0,0,0-1.52.4,2.36,2.36,0,0,0-.87,1.11,4.58,4.58,0,0,0-.27,1.64v4.62a4.39,4.39,0,0,0,.28,1.63,2.44,2.44,0,0,0,.87,1.12A2.64,2.64,0,0,0,273.52,251Zm-1.23-7.79a5,5,0,0,1,.09-1,1.43,1.43,0,0,1,.36-.74,1.21,1.21,0,0,1,1.55,0,1.51,1.51,0,0,1,.35.74,5,5,0,0,1,.09,1v4.64a4.25,4.25,0,0,1-.1.95,1.63,1.63,0,0,1-.35.75,1,1,0,0,1-.76.29,1,1,0,0,1-.77-.29,1.66,1.66,0,0,1-.37-.75,4.94,4.94,0,0,1-.09-.95Z" style="fill:#263238"></path><path d="M209.42,242.18l.64-.13.3-.08v8.86h1.42V240.12H210.7a2.11,2.11,0,0,1-.48.46,3.84,3.84,0,0,1-.59.33c-.21.09-.41.16-.61.23s-.37.11-.52.14v1.07l.29,0Z" style="fill:#263238"></path><path d="M210,235.54a2.55,2.55,0,0,0,1.5.42,2.58,2.58,0,0,0,1.5-.41,2.39,2.39,0,0,0,.87-1.12,4.37,4.37,0,0,0,.28-1.64v-4.61a4.39,4.39,0,0,0-.28-1.65,2.33,2.33,0,0,0-.86-1.11,2.64,2.64,0,0,0-1.51-.39,2.69,2.69,0,0,0-1.51.39,2.41,2.41,0,0,0-.87,1.11,4.6,4.6,0,0,0-.27,1.65v4.61a4.39,4.39,0,0,0,.28,1.63A2.39,2.39,0,0,0,210,235.54Zm.27-7.38a5.06,5.06,0,0,1,.1-1,1.47,1.47,0,0,1,.35-.73,1,1,0,0,1,.78-.28,1,1,0,0,1,.78.28,1.47,1.47,0,0,1,.35.73,5.07,5.07,0,0,1,.09,1v4.65a4.17,4.17,0,0,1-.1.94,1.54,1.54,0,0,1-.35.75,1.15,1.15,0,0,1-1.53,0,1.56,1.56,0,0,1-.37-.75,4.83,4.83,0,0,1-.1-.94Z" style="fill:#263238"></path><path d="M219.07,300.23a3.05,3.05,0,0,0-3,0,2.34,2.34,0,0,0-.87,1.1,4.63,4.63,0,0,0-.28,1.65v4.62a4.29,4.29,0,0,0,.29,1.62,2.42,2.42,0,0,0,.87,1.13,2.95,2.95,0,0,0,3,0,2.36,2.36,0,0,0,.87-1.11,4.66,4.66,0,0,0,.28-1.64V303a4.42,4.42,0,0,0-.28-1.65A2.26,2.26,0,0,0,219.07,300.23Zm-.29,7.38a4.25,4.25,0,0,1-.1.95,1.47,1.47,0,0,1-.36.74.94.94,0,0,1-.76.3,1,1,0,0,1-.76-.3,1.57,1.57,0,0,1-.37-.74,4.94,4.94,0,0,1-.1-.95V303a4.4,4.4,0,0,1,.1-1,1.51,1.51,0,0,1,.35-.73,1.06,1.06,0,0,1,.78-.28,1,1,0,0,1,.78.28,1.51,1.51,0,0,1,.35.73,5.1,5.1,0,0,1,.09,1Z" style="fill:#263238"></path><path d="M255.72,265.54a2.58,2.58,0,0,0,1.5.41,2.55,2.55,0,0,0,1.49-.41,2.41,2.41,0,0,0,.87-1.11,4.44,4.44,0,0,0,.28-1.64v-4.62a4.6,4.6,0,0,0-.27-1.65,2.38,2.38,0,0,0-.86-1.1,3.07,3.07,0,0,0-3,0,2.26,2.26,0,0,0-.86,1.1,4.39,4.39,0,0,0-.28,1.65v4.62a4.33,4.33,0,0,0,.28,1.62A2.42,2.42,0,0,0,255.72,265.54Zm.27-7.38a5.1,5.1,0,0,1,.09-1,1.4,1.4,0,0,1,.36-.73,1.21,1.21,0,0,1,1.55,0,1.47,1.47,0,0,1,.35.73,5.1,5.1,0,0,1,.09,1v4.64a4.17,4.17,0,0,1-.1.94,1.54,1.54,0,0,1-.35.75,1,1,0,0,1-.76.29,1,1,0,0,1-.76-.29,1.48,1.48,0,0,1-.37-.75,4.17,4.17,0,0,1-.1-.94Z" style="fill:#263238"></path><path d="M253.08,225.42a2.33,2.33,0,0,0-.86,1.11,4.39,4.39,0,0,0-.28,1.65v4.61a4.39,4.39,0,0,0,.28,1.63,2.35,2.35,0,0,0,.88,1.12,2.51,2.51,0,0,0,1.5.42,2.55,2.55,0,0,0,1.49-.41,2.39,2.39,0,0,0,.87-1.12,4.37,4.37,0,0,0,.28-1.64v-4.61a4.6,4.6,0,0,0-.27-1.65,2.46,2.46,0,0,0-.86-1.11,2.69,2.69,0,0,0-1.51-.39A2.72,2.72,0,0,0,253.08,225.42Zm2.64,1.77a5.06,5.06,0,0,1,.1,1v4.65a4.83,4.83,0,0,1-.1.94,1.64,1.64,0,0,1-.36.75,1,1,0,0,1-.76.29,1,1,0,0,1-.76-.29,1.48,1.48,0,0,1-.37-.75,4.17,4.17,0,0,1-.1-.94v-4.65a5.07,5.07,0,0,1,.09-1,1.4,1.4,0,0,1,.36-.73,1.21,1.21,0,0,1,1.55,0A1.47,1.47,0,0,1,255.72,227.19Z" style="fill:#263238"></path><path d="M311.44,225.42a2.29,2.29,0,0,0-.87,1.11,4.39,4.39,0,0,0-.28,1.65v4.61a4.39,4.39,0,0,0,.29,1.63,2.39,2.39,0,0,0,.87,1.12,2.51,2.51,0,0,0,1.5.42,2.58,2.58,0,0,0,1.5-.41,2.44,2.44,0,0,0,.86-1.12,4.36,4.36,0,0,0,.29-1.64v-4.61a4.6,4.6,0,0,0-.28-1.65,2.39,2.39,0,0,0-.86-1.11,3.12,3.12,0,0,0-3,0Zm2.64,1.77a5.07,5.07,0,0,1,.09,1v4.65a4.83,4.83,0,0,1-.1.94,1.64,1.64,0,0,1-.36.75,1,1,0,0,1-.76.29,1,1,0,0,1-.76-.29,1.56,1.56,0,0,1-.37-.75,4.17,4.17,0,0,1-.1-.94v-4.65a5.07,5.07,0,0,1,.09-1,1.4,1.4,0,0,1,.36-.73,1,1,0,0,1,.78-.28,1,1,0,0,1,.77.28A1.48,1.48,0,0,1,314.08,227.19Z" style="fill:#263238"></path><path d="M268.53,250.83V240.12h-1.07a2.39,2.39,0,0,1-.49.46,3.42,3.42,0,0,1-.59.33c-.21.09-.41.16-.61.23s-.37.11-.52.14v1.07l.29,0,.63-.12.65-.13.29-.08v8.86Z" style="fill:#263238"></path><path d="M271.87,279.42a4.36,4.36,0,0,0,.29-1.64v-4.62a4.37,4.37,0,0,0-.28-1.64,2.33,2.33,0,0,0-.86-1.11,3.12,3.12,0,0,0-3,0,2.41,2.41,0,0,0-.87,1.11,4.58,4.58,0,0,0-.28,1.64v4.62a4.39,4.39,0,0,0,.29,1.63,2.44,2.44,0,0,0,.87,1.12,2.53,2.53,0,0,0,1.5.41,2.58,2.58,0,0,0,1.5-.4A2.31,2.31,0,0,0,271.87,279.42Zm-1.14-1.63a4.19,4.19,0,0,1-.1.95,1.55,1.55,0,0,1-.36.75,1,1,0,0,1-.76.29,1,1,0,0,1-.76-.29,1.66,1.66,0,0,1-.37-.75,4.85,4.85,0,0,1-.1-.95v-4.64a4.31,4.31,0,0,1,.1-1,1.51,1.51,0,0,1,.35-.74,1.06,1.06,0,0,1,.78-.27,1,1,0,0,1,.78.27,1.51,1.51,0,0,1,.35.74,5,5,0,0,1,.09,1Z" style="fill:#263238"></path><path d="M259.94,235.54a2.51,2.51,0,0,0,1.5.42,2.55,2.55,0,0,0,1.49-.41,2.39,2.39,0,0,0,.87-1.12,4.37,4.37,0,0,0,.28-1.64v-4.61a4.6,4.6,0,0,0-.27-1.65,2.46,2.46,0,0,0-.86-1.11,3.14,3.14,0,0,0-3,0,2.33,2.33,0,0,0-.86,1.11,4.39,4.39,0,0,0-.28,1.65v4.61a4.39,4.39,0,0,0,.28,1.63A2.35,2.35,0,0,0,259.94,235.54Zm.27-7.38a5.07,5.07,0,0,1,.09-1,1.4,1.4,0,0,1,.36-.73,1.21,1.21,0,0,1,1.55,0,1.47,1.47,0,0,1,.35.73,5.07,5.07,0,0,1,.09,1v4.65a4.17,4.17,0,0,1-.1.94,1.54,1.54,0,0,1-.35.75,1,1,0,0,1-.76.29,1,1,0,0,1-.76-.29,1.48,1.48,0,0,1-.37-.75,4.17,4.17,0,0,1-.1-.94Z" style="fill:#263238"></path><path d="M257.32,220.55a2.58,2.58,0,0,0,1.5.41,2.62,2.62,0,0,0,1.49-.4,2.44,2.44,0,0,0,.87-1.12,4.44,4.44,0,0,0,.28-1.64v-4.62a4.6,4.6,0,0,0-.27-1.65,2.38,2.38,0,0,0-.86-1.1,2.59,2.59,0,0,0-1.51-.4,2.64,2.64,0,0,0-1.52.4,2.26,2.26,0,0,0-.86,1.1,4.39,4.39,0,0,0-.28,1.65v4.62a4.3,4.3,0,0,0,.28,1.62A2.37,2.37,0,0,0,257.32,220.55Zm.27-7.38a5.1,5.1,0,0,1,.09-1,1.44,1.44,0,0,1,.36-.73,1.21,1.21,0,0,1,1.55,0,1.51,1.51,0,0,1,.35.73,5.08,5.08,0,0,1,.1,1v4.64a4.94,4.94,0,0,1-.1.95,1.66,1.66,0,0,1-.36.74,1,1,0,0,1-.76.29,1,1,0,0,1-.76-.29,1.48,1.48,0,0,1-.37-.74,4.25,4.25,0,0,1-.1-.95Z" style="fill:#263238"></path><path d="M244.64,212.19l.64-.13.3-.08v8.86H247V210.12h-1.07a2,2,0,0,1-.48.47,3.51,3.51,0,0,1-.6.33,5.65,5.65,0,0,1-.61.22l-.52.15v1.07l.29-.05Z" style="fill:#263238"></path><path d="M283.23,265.83V255.11h-1.08a2.14,2.14,0,0,1-.48.47,3.84,3.84,0,0,1-.59.33c-.21.08-.41.16-.61.22l-.53.15v1.07l.3-.05.63-.12.64-.14a1.5,1.5,0,0,0,.3-.08v8.87Z" style="fill:#263238"></path><path d="M249.61,250.83V240.12h-1.07a2.11,2.11,0,0,1-.48.46,3.51,3.51,0,0,1-.6.33c-.21.09-.41.16-.61.23s-.37.11-.52.14v1.07l.29,0,.64-.12.64-.13.3-.08v8.86Z" style="fill:#263238"></path><path d="M308.42,285.41a3.05,3.05,0,0,0-3,0,2.28,2.28,0,0,0-.87,1.1,4.6,4.6,0,0,0-.28,1.65v4.62a4.29,4.29,0,0,0,.29,1.62,2.42,2.42,0,0,0,.87,1.13,3,3,0,0,0,3,0,2.49,2.49,0,0,0,.86-1.12,4.4,4.4,0,0,0,.29-1.64v-4.62a4.6,4.6,0,0,0-.28-1.65A2.32,2.32,0,0,0,308.42,285.41Zm-.29,7.38a4.25,4.25,0,0,1-.1.95,1.66,1.66,0,0,1-.36.74.93.93,0,0,1-.76.29,1,1,0,0,1-.76-.29,1.57,1.57,0,0,1-.37-.74,4.25,4.25,0,0,1-.1-.95v-4.64a4.92,4.92,0,0,1,.09-1,1.51,1.51,0,0,1,.36-.74,1.06,1.06,0,0,1,.78-.28,1,1,0,0,1,.78.28,1.6,1.6,0,0,1,.35.74,4.92,4.92,0,0,1,.09,1Z" style="fill:#263238"></path><path d="M250.48,220.55a3,3,0,0,0,3,0,2.44,2.44,0,0,0,.87-1.12,4.44,4.44,0,0,0,.28-1.64v-4.62a4.6,4.6,0,0,0-.27-1.65,2.38,2.38,0,0,0-.86-1.1A2.59,2.59,0,0,0,252,210a2.64,2.64,0,0,0-1.52.4,2.26,2.26,0,0,0-.86,1.1,4.39,4.39,0,0,0-.28,1.65v4.62a4.3,4.3,0,0,0,.28,1.62A2.37,2.37,0,0,0,250.48,220.55Zm.27-7.38a5.1,5.1,0,0,1,.09-1,1.44,1.44,0,0,1,.36-.73,1.21,1.21,0,0,1,1.55,0,1.51,1.51,0,0,1,.35.73,4.4,4.4,0,0,1,.1,1v4.64a4.94,4.94,0,0,1-.1.95,1.66,1.66,0,0,1-.36.74,1,1,0,0,1-.76.29,1,1,0,0,1-.76-.29,1.48,1.48,0,0,1-.37-.74,4.25,4.25,0,0,1-.1-.95Z" style="fill:#263238"></path><path d="M254.6,251a2.54,2.54,0,0,0,1.49-.4,2.39,2.39,0,0,0,.87-1.12,4.41,4.41,0,0,0,.28-1.64v-4.62a4.58,4.58,0,0,0-.27-1.64,2.41,2.41,0,0,0-.86-1.11,2.67,2.67,0,0,0-1.51-.4,2.72,2.72,0,0,0-1.52.4,2.29,2.29,0,0,0-.86,1.11,4.37,4.37,0,0,0-.28,1.64v4.62a4.39,4.39,0,0,0,.28,1.63,2.4,2.4,0,0,0,.88,1.12A2.58,2.58,0,0,0,254.6,251Zm-1.23-7.79a5,5,0,0,1,.09-1,1.43,1.43,0,0,1,.36-.74,1.21,1.21,0,0,1,1.55,0,1.51,1.51,0,0,1,.35.74,5,5,0,0,1,.1,1v4.64a4.94,4.94,0,0,1-.1.95,1.75,1.75,0,0,1-.36.75,1,1,0,0,1-.76.29,1,1,0,0,1-.76-.29,1.56,1.56,0,0,1-.37-.75,4.25,4.25,0,0,1-.1-.95Z" style="fill:#263238"></path><path d="M323.68,250.83V240.12h-1.07a2.16,2.16,0,0,1-.49.46,3.08,3.08,0,0,1-.59.33c-.21.09-.41.16-.61.23s-.37.11-.52.14v1.07l.29,0,.64-.12.64-.13.29-.08v8.86Z" style="fill:#263238"></path><path d="M264.31,265.83V255.11h-1.07a2.43,2.43,0,0,1-.49.47,3.42,3.42,0,0,1-.59.33c-.21.08-.41.16-.61.22l-.52.15v1.07l.29-.05.63-.12c.24-.05.46-.09.64-.14a1.27,1.27,0,0,0,.3-.08v8.87Z" style="fill:#263238"></path><path d="M321.91,212.19l.64-.13.3-.08v8.86h1.41V210.12h-1.07a2,2,0,0,1-.48.47,3.51,3.51,0,0,1-.6.33,5.65,5.65,0,0,1-.61.22l-.52.15v1.07l.29-.05Z" style="fill:#263238"></path><path d="M233.82,264.43a4.44,4.44,0,0,0,.29-1.64v-4.62a4.6,4.6,0,0,0-.28-1.65,2.32,2.32,0,0,0-.86-1.1,3.05,3.05,0,0,0-3,0,2.28,2.28,0,0,0-.87,1.1,4.39,4.39,0,0,0-.28,1.65v4.62a4.33,4.33,0,0,0,.29,1.62,2.47,2.47,0,0,0,.87,1.13,2.95,2.95,0,0,0,3,0A2.46,2.46,0,0,0,233.82,264.43Zm-1.14-1.63a4.17,4.17,0,0,1-.1.94,1.64,1.64,0,0,1-.36.75.93.93,0,0,1-.76.29,1,1,0,0,1-.76-.29,1.56,1.56,0,0,1-.37-.75,4.17,4.17,0,0,1-.1-.94v-4.64a5.1,5.1,0,0,1,.09-1,1.4,1.4,0,0,1,.36-.73,1,1,0,0,1,.78-.28,1,1,0,0,1,.77.28,1.48,1.48,0,0,1,.36.73,5.1,5.1,0,0,1,.09,1Z" style="fill:#263238"></path><path d="M231.15,285.41a3.05,3.05,0,0,0-3,0,2.28,2.28,0,0,0-.87,1.1,4.6,4.6,0,0,0-.28,1.65v4.62a4.29,4.29,0,0,0,.29,1.62,2.42,2.42,0,0,0,.87,1.13,3,3,0,0,0,3,0,2.49,2.49,0,0,0,.86-1.12,4.4,4.4,0,0,0,.29-1.64v-4.62a4.6,4.6,0,0,0-.28-1.65A2.32,2.32,0,0,0,231.15,285.41Zm-.29,7.38a4.25,4.25,0,0,1-.1.95,1.66,1.66,0,0,1-.36.74.93.93,0,0,1-.76.29,1,1,0,0,1-.76-.29,1.57,1.57,0,0,1-.37-.74,4.25,4.25,0,0,1-.1-.95v-4.64a4.92,4.92,0,0,1,.09-1,1.51,1.51,0,0,1,.36-.74,1.06,1.06,0,0,1,.78-.28,1,1,0,0,1,.78.28,1.6,1.6,0,0,1,.35.74,4.92,4.92,0,0,1,.09,1Z" style="fill:#263238"></path><path d="M302,220.55a2.58,2.58,0,0,0,1.5.41,2.65,2.65,0,0,0,1.5-.4,2.42,2.42,0,0,0,.86-1.12,4.44,4.44,0,0,0,.29-1.64v-4.62a4.39,4.39,0,0,0-.28-1.65,2.26,2.26,0,0,0-.86-1.1,3.05,3.05,0,0,0-3,0,2.34,2.34,0,0,0-.87,1.1,4.6,4.6,0,0,0-.28,1.65v4.62a4.29,4.29,0,0,0,.29,1.62A2.42,2.42,0,0,0,302,220.55Zm.27-7.38a4.4,4.4,0,0,1,.1-1,1.51,1.51,0,0,1,.35-.73,1.06,1.06,0,0,1,.78-.28,1,1,0,0,1,.78.28,1.51,1.51,0,0,1,.35.73,5.1,5.1,0,0,1,.09,1v4.64a4.25,4.25,0,0,1-.1.95,1.56,1.56,0,0,1-.36.74.93.93,0,0,1-.76.29,1,1,0,0,1-.76-.29,1.57,1.57,0,0,1-.37-.74,4.94,4.94,0,0,1-.1-.95Z" style="fill:#263238"></path><path d="M318.1,240.42a2.67,2.67,0,0,0-1.51-.4,2.72,2.72,0,0,0-1.52.4,2.29,2.29,0,0,0-.86,1.11,4.37,4.37,0,0,0-.28,1.64v4.62a4.6,4.6,0,0,0,.28,1.63,2.46,2.46,0,0,0,.88,1.12,2.58,2.58,0,0,0,1.5.41,2.52,2.52,0,0,0,1.49-.4,2.39,2.39,0,0,0,.87-1.12,4.4,4.4,0,0,0,.29-1.64v-4.62a4.58,4.58,0,0,0-.28-1.64A2.34,2.34,0,0,0,318.1,240.42Zm-.29,7.38a4.94,4.94,0,0,1-.1.95,1.75,1.75,0,0,1-.36.75,1,1,0,0,1-.76.29,1,1,0,0,1-.76-.29,1.56,1.56,0,0,1-.37-.75,4.25,4.25,0,0,1-.1-.95v-4.64a5,5,0,0,1,.09-1,1.43,1.43,0,0,1,.36-.74,1.06,1.06,0,0,1,.78-.28,1,1,0,0,1,.77.28,1.42,1.42,0,0,1,.35.74,4.31,4.31,0,0,1,.1,1Z" style="fill:#263238"></path><path d="M261.44,251a2.54,2.54,0,0,0,1.49-.4,2.39,2.39,0,0,0,.87-1.12,4.41,4.41,0,0,0,.28-1.64v-4.62a4.58,4.58,0,0,0-.27-1.64,2.41,2.41,0,0,0-.86-1.11,2.69,2.69,0,0,0-1.51-.4,2.72,2.72,0,0,0-1.52.4,2.29,2.29,0,0,0-.86,1.11,4.37,4.37,0,0,0-.28,1.64v4.62a4.39,4.39,0,0,0,.28,1.63,2.4,2.4,0,0,0,.88,1.12A2.58,2.58,0,0,0,261.44,251Zm-1.23-7.79a5,5,0,0,1,.09-1,1.43,1.43,0,0,1,.36-.74,1.21,1.21,0,0,1,1.55,0,1.51,1.51,0,0,1,.35.74,5,5,0,0,1,.1,1v4.64a4.94,4.94,0,0,1-.1.95,1.75,1.75,0,0,1-.36.75,1,1,0,0,1-.76.29,1,1,0,0,1-.76-.29,1.56,1.56,0,0,1-.37-.75,4.25,4.25,0,0,1-.1-.95Z" style="fill:#263238"></path><path d="M253,262.79v-4.62a4.6,4.6,0,0,0-.27-1.65,2.38,2.38,0,0,0-.86-1.1,2.59,2.59,0,0,0-1.51-.4,2.64,2.64,0,0,0-1.52.4,2.26,2.26,0,0,0-.86,1.1,4.39,4.39,0,0,0-.28,1.65v4.62a4.33,4.33,0,0,0,.28,1.62,2.42,2.42,0,0,0,.88,1.13,2.58,2.58,0,0,0,1.5.41,2.53,2.53,0,0,0,1.49-.41,2.41,2.41,0,0,0,.87-1.11A4.44,4.44,0,0,0,253,262.79Zm-1.42,0a4.83,4.83,0,0,1-.1.94,1.64,1.64,0,0,1-.36.75,1,1,0,0,1-.76.29,1,1,0,0,1-.76-.29,1.48,1.48,0,0,1-.37-.75,4.17,4.17,0,0,1-.1-.94v-4.64a5.1,5.1,0,0,1,.09-1,1.4,1.4,0,0,1,.36-.73,1.21,1.21,0,0,1,1.55,0,1.47,1.47,0,0,1,.35.73,5.08,5.08,0,0,1,.1,1Z" style="fill:#263238"></path><path d="M267.79,265.54a2.64,2.64,0,0,0,1.51.41,2.57,2.57,0,0,0,1.49-.41,2.41,2.41,0,0,0,.87-1.11,4.44,4.44,0,0,0,.28-1.64v-4.62a4.39,4.39,0,0,0-.28-1.65,2.26,2.26,0,0,0-.86-1.1,2.56,2.56,0,0,0-1.5-.4,2.62,2.62,0,0,0-1.52.4,2.34,2.34,0,0,0-.87,1.1,4.6,4.6,0,0,0-.27,1.65v4.62a4.33,4.33,0,0,0,.28,1.62A2.47,2.47,0,0,0,267.79,265.54Zm.28-7.38a5.1,5.1,0,0,1,.09-1,1.4,1.4,0,0,1,.36-.73,1.21,1.21,0,0,1,1.55,0,1.47,1.47,0,0,1,.35.73,5.1,5.1,0,0,1,.09,1v4.64a4.17,4.17,0,0,1-.1.94,1.54,1.54,0,0,1-.35.75,1.14,1.14,0,0,1-1.52,0,1.4,1.4,0,0,1-.37-.75,4.17,4.17,0,0,1-.1-.94Z" style="fill:#263238"></path><path d="M321.29,235.55a2.44,2.44,0,0,0,.86-1.12,4.36,4.36,0,0,0,.29-1.64v-4.61a4.6,4.6,0,0,0-.28-1.65,2.39,2.39,0,0,0-.86-1.11,3.12,3.12,0,0,0-3,0,2.29,2.29,0,0,0-.87,1.11,4.39,4.39,0,0,0-.28,1.65v4.61a4.39,4.39,0,0,0,.29,1.63,2.39,2.39,0,0,0,.87,1.12,2.51,2.51,0,0,0,1.5.42A2.58,2.58,0,0,0,321.29,235.55Zm-2.63-1.8a4.17,4.17,0,0,1-.1-.94v-4.65a5.07,5.07,0,0,1,.09-1,1.4,1.4,0,0,1,.36-.73,1,1,0,0,1,.78-.28,1,1,0,0,1,.77.28,1.48,1.48,0,0,1,.36.73,5.07,5.07,0,0,1,.09,1v4.65a4.83,4.83,0,0,1-.1.94,1.64,1.64,0,0,1-.36.75,1,1,0,0,1-.76.29,1,1,0,0,1-.76-.29A1.56,1.56,0,0,1,318.66,233.75Z" style="fill:#263238"></path><path d="M231.15,300.23a3.05,3.05,0,0,0-3,0,2.28,2.28,0,0,0-.87,1.1A4.63,4.63,0,0,0,227,303v4.62a4.29,4.29,0,0,0,.29,1.62,2.42,2.42,0,0,0,.87,1.13,2.95,2.95,0,0,0,3,0,2.41,2.41,0,0,0,.86-1.11,4.44,4.44,0,0,0,.29-1.64V303a4.63,4.63,0,0,0-.28-1.65A2.32,2.32,0,0,0,231.15,300.23Zm-.29,7.38a4.25,4.25,0,0,1-.1.95,1.66,1.66,0,0,1-.36.74.94.94,0,0,1-.76.3,1,1,0,0,1-.76-.3,1.57,1.57,0,0,1-.37-.74,4.25,4.25,0,0,1-.1-.95V303a5.1,5.1,0,0,1,.09-1,1.52,1.52,0,0,1,.36-.73,1.06,1.06,0,0,1,.78-.28,1,1,0,0,1,.78.28,1.61,1.61,0,0,1,.35.73,5.1,5.1,0,0,1,.09,1Z" style="fill:#263238"></path></g><g id="freepik--Character--inject-2"><path d="M452.68,325.13s5,4.4,4.1,6.15-19,20.21-19,20.21l-3.22-4.68,10.25-18.46Z" style="fill:#fff;stroke:#263238;stroke-miterlimit:10"></path><path d="M428.78,302.37s22.14,19.54,22.14,20.71-8.2,8.79-8.2,8.79l-16.11-4.69.88-18.16" style="fill:#fff;stroke:#263238;stroke-miterlimit:10"></path><path d="M447.11,317.52l-6.73,14.93.88,2.05,13.18-11.13S451.51,317.22,447.11,317.52Z" style="fill:#fff;stroke:#263238;stroke-miterlimit:10"></path><path d="M370.21,331a9,9,0,0,1-6.12-1.48l-39.67-26.9a9,9,0,1,1,10.1-14.9l39.67,26.9a9,9,0,0,1-4,16.38Z" style="fill:#fff;stroke:#263238;stroke-linecap:round;stroke-linejoin:round"></path><path d="M350.67,333.45s2.43,4.38,3.4,5.62S360,341.4,360,341.4s5.23,13.72,6.25,16.17,3.18,6.7,4.19,7,8.39,3.65,10.15,1.31,1.48-10.58,1.48-10.58l-15-14.76L366,335.69Z" style="fill:#fff;stroke:#263238;stroke-miterlimit:10"></path><path d="M454.08,396.62a19,19,0,0,1-12.91-3.14l-85.94-58.26a19,19,0,1,1,21.32-31.45L462.49,362a19,19,0,0,1-8.41,34.6Z" style="fill:#002A7C;stroke:#263238;stroke-miterlimit:10"></path><path d="M353.24,339.1s-2.24-5.79-2.53-6.37-2.11-3-1.82-3.74,1.15-1.15,2.49-.19,3.85,6.42,3.85,6.42,3.93-2,5.66-.28,2.11,6.34,2.11,6.34" style="fill:#fff;stroke:#263238;stroke-miterlimit:10"></path><path d="M238.66,130.51A103.51,103.51,0,1,0,353.7,221,103.51,103.51,0,0,0,238.66,130.51Zm23.11,193.73a91.59,91.59,0,1,1,80.1-101.8A91.6,91.6,0,0,1,261.77,324.24Z" style="fill:#fff;stroke:#263238;stroke-linecap:round;stroke-linejoin:round"></path><path d="M234.6,128.79a103.51,103.51,0,1,0,115,90.52A103.51,103.51,0,0,0,234.6,128.79Zm23.11,193.73a91.59,91.59,0,1,1,80.1-101.8A91.6,91.6,0,0,1,257.71,322.52Z" style="fill:#fff;stroke:#263238;stroke-linecap:round;stroke-linejoin:round"></path><path d="M386.61,273.65s-2.55,7.15-2.38,8.51.85,1.88,0,2.73-3.57,2.89-3.23,4.08a7,7,0,0,0,2,2.55s1.87,7.49,3.74,8.34,4.77.17,4.77.17l2,5.45,14.3-3.57-.85-8.68s4.25-8.17,3.23-13.11-9.87-9.7-15.66-9.7S387.12,272.29,386.61,273.65Z" style="fill:#fff;stroke:#263238;stroke-miterlimit:10"></path><path d="M386.7,293.58s2.23-.29,2.91-1.65" style="fill:none;stroke:#263238;stroke-miterlimit:10"></path><path d="M386.9,284.85c0,.59-.2,1.07-.44,1.07s-.43-.48-.43-1.07.19-1.07.43-1.07S386.9,284.26,386.9,284.85Z" style="fill:#263238"></path><path d="M385.83,282.43s1.26-1.55,2,.38" style="fill:none;stroke:#263238;stroke-miterlimit:10"></path><path d="M390,276.38s-5.62.34-6-4.94,7.32-8.17,10.21-8.17.85,2.9.85,2.9,7.15-2.05,9-.17.34,3.4.34,3.4,9.36,3.91,9.36,10.72-4.93,13.45-5.78,14.81-2.9,2.55-6.64,2.72-6-1.7-6.81-4.25l-.85-2.56s2.89-3.06,1.53-5.61-2.21-1-2.55,0,.34,2-.34,2-.17-.85-2-2.72-3.41-2.73-2.73-4.6A11.58,11.58,0,0,1,390,276.38Z" style="fill:#263238;stroke:#263238;stroke-miterlimit:10"></path><polygon points="389.51 304.65 387.48 309.14 413.32 303.26 410.33 299.53 389.51 304.65" style="fill:#fff;stroke:#263238;stroke-miterlimit:10"></polygon><path d="M399.89,458.05s-7.7,1.84-12.18,1.84-6.44-.23-6.44,1.26,7.13,4.25,11.26,5.86,12.18,3.91,12.87,3.68,2.07-8.62,2.07-8.62Z" style="fill:#fff;stroke:#263238;stroke-miterlimit:10"></path><path d="M381.73,460.28a.94.94,0,0,0-.46.87c0,1.5,7.13,4.25,11.26,5.86s12.18,3.91,12.87,3.68c.16-.05.35-.54.56-1.24C397.91,467.84,385.05,461.86,381.73,460.28Z" style="fill:#263238;stroke:#263238;stroke-miterlimit:10"></path><path d="M386.1,359.82a166.18,166.18,0,0,0,.69,16.66c.8,7.69,4.48,41.47,4.82,46.76s8.28,34.81,8.28,34.81l7.58,4s3.79-32.86,3.79-38.37v-9.19s6.66-26.09,8.73-32.29,3.1-18.5,2.88-25.39a59.59,59.59,0,0,1-19,4A79.12,79.12,0,0,1,386.1,359.82Z" style="fill:#263238;stroke:#263238;stroke-miterlimit:10"></path><path d="M428.09,312.19,425,337s-1.21,18.78-1.55,20.51-1.9,2.58-9,5-26.2.69-27.75-.87-1.89-16.71-1.89-16.71-2.07,8.79-3.62,10-7.41.69-10.17-1.89.52-32.23.34-35,16.89-9.48,16.89-9.48,23.71-5.44,25-5.31,14.43-2.61,15.46-.89,1.73,2.76,1.73,2.76" style="fill:#fff;stroke:#263238;stroke-miterlimit:10"></path><line x1="384.84" y1="344.94" x2="380.18" y2="322.36" style="fill:none;stroke:#263238;stroke-miterlimit:10"></line><line x1="410.01" y1="313.93" x2="399.3" y2="346.06" style="fill:none;stroke:#263238;stroke-miterlimit:10"></line><line x1="407.09" y1="334.86" x2="399.3" y2="354.34" style="fill:none;stroke:#263238;stroke-miterlimit:10"></line><path d="M369.81,345.82a2.12,2.12,0,0,0-.39,1.26c0,.77-1.54,7-.87,8.21s3.48,2.91,8,3.1,6.28-.48,6.67-1.65a49.1,49.1,0,0,0,1.35-7.54c-.09-.67-.67-.29-.67-.29a17.58,17.58,0,0,1-8.9-.48C370.49,346.88,369.81,345.82,369.81,345.82Z" style="fill:#fff;stroke:#263238;stroke-miterlimit:10"></path><path d="M386.67,366.36s.23,19.31.69,30.68,2.3,21.26,3,23.55,16.32,22.29,19.88,26.55,10.45,10.68,10.45,10.68l7.78-4.25s-10.08-14.36-13.29-21-8.85-17.69-8.85-17.69L409.88,383l5.86-3.21" style="fill:#263238;stroke:#263238;stroke-miterlimit:10"></path><polyline points="414.48 381.37 409.69 384.57 406.32 414.85 411.26 423.7" style="fill:none;stroke:#696969;stroke-miterlimit:10"></polyline><path d="M420.81,457.52s-3.7,5.49-5.1,6.76-6.89,4.6-7.66,5.36,3.45,1.41,6.51,1.41,6.89-.64,8.8-1.79,9.06-6.25,9.95-7.14-4.85-8.55-4.85-8.55Z" style="fill:#fff;stroke:#263238;stroke-miterlimit:10"></path><path d="M433.31,462.12c.31-.31-.16-1.4-.91-2.7-2.79,2.93-9,9.19-11.59,10-2.88.85-10.21.28-12.54.07l-.22.18c-.76.77,3.45,1.41,6.51,1.41s6.89-.64,8.8-1.79S432.42,463,433.31,462.12Z" style="fill:#263238;stroke:#263238;stroke-miterlimit:10"></path></g></svg>