<svg xmlns="http://www.w3.org/2000/svg" xmlns:xlink="http://www.w3.org/1999/xlink" width="200" zoomAndPan="magnify" viewBox="0 0 150 149.999998" height="200" preserveAspectRatio="xMidYMid meet" version="1.0"><defs><clipPath id="6937295a19"><path d="M 117.382812 21.214844 L 125.019531 21.214844 L 125.019531 28.910156 L 117.382812 28.910156 Z M 117.382812 21.214844 " clip-rule="nonzero"/></clipPath><clipPath id="394e52b44e"><path d="M 125 11.660156 L 134 11.660156 L 134 21 L 125 21 Z M 125 11.660156 " clip-rule="nonzero"/></clipPath><clipPath id="2dca47ae3c"><path d="M 117.035156 21.199219 L 119.660156 21.199219 L 119.660156 27.246094 L 117.035156 27.246094 Z M 117.035156 21.199219 " clip-rule="nonzero"/></clipPath><clipPath id="42406d1b33"><path d="M 117.03125 26 L 119 26 L 119 28 L 117.03125 28 Z M 117.03125 26 " clip-rule="nonzero"/></clipPath><clipPath id="bd98b09f20"><path d="M 132 13 L 134.210938 13 L 134.210938 20 L 132 20 Z M 132 13 " clip-rule="nonzero"/></clipPath><clipPath id="a77dbd213c"><path d="M 132 12 L 134.210938 12 L 134.210938 14 L 132 14 Z M 132 12 " clip-rule="nonzero"/></clipPath><clipPath id="8c433f8214"><path d="M 15 16.648438 L 42 16.648438 L 42 44.398438 L 15 44.398438 Z M 15 16.648438 " clip-rule="nonzero"/></clipPath><clipPath id="3af1c6dfbe"><path d="M 101.902344 119.570312 L 116.902344 119.570312 L 116.902344 135.320312 L 101.902344 135.320312 Z M 101.902344 119.570312 " clip-rule="nonzero"/></clipPath><clipPath id="845c3bf5b3"><path d="M 63.550781 56.082031 L 71.191406 56.082031 L 71.191406 63.742188 L 63.550781 63.742188 Z M 63.550781 56.082031 " clip-rule="nonzero"/></clipPath><clipPath id="290adb5955"><path d="M 54.289062 64 L 64 64 L 64 73.296875 L 54.289062 73.296875 Z M 54.289062 64 " clip-rule="nonzero"/></clipPath><clipPath id="f9acfccf51"><path d="M 68.914062 57.710938 L 71.539062 57.710938 L 71.539062 63.757812 L 68.914062 63.757812 Z M 68.914062 57.710938 " clip-rule="nonzero"/></clipPath><clipPath id="510f132c54"><path d="M 70 57 L 71.539062 57 L 71.539062 59 L 70 59 Z M 70 57 " clip-rule="nonzero"/></clipPath><clipPath id="14c85cdad0"><path d="M 54.289062 65 L 57 65 L 57 72 L 54.289062 72 Z M 54.289062 65 " clip-rule="nonzero"/></clipPath><clipPath id="b01f1eec1a"><path d="M 54.289062 71 L 56 71 L 56 73 L 54.289062 73 Z M 54.289062 71 " clip-rule="nonzero"/></clipPath><clipPath id="ac7be79da2"><path d="M 124 62 L 140.152344 62 L 140.152344 80 L 124 80 Z M 124 62 " clip-rule="nonzero"/></clipPath><clipPath id="4b1c4e86d1"><path d="M 101.902344 62 L 118 62 L 118 80 L 101.902344 80 Z M 101.902344 62 " clip-rule="nonzero"/></clipPath><clipPath id="c3cc9c145a"><path d="M 134 56.082031 L 136 56.082031 L 136 58 L 134 58 Z M 134 56.082031 " clip-rule="nonzero"/></clipPath><clipPath id="e5e39fb0b3"><path d="M 106 84 L 108 84 L 108 85.332031 L 106 85.332031 Z M 106 84 " clip-rule="nonzero"/></clipPath><clipPath id="bfc9026cf0"><path d="M 9.25 104 L 25 104 L 25 121 L 9.25 121 Z M 9.25 104 " clip-rule="nonzero"/></clipPath><clipPath id="f23e9532b7"><path d="M 32 104 L 47.5 104 L 47.5 122 L 32 122 Z M 32 104 " clip-rule="nonzero"/></clipPath><clipPath id="cd4f84d497"><path d="M 9.25 104 L 25 104 L 25 122 L 9.25 122 Z M 9.25 104 " clip-rule="nonzero"/></clipPath><clipPath id="3f81a052f3"><path d="M 41 98.140625 L 43 98.140625 L 43 100 L 41 100 Z M 41 98.140625 " clip-rule="nonzero"/></clipPath><clipPath id="fa39b04995"><path d="M 13 126 L 15 126 L 15 127.390625 L 13 127.390625 Z M 13 126 " clip-rule="nonzero"/></clipPath></defs><rect x="-15" width="180" fill="#ffffff" y="-15" height="179.999997" fill-opacity="1"/><rect x="-15" width="180" fill="#ffffff" y="-15" height="179.999997" fill-opacity="1"/><rect x="-15" width="180" fill="#1d1c22" y="-15" height="179.999997" fill-opacity="1"/><path fill="#2a292f" d="M 124.59375 21.820312 L 124.894531 21.214844 L 125.472656 21.476562 C 125.636719 21.222656 125.832031 21.003906 126.054688 20.816406 L 125.730469 20.269531 L 126.289062 19.898438 L 126.660156 20.414062 C 126.925781 20.28125 127.203125 20.1875 127.492188 20.136719 L 127.484375 19.5 L 128.152344 19.457031 L 128.21875 20.09375 C 128.507812 20.109375 128.796875 20.167969 129.078125 20.269531 L 129.386719 19.714844 L 129.984375 20.015625 L 129.726562 20.597656 C 129.976562 20.761719 130.199219 20.960938 130.382812 21.183594 L 130.925781 20.855469 L 131.296875 21.421875 L 130.78125 21.792969 C 130.914062 22.058594 131.007812 22.339844 131.058594 22.632812 L 131.691406 22.621094 L 131.734375 23.296875 L 131.101562 23.359375 C 131.085938 23.652344 131.027344 23.941406 130.925781 24.226562 L 131.480469 24.535156 L 131.179688 25.140625 L 130.601562 24.878906 C 130.4375 25.128906 130.238281 25.351562 130.019531 25.539062 L 130.34375 26.085938 L 129.785156 26.457031 L 129.414062 25.941406 C 129.148438 26.074219 128.867188 26.167969 128.578125 26.21875 L 128.589844 26.855469 L 127.917969 26.894531 L 127.855469 26.261719 C 127.566406 26.246094 127.277344 26.1875 126.996094 26.085938 L 126.6875 26.640625 L 126.085938 26.339844 L 126.347656 25.757812 C 126.09375 25.59375 125.875 25.394531 125.6875 25.171875 L 125.144531 25.5 L 124.777344 24.933594 L 125.289062 24.5625 C 125.160156 24.296875 125.066406 24.015625 125.011719 23.722656 L 124.378906 23.734375 L 124.339844 23.058594 L 124.96875 22.996094 C 124.988281 22.703125 125.042969 22.414062 125.148438 22.128906 Z M 127.226562 24.800781 C 128.121094 25.25 129.203125 24.886719 129.648438 23.992188 C 130.097656 23.09375 129.734375 22.003906 128.84375 21.554688 C 127.953125 21.105469 126.871094 21.46875 126.421875 22.363281 C 125.976562 23.261719 126.335938 24.351562 127.226562 24.800781 " fill-opacity="1" fill-rule="nonzero"/><g clip-path="url(#6937295a19)"><path fill="#2a292f" d="M 118.335938 22.484375 L 118.847656 22.007812 L 119.316406 22.472656 C 119.570312 22.289062 119.839844 22.144531 120.125 22.042969 L 120.007812 21.390625 L 120.6875 21.234375 L 120.859375 21.871094 C 121.164062 21.839844 121.472656 21.851562 121.773438 21.90625 L 121.996094 21.28125 L 122.664062 21.488281 L 122.496094 22.128906 C 122.773438 22.253906 123.03125 22.414062 123.269531 22.617188 L 123.773438 22.1875 L 124.246094 22.703125 L 123.785156 23.175781 C 123.96875 23.429688 124.113281 23.703125 124.214844 23.988281 L 124.859375 23.867188 L 125.015625 24.554688 L 124.382812 24.730469 C 124.414062 25.035156 124.402344 25.34375 124.347656 25.648438 L 124.96875 25.871094 L 124.761719 26.542969 L 124.125 26.375 C 124.003906 26.652344 123.84375 26.914062 123.640625 27.152344 L 124.066406 27.660156 L 123.554688 28.136719 L 123.085938 27.671875 C 122.835938 27.855469 122.5625 28 122.277344 28.101562 L 122.398438 28.753906 L 121.71875 28.910156 L 121.542969 28.269531 C 121.238281 28.304688 120.929688 28.292969 120.628906 28.238281 L 120.40625 28.863281 L 119.742188 28.65625 L 119.90625 28.015625 C 119.632812 27.890625 119.371094 27.730469 119.132812 27.523438 L 118.628906 27.953125 L 118.15625 27.441406 L 118.617188 26.96875 C 118.433594 26.714844 118.292969 26.441406 118.191406 26.15625 L 117.542969 26.273438 L 117.386719 25.589844 L 118.023438 25.414062 C 117.988281 25.109375 118 24.796875 118.054688 24.496094 L 117.433594 24.273438 L 117.640625 23.601562 L 118.277344 23.769531 C 118.398438 23.492188 118.5625 23.230469 118.765625 22.988281 Z M 119.824219 26.359375 C 120.53125 27.125 121.71875 27.167969 122.480469 26.457031 C 123.242188 25.746094 123.285156 24.550781 122.578125 23.785156 C 121.871094 23.019531 120.683594 22.976562 119.921875 23.6875 C 119.164062 24.398438 119.121094 25.59375 119.824219 26.359375 " fill-opacity="1" fill-rule="nonzero"/></g><g clip-path="url(#394e52b44e)"><path fill="#2a292f" d="M 126.625 14.730469 C 126.660156 14.648438 126.695312 14.566406 126.734375 14.484375 C 126.894531 14.152344 127.105469 13.863281 127.355469 13.621094 L 126.824219 12.640625 L 127.558594 12.140625 L 128.265625 13 C 128.671875 12.816406 129.113281 12.726562 129.5625 12.730469 L 129.878906 11.660156 L 130.746094 11.828125 L 130.644531 12.941406 C 130.726562 12.972656 130.808594 13.007812 130.890625 13.050781 C 131.21875 13.210938 131.507812 13.421875 131.75 13.671875 L 132.722656 13.140625 L 133.21875 13.878906 L 132.367188 14.589844 C 132.546875 15 132.636719 15.445312 132.632812 15.894531 L 133.695312 16.210938 L 133.527344 17.085938 L 132.425781 16.984375 C 132.390625 17.066406 132.355469 17.148438 132.316406 17.230469 C 132.15625 17.5625 131.945312 17.851562 131.695312 18.09375 L 132.226562 19.074219 L 131.492188 19.574219 L 130.785156 18.714844 C 130.378906 18.898438 129.9375 18.988281 129.488281 18.984375 L 129.171875 20.054688 L 128.304688 19.886719 L 128.40625 18.773438 C 128.324219 18.742188 128.242188 18.707031 128.160156 18.664062 C 127.832031 18.503906 127.542969 18.292969 127.300781 18.042969 L 126.328125 18.574219 L 125.832031 17.835938 L 126.683594 17.125 C 126.503906 16.714844 126.410156 16.269531 126.417969 15.820312 L 125.355469 15.503906 L 125.519531 14.628906 Z M 128.617188 17.722656 C 129.640625 18.226562 130.878906 17.800781 131.378906 16.769531 C 131.878906 15.738281 131.457031 14.496094 130.433594 13.992188 C 129.410156 13.488281 128.171875 13.914062 127.671875 14.945312 C 127.171875 15.976562 127.59375 17.21875 128.617188 17.722656 " fill-opacity="1" fill-rule="nonzero"/></g><g clip-path="url(#2dca47ae3c)"><path fill="#2a292f" d="M 117.664062 27.238281 C 117.671875 27.238281 117.683594 27.234375 117.691406 27.230469 C 117.714844 27.214844 117.722656 27.183594 117.707031 27.15625 C 117.335938 26.527344 117.140625 25.808594 117.140625 25.070312 C 117.140625 23.425781 118.113281 21.949219 119.621094 21.308594 C 119.648438 21.296875 119.660156 21.265625 119.648438 21.238281 C 119.636719 21.210938 119.605469 21.199219 119.582031 21.210938 C 118.035156 21.867188 117.035156 23.382812 117.035156 25.070312 C 117.035156 25.828125 117.238281 26.566406 117.617188 27.210938 C 117.628906 27.226562 117.644531 27.238281 117.664062 27.238281 " fill-opacity="1" fill-rule="nonzero"/></g><g clip-path="url(#42406d1b33)"><path fill="#2a292f" d="M 117.566406 27.019531 L 117.125 27.054688 L 117.125 27.070312 L 117.683594 27.429688 C 117.847656 27.578125 118.011719 27.726562 118.175781 27.875 C 118.089844 27.671875 118.003906 27.46875 117.914062 27.265625 L 117.753906 26.617188 L 117.742188 26.609375 L 117.566406 27.019531 " fill-opacity="1" fill-rule="nonzero"/></g><g clip-path="url(#bd98b09f20)"><path fill="#2a292f" d="M 132.261719 19.34375 C 132.269531 19.34375 132.277344 19.34375 132.285156 19.339844 C 132.988281 18.992188 133.511719 18.449219 133.84375 17.71875 C 134.148438 17.046875 134.277344 16.25 134.226562 15.347656 C 134.183594 14.574219 133.957031 13.847656 133.570312 13.242188 C 133.554688 13.21875 133.523438 13.210938 133.5 13.226562 C 133.472656 13.242188 133.46875 13.277344 133.484375 13.300781 C 133.859375 13.890625 134.082031 14.601562 134.125 15.355469 C 134.226562 17.210938 133.558594 18.59375 132.238281 19.246094 C 132.210938 19.257812 132.203125 19.289062 132.214844 19.316406 C 132.222656 19.335938 132.242188 19.34375 132.261719 19.34375 " fill-opacity="1" fill-rule="nonzero"/></g><g clip-path="url(#a77dbd213c)"><path fill="#2a292f" d="M 133.628906 13.433594 L 134.070312 13.378906 L 134.070312 13.363281 L 133.496094 13.027344 C 133.324219 12.886719 133.152344 12.746094 132.984375 12.605469 C 133.078125 12.804688 133.175781 13.003906 133.269531 13.203125 L 133.457031 13.847656 L 133.472656 13.851562 L 133.628906 13.433594 " fill-opacity="1" fill-rule="nonzero"/></g><path fill="#2a292f" d="M 129.109375 27.085938 C 129.117188 27.085938 129.121094 27.082031 129.128906 27.082031 C 130.625 26.519531 131.546875 25.675781 131.9375 24.511719 C 132.273438 23.507812 132.222656 22.429688 131.796875 21.464844 C 131.785156 21.4375 131.753906 21.425781 131.726562 21.4375 C 131.699219 21.449219 131.6875 21.480469 131.699219 21.507812 C 132.113281 22.445312 132.164062 23.5 131.835938 24.476562 C 131.457031 25.609375 130.558594 26.429688 129.089844 26.984375 C 129.066406 26.992188 129.050781 27.023438 129.0625 27.050781 C 129.070312 27.070312 129.089844 27.085938 129.109375 27.085938 " fill-opacity="1" fill-rule="nonzero"/><path fill="#2a292f" d="M 129.285156 26.964844 L 129.625 27.253906 L 129.617188 27.265625 L 128.953125 27.226562 C 128.734375 27.25 128.515625 27.273438 128.292969 27.296875 C 128.484375 27.183594 128.671875 27.070312 128.863281 26.957031 L 129.371094 26.523438 L 129.382812 26.527344 L 129.285156 26.964844 " fill-opacity="1" fill-rule="nonzero"/><g clip-path="url(#8c433f8214)"><path fill="#2a292f" d="M 38.910156 32.070312 C 38.984375 31.5625 39.035156 31.046875 39.035156 30.523438 C 39.035156 29.996094 38.984375 29.480469 38.910156 28.972656 L 41.675781 26.800781 C 41.929688 26.597656 42 26.234375 41.839844 25.949219 L 39.117188 21.21875 C 38.953125 20.9375 38.605469 20.816406 38.300781 20.9375 L 35.046875 22.246094 C 34.242188 21.605469 33.339844 21.082031 32.367188 20.695312 L 31.871094 17.214844 C 31.828125 16.890625 31.550781 16.648438 31.222656 16.648438 L 25.777344 16.648438 C 25.449219 16.648438 25.171875 16.890625 25.128906 17.214844 L 24.632812 20.695312 C 23.660156 21.082031 22.757812 21.605469 21.953125 22.25 L 18.699219 20.9375 C 18.394531 20.816406 18.046875 20.9375 17.882812 21.21875 L 15.164062 25.949219 C 15 26.234375 15.070312 26.597656 15.328125 26.800781 L 18.089844 28.976562 C 18.015625 29.480469 17.964844 29.996094 17.964844 30.523438 C 17.964844 31.046875 18.015625 31.5625 18.089844 32.070312 L 15.324219 34.246094 C 15.070312 34.445312 15 34.808594 15.160156 35.09375 L 17.882812 39.824219 C 18.046875 40.109375 18.394531 40.226562 18.699219 40.105469 L 21.953125 38.796875 C 22.757812 39.4375 23.660156 39.960938 24.628906 40.347656 L 25.125 43.828125 C 25.171875 44.152344 25.449219 44.394531 25.777344 44.394531 L 31.222656 44.394531 C 31.550781 44.394531 31.828125 44.152344 31.871094 43.828125 L 32.367188 40.347656 C 33.339844 39.960938 34.242188 39.4375 35.046875 38.792969 L 38.300781 40.105469 C 38.605469 40.226562 38.953125 40.105469 39.117188 39.820312 L 41.835938 35.09375 C 42 34.808594 41.929688 34.445312 41.671875 34.242188 Z M 38.910156 32.070312 " fill-opacity="1" fill-rule="nonzero"/></g><path fill="#1d1c22" d="M 22.1875 30.84375 L 25.207031 32.175781 L 25.207031 34.0625 L 20.355469 31.628906 L 20.355469 30.039062 L 25.207031 27.59375 L 25.207031 29.480469 Z M 22.1875 30.84375 " fill-opacity="1" fill-rule="nonzero"/><path fill="#1d1c22" d="M 27.890625 35.808594 L 26.511719 35.808594 L 29.425781 25.238281 L 30.804688 25.238281 Z M 27.890625 35.808594 " fill-opacity="1" fill-rule="nonzero"/><path fill="#1d1c22" d="M 34.890625 30.820312 L 31.8125 29.476562 L 31.8125 27.605469 L 36.730469 30.039062 L 36.730469 31.628906 L 31.8125 34.070312 L 31.8125 32.195312 Z M 34.890625 30.820312 " fill-opacity="1" fill-rule="nonzero"/><g clip-path="url(#3af1c6dfbe)"><path fill="#2a292f" d="M 115.183594 128.324219 C 115.222656 128.039062 115.253906 127.746094 115.253906 127.445312 C 115.253906 127.148438 115.222656 126.855469 115.183594 126.570312 L 116.71875 125.332031 C 116.859375 125.21875 116.898438 125.011719 116.808594 124.851562 L 115.296875 122.167969 C 115.207031 122.003906 115.011719 121.9375 114.84375 122.007812 L 113.035156 122.75 C 112.589844 122.386719 112.089844 122.089844 111.550781 121.871094 L 111.273438 119.894531 C 111.25 119.710938 111.09375 119.570312 110.914062 119.570312 L 107.890625 119.570312 C 107.707031 119.570312 107.550781 119.710938 107.527344 119.894531 L 107.25 121.871094 C 106.710938 122.089844 106.210938 122.386719 105.765625 122.75 L 103.957031 122.007812 C 103.789062 121.9375 103.59375 122.003906 103.503906 122.167969 L 101.992188 124.851562 C 101.902344 125.011719 101.941406 125.21875 102.082031 125.335938 L 103.617188 126.570312 C 103.578125 126.855469 103.546875 127.148438 103.546875 127.445312 C 103.546875 127.746094 103.578125 128.039062 103.617188 128.324219 L 102.082031 129.558594 C 101.941406 129.675781 101.902344 129.882812 101.992188 130.042969 L 103.503906 132.726562 C 103.59375 132.886719 103.789062 132.957031 103.957031 132.886719 L 105.765625 132.144531 C 106.210938 132.507812 106.710938 132.804688 107.25 133.023438 L 107.527344 135 C 107.550781 135.183594 107.707031 135.320312 107.890625 135.320312 L 110.910156 135.320312 C 111.09375 135.320312 111.25 135.183594 111.273438 135 L 111.550781 133.023438 C 112.089844 132.804688 112.589844 132.507812 113.035156 132.144531 L 114.84375 132.886719 C 115.011719 132.957031 115.207031 132.886719 115.296875 132.726562 L 116.808594 130.042969 C 116.898438 129.878906 116.859375 129.675781 116.71875 129.558594 Z M 115.183594 128.324219 " fill-opacity="1" fill-rule="nonzero"/></g><path fill="#1d1c22" d="M 105.894531 127.628906 L 107.570312 128.386719 L 107.570312 129.457031 L 104.875 128.074219 L 104.875 127.171875 L 107.570312 125.785156 L 107.570312 126.855469 Z M 105.894531 127.628906 " fill-opacity="1" fill-rule="nonzero"/><path fill="#1d1c22" d="M 109.0625 130.445312 L 108.296875 130.445312 L 109.914062 124.445312 L 110.679688 124.445312 Z M 109.0625 130.445312 " fill-opacity="1" fill-rule="nonzero"/><path fill="#1d1c22" d="M 112.949219 127.617188 L 111.242188 126.851562 L 111.242188 125.789062 L 113.972656 127.171875 L 113.972656 128.074219 L 111.242188 129.460938 L 111.242188 128.398438 Z M 112.949219 127.617188 " fill-opacity="1" fill-rule="nonzero"/><path fill="#2a292f" d="M 63.980469 63.136719 L 63.679688 63.742188 L 63.101562 63.480469 C 62.9375 63.730469 62.738281 63.953125 62.519531 64.140625 L 62.84375 64.6875 L 62.285156 65.058594 L 61.914062 64.542969 C 61.648438 64.675781 61.367188 64.769531 61.078125 64.820312 L 61.089844 65.457031 L 60.417969 65.496094 L 60.355469 64.863281 C 60.066406 64.847656 59.777344 64.789062 59.496094 64.6875 L 59.1875 65.242188 L 58.585938 64.941406 L 58.847656 64.359375 C 58.59375 64.195312 58.375 63.996094 58.1875 63.773438 L 57.644531 64.101562 L 57.277344 63.535156 L 57.789062 63.164062 C 57.660156 62.898438 57.566406 62.617188 57.511719 62.324219 L 56.878906 62.335938 L 56.839844 61.660156 L 57.46875 61.597656 C 57.488281 61.304688 57.546875 61.015625 57.648438 60.730469 L 57.09375 60.421875 L 57.394531 59.816406 L 57.972656 60.078125 C 58.136719 59.824219 58.332031 59.605469 58.554688 59.417969 L 58.230469 58.871094 L 58.789062 58.5 L 59.160156 59.015625 C 59.425781 58.882812 59.703125 58.789062 59.996094 58.738281 L 59.984375 58.101562 L 60.652344 58.058594 L 60.71875 58.695312 C 61.007812 58.710938 61.296875 58.769531 61.578125 58.871094 L 61.886719 58.316406 L 62.484375 58.617188 L 62.226562 59.199219 C 62.476562 59.363281 62.699219 59.5625 62.882812 59.785156 L 63.425781 59.457031 L 63.796875 60.023438 L 63.28125 60.394531 C 63.414062 60.660156 63.507812 60.941406 63.558594 61.234375 L 64.191406 61.222656 L 64.234375 61.898438 L 63.601562 61.960938 C 63.585938 62.253906 63.527344 62.542969 63.425781 62.828125 Z M 61.34375 60.15625 C 60.453125 59.707031 59.371094 60.070312 58.921875 60.964844 C 58.476562 61.863281 58.835938 62.953125 59.726562 63.402344 C 60.621094 63.851562 61.703125 63.488281 62.148438 62.59375 C 62.597656 61.695312 62.234375 60.605469 61.34375 60.15625 " fill-opacity="1" fill-rule="nonzero"/><g clip-path="url(#845c3bf5b3)"><path fill="#2a292f" d="M 70.238281 62.472656 L 69.726562 62.949219 L 69.257812 62.484375 C 69.003906 62.667969 68.730469 62.8125 68.449219 62.914062 L 68.566406 63.566406 L 67.886719 63.722656 L 67.710938 63.082031 C 67.40625 63.117188 67.101562 63.105469 66.796875 63.050781 L 66.578125 63.675781 L 65.910156 63.46875 L 66.078125 62.828125 C 65.800781 62.703125 65.539062 62.542969 65.300781 62.339844 L 64.800781 62.769531 L 64.324219 62.253906 L 64.789062 61.78125 C 64.605469 61.527344 64.460938 61.253906 64.359375 60.96875 L 63.710938 61.089844 L 63.554688 60.402344 L 64.191406 60.226562 C 64.160156 59.921875 64.171875 59.613281 64.226562 59.308594 L 63.605469 59.085938 L 63.808594 58.414062 L 64.445312 58.582031 C 64.570312 58.304688 64.730469 58.042969 64.933594 57.804688 L 64.507812 57.296875 L 65.015625 56.820312 L 65.488281 57.285156 C 65.738281 57.101562 66.011719 56.957031 66.292969 56.855469 L 66.175781 56.203125 L 66.855469 56.046875 L 67.03125 56.6875 C 67.335938 56.652344 67.644531 56.664062 67.945312 56.71875 L 68.164062 56.09375 L 68.832031 56.300781 L 68.664062 56.941406 C 68.941406 57.066406 69.203125 57.226562 69.441406 57.433594 L 69.941406 57.003906 L 70.417969 57.515625 L 69.953125 57.988281 C 70.140625 58.242188 70.28125 58.515625 70.382812 58.800781 L 71.03125 58.683594 L 71.1875 59.367188 L 70.550781 59.542969 C 70.582031 59.847656 70.570312 60.15625 70.515625 60.460938 L 71.136719 60.683594 L 70.933594 61.355469 L 70.296875 61.1875 C 70.175781 61.464844 70.011719 61.726562 69.808594 61.964844 Z M 68.746094 58.597656 C 68.042969 57.832031 66.851562 57.789062 66.09375 58.5 C 65.332031 59.210938 65.289062 60.40625 65.996094 61.171875 C 66.703125 61.9375 67.890625 61.980469 68.648438 61.269531 C 69.410156 60.558594 69.453125 59.363281 68.746094 58.597656 " fill-opacity="1" fill-rule="nonzero"/></g><g clip-path="url(#290adb5955)"><path fill="#2a292f" d="M 61.945312 70.226562 C 61.914062 70.308594 61.878906 70.390625 61.839844 70.472656 C 61.679688 70.804688 61.46875 71.09375 61.21875 71.335938 L 61.75 72.316406 L 61.015625 72.816406 L 60.304688 71.957031 C 59.902344 72.140625 59.457031 72.230469 59.011719 72.226562 L 58.695312 73.296875 L 57.828125 73.128906 L 57.929688 72.015625 C 57.84375 71.984375 57.761719 71.949219 57.683594 71.90625 C 57.351562 71.746094 57.066406 71.535156 56.824219 71.285156 L 55.847656 71.816406 L 55.351562 71.078125 L 56.207031 70.367188 C 56.027344 69.957031 55.933594 69.511719 55.941406 69.0625 L 54.875 68.746094 L 55.042969 67.871094 L 56.148438 67.972656 C 56.179688 67.890625 56.214844 67.808594 56.257812 67.726562 C 56.417969 67.394531 56.628906 67.105469 56.875 66.863281 L 56.347656 65.882812 L 57.082031 65.382812 L 57.789062 66.242188 C 58.195312 66.058594 58.636719 65.96875 59.085938 65.972656 L 59.398438 64.902344 L 60.269531 65.070312 L 60.167969 66.183594 C 60.25 66.214844 60.332031 66.25 60.414062 66.289062 C 60.742188 66.453125 61.03125 66.664062 61.273438 66.914062 L 62.246094 66.382812 L 62.742188 67.121094 L 61.890625 67.832031 C 62.070312 68.242188 62.160156 68.6875 62.15625 69.136719 L 63.21875 69.453125 L 63.050781 70.328125 Z M 59.953125 67.234375 C 58.929688 66.730469 57.695312 67.15625 57.195312 68.1875 C 56.691406 69.21875 57.117188 70.460938 58.140625 70.964844 C 59.164062 71.46875 60.402344 71.042969 60.902344 70.011719 C 61.402344 68.980469 60.980469 67.738281 59.953125 67.234375 " fill-opacity="1" fill-rule="nonzero"/></g><g clip-path="url(#f9acfccf51)"><path fill="#2a292f" d="M 70.910156 57.71875 C 70.898438 57.71875 70.890625 57.722656 70.882812 57.726562 C 70.855469 57.742188 70.847656 57.773438 70.863281 57.800781 C 71.234375 58.429688 71.433594 59.148438 71.433594 59.886719 C 71.433594 61.53125 70.457031 63.007812 68.953125 63.648438 C 68.925781 63.660156 68.914062 63.691406 68.925781 63.71875 C 68.933594 63.746094 68.964844 63.757812 68.992188 63.746094 C 70.539062 63.089844 71.539062 61.574219 71.539062 59.886719 C 71.539062 59.128906 71.335938 58.390625 70.953125 57.746094 C 70.945312 57.730469 70.925781 57.71875 70.910156 57.71875 " fill-opacity="1" fill-rule="nonzero"/></g><g clip-path="url(#510f132c54)"><path fill="#2a292f" d="M 71.003906 57.9375 L 71.449219 57.902344 L 71.449219 57.886719 L 70.886719 57.527344 C 70.722656 57.378906 70.5625 57.230469 70.398438 57.082031 C 70.484375 57.285156 70.570312 57.488281 70.65625 57.691406 L 70.816406 58.339844 L 70.832031 58.347656 L 71.003906 57.9375 " fill-opacity="1" fill-rule="nonzero"/></g><g clip-path="url(#14c85cdad0)"><path fill="#2a292f" d="M 56.3125 65.613281 C 56.304688 65.613281 56.296875 65.613281 56.289062 65.617188 C 55.585938 65.964844 55.0625 66.507812 54.730469 67.238281 C 54.425781 67.910156 54.292969 68.707031 54.34375 69.609375 C 54.386719 70.378906 54.613281 71.109375 55 71.714844 C 55.015625 71.738281 55.050781 71.746094 55.074219 71.730469 C 55.097656 71.714844 55.105469 71.679688 55.089844 71.65625 C 54.714844 71.066406 54.492188 70.355469 54.449219 69.601562 C 54.347656 67.746094 55.015625 66.363281 56.335938 65.710938 C 56.359375 65.699219 56.371094 65.667969 56.359375 65.640625 C 56.347656 65.621094 56.332031 65.613281 56.3125 65.613281 " fill-opacity="1" fill-rule="nonzero"/></g><g clip-path="url(#b01f1eec1a)"><path fill="#2a292f" d="M 54.945312 71.523438 L 54.503906 71.578125 L 54.503906 71.59375 L 55.078125 71.929688 C 55.25 72.070312 55.417969 72.210938 55.589844 72.351562 C 55.492188 72.152344 55.398438 71.953125 55.300781 71.753906 L 55.113281 71.109375 L 55.101562 71.105469 L 54.945312 71.523438 " fill-opacity="1" fill-rule="nonzero"/></g><path fill="#2a292f" d="M 59.460938 57.871094 C 59.457031 57.871094 59.449219 57.871094 59.445312 57.875 C 57.945312 58.4375 57.027344 59.28125 56.636719 60.445312 C 56.300781 61.445312 56.351562 62.527344 56.777344 63.492188 C 56.789062 63.519531 56.820312 63.53125 56.847656 63.519531 C 56.875 63.507812 56.886719 63.476562 56.875 63.449219 C 56.457031 62.511719 56.410156 61.457031 56.734375 60.480469 C 57.117188 59.347656 58.015625 58.527344 59.480469 57.972656 C 59.507812 57.964844 59.523438 57.933594 59.511719 57.90625 C 59.503906 57.886719 59.484375 57.871094 59.460938 57.871094 " fill-opacity="1" fill-rule="nonzero"/><path fill="#2a292f" d="M 59.285156 57.992188 L 58.949219 57.703125 L 58.957031 57.691406 L 59.621094 57.730469 C 59.839844 57.707031 60.058594 57.683594 60.277344 57.660156 C 60.089844 57.773438 59.898438 57.886719 59.710938 58 L 59.203125 58.429688 L 59.1875 58.429688 L 59.285156 57.992188 " fill-opacity="1" fill-rule="nonzero"/><path fill="#2a292f" d="M 139 70.019531 L 132.152344 63.140625 C 131.964844 62.953125 131.714844 62.851562 131.453125 62.851562 L 125.851562 62.851562 C 125.453125 62.851562 125.09375 63.09375 124.9375 63.464844 C 124.785156 63.835938 124.871094 64.261719 125.152344 64.546875 L 131.300781 70.722656 L 125.152344 76.894531 C 124.871094 77.179688 124.785156 77.605469 124.9375 77.980469 C 125.09375 78.351562 125.453125 78.59375 125.851562 78.59375 L 131.453125 78.59375 C 131.714844 78.59375 131.964844 78.488281 132.152344 78.300781 L 139 71.425781 C 139.183594 71.238281 139.289062 70.984375 139.289062 70.722656 C 139.289062 70.457031 139.183594 70.203125 139 70.019531 Z M 139 70.019531 " fill-opacity="1" fill-rule="nonzero"/><path fill="#1d1c22" d="M 133.855469 71.425781 C 134.042969 71.238281 134.144531 70.984375 134.144531 70.722656 C 134.144531 70.457031 134.042969 70.203125 133.855469 70.019531 L 127.011719 63.140625 C 126.824219 62.953125 126.574219 62.851562 126.308594 62.851562 L 125.851562 62.851562 C 125.453125 62.851562 125.09375 63.09375 124.9375 63.464844 C 124.785156 63.835938 124.871094 64.261719 125.152344 64.546875 L 131.300781 70.722656 L 125.152344 76.894531 C 124.871094 77.179688 124.785156 77.605469 124.9375 77.980469 C 125.09375 78.351562 125.453125 78.59375 125.851562 78.59375 L 126.308594 78.59375 C 126.574219 78.59375 126.824219 78.488281 127.011719 78.300781 Z M 133.855469 71.425781 " fill-opacity="1" fill-rule="nonzero"/><path fill="#2a292f" d="M 116.773438 63.464844 C 116.621094 63.09375 116.257812 62.851562 115.859375 62.851562 L 110.257812 62.851562 C 109.996094 62.851562 109.746094 62.953125 109.558594 63.140625 L 102.714844 70.019531 C 102.527344 70.203125 102.421875 70.457031 102.421875 70.722656 C 102.421875 70.984375 102.527344 71.238281 102.714844 71.425781 L 109.558594 78.300781 C 109.746094 78.488281 109.996094 78.59375 110.257812 78.59375 L 115.859375 78.59375 C 116.257812 78.59375 116.621094 78.351562 116.773438 77.980469 C 116.925781 77.605469 116.839844 77.179688 116.558594 76.894531 L 110.410156 70.722656 L 116.558594 64.546875 C 116.839844 64.261719 116.925781 63.835938 116.773438 63.464844 Z M 116.773438 63.464844 " fill-opacity="1" fill-rule="nonzero"/><path fill="#1d1c22" d="M 116.773438 77.980469 C 116.925781 77.605469 116.839844 77.179688 116.558594 76.894531 L 110.410156 70.722656 L 116.558594 64.546875 C 116.839844 64.261719 116.925781 63.835938 116.773438 63.464844 C 116.621094 63.09375 116.257812 62.851562 115.859375 62.851562 L 115.402344 62.851562 C 115.136719 62.851562 114.886719 62.953125 114.699219 63.140625 L 107.855469 70.019531 C 107.667969 70.203125 107.566406 70.457031 107.566406 70.722656 C 107.566406 70.984375 107.667969 71.238281 107.855469 71.425781 L 114.699219 78.300781 C 114.886719 78.488281 115.136719 78.59375 115.402344 78.59375 L 115.859375 78.59375 C 116.257812 78.59375 116.621094 78.351562 116.773438 77.980469 Z M 116.773438 77.980469 " fill-opacity="1" fill-rule="nonzero"/><g clip-path="url(#ac7be79da2)"><path stroke-linecap="round" transform="matrix(0.293822, 0, 0, 0.295156, 101.207134, 50.798082)" fill="none" stroke-linejoin="round" d="M 129.874693 65.122925 L 106.582537 41.816956 C 105.944396 41.1817 105.093541 40.837602 104.202802 40.837602 L 85.138331 40.837602 C 83.782281 40.837602 82.545883 41.658142 82.027393 42.91542 C 81.508903 44.172699 81.801384 45.61526 82.758596 46.581379 L 103.684312 67.505137 L 82.758596 88.41566 C 81.801384 89.381779 81.508903 90.82434 82.027393 92.094853 C 82.545883 93.352131 83.782281 94.172671 85.138331 94.172671 L 104.202802 94.172671 C 105.093541 94.172671 105.944396 93.815339 106.582537 93.180083 L 129.874693 69.887348 C 130.512834 69.252092 130.871789 68.391849 130.871789 67.505137 C 130.871789 66.60519 130.512834 65.744947 129.874693 65.122925 Z M 129.874693 65.122925 " stroke="#33363a" stroke-width="3" stroke-opacity="1" stroke-miterlimit="10"/></g><path stroke-linecap="round" transform="matrix(0.293822, 0, 0, 0.295156, 101.207134, 50.798082)" fill="none" stroke-linejoin="round" d="M 108.669791 62.502493 L 87.75737 83.413016 " stroke="#33363a" stroke-width="3" stroke-opacity="1" stroke-miterlimit="10"/><g clip-path="url(#4b1c4e86d1)"><path stroke-linecap="round" transform="matrix(0.293822, 0, 0, 0.295156, 101.207134, 50.798082)" fill="none" stroke-linejoin="round" d="M 52.978671 42.91542 C 52.460181 41.658142 51.223782 40.837602 49.867732 40.837602 L 30.803262 40.837602 C 29.912523 40.837602 29.061668 41.1817 28.423527 41.816956 L 5.13137 65.122925 C 4.493229 65.744947 4.134275 66.60519 4.134275 67.505137 C 4.134275 68.391849 4.493229 69.252092 5.13137 69.887348 L 28.423527 93.180083 C 29.061668 93.815339 29.912523 94.172671 30.803262 94.172671 L 49.867732 94.172671 C 51.223782 94.172671 52.460181 93.352131 52.978671 92.094853 C 53.49716 90.82434 53.204679 89.381779 52.247467 88.41566 L 31.321752 67.505137 L 52.247467 46.581379 C 53.204679 45.61526 53.49716 44.172699 52.978671 42.91542 Z M 52.978671 42.91542 " stroke="#33363a" stroke-width="3" stroke-opacity="1" stroke-miterlimit="10"/></g><path stroke-linecap="round" transform="matrix(0.293822, 0, 0, 0.295156, 101.207134, 50.798082)" fill="none" stroke-linejoin="round" d="M 26.322978 72.494546 L 47.248694 51.584023 " stroke="#33363a" stroke-width="3" stroke-opacity="1" stroke-miterlimit="10"/><path stroke-linecap="round" transform="matrix(0.293822, 0, 0, 0.295156, 101.207134, 50.798082)" fill="none" stroke-linejoin="round" d="M 57.046821 77.960398 L 77.959242 57.036641 " stroke="#33363a" stroke-width="3" stroke-opacity="1" stroke-miterlimit="10"/><path stroke-linecap="round" transform="matrix(0.293822, 0, 0, 0.295156, 101.207134, 50.798082)" fill="none" stroke-linejoin="round" d="M 101.397639 33.598326 L 103.790669 31.216115 " stroke="#33363a" stroke-width="3" stroke-opacity="1" stroke-miterlimit="10"/><path stroke-linecap="round" transform="matrix(0.293822, 0, 0, 0.295156, 101.207134, 50.798082)" fill="none" stroke-linejoin="round" d="M 108.191185 26.809024 L 108.443782 26.557568 " stroke="#33363a" stroke-width="3" stroke-opacity="1" stroke-miterlimit="10"/><path stroke-linecap="round" transform="matrix(0.293822, 0, 0, 0.295156, 101.207134, 50.798082)" fill="none" stroke-linejoin="round" d="M 111.674372 23.315113 L 111.92697 23.076892 " stroke="#33363a" stroke-width="3" stroke-opacity="1" stroke-miterlimit="10"/><g clip-path="url(#c3cc9c145a)"><path stroke-linecap="round" transform="matrix(0.293822, 0, 0, 0.295156, 101.207134, 50.798082)" fill="none" stroke-linejoin="round" d="M 115.170855 19.834438 L 115.423452 19.582982 " stroke="#33363a" stroke-width="3" stroke-opacity="1" stroke-miterlimit="10"/></g><path stroke-linecap="round" transform="matrix(0.293822, 0, 0, 0.295156, 101.207134, 50.798082)" fill="none" stroke-linejoin="round" d="M 33.59513 101.398712 L 31.215395 103.794158 " stroke="#33363a" stroke-width="3" stroke-opacity="1" stroke-miterlimit="10"/><path stroke-linecap="round" transform="matrix(0.293822, 0, 0, 0.295156, 101.207134, 50.798082)" fill="none" stroke-linejoin="round" d="M 26.814879 108.188015 L 26.562281 108.439471 " stroke="#33363a" stroke-width="3" stroke-opacity="1" stroke-miterlimit="10"/><path stroke-linecap="round" transform="matrix(0.293822, 0, 0, 0.295156, 101.207134, 50.798082)" fill="none" stroke-linejoin="round" d="M 23.318397 111.681925 L 23.065799 111.933381 " stroke="#33363a" stroke-width="3" stroke-opacity="1" stroke-miterlimit="10"/><g clip-path="url(#e5e39fb0b3)"><path stroke-linecap="round" transform="matrix(0.293822, 0, 0, 0.295156, 101.207134, 50.798082)" fill="none" stroke-linejoin="round" d="M 19.835209 115.175836 L 19.582611 115.414057 " stroke="#33363a" stroke-width="3" stroke-opacity="1" stroke-miterlimit="10"/></g><path fill="#2a292f" d="M 46.347656 112.074219 L 39.5 105.199219 C 39.316406 105.011719 39.0625 104.90625 38.800781 104.90625 L 33.203125 104.90625 C 32.800781 104.90625 32.441406 105.148438 32.289062 105.519531 C 32.132812 105.894531 32.21875 106.320312 32.5 106.605469 L 38.648438 112.777344 L 32.5 118.953125 C 32.21875 119.238281 32.132812 119.664062 32.289062 120.035156 C 32.441406 120.40625 32.800781 120.652344 33.203125 120.652344 L 38.800781 120.652344 C 39.0625 120.652344 39.316406 120.546875 39.5 120.359375 L 46.347656 113.480469 C 46.53125 113.296875 46.636719 113.042969 46.636719 112.777344 C 46.636719 112.515625 46.53125 112.261719 46.347656 112.074219 Z M 46.347656 112.074219 " fill-opacity="1" fill-rule="nonzero"/><path fill="#1d1c22" d="M 41.203125 113.480469 C 41.390625 113.296875 41.496094 113.042969 41.496094 112.777344 C 41.496094 112.515625 41.390625 112.261719 41.203125 112.074219 L 34.359375 105.199219 C 34.171875 105.011719 33.921875 104.90625 33.660156 104.90625 L 33.203125 104.90625 C 32.800781 104.90625 32.441406 105.148438 32.289062 105.519531 C 32.132812 105.894531 32.21875 106.320312 32.5 106.605469 L 38.648438 112.777344 L 32.5 118.953125 C 32.21875 119.238281 32.132812 119.664062 32.289062 120.035156 C 32.441406 120.40625 32.800781 120.652344 33.203125 120.652344 L 33.660156 120.652344 C 33.921875 120.652344 34.171875 120.546875 34.359375 120.359375 Z M 41.203125 113.480469 " fill-opacity="1" fill-rule="nonzero"/><g clip-path="url(#bfc9026cf0)"><path fill="#2a292f" d="M 24.121094 105.519531 C 23.96875 105.148438 23.605469 104.90625 23.207031 104.90625 L 17.609375 104.90625 C 17.34375 104.90625 17.09375 105.011719 16.90625 105.199219 L 10.0625 112.074219 C 9.875 112.261719 9.773438 112.515625 9.773438 112.777344 C 9.773438 113.042969 9.875 113.296875 10.0625 113.480469 L 16.90625 120.359375 C 17.09375 120.546875 17.34375 120.652344 17.609375 120.652344 L 23.207031 120.652344 C 23.605469 120.652344 23.96875 120.40625 24.121094 120.035156 C 24.273438 119.664062 24.1875 119.238281 23.90625 118.953125 L 17.761719 112.777344 L 23.90625 106.605469 C 24.1875 106.320312 24.273438 105.894531 24.121094 105.519531 Z M 24.121094 105.519531 " fill-opacity="1" fill-rule="nonzero"/></g><path fill="#1d1c22" d="M 24.121094 120.035156 C 24.273438 119.664062 24.1875 119.238281 23.90625 118.953125 L 17.761719 112.777344 L 23.90625 106.605469 C 24.191406 106.320312 24.273438 105.894531 24.121094 105.519531 C 23.96875 105.148438 23.605469 104.90625 23.207031 104.90625 L 22.75 104.90625 C 22.488281 104.90625 22.234375 105.011719 22.050781 105.199219 L 15.203125 112.074219 C 15.019531 112.261719 14.914062 112.515625 14.914062 112.777344 C 14.914062 113.042969 15.019531 113.296875 15.203125 113.480469 L 22.050781 120.359375 C 22.234375 120.546875 22.488281 120.652344 22.75 120.652344 L 23.207031 120.652344 C 23.605469 120.652344 23.96875 120.40625 24.121094 120.035156 Z M 24.121094 120.035156 " fill-opacity="1" fill-rule="nonzero"/><g clip-path="url(#f23e9532b7)"><path stroke-linecap="round" transform="matrix(0.293822, 0, 0, 0.295156, 8.555566, 92.855848)" fill="none" stroke-linejoin="round" d="M 129.885345 65.112497 L 106.579895 41.819762 C 105.941753 41.184506 105.090898 40.827174 104.20016 40.827174 L 85.135689 40.827174 C 83.779639 40.827174 82.556535 41.647713 82.024751 42.904992 C 81.506261 44.175505 81.798742 45.618066 82.755954 46.584185 L 103.68167 67.494708 L 82.755954 88.418466 C 81.798742 89.384585 81.506261 90.827146 82.024751 92.084425 C 82.556535 93.341703 83.779639 94.175477 85.135689 94.175477 L 104.20016 94.175477 C 105.090898 94.175477 105.941753 93.818145 106.579895 93.182889 L 129.885345 69.87692 C 130.510192 69.254898 130.869147 68.394655 130.869147 67.494708 C 130.869147 66.607996 130.510192 65.747753 129.885345 65.112497 Z M 129.885345 65.112497 " stroke="#33363a" stroke-width="3" stroke-opacity="1" stroke-miterlimit="10"/></g><path stroke-linecap="round" transform="matrix(0.293822, 0, 0, 0.295156, 8.555566, 92.855848)" fill="none" stroke-linejoin="round" d="M 108.667148 62.505299 L 87.754727 83.415822 " stroke="#33363a" stroke-width="3" stroke-opacity="1" stroke-miterlimit="10"/><g clip-path="url(#cd4f84d497)"><path stroke-linecap="round" transform="matrix(0.293822, 0, 0, 0.295156, 8.555566, 92.855848)" fill="none" stroke-linejoin="round" d="M 52.976028 42.904992 C 52.457539 41.647713 51.22114 40.827174 49.86509 40.827174 L 30.813914 40.827174 C 29.909881 40.827174 29.059026 41.184506 28.420884 41.819762 L 5.128728 65.112497 C 4.490587 65.747753 4.144927 66.607996 4.144927 67.494708 C 4.144927 68.394655 4.490587 69.254898 5.128728 69.87692 L 28.420884 93.182889 C 29.059026 93.818145 29.909881 94.175477 30.813914 94.175477 L 49.86509 94.175477 C 51.22114 94.175477 52.457539 93.341703 52.976028 92.084425 C 53.494518 90.827146 53.202037 89.384585 52.244825 88.418466 L 31.332404 67.494708 L 52.244825 46.584185 C 53.202037 45.618066 53.494518 44.175505 52.976028 42.904992 Z M 52.976028 42.904992 " stroke="#33363a" stroke-width="3" stroke-opacity="1" stroke-miterlimit="10"/></g><path stroke-linecap="round" transform="matrix(0.293822, 0, 0, 0.295156, 8.555566, 92.855848)" fill="none" stroke-linejoin="round" d="M 26.333631 72.497352 L 47.246052 51.586829 " stroke="#33363a" stroke-width="3" stroke-opacity="1" stroke-miterlimit="10"/><path stroke-linecap="round" transform="matrix(0.293822, 0, 0, 0.295156, 8.555566, 92.855848)" fill="none" stroke-linejoin="round" d="M 57.044179 77.963204 L 77.9566 57.039447 " stroke="#33363a" stroke-width="3" stroke-opacity="1" stroke-miterlimit="10"/><path stroke-linecap="round" transform="matrix(0.293822, 0, 0, 0.295156, 8.555566, 92.855848)" fill="none" stroke-linejoin="round" d="M 101.394997 33.601132 L 103.788027 31.205686 " stroke="#33363a" stroke-width="3" stroke-opacity="1" stroke-miterlimit="10"/><path stroke-linecap="round" transform="matrix(0.293822, 0, 0, 0.295156, 8.555566, 92.855848)" fill="none" stroke-linejoin="round" d="M 108.188542 26.81183 L 108.44114 26.560374 " stroke="#33363a" stroke-width="3" stroke-opacity="1" stroke-miterlimit="10"/><path stroke-linecap="round" transform="matrix(0.293822, 0, 0, 0.295156, 8.555566, 92.855848)" fill="none" stroke-linejoin="round" d="M 111.685025 23.317919 L 111.924328 23.066464 " stroke="#33363a" stroke-width="3" stroke-opacity="1" stroke-miterlimit="10"/><g clip-path="url(#3f81a052f3)"><path stroke-linecap="round" transform="matrix(0.293822, 0, 0, 0.295156, 8.555566, 92.855848)" fill="none" stroke-linejoin="round" d="M 115.168212 19.837244 L 115.42081 19.585788 " stroke="#33363a" stroke-width="3" stroke-opacity="1" stroke-miterlimit="10"/></g><path stroke-linecap="round" transform="matrix(0.293822, 0, 0, 0.295156, 8.555566, 92.855848)" fill="none" stroke-linejoin="round" d="M 33.592488 101.401518 L 31.212752 103.78373 " stroke="#33363a" stroke-width="3" stroke-opacity="1" stroke-miterlimit="10"/><path stroke-linecap="round" transform="matrix(0.293822, 0, 0, 0.295156, 8.555566, 92.855848)" fill="none" stroke-linejoin="round" d="M 26.812237 108.190821 L 26.559639 108.442277 " stroke="#33363a" stroke-width="3" stroke-opacity="1" stroke-miterlimit="10"/><path stroke-linecap="round" transform="matrix(0.293822, 0, 0, 0.295156, 8.555566, 92.855848)" fill="none" stroke-linejoin="round" d="M 23.315754 111.684731 L 23.076451 111.936187 " stroke="#33363a" stroke-width="3" stroke-opacity="1" stroke-miterlimit="10"/><g clip-path="url(#fa39b04995)"><path stroke-linecap="round" transform="matrix(0.293822, 0, 0, 0.295156, 8.555566, 92.855848)" fill="none" stroke-linejoin="round" d="M 19.832567 115.165407 L 19.579969 115.416863 " stroke="#33363a" stroke-width="3" stroke-opacity="1" stroke-miterlimit="10"/></g></svg>