<svg xmlns="http://www.w3.org/2000/svg" xmlns:xlink="http://www.w3.org/1999/xlink" width="960" zoomAndPan="magnify" viewBox="0 0 720 179.999997" height="240" preserveAspectRatio="xMidYMid meet" version="1.0"><defs><linearGradient x1="0" gradientTransform="matrix(0.75, 0, 0, 0.75, 0.0000068, 0)" y1="0" x2="959.99996" gradientUnits="userSpaceOnUse" y2="0" id="d47a482865"><stop stop-opacity="1" stop-color="rgb(37.298584%, 92.199707%, 90.59906%)" offset="0"/><stop stop-opacity="1" stop-color="rgb(37.242126%, 91.905212%, 90.588379%)" offset="0.00390625"/><stop stop-opacity="1" stop-color="rgb(37.185669%, 91.610718%, 90.577698%)" offset="0.0078125"/><stop stop-opacity="1" stop-color="rgb(37.127686%, 91.316223%, 90.565491%)" offset="0.0117188"/><stop stop-opacity="1" stop-color="rgb(37.071228%, 91.023254%, 90.55481%)" offset="0.015625"/><stop stop-opacity="1" stop-color="rgb(37.013245%, 90.72876%, 90.544128%)" offset="0.0195312"/><stop stop-opacity="1" stop-color="rgb(36.956787%, 90.434265%, 90.533447%)" offset="0.0234375"/><stop stop-opacity="1" stop-color="rgb(36.898804%, 90.139771%, 90.522766%)" offset="0.0273438"/><stop stop-opacity="1" stop-color="rgb(36.842346%, 89.846802%, 90.512085%)" offset="0.03125"/><stop stop-opacity="1" stop-color="rgb(36.785889%, 89.552307%, 90.499878%)" offset="0.0351562"/><stop stop-opacity="1" stop-color="rgb(36.729431%, 89.257812%, 90.489197%)" offset="0.0390625"/><stop stop-opacity="1" stop-color="rgb(36.671448%, 88.963318%, 90.478516%)" offset="0.0429688"/><stop stop-opacity="1" stop-color="rgb(36.61499%, 88.668823%, 90.467834%)" offset="0.046875"/><stop stop-opacity="1" stop-color="rgb(36.557007%, 88.374329%, 90.457153%)" offset="0.0507812"/><stop stop-opacity="1" stop-color="rgb(36.500549%, 88.08136%, 90.446472%)" offset="0.0546875"/><stop stop-opacity="1" stop-color="rgb(36.442566%, 87.786865%, 90.434265%)" offset="0.0585938"/><stop stop-opacity="1" stop-color="rgb(36.386108%, 87.492371%, 90.423584%)" offset="0.0625"/><stop stop-opacity="1" stop-color="rgb(36.329651%, 87.197876%, 90.412903%)" offset="0.0664062"/><stop stop-opacity="1" stop-color="rgb(36.273193%, 86.904907%, 90.402222%)" offset="0.0703125"/><stop stop-opacity="1" stop-color="rgb(36.21521%, 86.610413%, 90.391541%)" offset="0.0742188"/><stop stop-opacity="1" stop-color="rgb(36.158752%, 86.315918%, 90.380859%)" offset="0.078125"/><stop stop-opacity="1" stop-color="rgb(36.100769%, 86.021423%, 90.368652%)" offset="0.0820312"/><stop stop-opacity="1" stop-color="rgb(36.044312%, 85.728455%, 90.357971%)" offset="0.0859375"/><stop stop-opacity="1" stop-color="rgb(35.986328%, 85.43396%, 90.34729%)" offset="0.0898438"/><stop stop-opacity="1" stop-color="rgb(35.929871%, 85.139465%, 90.336609%)" offset="0.09375"/><stop stop-opacity="1" stop-color="rgb(35.873413%, 84.844971%, 90.325928%)" offset="0.0976562"/><stop stop-opacity="1" stop-color="rgb(35.816956%, 84.552002%, 90.315247%)" offset="0.101562"/><stop stop-opacity="1" stop-color="rgb(35.758972%, 84.257507%, 90.30304%)" offset="0.105469"/><stop stop-opacity="1" stop-color="rgb(35.702515%, 83.963013%, 90.292358%)" offset="0.109375"/><stop stop-opacity="1" stop-color="rgb(35.644531%, 83.668518%, 90.281677%)" offset="0.113281"/><stop stop-opacity="1" stop-color="rgb(35.588074%, 83.375549%, 90.270996%)" offset="0.117188"/><stop stop-opacity="1" stop-color="rgb(35.53009%, 83.081055%, 90.260315%)" offset="0.121094"/><stop stop-opacity="1" stop-color="rgb(35.473633%, 82.78656%, 90.249634%)" offset="0.125"/><stop stop-opacity="1" stop-color="rgb(35.417175%, 82.492065%, 90.237427%)" offset="0.128906"/><stop stop-opacity="1" stop-color="rgb(35.360718%, 82.199097%, 90.226746%)" offset="0.132812"/><stop stop-opacity="1" stop-color="rgb(35.302734%, 81.904602%, 90.216064%)" offset="0.136719"/><stop stop-opacity="1" stop-color="rgb(35.246277%, 81.610107%, 90.205383%)" offset="0.140625"/><stop stop-opacity="1" stop-color="rgb(35.188293%, 81.315613%, 90.194702%)" offset="0.144531"/><stop stop-opacity="1" stop-color="rgb(35.131836%, 81.022644%, 90.184021%)" offset="0.148438"/><stop stop-opacity="1" stop-color="rgb(35.073853%, 80.728149%, 90.171814%)" offset="0.152344"/><stop stop-opacity="1" stop-color="rgb(35.017395%, 80.433655%, 90.161133%)" offset="0.15625"/><stop stop-opacity="1" stop-color="rgb(34.960938%, 80.13916%, 90.150452%)" offset="0.160156"/><stop stop-opacity="1" stop-color="rgb(34.90448%, 79.844666%, 90.139771%)" offset="0.164062"/><stop stop-opacity="1" stop-color="rgb(34.846497%, 79.550171%, 90.129089%)" offset="0.167969"/><stop stop-opacity="1" stop-color="rgb(34.790039%, 79.257202%, 90.118408%)" offset="0.171875"/><stop stop-opacity="1" stop-color="rgb(34.732056%, 78.962708%, 90.106201%)" offset="0.175781"/><stop stop-opacity="1" stop-color="rgb(34.675598%, 78.668213%, 90.09552%)" offset="0.179688"/><stop stop-opacity="1" stop-color="rgb(34.617615%, 78.373718%, 90.084839%)" offset="0.183594"/><stop stop-opacity="1" stop-color="rgb(34.561157%, 78.08075%, 90.074158%)" offset="0.1875"/><stop stop-opacity="1" stop-color="rgb(34.5047%, 77.786255%, 90.063477%)" offset="0.191406"/><stop stop-opacity="1" stop-color="rgb(34.448242%, 77.49176%, 90.052795%)" offset="0.195312"/><stop stop-opacity="1" stop-color="rgb(34.390259%, 77.197266%, 90.040588%)" offset="0.199219"/><stop stop-opacity="1" stop-color="rgb(34.333801%, 76.904297%, 90.029907%)" offset="0.203125"/><stop stop-opacity="1" stop-color="rgb(34.275818%, 76.609802%, 90.019226%)" offset="0.207031"/><stop stop-opacity="1" stop-color="rgb(34.21936%, 76.315308%, 90.008545%)" offset="0.210938"/><stop stop-opacity="1" stop-color="rgb(34.161377%, 76.020813%, 89.997864%)" offset="0.214844"/><stop stop-opacity="1" stop-color="rgb(34.104919%, 75.727844%, 89.987183%)" offset="0.21875"/><stop stop-opacity="1" stop-color="rgb(34.048462%, 75.43335%, 89.974976%)" offset="0.222656"/><stop stop-opacity="1" stop-color="rgb(33.992004%, 75.138855%, 89.964294%)" offset="0.226562"/><stop stop-opacity="1" stop-color="rgb(33.934021%, 74.84436%, 89.953613%)" offset="0.230469"/><stop stop-opacity="1" stop-color="rgb(33.877563%, 74.551392%, 89.942932%)" offset="0.234375"/><stop stop-opacity="1" stop-color="rgb(33.81958%, 74.256897%, 89.932251%)" offset="0.238281"/><stop stop-opacity="1" stop-color="rgb(33.763123%, 73.962402%, 89.92157%)" offset="0.242188"/><stop stop-opacity="1" stop-color="rgb(33.705139%, 73.667908%, 89.909363%)" offset="0.246094"/><stop stop-opacity="1" stop-color="rgb(33.648682%, 73.374939%, 89.898682%)" offset="0.25"/><stop stop-opacity="1" stop-color="rgb(33.592224%, 73.080444%, 89.888%)" offset="0.253906"/><stop stop-opacity="1" stop-color="rgb(33.535767%, 72.78595%, 89.877319%)" offset="0.257812"/><stop stop-opacity="1" stop-color="rgb(33.477783%, 72.491455%, 89.866638%)" offset="0.261719"/><stop stop-opacity="1" stop-color="rgb(33.421326%, 72.19696%, 89.855957%)" offset="0.265625"/><stop stop-opacity="1" stop-color="rgb(33.363342%, 71.902466%, 89.84375%)" offset="0.269531"/><stop stop-opacity="1" stop-color="rgb(33.306885%, 71.609497%, 89.833069%)" offset="0.273438"/><stop stop-opacity="1" stop-color="rgb(33.248901%, 71.315002%, 89.822388%)" offset="0.277344"/><stop stop-opacity="1" stop-color="rgb(33.192444%, 71.020508%, 89.811707%)" offset="0.28125"/><stop stop-opacity="1" stop-color="rgb(33.135986%, 70.726013%, 89.801025%)" offset="0.285156"/><stop stop-opacity="1" stop-color="rgb(33.079529%, 70.433044%, 89.790344%)" offset="0.289062"/><stop stop-opacity="1" stop-color="rgb(33.021545%, 70.13855%, 89.778137%)" offset="0.292969"/><stop stop-opacity="1" stop-color="rgb(32.965088%, 69.844055%, 89.767456%)" offset="0.296875"/><stop stop-opacity="1" stop-color="rgb(32.907104%, 69.549561%, 89.756775%)" offset="0.300781"/><stop stop-opacity="1" stop-color="rgb(32.850647%, 69.256592%, 89.746094%)" offset="0.304688"/><stop stop-opacity="1" stop-color="rgb(32.792664%, 68.962097%, 89.735413%)" offset="0.308594"/><stop stop-opacity="1" stop-color="rgb(32.736206%, 68.667603%, 89.724731%)" offset="0.3125"/><stop stop-opacity="1" stop-color="rgb(32.679749%, 68.373108%, 89.712524%)" offset="0.316406"/><stop stop-opacity="1" stop-color="rgb(32.623291%, 68.080139%, 89.701843%)" offset="0.320312"/><stop stop-opacity="1" stop-color="rgb(32.565308%, 67.785645%, 89.691162%)" offset="0.324219"/><stop stop-opacity="1" stop-color="rgb(32.50885%, 67.49115%, 89.680481%)" offset="0.328125"/><stop stop-opacity="1" stop-color="rgb(32.450867%, 67.196655%, 89.6698%)" offset="0.332031"/><stop stop-opacity="1" stop-color="rgb(32.394409%, 66.903687%, 89.659119%)" offset="0.335938"/><stop stop-opacity="1" stop-color="rgb(32.336426%, 66.609192%, 89.646912%)" offset="0.339844"/><stop stop-opacity="1" stop-color="rgb(32.279968%, 66.314697%, 89.63623%)" offset="0.34375"/><stop stop-opacity="1" stop-color="rgb(32.223511%, 66.020203%, 89.625549%)" offset="0.347656"/><stop stop-opacity="1" stop-color="rgb(32.167053%, 65.727234%, 89.614868%)" offset="0.351562"/><stop stop-opacity="1" stop-color="rgb(32.10907%, 65.432739%, 89.604187%)" offset="0.355469"/><stop stop-opacity="1" stop-color="rgb(32.052612%, 65.138245%, 89.593506%)" offset="0.359375"/><stop stop-opacity="1" stop-color="rgb(31.994629%, 64.84375%, 89.581299%)" offset="0.363281"/><stop stop-opacity="1" stop-color="rgb(31.938171%, 64.550781%, 89.570618%)" offset="0.367188"/><stop stop-opacity="1" stop-color="rgb(31.880188%, 64.256287%, 89.559937%)" offset="0.371094"/><stop stop-opacity="1" stop-color="rgb(31.82373%, 63.961792%, 89.549255%)" offset="0.375"/><stop stop-opacity="1" stop-color="rgb(31.767273%, 63.667297%, 89.538574%)" offset="0.378906"/><stop stop-opacity="1" stop-color="rgb(31.710815%, 63.372803%, 89.527893%)" offset="0.382812"/><stop stop-opacity="1" stop-color="rgb(31.652832%, 63.078308%, 89.515686%)" offset="0.386719"/><stop stop-opacity="1" stop-color="rgb(31.596375%, 62.785339%, 89.505005%)" offset="0.390625"/><stop stop-opacity="1" stop-color="rgb(31.538391%, 62.490845%, 89.494324%)" offset="0.394531"/><stop stop-opacity="1" stop-color="rgb(31.481934%, 62.19635%, 89.483643%)" offset="0.398438"/><stop stop-opacity="1" stop-color="rgb(31.42395%, 61.901855%, 89.472961%)" offset="0.402344"/><stop stop-opacity="1" stop-color="rgb(31.367493%, 61.608887%, 89.46228%)" offset="0.40625"/><stop stop-opacity="1" stop-color="rgb(31.311035%, 61.314392%, 89.450073%)" offset="0.410156"/><stop stop-opacity="1" stop-color="rgb(31.254578%, 61.019897%, 89.439392%)" offset="0.414062"/><stop stop-opacity="1" stop-color="rgb(31.196594%, 60.725403%, 89.428711%)" offset="0.417969"/><stop stop-opacity="1" stop-color="rgb(31.140137%, 60.432434%, 89.41803%)" offset="0.421875"/><stop stop-opacity="1" stop-color="rgb(31.082153%, 60.137939%, 89.407349%)" offset="0.425781"/><stop stop-opacity="1" stop-color="rgb(31.025696%, 59.843445%, 89.396667%)" offset="0.429688"/><stop stop-opacity="1" stop-color="rgb(30.967712%, 59.54895%, 89.38446%)" offset="0.433594"/><stop stop-opacity="1" stop-color="rgb(30.911255%, 59.255981%, 89.373779%)" offset="0.4375"/><stop stop-opacity="1" stop-color="rgb(30.854797%, 58.961487%, 89.363098%)" offset="0.441406"/><stop stop-opacity="1" stop-color="rgb(30.79834%, 58.666992%, 89.352417%)" offset="0.445312"/><stop stop-opacity="1" stop-color="rgb(30.740356%, 58.372498%, 89.341736%)" offset="0.449219"/><stop stop-opacity="1" stop-color="rgb(30.683899%, 58.079529%, 89.331055%)" offset="0.453125"/><stop stop-opacity="1" stop-color="rgb(30.625916%, 57.785034%, 89.318848%)" offset="0.457031"/><stop stop-opacity="1" stop-color="rgb(30.569458%, 57.49054%, 89.308167%)" offset="0.460938"/><stop stop-opacity="1" stop-color="rgb(30.511475%, 57.196045%, 89.297485%)" offset="0.464844"/><stop stop-opacity="1" stop-color="rgb(30.455017%, 56.903076%, 89.286804%)" offset="0.46875"/><stop stop-opacity="1" stop-color="rgb(30.39856%, 56.608582%, 89.276123%)" offset="0.472656"/><stop stop-opacity="1" stop-color="rgb(30.342102%, 56.314087%, 89.265442%)" offset="0.476562"/><stop stop-opacity="1" stop-color="rgb(30.284119%, 56.019592%, 89.253235%)" offset="0.480469"/><stop stop-opacity="1" stop-color="rgb(30.227661%, 55.725098%, 89.242554%)" offset="0.484375"/><stop stop-opacity="1" stop-color="rgb(30.169678%, 55.430603%, 89.231873%)" offset="0.488281"/><stop stop-opacity="1" stop-color="rgb(30.11322%, 55.137634%, 89.221191%)" offset="0.492188"/><stop stop-opacity="1" stop-color="rgb(30.055237%, 54.84314%, 89.21051%)" offset="0.496094"/><stop stop-opacity="1" stop-color="rgb(29.998779%, 54.548645%, 89.199829%)" offset="0.5"/><stop stop-opacity="1" stop-color="rgb(29.942322%, 54.25415%, 89.187622%)" offset="0.503906"/><stop stop-opacity="1" stop-color="rgb(29.885864%, 53.961182%, 89.176941%)" offset="0.507812"/><stop stop-opacity="1" stop-color="rgb(29.827881%, 53.666687%, 89.16626%)" offset="0.511719"/><stop stop-opacity="1" stop-color="rgb(29.771423%, 53.372192%, 89.155579%)" offset="0.515625"/><stop stop-opacity="1" stop-color="rgb(29.71344%, 53.077698%, 89.144897%)" offset="0.519531"/><stop stop-opacity="1" stop-color="rgb(29.656982%, 52.784729%, 89.134216%)" offset="0.523438"/><stop stop-opacity="1" stop-color="rgb(29.598999%, 52.490234%, 89.122009%)" offset="0.527344"/><stop stop-opacity="1" stop-color="rgb(29.542542%, 52.19574%, 89.111328%)" offset="0.53125"/><stop stop-opacity="1" stop-color="rgb(29.486084%, 51.901245%, 89.100647%)" offset="0.535156"/><stop stop-opacity="1" stop-color="rgb(29.429626%, 51.608276%, 89.089966%)" offset="0.539062"/><stop stop-opacity="1" stop-color="rgb(29.371643%, 51.313782%, 89.079285%)" offset="0.542969"/><stop stop-opacity="1" stop-color="rgb(29.315186%, 51.019287%, 89.068604%)" offset="0.546875"/><stop stop-opacity="1" stop-color="rgb(29.257202%, 50.724792%, 89.056396%)" offset="0.550781"/><stop stop-opacity="1" stop-color="rgb(29.200745%, 50.431824%, 89.045715%)" offset="0.554688"/><stop stop-opacity="1" stop-color="rgb(29.142761%, 50.137329%, 89.035034%)" offset="0.558594"/><stop stop-opacity="1" stop-color="rgb(29.086304%, 49.842834%, 89.024353%)" offset="0.5625"/><stop stop-opacity="1" stop-color="rgb(29.029846%, 49.54834%, 89.013672%)" offset="0.566406"/><stop stop-opacity="1" stop-color="rgb(28.973389%, 49.255371%, 89.002991%)" offset="0.570312"/><stop stop-opacity="1" stop-color="rgb(28.915405%, 48.960876%, 88.990784%)" offset="0.574219"/><stop stop-opacity="1" stop-color="rgb(28.858948%, 48.666382%, 88.980103%)" offset="0.578125"/><stop stop-opacity="1" stop-color="rgb(28.800964%, 48.371887%, 88.969421%)" offset="0.582031"/><stop stop-opacity="1" stop-color="rgb(28.744507%, 48.077393%, 88.95874%)" offset="0.585938"/><stop stop-opacity="1" stop-color="rgb(28.686523%, 47.782898%, 88.948059%)" offset="0.589844"/><stop stop-opacity="1" stop-color="rgb(28.630066%, 47.489929%, 88.937378%)" offset="0.59375"/><stop stop-opacity="1" stop-color="rgb(28.573608%, 47.195435%, 88.925171%)" offset="0.597656"/><stop stop-opacity="1" stop-color="rgb(28.517151%, 46.90094%, 88.91449%)" offset="0.601562"/><stop stop-opacity="1" stop-color="rgb(28.459167%, 46.606445%, 88.903809%)" offset="0.605469"/><stop stop-opacity="1" stop-color="rgb(28.40271%, 46.313477%, 88.893127%)" offset="0.609375"/><stop stop-opacity="1" stop-color="rgb(28.344727%, 46.018982%, 88.882446%)" offset="0.613281"/><stop stop-opacity="1" stop-color="rgb(28.288269%, 45.724487%, 88.871765%)" offset="0.617188"/><stop stop-opacity="1" stop-color="rgb(28.230286%, 45.429993%, 88.859558%)" offset="0.621094"/><stop stop-opacity="1" stop-color="rgb(28.173828%, 45.137024%, 88.848877%)" offset="0.625"/><stop stop-opacity="1" stop-color="rgb(28.117371%, 44.842529%, 88.838196%)" offset="0.628906"/><stop stop-opacity="1" stop-color="rgb(28.060913%, 44.548035%, 88.827515%)" offset="0.632812"/><stop stop-opacity="1" stop-color="rgb(28.00293%, 44.25354%, 88.816833%)" offset="0.636719"/><stop stop-opacity="1" stop-color="rgb(27.946472%, 43.960571%, 88.806152%)" offset="0.640625"/><stop stop-opacity="1" stop-color="rgb(27.888489%, 43.666077%, 88.793945%)" offset="0.644531"/><stop stop-opacity="1" stop-color="rgb(27.832031%, 43.371582%, 88.783264%)" offset="0.648438"/><stop stop-opacity="1" stop-color="rgb(27.774048%, 43.077087%, 88.772583%)" offset="0.652344"/><stop stop-opacity="1" stop-color="rgb(27.71759%, 42.784119%, 88.761902%)" offset="0.65625"/><stop stop-opacity="1" stop-color="rgb(27.661133%, 42.489624%, 88.751221%)" offset="0.660156"/><stop stop-opacity="1" stop-color="rgb(27.604675%, 42.195129%, 88.74054%)" offset="0.664062"/><stop stop-opacity="1" stop-color="rgb(27.546692%, 41.900635%, 88.728333%)" offset="0.667969"/><stop stop-opacity="1" stop-color="rgb(27.490234%, 41.607666%, 88.717651%)" offset="0.671875"/><stop stop-opacity="1" stop-color="rgb(27.432251%, 41.313171%, 88.70697%)" offset="0.675781"/><stop stop-opacity="1" stop-color="rgb(27.375793%, 41.018677%, 88.696289%)" offset="0.679688"/><stop stop-opacity="1" stop-color="rgb(27.31781%, 40.724182%, 88.685608%)" offset="0.683594"/><stop stop-opacity="1" stop-color="rgb(27.261353%, 40.431213%, 88.674927%)" offset="0.6875"/><stop stop-opacity="1" stop-color="rgb(27.204895%, 40.136719%, 88.66272%)" offset="0.691406"/><stop stop-opacity="1" stop-color="rgb(27.148438%, 39.842224%, 88.652039%)" offset="0.695312"/><stop stop-opacity="1" stop-color="rgb(27.090454%, 39.547729%, 88.641357%)" offset="0.699219"/><stop stop-opacity="1" stop-color="rgb(27.033997%, 39.253235%, 88.630676%)" offset="0.703125"/><stop stop-opacity="1" stop-color="rgb(26.976013%, 38.95874%, 88.619995%)" offset="0.707031"/><stop stop-opacity="1" stop-color="rgb(26.919556%, 38.665771%, 88.609314%)" offset="0.710938"/><stop stop-opacity="1" stop-color="rgb(26.861572%, 38.371277%, 88.597107%)" offset="0.714844"/><stop stop-opacity="1" stop-color="rgb(26.805115%, 38.076782%, 88.586426%)" offset="0.71875"/><stop stop-opacity="1" stop-color="rgb(26.747131%, 37.782288%, 88.575745%)" offset="0.722656"/><stop stop-opacity="1" stop-color="rgb(26.690674%, 37.489319%, 88.565063%)" offset="0.726562"/><stop stop-opacity="1" stop-color="rgb(26.634216%, 37.194824%, 88.554382%)" offset="0.730469"/><stop stop-opacity="1" stop-color="rgb(26.577759%, 36.90033%, 88.543701%)" offset="0.734375"/><stop stop-opacity="1" stop-color="rgb(26.519775%, 36.605835%, 88.531494%)" offset="0.738281"/><stop stop-opacity="1" stop-color="rgb(26.463318%, 36.312866%, 88.520813%)" offset="0.742188"/><stop stop-opacity="1" stop-color="rgb(26.405334%, 36.018372%, 88.510132%)" offset="0.746094"/><stop stop-opacity="1" stop-color="rgb(26.348877%, 35.723877%, 88.499451%)" offset="0.75"/><stop stop-opacity="1" stop-color="rgb(26.290894%, 35.429382%, 88.48877%)" offset="0.753906"/><stop stop-opacity="1" stop-color="rgb(26.234436%, 35.136414%, 88.478088%)" offset="0.757812"/><stop stop-opacity="1" stop-color="rgb(26.177979%, 34.841919%, 88.465881%)" offset="0.761719"/><stop stop-opacity="1" stop-color="rgb(26.121521%, 34.547424%, 88.4552%)" offset="0.765625"/><stop stop-opacity="1" stop-color="rgb(26.063538%, 34.25293%, 88.444519%)" offset="0.769531"/><stop stop-opacity="1" stop-color="rgb(26.00708%, 33.959961%, 88.433838%)" offset="0.773438"/><stop stop-opacity="1" stop-color="rgb(25.949097%, 33.665466%, 88.423157%)" offset="0.777344"/><stop stop-opacity="1" stop-color="rgb(25.892639%, 33.370972%, 88.412476%)" offset="0.78125"/><stop stop-opacity="1" stop-color="rgb(25.834656%, 33.076477%, 88.400269%)" offset="0.785156"/><stop stop-opacity="1" stop-color="rgb(25.778198%, 32.783508%, 88.389587%)" offset="0.789062"/><stop stop-opacity="1" stop-color="rgb(25.721741%, 32.489014%, 88.378906%)" offset="0.792969"/><stop stop-opacity="1" stop-color="rgb(25.665283%, 32.194519%, 88.368225%)" offset="0.796875"/><stop stop-opacity="1" stop-color="rgb(25.6073%, 31.900024%, 88.357544%)" offset="0.800781"/><stop stop-opacity="1" stop-color="rgb(25.550842%, 31.60553%, 88.346863%)" offset="0.804688"/><stop stop-opacity="1" stop-color="rgb(25.492859%, 31.311035%, 88.334656%)" offset="0.808594"/><stop stop-opacity="1" stop-color="rgb(25.436401%, 31.018066%, 88.323975%)" offset="0.8125"/><stop stop-opacity="1" stop-color="rgb(25.378418%, 30.723572%, 88.313293%)" offset="0.816406"/><stop stop-opacity="1" stop-color="rgb(25.32196%, 30.429077%, 88.302612%)" offset="0.820312"/><stop stop-opacity="1" stop-color="rgb(25.265503%, 30.134583%, 88.291931%)" offset="0.824219"/><stop stop-opacity="1" stop-color="rgb(25.209045%, 29.841614%, 88.28125%)" offset="0.828125"/><stop stop-opacity="1" stop-color="rgb(25.151062%, 29.547119%, 88.269043%)" offset="0.832031"/><stop stop-opacity="1" stop-color="rgb(25.094604%, 29.252625%, 88.258362%)" offset="0.835938"/><stop stop-opacity="1" stop-color="rgb(25.036621%, 28.95813%, 88.247681%)" offset="0.839844"/><stop stop-opacity="1" stop-color="rgb(24.980164%, 28.665161%, 88.237%)" offset="0.84375"/><stop stop-opacity="1" stop-color="rgb(24.92218%, 28.370667%, 88.224792%)" offset="0.847656"/><stop stop-opacity="1" stop-color="rgb(24.865723%, 28.076172%, 88.214111%)" offset="0.851562"/><stop stop-opacity="1" stop-color="rgb(24.809265%, 27.781677%, 88.20343%)" offset="0.855469"/><stop stop-opacity="1" stop-color="rgb(24.752808%, 27.488708%, 88.192749%)" offset="0.859375"/><stop stop-opacity="1" stop-color="rgb(24.694824%, 27.194214%, 88.182068%)" offset="0.863281"/><stop stop-opacity="1" stop-color="rgb(24.638367%, 26.899719%, 88.171387%)" offset="0.867188"/><stop stop-opacity="1" stop-color="rgb(24.580383%, 26.605225%, 88.15918%)" offset="0.871094"/><stop stop-opacity="1" stop-color="rgb(24.523926%, 26.312256%, 88.148499%)" offset="0.875"/><stop stop-opacity="1" stop-color="rgb(24.465942%, 26.017761%, 88.137817%)" offset="0.878906"/><stop stop-opacity="1" stop-color="rgb(24.409485%, 25.723267%, 88.127136%)" offset="0.882812"/><stop stop-opacity="1" stop-color="rgb(24.353027%, 25.428772%, 88.116455%)" offset="0.886719"/><stop stop-opacity="1" stop-color="rgb(24.29657%, 25.135803%, 88.105774%)" offset="0.890625"/><stop stop-opacity="1" stop-color="rgb(24.238586%, 24.841309%, 88.093567%)" offset="0.894531"/><stop stop-opacity="1" stop-color="rgb(24.182129%, 24.546814%, 88.082886%)" offset="0.898438"/><stop stop-opacity="1" stop-color="rgb(24.124146%, 24.252319%, 88.072205%)" offset="0.902344"/><stop stop-opacity="1" stop-color="rgb(24.067688%, 23.959351%, 88.061523%)" offset="0.90625"/><stop stop-opacity="1" stop-color="rgb(24.009705%, 23.664856%, 88.050842%)" offset="0.910156"/><stop stop-opacity="1" stop-color="rgb(23.953247%, 23.370361%, 88.040161%)" offset="0.914062"/><stop stop-opacity="1" stop-color="rgb(23.89679%, 23.075867%, 88.027954%)" offset="0.917969"/><stop stop-opacity="1" stop-color="rgb(23.840332%, 22.781372%, 88.017273%)" offset="0.921875"/><stop stop-opacity="1" stop-color="rgb(23.782349%, 22.486877%, 88.006592%)" offset="0.925781"/><stop stop-opacity="1" stop-color="rgb(23.725891%, 22.193909%, 87.995911%)" offset="0.929688"/><stop stop-opacity="1" stop-color="rgb(23.667908%, 21.899414%, 87.985229%)" offset="0.933594"/><stop stop-opacity="1" stop-color="rgb(23.61145%, 21.604919%, 87.974548%)" offset="0.9375"/><stop stop-opacity="1" stop-color="rgb(23.553467%, 21.310425%, 87.962341%)" offset="0.941406"/><stop stop-opacity="1" stop-color="rgb(23.497009%, 21.017456%, 87.95166%)" offset="0.945312"/><stop stop-opacity="1" stop-color="rgb(23.440552%, 20.722961%, 87.940979%)" offset="0.949219"/><stop stop-opacity="1" stop-color="rgb(23.384094%, 20.428467%, 87.930298%)" offset="0.953125"/><stop stop-opacity="1" stop-color="rgb(23.326111%, 20.133972%, 87.919617%)" offset="0.957031"/><stop stop-opacity="1" stop-color="rgb(23.269653%, 19.841003%, 87.908936%)" offset="0.960938"/><stop stop-opacity="1" stop-color="rgb(23.21167%, 19.546509%, 87.896729%)" offset="0.964844"/><stop stop-opacity="1" stop-color="rgb(23.155212%, 19.252014%, 87.886047%)" offset="0.96875"/><stop stop-opacity="1" stop-color="rgb(23.097229%, 18.95752%, 87.875366%)" offset="0.972656"/><stop stop-opacity="1" stop-color="rgb(23.040771%, 18.664551%, 87.864685%)" offset="0.976562"/><stop stop-opacity="1" stop-color="rgb(22.984314%, 18.370056%, 87.854004%)" offset="0.980469"/><stop stop-opacity="1" stop-color="rgb(22.927856%, 18.075562%, 87.843323%)" offset="0.984375"/><stop stop-opacity="1" stop-color="rgb(22.869873%, 17.781067%, 87.831116%)" offset="0.988281"/><stop stop-opacity="1" stop-color="rgb(22.813416%, 17.488098%, 87.820435%)" offset="0.992188"/><stop stop-opacity="1" stop-color="rgb(22.755432%, 17.193604%, 87.809753%)" offset="0.996094"/><stop stop-opacity="1" stop-color="rgb(22.698975%, 16.899109%, 87.799072%)" offset="1"/></linearGradient></defs><rect x="-72" width="864" fill="#ffffff" y="-18" height="215.999996" fill-opacity="1"/><rect x="-72" width="864" fill="#ffffff" y="-18" height="215.999996" fill-opacity="1"/><rect x="-72" fill="url(#d47a482865)" width="864" y="-18" height="215.999996"/><path fill="#e0dfde" d="M 556.292969 220.542969 L 543.15625 213.128906 L 544.9375 212.097656 L 489.433594 179.902344 L 458.703125 197.640625 L 514.394531 229.695312 L 537.382812 216.460938 L 550.289062 224.0625 Z M 556.292969 220.542969 " fill-opacity="1" fill-rule="nonzero"/><path fill="#e0dfde" d="M 620.335938 231.242188 L 633.144531 223.875 L 583.597656 196.421875 L 571.070312 203.648438 L 521.714844 176.007812 L 500.601562 188.160156 L 632.863281 263.25 L 654.820312 250.625 Z M 620.335938 231.242188 " fill-opacity="1" fill-rule="nonzero"/><path fill="#f1efee" d="M 692.921875 248.5625 L 692.921875 101.953125 L 512.234375 -2.375 L 512.234375 144.234375 L 577.359375 181.828125 L 577.3125 181.828125 L 577.3125 202.804688 L 554.132812 216.179688 L 595.421875 240.019531 L 623.386719 223.875 L 600.113281 211.015625 L 600.207031 195.0625 Z M 692.921875 248.5625 " fill-opacity="1" fill-rule="nonzero"/><path fill="#d4d2d1" d="M 512.234375 -2.375 L 515.144531 -4.0625 L 696.390625 100.121094 L 696.203125 246.589844 L 692.921875 248.5625 L 692.921875 101.953125 Z M 512.234375 -2.375 " fill-opacity="1" fill-rule="nonzero"/><path fill="#e5e5e5" d="M 692.921875 101.953125 L 696.390625 100.121094 L 696.203125 246.589844 L 692.921875 248.5625 Z M 692.921875 101.953125 " fill-opacity="1" fill-rule="nonzero"/><path fill="#204fa2" d="M 692.921875 111.949219 L 512.234375 7.574219 L 512.234375 -2.375 L 692.921875 101.953125 Z M 692.921875 111.949219 " fill-opacity="1" fill-rule="nonzero"/><path fill="#ef4023" d="M 519.976562 7.058594 C 519.976562 7.949219 519.226562 8.277344 518.335938 7.761719 C 517.445312 7.246094 516.695312 6.074219 516.695312 5.136719 C 516.695312 4.242188 517.445312 3.914062 518.335938 4.429688 C 519.226562 4.992188 519.976562 6.167969 519.976562 7.058594 Z M 519.976562 7.058594 " fill-opacity="1" fill-rule="nonzero"/><path fill="#fcbb13" d="M 526.6875 10.953125 C 526.6875 11.847656 525.9375 12.175781 525.046875 11.65625 C 524.152344 11.140625 523.402344 9.96875 523.402344 9.03125 C 523.402344 8.136719 524.152344 7.808594 525.046875 8.324219 C 525.9375 8.84375 526.6875 10.015625 526.6875 10.953125 Z M 526.6875 10.953125 " fill-opacity="1" fill-rule="nonzero"/><path fill="#acd037" d="M 533.347656 14.800781 C 533.347656 15.695312 532.597656 16.023438 531.707031 15.507812 C 530.816406 14.988281 530.066406 13.816406 530.066406 12.878906 C 530.066406 11.988281 530.816406 11.65625 531.707031 12.175781 C 532.644531 12.738281 533.347656 13.910156 533.347656 14.800781 Z M 533.347656 14.800781 " fill-opacity="1" fill-rule="nonzero"/><path fill="#c6dbf1" d="M 609.3125 192.714844 L 516.410156 139.074219 L 516.410156 17.664062 L 609.3125 71.257812 Z M 609.3125 192.714844 " fill-opacity="1" fill-rule="nonzero"/><path fill="#ffffff" d="M 688.414062 238.425781 L 639.292969 210.03125 L 639.292969 88.625 L 688.414062 116.96875 Z M 688.414062 238.425781 " fill-opacity="1" fill-rule="nonzero"/><path fill="#ffffff" d="M 554.179688 73.136719 L 521.105469 54.035156 L 521.105469 25.878906 L 554.179688 44.976562 Z M 554.179688 73.136719 " fill-opacity="1" fill-rule="nonzero"/><path fill="#ef4023" d="M 681.753906 146.816406 L 645.953125 126.167969 L 645.953125 98.007812 L 681.753906 118.660156 Z M 681.753906 146.816406 " fill-opacity="1" fill-rule="nonzero"/><path fill="#fcbb13" d="M 681.753906 229.414062 L 645.953125 208.765625 L 645.953125 166.621094 L 681.753906 187.269531 Z M 681.753906 229.414062 " fill-opacity="1" fill-rule="nonzero"/><path fill="#c6dbf1" d="M 681.753906 148.976562 L 645.953125 128.328125 L 645.953125 126.167969 L 681.753906 146.816406 Z M 681.753906 148.976562 " fill-opacity="1" fill-rule="nonzero"/><path fill="#c6dbf1" d="M 681.753906 157.609375 L 645.953125 136.914062 L 645.953125 136.164062 L 681.753906 156.8125 Z M 681.753906 157.609375 " fill-opacity="1" fill-rule="nonzero"/><path fill="#c6dbf1" d="M 681.753906 162.960938 L 645.953125 142.3125 L 645.953125 141.511719 L 681.753906 162.164062 Z M 681.753906 162.960938 " fill-opacity="1" fill-rule="nonzero"/><path fill="#c6dbf1" d="M 681.753906 168.3125 L 645.953125 147.660156 L 645.953125 146.863281 L 681.753906 167.558594 Z M 681.753906 168.3125 " fill-opacity="1" fill-rule="nonzero"/><path fill="#c6dbf1" d="M 681.753906 173.707031 L 645.953125 153.011719 L 645.953125 152.261719 L 681.753906 172.910156 Z M 681.753906 173.707031 " fill-opacity="1" fill-rule="nonzero"/><path fill="#c6dbf1" d="M 681.753906 179.058594 L 645.953125 158.410156 L 645.953125 157.609375 L 681.753906 178.261719 Z M 681.753906 179.058594 " fill-opacity="1" fill-rule="nonzero"/><path fill="#ffffff" d="M 633.847656 206.886719 L 607.621094 191.730469 L 607.621094 70.320312 L 633.847656 85.480469 Z M 633.847656 206.886719 " fill-opacity="1" fill-rule="nonzero"/><path fill="#2e79be" d="M 604.617188 139.730469 L 521.105469 91.53125 L 521.105469 63.328125 L 604.617188 111.570312 Z M 604.617188 139.730469 " fill-opacity="1" fill-rule="nonzero"/><path fill="#2e79be" d="M 630.660156 136.539062 L 610.296875 124.757812 L 610.296875 114.855469 L 630.660156 126.636719 Z M 630.660156 136.539062 " fill-opacity="1" fill-rule="nonzero"/><path fill="#2e79be" d="M 604.617188 180.464844 L 521.105469 132.222656 L 521.105469 104.0625 L 604.617188 152.308594 Z M 604.617188 180.464844 " fill-opacity="1" fill-rule="nonzero"/><path fill="#ffffff" d="M 569.007812 59.246094 L 557.417969 52.957031 L 557.417969 51.265625 L 569.007812 57.554688 Z M 569.007812 59.246094 " fill-opacity="1" fill-rule="nonzero"/><path fill="#ffffff" d="M 597.441406 83.132812 L 557.417969 60.417969 L 557.417969 58.777344 L 597.441406 81.441406 Z M 597.441406 83.132812 " fill-opacity="1" fill-rule="nonzero"/><path fill="#ffffff" d="M 597.441406 90.640625 L 557.417969 67.925781 L 557.417969 66.285156 L 597.441406 88.953125 Z M 597.441406 90.640625 " fill-opacity="1" fill-rule="nonzero"/><path fill="#ffffff" d="M 597.441406 98.101562 L 557.417969 75.4375 L 557.417969 73.746094 L 597.441406 96.460938 Z M 597.441406 98.101562 " fill-opacity="1" fill-rule="nonzero"/><path fill="#c6dbf1" d="M 618.460938 86.136719 C 618.460938 88.390625 616.628906 89.140625 614.378906 87.871094 C 612.125 86.558594 610.296875 83.695312 610.296875 81.441406 C 610.296875 79.191406 612.125 78.441406 614.378906 79.707031 C 616.628906 80.972656 618.460938 83.882812 618.460938 86.136719 Z M 618.460938 86.136719 " fill-opacity="1" fill-rule="nonzero"/><path fill="#c6dbf1" d="M 630.660156 93.550781 L 620.710938 87.824219 L 620.710938 87.027344 L 630.660156 92.753906 Z M 630.660156 93.550781 " fill-opacity="1" fill-rule="nonzero"/><path fill="#c6dbf1" d="M 618.460938 98.527344 C 618.460938 100.777344 616.628906 101.527344 614.378906 100.261719 C 612.125 98.949219 610.296875 96.085938 610.296875 93.832031 C 610.296875 91.578125 612.125 90.828125 614.378906 92.097656 C 616.628906 93.410156 618.460938 96.273438 618.460938 98.527344 Z M 618.460938 98.527344 " fill-opacity="1" fill-rule="nonzero"/><path fill="#c6dbf1" d="M 630.660156 105.941406 L 620.710938 100.214844 L 620.710938 99.464844 L 630.660156 105.191406 Z M 630.660156 105.941406 " fill-opacity="1" fill-rule="nonzero"/><path fill="#c6dbf1" d="M 618.460938 110.914062 C 618.460938 113.167969 616.628906 113.917969 614.378906 112.652344 C 612.125 111.335938 610.296875 108.476562 610.296875 106.222656 C 610.296875 103.96875 612.125 103.21875 614.378906 104.484375 C 616.628906 105.800781 618.460938 108.664062 618.460938 110.914062 Z M 618.460938 110.914062 " fill-opacity="1" fill-rule="nonzero"/><path fill="#c6dbf1" d="M 630.660156 118.378906 L 620.710938 112.652344 L 620.710938 111.855469 L 630.660156 117.578125 Z M 630.660156 118.378906 " fill-opacity="1" fill-rule="nonzero"/><path fill="#c6dbf1" d="M 627.796875 190.929688 C 627.796875 194.96875 624.511719 196.375 620.476562 194.027344 C 616.441406 191.683594 613.160156 186.519531 613.160156 182.484375 C 613.160156 178.449219 616.441406 177.039062 620.476562 179.386719 C 624.511719 181.734375 627.796875 186.894531 627.796875 190.929688 Z M 627.796875 190.929688 " fill-opacity="1" fill-rule="nonzero"/><path fill="#c6dbf1" d="M 630.660156 141.089844 L 610.296875 129.359375 L 610.296875 128.5625 L 630.660156 140.292969 Z M 630.660156 141.089844 " fill-opacity="1" fill-rule="nonzero"/><path fill="#c6dbf1" d="M 630.660156 146.113281 L 610.296875 134.378906 L 610.296875 133.582031 L 630.660156 145.316406 Z M 630.660156 146.113281 " fill-opacity="1" fill-rule="nonzero"/><path fill="#c6dbf1" d="M 630.660156 151.132812 L 610.296875 139.355469 L 610.296875 138.605469 L 630.660156 150.335938 Z M 630.660156 151.132812 " fill-opacity="1" fill-rule="nonzero"/><path fill="#2e79be" d="M 630.660156 167.652344 L 610.296875 155.921875 L 610.296875 146.019531 L 630.660156 157.75 Z M 630.660156 167.652344 " fill-opacity="1" fill-rule="nonzero"/><path fill="#c6dbf1" d="M 630.660156 172.253906 L 610.296875 160.472656 L 610.296875 159.722656 L 630.660156 171.453125 Z M 630.660156 172.253906 " fill-opacity="1" fill-rule="nonzero"/><path fill="#c6dbf1" d="M 630.660156 177.226562 L 610.296875 165.496094 L 610.296875 164.742188 L 630.660156 176.476562 Z M 630.660156 177.226562 " fill-opacity="1" fill-rule="nonzero"/><path fill="#c6dbf1" d="M 630.660156 182.25 L 610.296875 170.515625 L 610.296875 169.71875 L 630.660156 181.496094 Z M 630.660156 182.25 " fill-opacity="1" fill-rule="nonzero"/><path fill="#c6dbf1" d="M 594.0625 111.902344 L 542.921875 82.382812 L 542.921875 81.582031 L 594.0625 111.148438 Z M 594.0625 111.902344 " fill-opacity="1" fill-rule="nonzero"/><path fill="#c6dbf1" d="M 594.0625 117.296875 L 542.921875 87.730469 L 542.921875 86.980469 L 594.0625 116.5 Z M 594.0625 117.296875 " fill-opacity="1" fill-rule="nonzero"/><path fill="#c6dbf1" d="M 594.0625 122.648438 L 542.921875 93.082031 L 542.921875 92.332031 L 594.0625 121.851562 Z M 594.0625 122.648438 " fill-opacity="1" fill-rule="nonzero"/><path fill="#c6dbf1" d="M 594.0625 127.996094 L 542.921875 98.480469 L 542.921875 97.679688 L 594.0625 127.246094 Z M 594.0625 127.996094 " fill-opacity="1" fill-rule="nonzero"/><path fill="#c6dbf1" d="M 594.0625 152.636719 L 542.921875 123.117188 L 542.921875 122.320312 L 594.0625 151.839844 Z M 594.0625 152.636719 " fill-opacity="1" fill-rule="nonzero"/><path fill="#c6dbf1" d="M 594.0625 157.984375 L 542.921875 128.46875 L 542.921875 127.667969 L 594.0625 157.234375 Z M 594.0625 157.984375 " fill-opacity="1" fill-rule="nonzero"/><path fill="#c6dbf1" d="M 594.0625 163.382812 L 542.921875 133.816406 L 542.921875 133.066406 L 594.0625 162.585938 Z M 594.0625 163.382812 " fill-opacity="1" fill-rule="nonzero"/><path fill="#c6dbf1" d="M 594.0625 168.734375 L 542.921875 139.214844 L 542.921875 138.417969 L 594.0625 167.933594 Z M 594.0625 168.734375 " fill-opacity="1" fill-rule="nonzero"/><path fill="#a32822" d="M 525.28125 92.332031 C 525.421875 92.238281 525.5625 92.191406 525.703125 92.144531 L 525.75 92.144531 L 527.4375 91.484375 C 529.691406 90.59375 532.972656 92.519531 534.992188 95.992188 C 537.101562 99.699219 537.007812 103.734375 534.757812 105.003906 C 534.664062 105.050781 534.523438 105.097656 534.429688 105.144531 L 534.335938 105.191406 L 532.597656 105.847656 C 530.347656 106.691406 527.109375 104.765625 525.09375 101.292969 C 522.933594 97.679688 523.027344 93.597656 525.28125 92.332031 Z M 525.28125 92.332031 " fill-opacity="1" fill-rule="nonzero"/><path fill="#ef4023" d="M 532.898438 96.820312 C 533.136719 97.230469 533.351562 97.65625 533.535156 98.089844 C 533.722656 98.523438 533.878906 98.957031 534.003906 99.394531 C 534.128906 99.832031 534.222656 100.261719 534.28125 100.6875 C 534.34375 101.109375 534.371094 101.519531 534.363281 101.914062 C 534.359375 102.304688 534.316406 102.675781 534.242188 103.027344 C 534.171875 103.375 534.0625 103.695312 533.925781 103.984375 C 533.789062 104.277344 533.621094 104.53125 533.425781 104.753906 C 533.226562 104.976562 533.003906 105.15625 532.757812 105.300781 C 532.507812 105.445312 532.238281 105.546875 531.949219 105.605469 C 531.660156 105.664062 531.355469 105.683594 531.035156 105.65625 C 530.714844 105.628906 530.382812 105.5625 530.042969 105.449219 C 529.707031 105.339844 529.363281 105.191406 529.019531 105 C 528.675781 104.808594 528.335938 104.578125 528 104.316406 C 527.664062 104.050781 527.335938 103.753906 527.019531 103.425781 C 526.707031 103.101562 526.40625 102.746094 526.125 102.371094 C 525.839844 101.992188 525.582031 101.597656 525.34375 101.183594 C 525.101562 100.769531 524.890625 100.347656 524.707031 99.914062 C 524.519531 99.476562 524.363281 99.042969 524.238281 98.605469 C 524.113281 98.167969 524.019531 97.738281 523.957031 97.316406 C 523.898438 96.890625 523.871094 96.484375 523.878906 96.089844 C 523.882812 95.695312 523.925781 95.324219 524 94.976562 C 524.070312 94.625 524.175781 94.304688 524.316406 94.015625 C 524.453125 93.726562 524.621094 93.46875 524.816406 93.246094 C 525.015625 93.027344 525.238281 92.84375 525.484375 92.703125 C 525.734375 92.558594 526 92.457031 526.292969 92.398438 C 526.582031 92.335938 526.886719 92.320312 527.207031 92.34375 C 527.527344 92.371094 527.859375 92.441406 528.195312 92.550781 C 528.535156 92.660156 528.878906 92.8125 529.222656 93.003906 C 529.566406 93.195312 529.90625 93.421875 530.242188 93.6875 C 530.578125 93.949219 530.90625 94.246094 531.21875 94.574219 C 531.535156 94.902344 531.835938 95.253906 532.117188 95.632812 C 532.398438 96.007812 532.660156 96.40625 532.898438 96.820312 Z M 532.898438 96.820312 " fill-opacity="1" fill-rule="nonzero"/><path fill="#a32822" d="M 524.761719 93.691406 C 524.152344 95.523438 524.621094 98.242188 526.078125 100.824219 C 527.4375 103.125 529.269531 104.8125 531.050781 105.378906 C 529.21875 105.050781 527.15625 103.40625 525.75 100.964844 C 524.199219 98.289062 523.871094 95.429688 524.761719 93.691406 Z M 524.761719 93.691406 " fill-opacity="1" fill-rule="nonzero"/><path fill="#a32822" d="M 524.433594 130.15625 C 524.574219 130.0625 524.714844 130.015625 524.855469 129.96875 L 524.902344 129.96875 L 526.59375 129.3125 C 528.84375 128.421875 532.128906 130.34375 534.148438 133.816406 C 536.257812 137.523438 536.164062 141.558594 533.914062 142.828125 C 533.820312 142.875 533.679688 142.921875 533.585938 142.96875 L 533.492188 143.015625 L 531.753906 143.671875 C 529.503906 144.515625 526.265625 142.59375 524.246094 139.121094 C 522.089844 135.507812 522.183594 131.46875 524.433594 130.15625 Z M 524.433594 130.15625 " fill-opacity="1" fill-rule="nonzero"/><path fill="#ef4023" d="M 524.480469 139.027344 C 526.5 142.5 529.832031 144.375 531.894531 143.15625 C 533.960938 141.9375 534.054688 138.132812 532.035156 134.660156 C 530.019531 131.1875 526.6875 129.3125 524.621094 130.53125 C 522.558594 131.753906 522.511719 135.554688 524.480469 139.027344 Z M 524.480469 139.027344 " fill-opacity="1" fill-rule="nonzero"/><path fill="#a32822" d="M 523.871094 131.5625 C 523.261719 133.394531 523.730469 136.117188 525.1875 138.699219 C 526.546875 140.996094 528.375 142.6875 530.160156 143.25 C 528.328125 142.921875 526.265625 141.277344 524.855469 138.839844 C 523.308594 136.164062 522.980469 133.253906 523.871094 131.5625 Z M 523.871094 131.5625 " fill-opacity="1" fill-rule="nonzero"/><path fill="#08273f" d="M 512.234375 110.164062 L 524.527344 117.296875 L 524.527344 51.640625 L 512.234375 44.507812 Z M 512.234375 110.164062 " fill-opacity="0.298" fill-rule="nonzero"/><path fill="#9ecee4" d="M 516.316406 118.234375 L 481.785156 98.339844 L 481.785156 32.683594 L 516.316406 52.628906 Z M 516.316406 118.234375 " fill-opacity="1" fill-rule="nonzero"/><path fill="#ffffff" d="M 498.066406 56.335938 L 483.617188 47.980469 L 483.617188 36.015625 L 498.066406 44.367188 Z M 498.066406 56.335938 " fill-opacity="1" fill-rule="nonzero"/><path fill="#ffffff" d="M 492.109375 98.855469 L 483.617188 93.925781 L 483.617188 86.371094 L 492.109375 91.296875 Z M 492.109375 98.855469 " fill-opacity="1" fill-rule="nonzero"/><path fill="#ffffff" d="M 503.320312 105.332031 L 494.78125 100.402344 L 494.78125 92.847656 L 503.320312 97.773438 Z M 503.320312 105.332031 " fill-opacity="1" fill-rule="nonzero"/><path fill="#ffffff" d="M 514.488281 111.808594 L 505.996094 106.878906 L 505.996094 99.324219 L 514.488281 104.25 Z M 514.488281 111.808594 " fill-opacity="1" fill-rule="nonzero"/><path fill="#ffffff" d="M 514.488281 58.304688 L 500.039062 49.953125 L 500.039062 49.53125 L 514.488281 57.882812 Z M 514.488281 58.304688 " fill-opacity="1" fill-rule="nonzero"/><path fill="#ffffff" d="M 514.488281 55.492188 L 500.039062 47.136719 L 500.039062 45.824219 L 514.488281 54.175781 Z M 514.488281 55.492188 " fill-opacity="1" fill-rule="nonzero"/><path fill="#ffffff" d="M 514.488281 60.183594 L 500.039062 51.878906 L 500.039062 51.40625 L 514.488281 59.761719 Z M 514.488281 60.183594 " fill-opacity="1" fill-rule="nonzero"/><path fill="#ffffff" d="M 514.488281 62.109375 L 500.039062 53.753906 L 500.039062 53.285156 L 514.488281 61.636719 Z M 514.488281 62.109375 " fill-opacity="1" fill-rule="nonzero"/><path fill="#ffffff" d="M 514.488281 63.984375 L 500.039062 55.632812 L 500.039062 55.210938 L 514.488281 63.515625 Z M 514.488281 63.984375 " fill-opacity="1" fill-rule="nonzero"/><path fill="#ffffff" d="M 514.488281 65.863281 L 500.039062 57.507812 L 500.039062 57.085938 L 514.488281 65.441406 Z M 514.488281 65.863281 " fill-opacity="1" fill-rule="nonzero"/><path fill="#ffffff" d="M 514.488281 96.789062 L 483.617188 78.910156 L 483.617188 78.488281 L 514.488281 96.367188 Z M 514.488281 96.789062 " fill-opacity="1" fill-rule="nonzero"/><path fill="#ffffff" d="M 514.488281 98.667969 L 483.617188 80.832031 L 483.617188 80.363281 L 514.488281 98.242188 Z M 514.488281 98.667969 " fill-opacity="1" fill-rule="nonzero"/><path fill="#ffffff" d="M 514.488281 94.066406 L 483.617188 76.234375 L 483.617188 52.253906 L 514.488281 70.132812 Z M 514.488281 94.066406 " fill-opacity="1" fill-rule="nonzero"/><path fill="#204fa2" d="M 481.785156 32.683594 L 483.003906 32.214844 L 517.539062 52.160156 L 517.539062 118.234375 L 516.316406 118.234375 L 516.316406 52.628906 Z M 481.785156 32.683594 " fill-opacity="1" fill-rule="nonzero"/><path fill="#3969b3" d="M 516.316406 52.628906 L 517.539062 52.160156 L 517.539062 118.234375 L 516.316406 118.234375 Z M 516.316406 52.628906 " fill-opacity="1" fill-rule="nonzero"/><path fill="#08273f" d="M 692.921875 160.800781 L 673.964844 149.867188 L 673.964844 195.859375 L 692.921875 206.792969 Z M 692.921875 160.800781 " fill-opacity="0.298" fill-rule="nonzero"/><path fill="#9ecee4" d="M 698.363281 224.25 L 663.832031 204.351562 L 663.832031 158.316406 L 698.363281 178.261719 Z M 698.363281 224.25 " fill-opacity="1" fill-rule="nonzero"/><path fill="#ffffff" d="M 696.53125 191.496094 L 665.660156 173.660156 L 665.660156 161.648438 L 696.53125 179.527344 Z M 696.53125 191.496094 " fill-opacity="1" fill-rule="nonzero"/><path fill="#ffffff" d="M 696.53125 198.207031 L 665.660156 180.324219 L 665.660156 175.726562 L 696.53125 193.558594 Z M 696.53125 198.207031 " fill-opacity="1" fill-rule="nonzero"/><path fill="#204fa2" d="M 663.832031 158.316406 L 665.050781 157.84375 L 699.582031 177.789062 L 699.582031 224.25 L 698.363281 224.25 L 698.363281 178.261719 Z M 663.832031 158.316406 " fill-opacity="1" fill-rule="nonzero"/><path fill="#3969b3" d="M 698.363281 178.261719 L 699.582031 177.789062 L 699.582031 224.25 L 698.363281 224.25 Z M 698.363281 178.261719 " fill-opacity="1" fill-rule="nonzero"/><path fill="#08273f" d="M 526.3125 152.355469 L 560.84375 172.300781 L 560.84375 152.917969 L 526.3125 132.972656 Z M 526.3125 152.355469 " fill-opacity="0.298" fill-rule="nonzero"/><path fill="#204fa2" d="M 549.957031 219.042969 L 515.472656 199.097656 L 515.472656 133.441406 L 549.957031 153.386719 Z M 549.957031 219.042969 " fill-opacity="1" fill-rule="nonzero"/><path fill="#ffffff" d="M 547.894531 210.6875 L 517.539062 193.136719 L 517.539062 137.335938 L 547.894531 154.890625 Z M 547.894531 210.6875 " fill-opacity="1" fill-rule="nonzero"/><path fill="#fcbb13" d="M 545.828125 190.882812 L 519.601562 176.054688 L 519.601562 169.671875 L 545.828125 184.5 Z M 545.828125 190.882812 " fill-opacity="1" fill-rule="nonzero"/><path fill="#ef4023" d="M 545.828125 180.042969 L 519.601562 164.933594 L 519.601562 164.554688 L 545.828125 179.667969 Z M 545.828125 180.042969 " fill-opacity="1" fill-rule="nonzero"/><path fill="#ef4023" d="M 545.828125 181.640625 L 519.601562 166.527344 L 519.601562 166.152344 L 545.828125 181.261719 Z M 545.828125 181.640625 " fill-opacity="1" fill-rule="nonzero"/><path fill="#c6dbf1" d="M 545.828125 194.636719 L 519.601562 179.480469 L 519.601562 179.152344 L 545.828125 194.261719 Z M 545.828125 194.636719 " fill-opacity="1" fill-rule="nonzero"/><path fill="#2e79be" d="M 545.828125 177.742188 L 519.601562 162.632812 L 519.601562 142.3125 L 545.828125 157.46875 Z M 545.828125 177.742188 " fill-opacity="1" fill-rule="nonzero"/><path fill="#08273f" d="M 515.472656 133.441406 L 516.695312 132.972656 L 551.226562 152.917969 L 551.226562 218.339844 L 549.957031 219.042969 L 549.957031 153.386719 Z M 515.472656 133.441406 " fill-opacity="1" fill-rule="nonzero"/><path fill="#2d4c64" d="M 549.957031 153.386719 L 551.226562 152.917969 L 551.226562 218.339844 L 549.957031 219.042969 Z M 549.957031 153.386719 " fill-opacity="1" fill-rule="nonzero"/><path fill="#c6dbf1" d="M 429.613281 187.269531 L 460.390625 169.53125 L 515.894531 201.726562 L 485.351562 219.371094 Z M 429.613281 187.269531 " fill-opacity="1" fill-rule="nonzero"/><path fill="#9abde3" d="M 509.609375 198.0625 L 466.679688 173.191406 C 465.410156 173.332031 464.144531 173.519531 462.878906 173.753906 C 446.691406 176.757812 437.730469 185.207031 440.730469 193.652344 L 466.304688 208.34375 C 473.621094 209.515625 481.691406 209.515625 489.339844 208.105469 C 499.003906 206.371094 506.089844 202.617188 509.609375 198.0625 Z M 509.609375 198.0625 " fill-opacity="1" fill-rule="nonzero"/><path fill="#ba2026" d="M 420.324219 62.15625 L 420.039062 61.683594 L 488.167969 22.359375 L 514.628906 37.609375 L 514.394531 38.078125 L 488.167969 22.921875 Z M 420.324219 62.15625 " fill-opacity="1" fill-rule="nonzero"/><path fill="#ba2026" d="M 420.324219 66.144531 L 420.039062 65.722656 L 488.167969 26.347656 L 514.628906 41.644531 L 514.394531 42.070312 L 488.167969 26.957031 Z M 420.324219 66.144531 " fill-opacity="1" fill-rule="nonzero"/><path fill="#ba2026" d="M 420.324219 70.132812 L 420.039062 69.710938 L 488.167969 30.335938 L 514.628906 45.636719 L 514.394531 46.058594 L 488.167969 30.945312 Z M 420.324219 70.132812 " fill-opacity="1" fill-rule="nonzero"/><path fill="#f49373" d="M 460.765625 53.847656 C 460.765625 53.847656 460.8125 53.847656 460.765625 53.847656 C 464.191406 55.585938 467.101562 53.894531 467.101562 53.894531 C 466.914062 52.253906 467.382812 50.375 468.882812 50.28125 C 470.101562 50.234375 470.476562 51.453125 470.476562 51.453125 C 471.652344 50.515625 471.746094 49.578125 471.933594 48.40625 C 471.652344 47.886719 470.855469 47.277344 469.210938 47.230469 C 469.210938 47.230469 470.289062 46.667969 471.886719 47.183594 C 473.761719 46.011719 474.652344 45.121094 475.125 44.414062 C 475.125 44.414062 475.3125 44.132812 475.5 43.710938 C 475.734375 46.527344 476.296875 55.914062 472.917969 57.507812 C 472.027344 57.929688 471.136719 57.882812 470.242188 57.554688 C 469.914062 58.917969 469.492188 60.699219 469.398438 62.296875 L 458.609375 58.542969 C 458.703125 58.589844 460.25 55.773438 460.765625 53.847656 Z M 460.765625 53.847656 " fill-opacity="1" fill-rule="nonzero"/><path fill="#cb7c61" d="M 468.929688 50.328125 C 469.351562 50.328125 469.632812 50.46875 469.914062 50.65625 C 469.867188 50.65625 468.414062 50.609375 468.132812 51.785156 C 467.851562 53.003906 469.023438 53.472656 468.882812 54.222656 C 468.789062 54.972656 467.617188 55.117188 467.101562 53.941406 C 466.960938 52.253906 467.429688 50.375 468.929688 50.328125 Z M 468.929688 50.328125 " fill-opacity="1" fill-rule="nonzero"/><path fill="#3a312a" d="M 476.390625 41.222656 C 476.34375 40.566406 476.0625 40.050781 475.78125 39.722656 C 475.78125 39.722656 475.453125 38.125 472.964844 37.703125 C 472.121094 37.5625 471.324219 37.75 470.714844 38.078125 C 469.398438 37.46875 468.226562 37.84375 467.523438 38.21875 C 467.382812 38.171875 467.242188 38.125 467.054688 38.125 C 465.269531 37.84375 463.957031 39.019531 463.347656 39.675781 C 462.410156 39.957031 461.375 40.472656 460.53125 41.503906 C 459.171875 43.195312 458.609375 45.871094 459.359375 47.699219 C 459.265625 47.792969 459.21875 47.980469 459.125 48.261719 C 458.703125 49.953125 459.359375 51.078125 460.0625 51.785156 C 460.390625 53.144531 460.71875 53.988281 460.71875 53.988281 C 464.144531 55.726562 467.054688 54.035156 467.054688 54.035156 C 466.867188 52.394531 467.335938 50.515625 468.835938 50.421875 C 470.054688 50.375 470.429688 51.59375 470.429688 51.59375 C 470.667969 51.40625 470.808594 51.265625 470.949219 51.078125 C 470.949219 51.078125 472.824219 49.390625 471.839844 47.324219 C 471.839844 47.324219 474.511719 47.605469 474.890625 44.835938 C 474.984375 44.742188 475.03125 44.648438 475.078125 44.554688 C 475.078125 44.554688 475.875 43.664062 476.015625 42.164062 C 476.296875 41.882812 476.4375 41.597656 476.390625 41.222656 Z M 476.390625 41.222656 " fill-opacity="1" fill-rule="nonzero"/><path fill="#1c1a19" d="M 459.40625 47.605469 C 459.3125 47.699219 459.265625 47.886719 459.171875 48.167969 C 458.75 49.859375 459.40625 50.984375 460.109375 51.6875 C 460.4375 53.050781 460.765625 53.894531 460.765625 53.894531 C 464.191406 55.632812 467.101562 53.941406 467.101562 53.941406 C 466.914062 52.300781 467.382812 50.421875 468.882812 50.328125 C 469.070312 50.328125 469.210938 50.328125 469.398438 50.375 C 470.101562 47.933594 468.695312 46.480469 468.695312 46.480469 C 468.695312 46.480469 465.644531 46.996094 463.160156 45.542969 C 460.671875 44.085938 460.53125 41.457031 460.53125 41.457031 C 459.171875 43.101562 458.65625 45.777344 459.40625 47.605469 Z M 459.40625 47.605469 " fill-opacity="1" fill-rule="nonzero"/><path fill="#cb7c61" d="M 467.148438 53.894531 C 467.148438 53.894531 464.238281 55.585938 460.8125 53.847656 C 460.296875 55.773438 458.75 58.542969 458.75 58.542969 L 465.550781 60.886719 L 466.726562 56.289062 C 468.601562 57.226562 470.429688 57.507812 470.429688 57.507812 C 467.757812 56.101562 467.148438 53.894531 467.148438 53.894531 Z M 467.148438 53.894531 " fill-opacity="1" fill-rule="nonzero"/><path fill="#4f433d" d="M 476.390625 41.222656 C 476.34375 40.566406 476.0625 40.050781 475.78125 39.722656 C 475.78125 39.722656 476.109375 41.128906 475.265625 41.976562 C 475.265625 41.976562 475.03125 44.179688 472.871094 44.414062 C 472.871094 44.414062 470.902344 46.246094 468.695312 46.527344 C 468.695312 46.527344 469.960938 47.792969 469.398438 50.421875 C 470.195312 50.65625 470.527344 51.546875 470.527344 51.546875 C 470.761719 51.359375 470.902344 51.21875 471.042969 51.03125 C 471.042969 51.03125 472.917969 49.34375 471.933594 47.277344 C 471.933594 47.277344 474.605469 47.558594 474.984375 44.789062 C 475.078125 44.695312 475.125 44.601562 475.171875 44.507812 C 475.171875 44.507812 475.96875 43.617188 476.109375 42.117188 C 476.296875 41.882812 476.4375 41.597656 476.390625 41.222656 Z M 476.390625 41.222656 " fill-opacity="1" fill-rule="nonzero"/><path fill="#f15d2e" d="M 513.457031 62.578125 C 499.847656 67.597656 490.089844 71.492188 490.089844 71.492188 C 485.445312 69.992188 481.128906 68.585938 477.890625 67.550781 C 480.425781 62.90625 481.269531 59.339844 481.269531 59.339844 L 478.359375 57.179688 C 475.640625 60.136719 473.199219 62.765625 471.230469 65.015625 C 470.808594 64.828125 470.382812 64.59375 470.007812 64.40625 L 469.539062 62.390625 C 469.539062 62.390625 464.988281 58.871094 458.75 58.636719 C 458.75 58.636719 457.292969 59.386719 456.402344 60.746094 L 456.449219 60.746094 C 455.089844 60.839844 453.777344 61.121094 452.648438 61.734375 C 448.097656 64.078125 447.488281 70.742188 449.457031 80.785156 C 451.242188 89.84375 451.195312 97.117188 451.382812 105.097656 C 451.382812 105.097656 451.523438 113.871094 451.148438 116.640625 C 451.148438 116.640625 459.734375 122.320312 469.960938 122.320312 C 469.960938 122.320312 478.78125 122.367188 484.179688 116.453125 C 484.179688 116.453125 483.945312 115.09375 483.664062 113.074219 C 483.523438 112.089844 481.972656 99.746094 481.972656 99.746094 C 481.972656 99.652344 481.972656 99.605469 481.972656 99.511719 C 481.878906 98.242188 481.738281 96.929688 481.597656 95.570312 C 481.503906 92.191406 481.222656 86.980469 480.472656 81.253906 C 480.472656 80.457031 480.425781 79.566406 480.332031 78.628906 C 487.933594 80.035156 491.78125 79.191406 491.78125 79.191406 C 504.871094 75.53125 515.472656 66.191406 515.472656 66.191406 Z M 513.457031 62.578125 " fill-opacity="1" fill-rule="nonzero"/><path fill="#f26b4c" d="M 472.496094 66.144531 C 474.75 67.363281 485.351562 72.902344 490.183594 72.574219 C 495.625 72.199219 513.878906 63.328125 513.925781 63.328125 L 513.503906 62.578125 C 499.898438 67.597656 490.136719 71.492188 490.136719 71.492188 L 472.496094 66.050781 Z M 472.496094 66.144531 " fill-opacity="1" fill-rule="nonzero"/><path fill="#8c494d" d="M 452.695312 117.484375 C 455.605469 119.082031 462.316406 122.226562 469.914062 122.226562 C 469.914062 122.226562 477.890625 122.273438 483.289062 117.203125 C 484.132812 124.949219 484.882812 136.585938 483.898438 149.445312 C 482.160156 172.160156 481.925781 196.5625 481.925781 196.5625 L 473.855469 198.300781 C 473.855469 198.300781 467.851562 175.210938 472.214844 149.585938 C 472.214844 149.585938 469.726562 142.828125 467.242188 134.660156 C 467.054688 137.382812 466.726562 142.171875 466.019531 147.707031 C 464.941406 156.859375 462.597656 188.113281 462.597656 188.113281 L 454.058594 189.570312 C 451.710938 170.1875 454.621094 147.050781 454.621094 147.050781 C 454.761719 145.597656 454.152344 129.265625 452.835938 118.660156 C 452.742188 118.234375 452.695312 117.859375 452.695312 117.484375 Z M 452.695312 117.484375 " fill-opacity="1" fill-rule="nonzero"/><path fill="#d9522a" d="M 452.601562 61.683594 C 453.777344 61.074219 455.042969 60.792969 456.402344 60.699219 L 456.355469 60.699219 C 457.292969 59.386719 458.703125 58.589844 458.703125 58.589844 C 458.984375 58.589844 459.265625 58.636719 459.546875 58.636719 C 459.453125 58.683594 458.515625 59.339844 458.703125 61.921875 C 458.703125 61.921875 453.917969 66.800781 455.324219 77.546875 C 456.730469 88.292969 460.484375 112.417969 458.28125 120.019531 C 453.917969 118.425781 451.101562 116.546875 451.101562 116.546875 C 451.476562 113.777344 451.335938 105.003906 451.335938 105.003906 C 451.148438 97.023438 451.195312 89.796875 449.410156 80.691406 C 447.441406 70.695312 448.003906 63.984375 452.601562 61.683594 Z M 452.601562 61.683594 " fill-opacity="1" fill-rule="nonzero"/><path fill="#783e42" d="M 452.695312 117.484375 C 452.742188 117.859375 452.789062 118.234375 452.835938 118.613281 C 454.152344 129.21875 454.761719 145.550781 454.621094 147.003906 C 454.621094 147.003906 451.710938 170.140625 454.058594 189.523438 L 456.824219 189.054688 C 454.714844 175.539062 458.28125 146.722656 458.28125 146.722656 L 459.546875 129.453125 C 461 130.765625 464.707031 132.503906 464.707031 132.503906 C 460.203125 128.375 458.28125 120.066406 458.28125 120.066406 C 455.886719 119.175781 453.917969 118.1875 452.695312 117.484375 Z M 452.695312 117.484375 " fill-opacity="1" fill-rule="nonzero"/><path fill="#783e42" d="M 467.242188 134.613281 C 469.773438 142.78125 472.214844 149.539062 472.214844 149.539062 C 467.851562 175.164062 473.855469 198.253906 473.855469 198.253906 L 478.171875 197.3125 C 474.558594 182.484375 476.203125 149.445312 476.203125 149.445312 C 475.3125 145.878906 467.242188 134.613281 467.242188 134.613281 Z M 467.242188 134.613281 " fill-opacity="1" fill-rule="nonzero"/><path fill="#d9522a" d="M 473.246094 76.984375 C 473.246094 76.984375 477.1875 81.582031 480.425781 81.679688 C 480.425781 81.488281 480.378906 81.347656 480.378906 81.160156 C 480.378906 80.363281 480.332031 79.472656 480.238281 78.535156 C 480.238281 78.535156 475.078125 77.5 473.246094 76.984375 Z M 473.246094 76.984375 " fill-opacity="1" fill-rule="nonzero"/><path fill="#f26b4c" d="M 473.246094 76.984375 C 473.246094 76.984375 475.5 80.691406 478.125 82.570312 C 478.125 82.570312 479.535156 88.390625 479.441406 95.945312 C 479.394531 102.515625 477.9375 113.917969 478.828125 120.160156 C 480.660156 119.316406 482.488281 118.09375 484.085938 116.40625 C 484.085938 116.40625 483.851562 115.046875 483.570312 113.027344 C 483.429688 112.042969 481.878906 99.699219 481.878906 99.699219 C 481.878906 99.605469 481.878906 99.558594 481.878906 99.464844 C 481.785156 98.195312 481.644531 96.882812 481.503906 95.523438 C 481.410156 92.285156 481.128906 87.261719 480.425781 81.726562 C 480.472656 81.679688 477.703125 81.914062 473.246094 76.984375 Z M 473.246094 76.984375 " fill-opacity="1" fill-rule="nonzero"/><path fill="#f26b4c" d="M 466.726562 60.652344 L 466.445312 62.671875 C 466.445312 62.671875 468.835938 63.75 469.960938 64.359375 L 469.492188 62.34375 C 469.539062 62.34375 468.132812 61.308594 466.726562 60.652344 Z M 466.726562 60.652344 " fill-opacity="1" fill-rule="nonzero"/><path fill="#9c5d61" d="M 481.785156 148.222656 C 481.269531 157.1875 480.003906 185.769531 480.613281 196.84375 L 481.925781 196.5625 C 481.925781 196.5625 482.160156 172.160156 483.898438 149.445312 C 484.882812 136.632812 484.132812 124.949219 483.289062 117.203125 C 482.253906 118.140625 481.128906 118.941406 480.003906 119.550781 C 480.285156 121.804688 482.347656 138.839844 481.785156 148.222656 Z M 481.785156 148.222656 " fill-opacity="1" fill-rule="nonzero"/><path fill="#9c5d61" d="M 460.71875 188.398438 L 462.597656 188.066406 C 462.597656 188.066406 464.941406 156.8125 466.019531 147.660156 C 466.679688 142.078125 467.054688 137.335938 467.242188 134.613281 C 467.242188 134.613281 464.566406 132.550781 463.769531 131.515625 C 463.769531 131.515625 464.847656 134.425781 465.785156 135.789062 C 465.785156 135.789062 464.613281 145.457031 464.285156 148.082031 C 464.003906 150.289062 460.859375 175.351562 460.71875 188.398438 Z M 460.71875 188.398438 " fill-opacity="1" fill-rule="nonzero"/><path fill="#f26b4c" d="M 472.542969 65.582031 C 475.59375 62.71875 478.59375 59.761719 479.722656 58.164062 L 478.359375 57.179688 C 478.359375 57.179688 474.890625 60.933594 471.183594 64.96875 C 471.605469 65.160156 472.027344 65.347656 472.542969 65.582031 Z M 472.542969 65.582031 " fill-opacity="1" fill-rule="nonzero"/><path fill="#f49373" d="M 513.644531 62.90625 L 514.957031 60.839844 C 514.957031 60.839844 516.316406 58.917969 516.316406 59.011719 C 516.316406 59.152344 516.316406 60.792969 516.316406 61.027344 L 517.585938 59.902344 L 517.960938 61.167969 L 518.101562 62.25 L 517.914062 64.453125 C 517.914062 64.453125 516.976562 65.488281 515.425781 65.863281 Z M 513.644531 62.90625 " fill-opacity="1" fill-rule="nonzero"/><path fill="#f49373" d="M 478.6875 57.414062 L 479.722656 54.925781 L 481.785156 53.472656 L 481.785156 58.304688 C 481.785156 58.304688 481.410156 58.964844 481.082031 59.152344 Z M 478.6875 57.414062 " fill-opacity="1" fill-rule="nonzero"/><path fill="#f49373" d="M 479.722656 54.925781 C 479.722656 54.925781 482.253906 54.363281 482.347656 54.410156 C 482.441406 54.457031 481.972656 55.492188 481.035156 55.914062 C 481.035156 55.914062 481.363281 57.742188 479.910156 58.351562 L 478.6875 57.414062 C 478.6875 57.414062 479.160156 55.914062 479.722656 54.925781 Z M 479.722656 54.925781 " fill-opacity="1" fill-rule="nonzero"/><path fill="#cb7c61" d="M 481.035156 55.914062 C 481.035156 55.914062 481.363281 57.742188 479.910156 58.351562 L 479.488281 58.023438 L 480.191406 58.542969 C 481.175781 58.402344 481.832031 57.226562 481.832031 57.226562 L 481.832031 55.445312 C 481.597656 55.585938 481.363281 55.773438 481.035156 55.914062 Z M 481.035156 55.914062 " fill-opacity="1" fill-rule="nonzero"/><path fill="#cb7c61" d="M 517.164062 62.484375 L 517.914062 61.214844 L 517.539062 59.949219 L 516.269531 61.074219 L 515.800781 61.355469 L 516.269531 59.949219 C 516.269531 59.527344 516.269531 59.105469 516.269531 59.058594 C 516.269531 58.917969 514.910156 60.886719 514.910156 60.886719 L 513.597656 62.953125 L 514.441406 64.453125 Z M 517.164062 62.484375 " fill-opacity="1" fill-rule="nonzero"/><path fill="#2e79be" d="M 336.996094 164.601562 L 422.902344 115 L 422.902344 38.738281 L 336.996094 88.34375 Z M 336.996094 164.601562 " fill-opacity="1" fill-rule="nonzero"/><path fill="#9ecee4" d="M 342.296875 118 L 418.164062 74.214844 L 418.164062 48.027344 L 342.296875 91.863281 Z M 342.296875 118 " fill-opacity="1" fill-rule="nonzero"/><path fill="#ffffff" d="M 391.984375 126.308594 L 418.164062 111.195312 L 418.164062 85.011719 L 391.984375 100.121094 Z M 391.984375 126.308594 " fill-opacity="1" fill-rule="nonzero"/><path fill="#ffffff" d="M 342.296875 154.984375 L 389.167969 127.902344 L 389.167969 101.765625 L 342.296875 128.84375 Z M 342.296875 154.984375 " fill-opacity="1" fill-rule="nonzero"/><path fill="#9ecee4" d="M 342.296875 123.773438 L 418.164062 79.941406 L 418.164062 78.394531 L 342.296875 122.179688 Z M 342.296875 123.773438 " fill-opacity="1" fill-rule="nonzero"/><path fill="#9ecee4" d="M 344.453125 130.671875 L 386.964844 106.128906 L 386.964844 105.660156 L 344.453125 130.203125 Z M 344.453125 130.671875 " fill-opacity="1" fill-rule="nonzero"/><path fill="#9ecee4" d="M 344.453125 134.425781 L 386.964844 109.882812 L 386.964844 109.414062 L 344.453125 133.957031 Z M 344.453125 134.425781 " fill-opacity="1" fill-rule="nonzero"/><path fill="#9ecee4" d="M 344.453125 138.179688 L 386.964844 113.636719 L 386.964844 113.214844 L 344.453125 137.757812 Z M 344.453125 138.179688 " fill-opacity="1" fill-rule="nonzero"/><path fill="#9ecee4" d="M 344.453125 141.9375 L 386.964844 117.390625 L 386.964844 116.96875 L 344.453125 141.511719 Z M 344.453125 141.9375 " fill-opacity="1" fill-rule="nonzero"/><path fill="#9ecee4" d="M 344.453125 145.738281 L 386.964844 121.191406 L 386.964844 120.722656 L 344.453125 145.269531 Z M 344.453125 145.738281 " fill-opacity="1" fill-rule="nonzero"/><path fill="#9ecee4" d="M 344.453125 149.492188 L 386.964844 124.949219 L 386.964844 124.476562 L 344.453125 149.023438 Z M 344.453125 149.492188 " fill-opacity="1" fill-rule="nonzero"/><path fill="#204fa2" d="M 336.996094 88.34375 L 422.902344 38.738281 L 422.902344 34.277344 L 336.996094 83.882812 Z M 336.996094 88.34375 " fill-opacity="1" fill-rule="nonzero"/><path fill="#ef4023" d="M 396.207031 110.773438 C 396.207031 115.65625 400.148438 117.34375 405.027344 114.527344 C 409.90625 111.714844 413.847656 105.472656 413.847656 100.589844 C 413.847656 95.710938 409.90625 94.019531 405.027344 96.835938 C 400.195312 99.652344 396.207031 105.894531 396.207031 110.773438 Z M 396.207031 110.773438 " fill-opacity="1" fill-rule="nonzero"/><path fill="#ffffff" d="M 399.066406 109.976562 C 398.785156 113.308594 401.226562 114.199219 404.511719 111.996094 C 407.84375 109.789062 410.75 105.285156 411.078125 101.953125 C 411.359375 98.621094 408.921875 97.726562 405.636719 99.933594 C 402.304688 102.1875 399.351562 106.644531 399.066406 109.976562 Z M 399.066406 109.976562 " fill-opacity="1" fill-rule="nonzero"/><path fill="#f1efee" d="M 412.347656 231.335938 L 391.5625 195.34375 L 424.875 176.007812 L 445.847656 211.675781 Z M 412.347656 231.335938 " fill-opacity="1" fill-rule="nonzero"/><path fill="#d4d2d1" d="M 424.875 176.007812 L 423.464844 176.007812 L 390.386719 195.109375 L 411.171875 230.960938 L 412.347656 231.335938 L 391.5625 195.34375 Z M 424.875 176.007812 " fill-opacity="1" fill-rule="nonzero"/><path fill="#d4d2d1" d="M 422.902344 34.277344 L 420.039062 33.621094 L 334.273438 82.804688 L 334.273438 163.429688 L 336.996094 164.601562 L 336.996094 83.882812 Z M 422.902344 34.277344 " fill-opacity="1" fill-rule="nonzero"/><path fill="#e5e5e5" d="M 334.273438 82.804688 L 336.996094 83.882812 L 336.996094 164.601562 L 334.273438 163.429688 Z M 334.273438 82.804688 " fill-opacity="1" fill-rule="nonzero"/></svg>