<svg xmlns="http://www.w3.org/2000/svg" xmlns:xlink="http://www.w3.org/1999/xlink" width="50" zoomAndPan="magnify" viewBox="0 0 37.5 37.499999" height="50" preserveAspectRatio="xMidYMid meet" version="1.0"><defs><clipPath id="d40fa45731"><path d="M 0.761719 0.648438 L 36.761719 0.648438 L 36.761719 37.007812 L 0.761719 37.007812 Z M 0.761719 0.648438 " clip-rule="nonzero"/></clipPath></defs><g clip-path="url(#d40fa45731)"><path fill="#2e373b" d="M 32.640625 21.070312 C 32.738281 20.398438 32.804688 19.71875 32.804688 19.023438 C 32.804688 18.324219 32.738281 17.644531 32.640625 16.972656 L 36.320312 14.089844 C 36.664062 13.824219 36.757812 13.34375 36.539062 12.964844 L 32.910156 6.703125 C 32.691406 6.324219 32.230469 6.167969 31.824219 6.328125 L 27.488281 8.0625 C 26.414062 7.214844 25.214844 6.519531 23.917969 6.007812 L 23.257812 1.398438 C 23.195312 0.96875 22.824219 0.648438 22.390625 0.648438 L 15.132812 0.648438 C 14.695312 0.648438 14.328125 0.96875 14.265625 1.398438 L 13.605469 6.011719 C 12.308594 6.519531 11.109375 7.214844 10.035156 8.066406 L 5.699219 6.328125 C 5.292969 6.167969 4.828125 6.324219 4.609375 6.703125 L 0.984375 12.964844 C 0.765625 13.34375 0.859375 13.824219 1.203125 14.09375 L 4.882812 16.972656 C 4.785156 17.644531 4.714844 18.324219 4.714844 19.023438 C 4.714844 19.71875 4.785156 20.398438 4.882812 21.070312 L 1.199219 23.953125 C 0.859375 24.222656 0.765625 24.703125 0.980469 25.078125 L 4.609375 31.34375 C 4.828125 31.71875 5.292969 31.878906 5.699219 31.714844 L 10.035156 29.980469 C 11.109375 30.832031 12.308594 31.523438 13.601562 32.035156 L 14.265625 36.648438 C 14.328125 37.078125 14.695312 37.398438 15.132812 37.398438 L 22.386719 37.398438 C 22.824219 37.398438 23.195312 37.078125 23.257812 36.644531 L 23.917969 32.035156 C 25.214844 31.523438 26.414062 30.832031 27.488281 29.980469 L 31.824219 31.714844 C 32.230469 31.875 32.691406 31.71875 32.910156 31.339844 L 36.539062 25.078125 C 36.757812 24.699219 36.664062 24.21875 36.320312 23.949219 Z M 32.640625 21.070312 " fill-opacity="1" fill-rule="nonzero"/></g><path fill="#8ed5be" d="M 10.347656 19.449219 L 14.371094 21.214844 L 14.371094 23.710938 L 7.90625 20.488281 L 7.90625 18.378906 L 14.371094 15.148438 L 14.371094 17.644531 Z M 10.347656 19.449219 " fill-opacity="1" fill-rule="nonzero"/><path fill="#8ed5be" d="M 17.949219 26.023438 L 16.113281 26.023438 L 19.992188 12.023438 L 21.832031 12.023438 Z M 17.949219 26.023438 " fill-opacity="1" fill-rule="nonzero"/><path fill="#8ed5be" d="M 27.28125 19.414062 L 23.175781 17.636719 L 23.175781 15.15625 L 29.734375 18.378906 L 29.734375 20.488281 L 23.175781 23.71875 L 23.175781 21.242188 Z M 27.28125 19.414062 " fill-opacity="1" fill-rule="nonzero"/></svg>