<svg xmlns="http://www.w3.org/2000/svg" xmlns:xlink="http://www.w3.org/1999/xlink" width="377" zoomAndPan="magnify" viewBox="0 0 283.5 283.500005" height="377" preserveAspectRatio="xMidYMid meet" version="1.0"><defs><clipPath id="ac4f4aa373"><path d="M 6.121094 12.054688 L 277.621094 12.054688 L 277.621094 271.554688 L 6.121094 271.554688 Z M 6.121094 12.054688 " clip-rule="nonzero"/></clipPath></defs><path fill="#000000" d="M 142.125 42.910156 C 142.125 36.371094 132.398438 36.371094 132.398438 42.910156 C 132.230469 49.277344 142.125 49.277344 142.125 42.910156 Z M 138.769531 42.910156 C 138.769531 45.085938 135.414062 45.085938 135.414062 42.910156 C 135.414062 40.5625 138.769531 40.5625 138.769531 42.910156 Z M 138.769531 42.910156 " fill-opacity="1" fill-rule="nonzero"/><path fill="#000000" d="M 154.867188 42.910156 C 154.867188 36.371094 145.140625 36.371094 145.140625 42.910156 C 145.140625 49.277344 154.867188 49.277344 154.867188 42.910156 Z M 151.683594 42.910156 C 151.683594 45.085938 148.328125 45.085938 148.328125 42.910156 C 148.328125 40.5625 151.683594 40.5625 151.683594 42.910156 Z M 151.683594 42.910156 " fill-opacity="1" fill-rule="nonzero"/><path fill="#000000" d="M 162.917969 47.769531 C 169.457031 47.769531 169.457031 38.046875 162.917969 38.046875 C 156.378906 37.878906 156.378906 47.769531 162.917969 47.769531 Z M 164.59375 42.910156 C 164.59375 45.085938 161.242188 45.085938 161.242188 42.910156 C 161.242188 40.5625 164.59375 40.5625 164.59375 42.910156 Z M 164.59375 42.910156 " fill-opacity="1" fill-rule="nonzero"/><path fill="#000000" d="M 176.332031 47.769531 L 251.964844 47.769531 C 254.648438 47.769531 256.828125 45.589844 256.828125 42.910156 C 256.828125 40.226562 254.648438 38.046875 251.964844 38.046875 L 176.332031 38.046875 C 169.960938 37.878906 169.960938 47.769531 176.332031 47.769531 Z M 251.964844 41.066406 C 252.96875 41.066406 253.640625 41.902344 253.640625 42.742188 C 253.640625 43.746094 252.804688 44.417969 251.964844 44.417969 C 171.804688 44.417969 174.65625 45.085938 174.65625 42.742188 C 174.65625 40.394531 171.636719 41.066406 251.964844 41.066406 Z M 251.964844 41.066406 " fill-opacity="1" fill-rule="nonzero"/><g clip-path="url(#ac4f4aa373)"><path fill="#000000" d="M 277.621094 141.804688 C 277.621094 125.714844 274.769531 109.957031 268.902344 95.207031 L 268.902344 42.910156 C 268.902344 36.707031 263.871094 31.511719 257.5 31.511719 L 215.742188 31.511719 C 195.617188 18.9375 172.140625 12.234375 147.992188 12.234375 C 98.019531 12.234375 52.070312 41.398438 30.773438 86.65625 L 23.730469 93.699219 C 23.226562 94.199219 23.058594 95.039062 23.5625 95.710938 L 25.742188 99.230469 C 21.886719 109.789062 19.707031 120.851562 18.867188 132.082031 L 7.296875 135.101562 C 6.625 135.269531 6.121094 135.9375 6.121094 136.609375 L 6.121094 158.566406 C 6.121094 159.238281 6.625 159.90625 7.296875 160.074219 L 20.375 163.429688 C 22.054688 172.980469 24.734375 182.371094 28.425781 191.421875 L 23.5625 199.632812 C 23.226562 200.304688 23.226562 201.144531 23.730469 201.644531 L 39.15625 217.066406 C 39.660156 217.570312 40.5 217.738281 41.171875 217.234375 L 42.175781 216.5625 C 66.828125 251.261719 106.402344 271.207031 147.824219 271.207031 C 219.429688 271.375 277.621094 213.210938 277.621094 141.804688 Z M 274.4375 141.804688 C 274.4375 177.003906 260.015625 208.851562 236.703125 231.648438 L 106.238281 231.648438 L 110.429688 215.726562 C 117.136719 214.050781 123.507812 211.367188 129.378906 207.847656 L 145.476562 217.234375 C 146.148438 217.570312 146.820312 217.570312 147.488281 217.066406 L 162.917969 201.644531 C 163.421875 201.144531 163.589844 200.304688 163.085938 199.632812 L 153.527344 183.375 C 155.707031 179.519531 157.550781 175.496094 159.0625 171.304688 L 257.667969 171.304688 C 263.871094 171.304688 269.070312 166.277344 269.070312 159.90625 L 269.070312 105.097656 C 272.589844 116.828125 274.4375 129.234375 274.4375 141.804688 Z M 147.992188 268.191406 C 117.472656 268.191406 86.617188 256.960938 62.636719 235.003906 L 233.351562 235.003906 C 209.539062 256.792969 178.847656 268.191406 147.992188 268.191406 Z M 56.765625 152.53125 C 57.605469 150.855469 60.289062 149.515625 61.292969 146.832031 C 63.140625 141.972656 58.109375 140.96875 67.164062 130.238281 C 76.554688 119.175781 77.058594 118.171875 78.734375 117.667969 C 79.742188 117.332031 80.914062 117.5 81.082031 118.171875 C 82.257812 120.515625 74.375 125.714844 81.417969 130.238281 C 86.449219 133.589844 79.070312 137.949219 80.746094 143.648438 C 81.753906 147 85.105469 148.175781 87.453125 149.683594 C 91.3125 152.03125 94.332031 155.886719 95.503906 160.242188 C 95.503906 160.410156 95.671875 160.914062 95.671875 161.25 C 95.671875 161.417969 95.167969 161.75 95 161.917969 C 91.480469 164.433594 88.292969 164.9375 84.4375 164.9375 C 73.871094 164.9375 73.367188 170.300781 67.835938 171.136719 C 65.488281 171.472656 62.46875 170.46875 59.449219 171.472656 C 58.277344 171.808594 57.101562 172.480469 56.09375 173.484375 C 54.082031 170.46875 52.40625 167.285156 51.066406 163.929688 C 53.746094 163.59375 56.597656 163.429688 56.597656 159.238281 C 56.597656 156.722656 55.929688 154.375 56.765625 152.53125 Z M 74.878906 171.136719 C 80.914062 167.117188 81.25 168.625 87.453125 168.121094 C 92.316406 167.617188 97.851562 164.9375 98.691406 162.421875 C 99.027344 161.417969 98.859375 160.578125 98.691406 159.742188 C 97.347656 154.375 93.996094 149.683594 87.957031 146.332031 C 83.261719 143.816406 82.925781 142.644531 85.105469 137.949219 L 85.273438 137.445312 C 87.789062 132.25 86.28125 129.570312 83.261719 127.558594 C 81.417969 126.382812 81.082031 126.046875 82.925781 123.03125 C 87.121094 115.488281 81.082031 113.308594 77.558594 114.648438 C 75.046875 115.65625 74.039062 117.164062 67.835938 124.707031 C 63.140625 130.238281 58.277344 135.269531 58.441406 141.46875 C 58.441406 142.8125 58.777344 144.820312 58.441406 145.828125 C 58.109375 146.664062 57.4375 147.335938 56.597656 148.175781 C 55.761719 149.011719 54.753906 149.851562 54.25 151.023438 C 52.910156 153.707031 53.578125 156.722656 53.578125 159.070312 C 53.578125 160.410156 53.414062 160.410156 52.238281 160.578125 C 51.566406 160.746094 50.898438 160.746094 50.226562 160.746094 C 41.339844 131.246094 63.472656 102.246094 93.660156 102.246094 C 103.050781 102.246094 112.273438 105.097656 120.492188 111.128906 C 120.492188 163.59375 120.492188 160.074219 120.660156 161.25 C 119.148438 165.273438 117.808594 164.9375 113.613281 165.773438 C 110.429688 166.445312 108.25 167.953125 107.578125 170.132812 C 106.90625 172.648438 109.085938 175.832031 103.21875 178.847656 C 100.03125 180.523438 94.832031 181.699219 93.324219 184.546875 C 92.652344 185.722656 92.988281 187.230469 92.988281 187.902344 C 93.324219 190.078125 93.15625 191.757812 92.820312 192.929688 C 83.429688 192.761719 74.878906 189.910156 67.835938 184.882812 C 64.144531 182.371094 60.957031 179.351562 58.277344 176 C 62.804688 171.472656 64.984375 177.84375 74.878906 171.136719 Z M 96.84375 185.21875 C 100.871094 182.703125 110.765625 181.363281 110.261719 172.648438 C 109.925781 166.949219 117.808594 170.636719 121.664062 165.605469 C 123.675781 168.960938 127.199219 171.304688 132.0625 171.304688 C 124.179688 183.878906 110.765625 191.921875 95.839844 192.929688 C 96.84375 187.902344 94.664062 186.558594 96.84375 185.21875 Z M 131.558594 168.121094 C 127.03125 168.121094 123.339844 164.433594 123.339844 159.90625 L 123.339844 86.65625 C 123.339844 86.65625 123.339844 86.65625 123.339844 86.488281 L 123.339844 54.140625 L 265.714844 54.140625 L 265.714844 159.90625 C 265.714844 164.433594 262.027344 168.121094 257.5 168.121094 Z M 265.714844 42.742188 L 265.714844 50.953125 L 123.339844 50.953125 L 123.339844 42.742188 C 123.339844 38.214844 127.03125 34.527344 131.558594 34.527344 L 257.667969 34.527344 C 262.027344 34.695312 265.714844 38.382812 265.714844 42.742188 Z M 147.992188 15.417969 C 169.625 15.417969 190.753906 20.949219 209.539062 31.34375 L 131.558594 31.34375 C 125.355469 31.34375 120.15625 36.371094 120.15625 42.742188 L 120.15625 83.976562 C 117.136719 82.636719 113.949219 81.628906 110.933594 80.789062 L 105.902344 61.347656 C 105.734375 60.675781 105.0625 60.171875 104.390625 60.171875 L 82.257812 60.171875 C 81.585938 60.171875 80.914062 60.675781 80.746094 61.347656 L 75.714844 80.789062 C 69.679688 82.300781 63.976562 84.644531 58.609375 87.832031 L 41.339844 77.605469 C 40.667969 77.269531 39.828125 77.269531 39.324219 77.773438 L 38.320312 78.78125 C 60.625 40.226562 102.546875 15.417969 147.992188 15.417969 Z M 27.753906 102.75 L 33.457031 112.472656 C 30.101562 118.003906 27.585938 123.871094 25.910156 130.070312 L 21.886719 131.078125 C 22.890625 121.523438 24.734375 111.96875 27.753906 102.75 Z M 23.730469 164.433594 L 25.742188 164.9375 C 27.25 171.472656 29.765625 177.675781 33.121094 183.375 L 30.4375 188.066406 C 27.417969 180.359375 25.070312 172.480469 23.730469 164.433594 Z M 26.917969 200.136719 L 36.308594 184.046875 C 36.644531 183.542969 36.644531 182.871094 36.308594 182.371094 C 32.785156 176.335938 30.101562 169.964844 28.59375 163.09375 C 28.425781 162.589844 28.089844 162.085938 27.417969 161.917969 L 9.140625 157.394531 L 9.140625 137.949219 L 27.753906 133.089844 C 28.257812 132.921875 28.761719 132.585938 28.929688 131.914062 C 30.605469 125.378906 33.289062 119.175781 36.808594 113.476562 C 37.144531 112.972656 37.144531 112.304688 36.808594 111.800781 L 26.917969 95.039062 L 40.667969 81.292969 L 57.773438 91.351562 C 58.277344 91.6875 58.945312 91.6875 59.449219 91.351562 C 64.984375 88 71.1875 85.484375 77.5625 83.976562 C 78.0625 83.808594 78.566406 83.472656 78.734375 82.800781 L 83.765625 63.527344 L 103.21875 63.527344 L 108.25 82.800781 C 108.417969 83.304688 108.917969 83.808594 109.421875 83.976562 C 113.113281 84.8125 116.800781 86.15625 120.324219 87.664062 L 120.324219 107.273438 C 112.105469 101.742188 102.882812 99.0625 93.492188 99.0625 C 46.035156 99.0625 26.917969 160.746094 65.988281 187.566406 C 89.46875 203.65625 121.832031 196.28125 135.917969 171.304688 L 155.875 171.304688 C 154.53125 175.160156 152.6875 179.015625 150.507812 182.535156 C 150.171875 183.039062 150.171875 183.710938 150.507812 184.214844 L 159.898438 200.304688 L 146.148438 214.050781 L 130.386719 204.832031 C 129.882812 204.496094 129.210938 204.496094 128.707031 204.832031 C 122.671875 208.6875 115.964844 211.367188 109.085938 213.042969 C 108.585938 213.210938 108.082031 213.546875 107.914062 214.21875 L 103.386719 231.816406 L 83.597656 231.816406 L 79.070312 214.21875 C 78.902344 213.714844 78.398438 213.210938 77.894531 213.042969 C 70.851562 211.367188 64.3125 208.6875 58.277344 204.832031 C 57.773438 204.496094 57.101562 204.496094 56.597656 204.832031 L 40.835938 214.050781 Z M 45.027344 215.054688 L 57.269531 207.847656 C 63.140625 211.367188 69.511719 214.050781 76.21875 215.726562 L 80.410156 231.648438 L 59.28125 231.648438 C 54.082031 226.621094 49.386719 221.089844 45.027344 215.054688 Z M 45.027344 215.054688 " fill-opacity="1" fill-rule="nonzero"/></g><path fill="#000000" d="M 102.378906 244.554688 C 102.378906 245.394531 103.050781 246.234375 104.054688 246.234375 L 142.792969 246.234375 C 143.632812 246.234375 144.472656 245.5625 144.472656 244.554688 C 144.472656 243.71875 143.800781 242.878906 142.792969 242.878906 L 103.890625 242.878906 C 103.050781 243.046875 102.378906 243.71875 102.378906 244.554688 Z M 102.378906 244.554688 " fill-opacity="1" fill-rule="nonzero"/><path fill="#000000" d="M 149 246.234375 L 155.371094 246.234375 C 156.210938 246.234375 157.046875 245.5625 157.046875 244.554688 C 157.046875 243.71875 156.378906 242.878906 155.371094 242.878906 L 149 242.878906 C 148.160156 242.878906 147.320312 243.550781 147.320312 244.554688 C 147.320312 245.394531 147.992188 246.234375 149 246.234375 Z M 149 246.234375 " fill-opacity="1" fill-rule="nonzero"/><path fill="#000000" d="M 160.738281 246.234375 L 164.929688 246.234375 C 165.769531 246.234375 166.605469 245.5625 166.605469 244.554688 C 166.605469 243.71875 165.9375 242.878906 164.929688 242.878906 L 160.738281 242.878906 C 159.898438 242.878906 159.0625 243.550781 159.0625 244.554688 C 159.230469 245.394531 159.898438 246.234375 160.738281 246.234375 Z M 160.738281 246.234375 " fill-opacity="1" fill-rule="nonzero"/><path fill="#000000" d="M 151.683594 252.433594 C 151.683594 253.273438 152.351562 254.109375 153.359375 254.109375 C 194.445312 254.109375 193.773438 254.78125 193.773438 252.433594 C 193.773438 251.597656 193.101562 250.757812 192.097656 250.757812 L 153.359375 250.757812 C 152.519531 250.757812 151.683594 251.597656 151.683594 252.433594 Z M 151.683594 252.433594 " fill-opacity="1" fill-rule="nonzero"/><path fill="#000000" d="M 139.105469 252.433594 C 139.105469 253.273438 139.777344 254.109375 140.78125 254.109375 L 147.15625 254.109375 C 147.992188 254.109375 148.832031 253.441406 148.832031 252.433594 C 148.832031 251.597656 148.160156 250.757812 147.15625 250.757812 L 140.78125 250.757812 C 139.777344 250.757812 139.105469 251.597656 139.105469 252.433594 Z M 139.105469 252.433594 " fill-opacity="1" fill-rule="nonzero"/><path fill="#000000" d="M 135.246094 250.757812 L 131.054688 250.757812 C 130.21875 250.757812 129.378906 251.429688 129.378906 252.433594 C 129.378906 253.273438 130.050781 254.109375 131.054688 254.109375 L 135.246094 254.109375 C 136.085938 254.109375 136.925781 253.441406 136.925781 252.433594 C 136.925781 251.597656 136.085938 250.757812 135.246094 250.757812 Z M 135.246094 250.757812 " fill-opacity="1" fill-rule="nonzero"/><path fill="#000000" d="M 214.902344 90.34375 C 214.234375 89.84375 213.226562 90.011719 212.722656 90.679688 C 212.21875 91.351562 212.386719 92.355469 213.058594 92.859375 L 236.367188 110.460938 L 213.058594 128.058594 C 212.386719 128.5625 212.21875 129.570312 212.722656 130.238281 C 213.058594 130.574219 213.5625 130.910156 214.066406 130.910156 C 214.402344 130.910156 214.734375 130.742188 215.070312 130.574219 L 239.890625 111.800781 C 240.226562 111.464844 240.5625 110.960938 240.5625 110.460938 C 240.5625 109.957031 240.394531 109.453125 239.890625 109.117188 Z M 214.902344 90.34375 " fill-opacity="1" fill-rule="nonzero"/><path fill="#000000" d="M 176.5 90.679688 C 176 90.011719 174.992188 89.84375 174.320312 90.34375 L 149.167969 109.285156 C 148.832031 109.621094 148.496094 110.125 148.496094 110.628906 C 148.496094 111.128906 148.664062 111.632812 149.167969 111.96875 L 174.152344 130.910156 C 174.488281 131.078125 174.824219 131.246094 175.160156 131.246094 C 175.664062 131.246094 176.164062 131.078125 176.5 130.574219 C 177.003906 129.902344 176.835938 128.898438 176.164062 128.394531 L 152.855469 110.628906 L 176.164062 93.027344 C 176.835938 92.523438 177.003906 91.519531 176.5 90.679688 Z M 176.5 90.679688 " fill-opacity="1" fill-rule="nonzero"/><path fill="#000000" d="M 210.039062 73.414062 C 209.203125 73.082031 208.363281 73.414062 208.027344 74.253906 L 178.179688 145.492188 C 177.84375 146.332031 178.179688 147.167969 179.015625 147.503906 C 179.183594 147.671875 179.351562 147.671875 179.6875 147.671875 C 180.359375 147.671875 180.863281 147.335938 181.195312 146.664062 L 210.878906 75.59375 C 211.214844 74.757812 210.878906 73.75 210.039062 73.414062 Z M 210.039062 73.414062 " fill-opacity="1" fill-rule="nonzero"/></svg>