<svg xmlns="http://www.w3.org/2000/svg" xmlns:xlink="http://www.w3.org/1999/xlink" width="100" zoomAndPan="magnify" viewBox="0 0 75 74.999997" height="100" preserveAspectRatio="xMidYMid meet" version="1.0"><defs><clipPath id="47b323e39a"><path d="M 2.554688 2.554688 L 72.304688 2.554688 L 72.304688 72.304688 L 2.554688 72.304688 Z M 2.554688 2.554688 " clip-rule="nonzero"/></clipPath></defs><g clip-path="url(#47b323e39a)"><path fill="#8ed5be" d="M 37.429688 70.039062 C 19.449219 70.039062 4.820312 55.410156 4.820312 37.429688 C 4.820312 19.445312 19.449219 4.820312 37.429688 4.820312 C 55.410156 4.820312 70.039062 19.445312 70.039062 37.429688 C 70.039062 55.410156 55.410156 70.039062 37.429688 70.039062 Z M 37.429688 2.554688 C 18.199219 2.554688 2.554688 18.199219 2.554688 37.429688 C 2.554688 56.660156 18.199219 72.304688 37.429688 72.304688 C 56.660156 72.304688 72.304688 56.660156 72.304688 37.429688 C 72.304688 18.199219 56.660156 2.554688 37.429688 2.554688 " fill-opacity="1" fill-rule="nonzero"/></g><path fill="#8ed5be" d="M 51.011719 39.578125 C 50.710938 39.351562 50.941406 38.960938 50.664062 38.683594 C 50.226562 39.355469 50.121094 40.394531 49.613281 40.789062 C 49.195312 40.453125 49.046875 40 48.832031 39.597656 C 48.605469 39.175781 48.429688 38.734375 48.34375 38.210938 C 47.996094 38.460938 47.839844 38.308594 47.699219 38.007812 C 47.546875 37.691406 47.457031 37.34375 47.296875 37.035156 C 47.175781 36.796875 46.859375 36.738281 46.664062 36.917969 C 46.074219 37.453125 45.691406 38.324219 45.746094 39.152344 C 45.808594 40.183594 46.359375 40.964844 47.058594 41.722656 C 47.140625 41.8125 47.292969 41.785156 47.339844 41.675781 C 47.398438 41.535156 47.445312 41.421875 47.492188 41.3125 C 47.59375 42 47.613281 42.621094 48.003906 43.1875 C 48.707031 44.207031 49.570312 45.132812 49.839844 46.410156 C 50.382812 45.992188 50.914062 44.996094 51.019531 44.257812 C 51.113281 43.625 51.078125 42.988281 51.117188 42.351562 C 51.140625 42.007812 51.128906 41.644531 51.371094 41.332031 C 51.433594 41.558594 51.46875 41.710938 51.511719 41.890625 C 51.554688 42.078125 51.585938 42.292969 51.78125 42.355469 C 52.011719 42.433594 52.105469 42.203125 52.199219 42.050781 C 52.605469 41.375 52.988281 40.683594 53.222656 39.925781 C 53.632812 38.621094 53.101562 37.222656 51.957031 36.582031 C 51.933594 36.566406 51.902344 36.550781 51.867188 36.542969 C 51.640625 36.484375 51.433594 36.699219 51.507812 36.921875 C 51.511719 36.929688 51.511719 36.9375 51.515625 36.941406 C 51.8125 37.59375 51.75 38.328125 51.488281 39.007812 C 51.398438 39.234375 51.292969 39.480469 51.011719 39.578125 " fill-opacity="1" fill-rule="nonzero"/><path fill="#8ed5be" d="M 61.582031 44.355469 C 61.042969 43.421875 60.152344 43.152344 59.058594 43.617188 C 58.519531 43.84375 51.691406 47.285156 48.996094 48.628906 C 48.542969 48.855469 48.101562 49.113281 47.667969 49.382812 C 47 49.800781 46.324219 50.039062 45.515625 50.039062 C 43.035156 50.042969 36.199219 50.058594 35.257812 50.0625 C 34.851562 50.0625 34.390625 50.03125 34.378906 49.542969 C 34.367188 49.011719 34.808594 49 35.207031 49 C 35.382812 49 42.359375 49.023438 45.675781 48.996094 C 47.027344 48.988281 47.921875 48.148438 47.882812 46.960938 C 47.847656 45.824219 46.957031 45.09375 45.640625 45.082031 C 44.105469 45.066406 42.566406 45.046875 41.035156 45.09375 C 40.328125 45.113281 39.785156 44.914062 39.242188 44.457031 C 37.402344 42.914062 35.335938 41.753906 32.949219 41.351562 C 30.179688 40.890625 27.378906 41.164062 24.515625 41.121094 L 24.515625 52.546875 C 26.214844 53.503906 32.953125 57.226562 36.828125 58.335938 C 37.769531 58.605469 38.832031 58.785156 39.652344 58.5625 C 41.335938 58.105469 43 57.492188 44.597656 56.726562 C 49.308594 54.472656 60.007812 47.59375 60.9375 46.917969 C 61.867188 46.242188 62.097656 45.238281 61.582031 44.355469 " fill-opacity="1" fill-rule="nonzero"/><path fill="#8ed5be" d="M 20.609375 52.171875 L 18.894531 53.160156 L 17.183594 52.171875 L 17.183594 50.195312 L 18.894531 49.207031 L 20.609375 50.195312 Z M 22.390625 39.675781 L 15.394531 39.675781 C 15.105469 39.675781 14.867188 39.910156 14.867188 40.203125 L 14.867188 54.1875 C 14.867188 54.480469 15.105469 54.71875 15.394531 54.71875 L 22.390625 54.71875 C 22.683594 54.71875 22.917969 54.480469 22.917969 54.1875 L 22.917969 40.203125 C 22.917969 39.910156 22.683594 39.675781 22.390625 39.675781 " fill-opacity="1" fill-rule="nonzero"/><path fill="#8ed5be" d="M 49.550781 20.300781 C 50.730469 20.300781 51.6875 21.257812 51.6875 22.4375 C 51.6875 23.621094 50.730469 24.578125 49.550781 24.578125 C 48.371094 24.578125 47.414062 23.621094 47.414062 22.4375 C 47.414062 21.257812 48.371094 20.300781 49.550781 20.300781 Z M 42.511719 37.578125 C 42.597656 37.582031 42.6875 37.558594 42.761719 37.511719 C 42.769531 37.503906 42.78125 37.5 42.789062 37.492188 C 42.796875 37.488281 42.949219 37.371094 43.019531 37.308594 C 43.71875 36.71875 44.421875 36.136719 45.113281 35.539062 C 45.320312 35.363281 45.523438 35.296875 45.796875 35.296875 C 47.050781 35.300781 52.054688 35.300781 53.304688 35.296875 C 53.578125 35.296875 53.785156 35.363281 53.988281 35.539062 C 54.679688 36.136719 55.382812 36.71875 56.082031 37.308594 C 56.160156 37.371094 56.332031 37.496094 56.339844 37.503906 C 56.355469 37.507812 56.367188 37.515625 56.378906 37.523438 C 56.433594 37.550781 56.496094 37.5625 56.554688 37.5625 C 56.785156 37.566406 56.949219 37.476562 57.023438 37.28125 C 57.039062 37.242188 57.050781 37.199219 57.058594 37.152344 C 57.070312 37.082031 57.070312 37.007812 57.066406 36.933594 C 57.0625 36.882812 57.054688 36.835938 57.046875 36.78125 C 57.019531 36.527344 56.871094 35.851562 56.855469 35.777344 C 56.355469 33.597656 55.375 31.636719 53.878906 29.925781 C 53.6875 29.703125 53.601562 29.492188 53.601562 29.199219 C 53.609375 27.539062 53.589844 22.449219 53.59375 22.269531 C 53.65625 21.609375 53.515625 20.996094 53.199219 20.414062 C 52.191406 18.574219 51.179688 16.730469 50.171875 14.890625 C 50.042969 14.65625 49.949219 14.371094 49.636719 14.339844 C 49.539062 14.332031 49.558594 14.332031 49.464844 14.339844 C 49.15625 14.375 49.058594 14.65625 48.929688 14.890625 C 47.921875 16.730469 46.914062 18.574219 45.90625 20.414062 C 45.585938 20.996094 45.445312 21.609375 45.507812 22.269531 C 45.511719 22.449219 45.496094 28.808594 45.5 29.199219 C 45.5 29.492188 45.417969 29.703125 45.226562 29.925781 C 43.726562 31.636719 42.746094 33.597656 42.246094 35.777344 C 42.230469 35.851562 42.09375 36.527344 42.054688 36.78125 C 42.042969 36.855469 42.03125 36.933594 42.03125 37.003906 C 42.03125 37.113281 42.046875 37.203125 42.078125 37.28125 C 42.148438 37.464844 42.296875 37.570312 42.511719 37.578125 " fill-opacity="1" fill-rule="nonzero"/></svg>