<svg xmlns="http://www.w3.org/2000/svg" xmlns:xlink="http://www.w3.org/1999/xlink" width="50" zoomAndPan="magnify" viewBox="0 0 37.5 37.499999" height="50" preserveAspectRatio="xMidYMid meet" version="1.0"><defs><clipPath id="954d50090b"><path d="M 0.609375 6.183594 L 36.609375 6.183594 L 36.609375 31.683594 L 0.609375 31.683594 Z M 0.609375 6.183594 " clip-rule="nonzero"/></clipPath></defs><path fill="#8ed5be" d="M 18.964844 21.207031 C 18.738281 21.207031 18.515625 21.171875 18.292969 21.097656 L 8.015625 17.59375 C 7.828125 18.085938 7.734375 18.726562 7.734375 19.65625 C 8.40625 20.054688 9.058594 20.851562 9.058594 22.226562 C 9.058594 23.070312 8.648438 23.675781 8.292969 24.078125 C 9.820312 25.886719 14.015625 27.1875 18.964844 27.1875 C 25.203125 27.1875 30.257812 25.125 30.257812 22.582031 C 30.257812 22.019531 30.257812 19.726562 30.257812 17.476562 L 19.632812 21.097656 C 19.414062 21.171875 19.191406 21.207031 18.964844 21.207031 Z M 18.964844 21.207031 " fill-opacity="1" fill-rule="nonzero"/><g clip-path="url(#954d50090b)"><path fill="#8ed5be" d="M 36.128906 12.113281 L 19.1875 6.339844 C 19.039062 6.292969 18.886719 6.292969 18.742188 6.339844 L 1.800781 12.113281 C 1.511719 12.214844 1.316406 12.488281 1.316406 12.800781 C 1.316406 13.109375 1.511719 13.386719 1.800781 13.484375 L 5.683594 14.808594 C 4.789062 15.867188 4.269531 17.359375 4.078125 19.792969 C 3.464844 20.089844 3.03125 20.71875 3.03125 21.460938 C 3.03125 22.214844 3.476562 22.859375 4.109375 23.148438 C 3.554688 28.0625 0.675781 29.703125 0.675781 30.121094 C 0.675781 30.335938 2.90625 31.566406 3.4375 31.566406 C 4.253906 31.566406 6.21875 30.144531 6.21875 27.078125 C 6.21875 25.269531 6.058594 23.90625 5.890625 22.9375 C 6.34375 22.601562 6.660156 22.078125 6.660156 21.460938 C 6.660156 20.785156 6.292969 20.222656 5.765625 19.898438 C 6.0625 15.886719 7.277344 15.214844 10.210938 13.972656 C 10.503906 13.851562 11.058594 13.625 11.378906 13.488281 C 11.953125 13.246094 12.476562 13.027344 12.976562 12.824219 C 14.589844 12.167969 15.953125 11.640625 16.992188 11.25 C 18.132812 10.835938 18.644531 10.683594 18.660156 10.675781 C 19.097656 10.527344 19.582031 10.769531 19.734375 11.222656 C 19.882812 11.675781 19.644531 12.167969 19.199219 12.320312 C 19.164062 12.332031 17.183594 12.910156 12.027344 15.089844 C 11.695312 15.230469 11.378906 15.359375 11.078125 15.480469 C 10.464844 15.726562 9.960938 15.921875 9.535156 16.121094 L 18.742188 19.257812 C 18.8125 19.28125 18.886719 19.296875 18.964844 19.296875 C 19.039062 19.296875 19.113281 19.28125 19.1875 19.257812 L 36.128906 13.484375 C 36.417969 13.386719 36.609375 13.109375 36.609375 12.800781 C 36.609375 12.488281 36.417969 12.214844 36.128906 12.113281 Z M 36.128906 12.113281 " fill-opacity="1" fill-rule="nonzero"/></g></svg>