<svg xmlns="http://www.w3.org/2000/svg" xmlns:xlink="http://www.w3.org/1999/xlink" width="200" zoomAndPan="magnify" viewBox="0 0 150 74.999997" height="100" preserveAspectRatio="xMidYMid meet" version="1.0"><defs><clipPath id="a7270f7709"><path d="M 82.378906 29.113281 L 112 29.113281 L 112 39 L 82.378906 39 Z M 82.378906 29.113281 " clip-rule="nonzero"/></clipPath><clipPath id="ed6b428914"><path d="M 82.378906 21.179688 L 131.855469 21.179688 L 131.855469 32 L 82.378906 32 Z M 82.378906 21.179688 " clip-rule="nonzero"/></clipPath><clipPath id="83b136f3f1"><path d="M 82.378906 8.726562 L 120.890625 8.726562 L 120.890625 19.691406 L 82.378906 19.691406 Z M 82.378906 8.726562 " clip-rule="nonzero"/></clipPath><clipPath id="82070be483"><path d="M 98.375 41.019531 L 124.363281 41.019531 L 124.363281 50.078125 L 98.375 50.078125 Z M 98.375 41.019531 " clip-rule="nonzero"/></clipPath><clipPath id="e70ac38944"><path d="M 98.375 39.664062 L 115 39.664062 L 115 40 L 98.375 40 Z M 98.375 39.664062 " clip-rule="nonzero"/></clipPath></defs><path fill="#ffffff" d="M 25.695312 25.03125 C 29.3125 25.03125 31.558594 23.398438 31.558594 20.578125 L 31.558594 20.539062 C 31.558594 17.980469 30.203125 16.957031 26.378906 15.769531 C 24.359375 15.121094 23.558594 14.675781 23.558594 13.636719 L 23.558594 13.617188 C 23.558594 12.746094 24.375 12.078125 26.101562 12.078125 C 27.570312 12.078125 29.050781 12.503906 30.148438 13.226562 L 31.261719 10.796875 C 29.980469 9.960938 28.03125 9.476562 26.085938 9.476562 C 22.667969 9.476562 20.625 11.167969 20.625 13.671875 L 20.625 13.710938 C 20.625 16.199219 21.761719 17.367188 25.042969 18.351562 C 27.734375 19.183594 28.605469 19.59375 28.605469 20.59375 L 28.605469 20.613281 C 28.605469 21.765625 27.402344 22.414062 25.582031 22.414062 C 23.949219 22.414062 22.371094 21.96875 21.257812 21.226562 L 20.144531 23.640625 C 21.480469 24.53125 23.539062 25.03125 25.695312 25.03125 Z M 25.695312 25.03125 " fill-opacity="1" fill-rule="nonzero"/><path fill="#ffffff" d="M 37.660156 13.765625 C 36.304688 13.765625 34.726562 14.0625 33.929688 14.378906 L 33.28125 16.996094 C 34.449219 16.53125 35.972656 16.253906 37.03125 16.253906 C 38.664062 16.253906 39.589844 16.734375 39.589844 18.070312 L 39.589844 18.460938 C 38.71875 18.351562 37.957031 18.3125 37.175781 18.3125 C 34.261719 18.3125 32.425781 19.351562 32.425781 21.617188 L 32.425781 21.652344 C 32.425781 24.160156 34.449219 25.085938 37.714844 25.085938 C 39.164062 25.085938 41.074219 24.882812 42.542969 24.566406 L 42.542969 17.980469 C 42.542969 14.824219 40.609375 13.765625 37.660156 13.765625 Z M 35.453125 21.46875 C 35.453125 20.523438 36.34375 20.1875 37.828125 20.1875 C 38.292969 20.1875 38.996094 20.242188 39.589844 20.335938 L 39.589844 22.636719 C 38.976562 22.730469 38.328125 22.785156 37.828125 22.785156 C 36.324219 22.785156 35.453125 22.414062 35.453125 21.507812 Z M 35.453125 21.46875 " fill-opacity="1" fill-rule="nonzero"/><path fill="#ffffff" d="M 48.683594 22.710938 L 46.101562 14.136719 L 43.019531 14.136719 L 46.65625 24.789062 L 50.703125 24.789062 L 54.339844 14.136719 L 51.261719 14.136719 Z M 48.683594 22.710938 " fill-opacity="1" fill-rule="nonzero"/><path fill="#ffffff" d="M 65.640625 19.816406 C 65.640625 16.011719 63.5625 13.710938 60.148438 13.710938 C 56.769531 13.710938 54.597656 16.046875 54.597656 19.371094 L 54.597656 19.390625 C 54.597656 22.765625 56.917969 25.070312 60.5 25.070312 C 62.578125 25.070312 64.046875 24.417969 65.121094 23.75 L 63.839844 21.46875 C 63.0625 22.027344 61.929688 22.488281 60.628906 22.488281 C 59.015625 22.488281 57.957031 21.449219 57.660156 20.078125 L 65.640625 20.078125 Z M 60.128906 16.105469 C 61.558594 16.105469 62.410156 17.03125 62.632812 18.257812 L 57.679688 18.257812 C 57.957031 17.03125 58.847656 16.105469 60.128906 16.105469 Z M 60.128906 16.105469 " fill-opacity="1" fill-rule="nonzero"/><path fill="#ffffff" d="M 69.644531 24.789062 L 69.644531 9.738281 L 66.695312 9.738281 L 66.695312 24.789062 Z M 69.644531 24.789062 " fill-opacity="1" fill-rule="nonzero"/><path fill="#ffffff" d="M 73.894531 24.789062 L 73.894531 9.738281 L 70.941406 9.738281 L 70.941406 24.789062 Z M 73.894531 24.789062 " fill-opacity="1" fill-rule="nonzero"/><path fill="#ffffff" d="M 76.65625 12.746094 C 77.472656 12.746094 78.125 12.339844 78.125 11.445312 C 78.125 10.648438 77.527344 10.164062 76.65625 10.164062 C 75.800781 10.164062 75.191406 10.648438 75.191406 11.445312 C 75.191406 12.339844 75.859375 12.746094 76.65625 12.746094 Z M 78.140625 24.789062 L 78.140625 14.136719 L 75.191406 14.136719 L 75.191406 24.789062 Z M 78.140625 24.789062 " fill-opacity="1" fill-rule="nonzero"/><path fill="#ffffff" d="M 27.53125 50.457031 L 27.53125 38.136719 L 32.300781 38.136719 L 32.300781 35.40625 L 19.828125 35.40625 L 19.828125 38.136719 L 24.617188 38.136719 L 24.617188 50.457031 Z M 27.53125 50.457031 " fill-opacity="1" fill-rule="nonzero"/><path fill="#ffffff" d="M 37.902344 39.378906 C 37.402344 39.378906 36.695312 39.433594 35.914062 39.507812 L 35.914062 35.40625 L 32.964844 35.40625 L 32.964844 50.457031 L 35.914062 50.457031 L 35.914062 42.199219 C 36.582031 42.089844 37.289062 42.015625 37.789062 42.015625 C 39.164062 42.015625 39.886719 42.515625 39.886719 43.851562 L 39.886719 50.457031 L 42.835938 50.457031 L 42.835938 43.5 C 42.835938 40.304688 40.535156 39.378906 37.902344 39.378906 Z M 37.902344 39.378906 " fill-opacity="1" fill-rule="nonzero"/><path fill="#ffffff" d="M 49.792969 50.753906 C 53.285156 50.753906 55.714844 48.34375 55.714844 45.058594 L 55.714844 45.039062 C 55.714844 41.773438 53.285156 39.378906 49.792969 39.378906 C 46.304688 39.378906 43.894531 41.773438 43.894531 45.039062 L 43.894531 45.058594 C 43.894531 48.34375 46.324219 50.753906 49.792969 50.753906 Z M 49.792969 48.121094 C 48.03125 48.121094 46.84375 46.78125 46.84375 45.058594 L 46.84375 45.019531 C 46.84375 43.3125 48.011719 42.015625 49.792969 42.015625 C 51.59375 42.015625 52.746094 43.3125 52.746094 45.019531 L 52.746094 45.058594 C 52.746094 46.78125 51.574219 48.121094 49.792969 48.121094 Z M 49.792969 48.121094 " fill-opacity="1" fill-rule="nonzero"/><path fill="#ffffff" d="M 59.699219 50.457031 L 59.699219 42.179688 C 60.296875 42.050781 60.832031 41.996094 61.296875 41.996094 C 62.449219 41.996094 63.191406 42.476562 63.191406 43.832031 L 63.191406 50.457031 L 66.125 50.457031 L 66.125 43.832031 C 66.125 42.71875 66.457031 41.996094 67.902344 41.996094 C 69.351562 41.996094 69.6875 42.71875 69.6875 43.832031 L 69.6875 50.457031 L 72.636719 50.457031 L 72.636719 43.5 C 72.636719 40.433594 70.949219 39.359375 68.183594 39.359375 C 66.640625 39.359375 65.398438 39.785156 64.636719 40.789062 C 63.96875 39.75 62.78125 39.359375 61.425781 39.359375 C 60.480469 39.359375 58.570312 39.582031 56.75 39.917969 L 56.75 50.457031 Z M 59.699219 50.457031 " fill-opacity="1" fill-rule="nonzero"/><path fill="#ffffff" d="M 78.902344 39.433594 C 77.546875 39.433594 75.972656 39.730469 75.171875 40.046875 L 74.523438 42.664062 C 75.691406 42.199219 77.214844 41.921875 78.273438 41.921875 C 79.90625 41.921875 80.835938 42.402344 80.835938 43.738281 L 80.835938 44.128906 C 79.960938 44.019531 79.203125 43.980469 78.421875 43.980469 C 75.507812 43.980469 73.667969 45.019531 73.667969 47.285156 L 73.667969 47.320312 C 73.667969 49.828125 75.691406 50.753906 78.960938 50.753906 C 80.40625 50.753906 82.320312 50.550781 83.785156 50.234375 L 83.785156 43.648438 C 83.785156 40.492188 81.855469 39.433594 78.902344 39.433594 Z M 76.695312 47.136719 C 76.695312 46.191406 77.585938 45.855469 79.070312 45.855469 C 79.535156 45.855469 80.238281 45.910156 80.835938 46.003906 L 80.835938 48.304688 C 80.21875 48.398438 79.570312 48.453125 79.070312 48.453125 C 77.566406 48.453125 76.695312 48.082031 76.695312 47.175781 Z M 76.695312 47.136719 " fill-opacity="1" fill-rule="nonzero"/><path fill="#ffffff" d="M 89.480469 50.699219 C 92.652344 50.699219 94.230469 49.550781 94.230469 47.246094 C 94.230469 45.558594 93.117188 44.519531 90.722656 43.851562 L 89.960938 43.648438 C 88.679688 43.277344 88.164062 43.015625 88.164062 42.476562 C 88.164062 41.882812 88.792969 41.679688 89.871094 41.679688 C 90.777344 41.679688 92.058594 41.882812 93.007812 42.382812 L 93.859375 40.324219 C 92.765625 39.75 91.128906 39.398438 89.515625 39.398438 C 86.75 39.398438 85.191406 40.605469 85.191406 42.570312 C 85.191406 44.332031 86.195312 45.371094 88.421875 45.96875 L 89.421875 46.226562 C 90.984375 46.652344 91.332031 46.894531 91.332031 47.46875 C 91.332031 48.25 90.480469 48.417969 89.21875 48.417969 C 88.144531 48.417969 86.84375 48.175781 85.601562 47.636719 L 84.800781 49.773438 C 86.324219 50.402344 87.808594 50.699219 89.480469 50.699219 Z M 89.480469 50.699219 " fill-opacity="1" fill-rule="nonzero"/><path fill="#8ed5be" d="M 24.183594 65.644531 C 26.863281 65.644531 28.199219 64.167969 28.199219 61.742188 L 28.199219 61.722656 C 28.199219 59.367188 26.875 57.90625 24.183594 57.90625 L 21.539062 57.90625 L 21.539062 65.644531 Z M 23.046875 59.308594 L 24.144531 59.308594 C 25.785156 59.308594 26.664062 60.160156 26.664062 61.722656 L 26.664062 61.742188 C 26.664062 63.375 25.777344 64.242188 24.144531 64.242188 L 23.046875 64.242188 Z M 23.046875 59.308594 " fill-opacity="1" fill-rule="nonzero"/><path fill="#8ed5be" d="M 34.277344 63.089844 C 34.277344 61.132812 33.207031 59.949219 31.453125 59.949219 C 29.714844 59.949219 28.597656 61.152344 28.597656 62.859375 L 28.597656 62.871094 C 28.597656 64.605469 29.792969 65.789062 31.632812 65.789062 C 32.703125 65.789062 33.457031 65.457031 34.007812 65.109375 L 33.351562 63.9375 C 32.949219 64.222656 32.367188 64.460938 31.699219 64.460938 C 30.871094 64.460938 30.324219 63.929688 30.175781 63.222656 L 34.277344 63.222656 Z M 31.441406 61.179688 C 32.175781 61.179688 32.617188 61.65625 32.730469 62.285156 L 30.183594 62.285156 C 30.324219 61.65625 30.785156 61.179688 31.441406 61.179688 Z M 31.441406 61.179688 " fill-opacity="1" fill-rule="nonzero"/><path fill="#8ed5be" d="M 37.328125 64.578125 L 36 60.167969 L 34.417969 60.167969 L 36.285156 65.644531 L 38.367188 65.644531 L 40.238281 60.167969 L 38.652344 60.167969 Z M 37.328125 64.578125 " fill-opacity="1" fill-rule="nonzero"/><path fill="#8ed5be" d="M 46.046875 63.089844 C 46.046875 61.132812 44.976562 59.949219 43.222656 59.949219 C 41.484375 59.949219 40.367188 61.152344 40.367188 62.859375 L 40.367188 62.871094 C 40.367188 64.605469 41.5625 65.789062 43.402344 65.789062 C 44.472656 65.789062 45.226562 65.457031 45.777344 65.109375 L 45.121094 63.9375 C 44.71875 64.222656 44.136719 64.460938 43.46875 64.460938 C 42.640625 64.460938 42.09375 63.929688 41.945312 63.222656 L 46.046875 63.222656 Z M 43.214844 61.179688 C 43.945312 61.179688 44.386719 61.65625 44.5 62.285156 L 41.953125 62.285156 C 42.09375 61.65625 42.554688 61.179688 43.214844 61.179688 Z M 43.214844 61.179688 " fill-opacity="1" fill-rule="nonzero"/><path fill="#8ed5be" d="M 48.105469 65.644531 L 48.105469 57.90625 L 46.585938 57.90625 L 46.585938 65.644531 Z M 48.105469 65.644531 " fill-opacity="1" fill-rule="nonzero"/><path fill="#8ed5be" d="M 50.289062 65.644531 L 50.289062 57.90625 L 48.773438 57.90625 L 48.773438 65.644531 Z M 50.289062 65.644531 " fill-opacity="1" fill-rule="nonzero"/><path fill="#8ed5be" d="M 53.867188 65.796875 C 55.660156 65.796875 56.910156 64.558594 56.910156 62.871094 L 56.910156 62.859375 C 56.910156 61.179688 55.660156 59.949219 53.867188 59.949219 C 52.070312 59.949219 50.832031 61.179688 50.832031 62.859375 L 50.832031 62.871094 C 50.832031 64.558594 52.082031 65.796875 53.867188 65.796875 Z M 53.867188 64.441406 C 52.957031 64.441406 52.347656 63.757812 52.347656 62.871094 L 52.347656 62.851562 C 52.347656 61.972656 52.949219 61.304688 53.867188 61.304688 C 54.792969 61.304688 55.382812 61.972656 55.382812 62.851562 L 55.382812 62.871094 C 55.382812 63.757812 54.78125 64.441406 53.867188 64.441406 Z M 53.867188 64.441406 " fill-opacity="1" fill-rule="nonzero"/><path fill="#8ed5be" d="M 58.957031 67.742188 L 58.957031 65.636719 C 59.292969 65.722656 59.644531 65.789062 60 65.789062 C 61.859375 65.789062 62.976562 64.558594 62.976562 62.886719 L 62.976562 62.871094 C 62.976562 61.191406 61.800781 59.949219 59.929688 59.949219 C 58.910156 59.949219 58.101562 60.207031 57.441406 60.472656 L 57.441406 67.742188 Z M 59.929688 64.433594 C 59.605469 64.433594 59.253906 64.355469 58.957031 64.28125 L 58.957031 61.417969 C 59.253906 61.34375 59.578125 61.304688 59.929688 61.304688 C 60.933594 61.304688 61.449219 61.980469 61.449219 62.871094 L 61.449219 62.886719 C 61.449219 63.765625 60.933594 64.433594 59.929688 64.433594 Z M 59.929688 64.433594 " fill-opacity="1" fill-rule="nonzero"/><path fill="#8ed5be" d="M 69.058594 63.089844 C 69.058594 61.132812 67.992188 59.949219 66.238281 59.949219 C 64.5 59.949219 63.382812 61.152344 63.382812 62.859375 L 63.382812 62.871094 C 63.382812 64.605469 64.578125 65.789062 66.417969 65.789062 C 67.488281 65.789062 68.242188 65.457031 68.792969 65.109375 L 68.136719 63.9375 C 67.734375 64.222656 67.152344 64.460938 66.484375 64.460938 C 65.652344 64.460938 65.109375 63.929688 64.957031 63.222656 L 69.058594 63.222656 Z M 66.226562 61.179688 C 66.960938 61.179688 67.398438 61.65625 67.515625 62.285156 L 64.96875 62.285156 C 65.109375 61.65625 65.570312 61.179688 66.226562 61.179688 Z M 66.226562 61.179688 " fill-opacity="1" fill-rule="nonzero"/><path fill="#8ed5be" d="M 72.140625 65.796875 C 72.695312 65.796875 73.773438 65.675781 74.679688 65.511719 L 74.679688 60.167969 L 73.171875 60.167969 L 73.171875 64.40625 C 72.820312 64.472656 72.472656 64.5 72.207031 64.5 C 71.492188 64.5 71.121094 64.253906 71.121094 63.554688 L 71.121094 60.167969 L 69.601562 60.167969 L 69.601562 63.679688 C 69.601562 65.320312 70.785156 65.796875 72.140625 65.796875 Z M 72.140625 65.796875 " fill-opacity="1" fill-rule="nonzero"/><path fill="#8ed5be" d="M 76.871094 65.644531 L 76.871094 61.640625 C 76.996094 61.609375 77.617188 61.5625 77.84375 61.5625 L 78.664062 61.5625 L 78.664062 60.167969 L 77.597656 60.167969 C 77.101562 60.167969 76.15625 60.207031 75.355469 60.378906 L 75.355469 65.644531 Z M 76.871094 65.644531 " fill-opacity="1" fill-rule="nonzero"/><path fill="#8ed5be" d="M 81.925781 65.644531 L 81.925781 62.355469 L 85.246094 62.355469 L 85.246094 61.027344 L 81.925781 61.027344 L 81.925781 59.308594 L 85.582031 59.308594 L 85.582031 57.90625 L 80.4375 57.90625 L 80.4375 65.644531 Z M 81.925781 65.644531 " fill-opacity="1" fill-rule="nonzero"/><path fill="#8ed5be" d="M 88.59375 65.796875 C 89.148438 65.796875 90.226562 65.675781 91.132812 65.511719 L 91.132812 60.167969 L 89.625 60.167969 L 89.625 64.40625 C 89.273438 64.472656 88.925781 64.5 88.660156 64.5 C 87.945312 64.5 87.574219 64.253906 87.574219 63.554688 L 87.574219 60.167969 L 86.054688 60.167969 L 86.054688 63.679688 C 86.054688 65.320312 87.238281 65.796875 88.59375 65.796875 Z M 88.59375 65.796875 " fill-opacity="1" fill-rule="nonzero"/><path fill="#8ed5be" d="M 93.324219 65.644531 L 93.324219 57.90625 L 91.808594 57.90625 L 91.808594 65.644531 Z M 93.324219 65.644531 " fill-opacity="1" fill-rule="nonzero"/><path fill="#8ed5be" d="M 95.507812 65.644531 L 95.507812 57.90625 L 93.992188 57.90625 L 93.992188 65.644531 Z M 95.507812 65.644531 " fill-opacity="1" fill-rule="nonzero"/><path fill="#8ed5be" d="M 100.117188 65.769531 C 101.976562 65.769531 103.128906 64.929688 103.128906 63.480469 L 103.128906 63.460938 C 103.128906 62.144531 102.433594 61.621094 100.46875 61.007812 C 99.429688 60.675781 99.015625 60.445312 99.015625 59.910156 L 99.015625 59.902344 C 99.015625 59.453125 99.4375 59.109375 100.324219 59.109375 C 101.078125 59.109375 101.84375 59.328125 102.40625 59.703125 L 102.976562 58.453125 C 102.320312 58.023438 101.316406 57.773438 100.316406 57.773438 C 98.558594 57.773438 97.511719 58.640625 97.511719 59.929688 L 97.511719 59.949219 C 97.511719 61.226562 98.09375 61.828125 99.78125 62.335938 C 101.164062 62.765625 101.613281 62.972656 101.613281 63.488281 L 101.613281 63.5 C 101.613281 64.089844 100.992188 64.425781 100.058594 64.425781 C 99.21875 64.425781 98.40625 64.195312 97.835938 63.8125 L 97.261719 65.054688 C 97.949219 65.511719 99.007812 65.769531 100.117188 65.769531 Z M 100.117188 65.769531 " fill-opacity="1" fill-rule="nonzero"/><path fill="#8ed5be" d="M 107.898438 65.644531 L 107.898438 64.242188 L 106.839844 64.242188 C 106.191406 64.242188 105.894531 63.996094 105.894531 63.382812 L 105.894531 61.5625 L 107.890625 61.5625 L 107.890625 60.167969 L 105.894531 60.167969 L 105.894531 58.488281 L 104.378906 58.488281 L 104.378906 60.167969 L 103.414062 60.167969 L 103.414062 61.5625 L 104.378906 61.5625 L 104.378906 63.859375 C 104.378906 65.054688 104.855469 65.644531 106.164062 65.644531 Z M 107.898438 65.644531 " fill-opacity="1" fill-rule="nonzero"/><path fill="#8ed5be" d="M 111.007812 59.980469 C 110.308594 59.980469 109.5 60.128906 109.089844 60.292969 L 108.757812 61.640625 C 109.355469 61.398438 110.140625 61.257812 110.683594 61.257812 C 111.523438 61.257812 112 61.503906 112 62.191406 L 112 62.394531 C 111.550781 62.335938 111.160156 62.316406 110.761719 62.316406 C 109.261719 62.316406 108.316406 62.851562 108.316406 64.015625 L 108.316406 64.035156 C 108.316406 65.320312 109.355469 65.796875 111.035156 65.796875 C 111.78125 65.796875 112.761719 65.695312 113.515625 65.53125 L 113.515625 62.144531 C 113.515625 60.519531 112.523438 59.980469 111.007812 59.980469 Z M 109.871094 63.9375 C 109.871094 63.449219 110.328125 63.28125 111.09375 63.28125 C 111.332031 63.28125 111.695312 63.308594 112 63.355469 L 112 64.539062 C 111.683594 64.585938 111.351562 64.613281 111.09375 64.613281 C 110.320312 64.613281 109.871094 64.425781 109.871094 63.957031 Z M 109.871094 63.9375 " fill-opacity="1" fill-rule="nonzero"/><path fill="#8ed5be" d="M 117.007812 65.789062 C 117.664062 65.789062 118.382812 65.625 118.898438 65.339844 L 118.304688 64.214844 C 117.921875 64.414062 117.53125 64.53125 117.082031 64.53125 C 116.109375 64.53125 115.558594 63.824219 115.558594 62.878906 L 115.558594 62.859375 C 115.558594 61.90625 116.109375 61.21875 117.082031 61.21875 C 117.53125 61.21875 117.933594 61.34375 118.304688 61.542969 L 118.90625 60.417969 C 118.382812 60.121094 117.664062 59.949219 117.007812 59.949219 C 115.203125 59.949219 114.03125 61.152344 114.03125 62.859375 L 114.03125 62.878906 C 114.03125 64.59375 115.214844 65.789062 117.007812 65.789062 Z M 117.007812 65.789062 " fill-opacity="1" fill-rule="nonzero"/><path fill="#8ed5be" d="M 120.804688 62.792969 L 120.804688 57.90625 L 119.296875 57.90625 L 119.296875 65.644531 L 120.804688 65.644531 L 120.804688 62.925781 L 120.851562 62.859375 Z M 122.539062 62.839844 L 124.484375 60.167969 L 122.824219 60.167969 L 120.851562 62.859375 L 122.804688 65.644531 L 124.582031 65.644531 Z M 122.539062 62.839844 " fill-opacity="1" fill-rule="nonzero"/><g clip-path="url(#a7270f7709)"><path fill="#8ed5be" d="M 83 34.695312 L 102.835938 34.695312 C 103.144531 36.953125 105.058594 38.695312 107.386719 38.695312 C 109.921875 38.695312 111.992188 36.617188 111.992188 34.070312 C 111.992188 31.527344 109.921875 29.449219 107.386719 29.449219 C 105.058594 29.449219 103.144531 31.191406 102.835938 33.449219 L 83 33.449219 C 82.664062 33.449219 82.378906 33.734375 82.378906 34.070312 C 82.378906 34.410156 82.664062 34.695312 83 34.695312 Z M 107.386719 30.695312 C 109.222656 30.695312 110.722656 32.203125 110.722656 34.046875 C 110.722656 35.890625 109.222656 37.421875 107.386719 37.421875 C 105.550781 37.421875 104.050781 35.917969 104.050781 34.070312 C 104.050781 32.203125 105.550781 30.695312 107.386719 30.695312 Z M 107.386719 30.695312 " fill-opacity="1" fill-rule="nonzero"/></g><g clip-path="url(#ed6b428914)"><path fill="#8ed5be" d="M 83 26.699219 L 100.300781 26.699219 C 100.507812 26.699219 100.714844 26.59375 100.84375 26.414062 L 103.273438 22.519531 L 113.929688 22.519531 L 116.570312 27.453125 C 116.671875 27.660156 116.878906 27.789062 117.113281 27.789062 L 122.699219 27.789062 C 123.007812 30.046875 124.921875 31.789062 127.25 31.789062 C 129.785156 31.789062 131.855469 29.710938 131.855469 27.167969 C 131.855469 24.621094 129.785156 22.542969 127.25 22.542969 C 124.921875 22.542969 123.007812 24.285156 122.699219 26.542969 L 117.5 26.542969 L 114.863281 21.609375 C 114.757812 21.402344 114.550781 21.273438 114.316406 21.273438 L 102.9375 21.273438 C 102.730469 21.273438 102.523438 21.375 102.398438 21.558594 L 99.964844 25.453125 L 83.023438 25.453125 C 82.6875 25.453125 82.402344 25.738281 82.402344 26.074219 C 82.378906 26.414062 82.664062 26.699219 83 26.699219 Z M 127.25 23.765625 C 129.085938 23.765625 130.585938 25.269531 130.585938 27.113281 C 130.585938 28.957031 129.085938 30.464844 127.25 30.464844 C 125.414062 30.464844 123.914062 28.957031 123.914062 27.113281 C 123.886719 25.269531 125.390625 23.765625 127.25 23.765625 Z M 127.25 23.765625 " fill-opacity="1" fill-rule="nonzero"/></g><g clip-path="url(#83b136f3f1)"><path fill="#8ed5be" d="M 83 19.351562 L 92.980469 19.351562 C 93.214844 19.351562 93.421875 19.222656 93.523438 19.039062 L 96.472656 14 L 111.527344 14 C 111.835938 16.261719 113.75 18 116.078125 18 C 118.613281 18 120.679688 15.921875 120.679688 13.378906 C 120.679688 10.832031 118.613281 8.757812 116.078125 8.757812 C 113.75 8.757812 111.835938 10.496094 111.527344 12.753906 L 96.109375 12.753906 C 95.878906 12.753906 95.671875 12.886719 95.570312 13.066406 L 92.621094 18.105469 L 83 18.105469 C 82.664062 18.105469 82.378906 18.390625 82.378906 18.726562 C 82.378906 19.0625 82.664062 19.351562 83 19.351562 Z M 116.078125 10.003906 C 117.914062 10.003906 119.414062 11.507812 119.414062 13.351562 C 119.414062 15.195312 117.914062 16.703125 116.078125 16.703125 C 114.242188 16.703125 112.742188 15.195312 112.742188 13.351562 C 112.714844 11.507812 114.214844 10.003906 116.078125 10.003906 Z M 116.078125 10.003906 " fill-opacity="1" fill-rule="nonzero"/></g><g clip-path="url(#82070be483)"><path fill="#8ed5be" d="M 120.382812 42.25 C 118.40625 42.25 116.78125 43.714844 116.515625 45.617188 L 109.835938 45.617188 L 106.980469 41.503906 C 106.871094 41.351562 106.71875 41.289062 106.539062 41.289062 L 90.347656 41.289062 C 90.058594 41.289062 89.816406 41.527344 89.816406 41.808594 C 89.816406 42.09375 90.058594 42.335938 90.347656 42.335938 L 106.277344 42.335938 L 109.132812 46.445312 C 109.242188 46.601562 109.398438 46.664062 109.574219 46.664062 L 116.539062 46.664062 C 116.804688 48.566406 118.429688 50.03125 120.40625 50.03125 C 122.558594 50.03125 124.316406 48.285156 124.316406 46.140625 C 124.316406 43.996094 122.539062 42.25 120.382812 42.25 Z M 120.382812 48.960938 C 118.824219 48.960938 117.550781 47.691406 117.550781 46.140625 C 117.550781 44.589844 118.824219 43.320312 120.382812 43.320312 C 121.945312 43.320312 123.21875 44.589844 123.21875 46.140625 C 123.21875 47.691406 121.96875 48.960938 120.382812 48.960938 Z M 120.382812 48.960938 " fill-opacity="1" fill-rule="nonzero"/></g><g clip-path="url(#e70ac38944)"><path fill="#8ed5be" d="M 90.347656 36.257812 L 107.199219 36.257812 C 107.464844 38.160156 109.089844 39.625 111.066406 39.625 C 113.222656 39.625 114.980469 37.875 114.980469 35.730469 C 114.980469 33.589844 113.222656 31.839844 111.066406 31.839844 C 109.089844 31.839844 107.464844 33.304688 107.199219 35.207031 L 90.347656 35.207031 C 90.058594 35.207031 89.816406 35.449219 89.816406 35.730469 C 89.816406 36.015625 90.058594 36.257812 90.347656 36.257812 Z M 111.066406 32.890625 C 112.628906 32.890625 113.902344 34.15625 113.902344 35.710938 C 113.902344 37.261719 112.628906 38.554688 111.066406 38.554688 C 109.507812 38.554688 108.230469 37.285156 108.230469 35.730469 C 108.230469 34.15625 109.507812 32.890625 111.066406 32.890625 Z M 111.066406 32.890625 " fill-opacity="1" fill-rule="nonzero"/></g></svg>