<svg xmlns="http://www.w3.org/2000/svg" xmlns:xlink="http://www.w3.org/1999/xlink" width="500" zoomAndPan="magnify" viewBox="0 0 375 374.999991" height="500" preserveAspectRatio="xMidYMid meet" version="1.0"><defs><g/><clipPath id="f612c88e77"><path d="M 164.355469 223 L 225 223 L 225 243 L 164.355469 243 Z M 164.355469 223 " clip-rule="nonzero"/></clipPath><clipPath id="cf3f90b1b9"><path d="M 164.355469 207 L 264.105469 207 L 264.105469 229 L 164.355469 229 Z M 164.355469 207 " clip-rule="nonzero"/></clipPath><clipPath id="6cd2203bdb"><path d="M 164.355469 181.898438 L 242 181.898438 L 242 204 L 164.355469 204 Z M 164.355469 181.898438 " clip-rule="nonzero"/></clipPath><clipPath id="eac29b322f"><path d="M 196.605469 247 L 249 247 L 249 265.269531 L 196.605469 265.269531 Z M 196.605469 247 " clip-rule="nonzero"/></clipPath><clipPath id="604d31d1ca"><path d="M 196.605469 244.269531 L 231 244.269531 L 231 245 L 196.605469 245 Z M 196.605469 244.269531 " clip-rule="nonzero"/></clipPath></defs><g fill="#ffffff" fill-opacity="1"><g transform="translate(37.500002, 214.283014)"><g><path d="M 12.574219 0.488281 C 19.867188 0.488281 24.394531 -2.804688 24.394531 -8.492188 L 24.394531 -8.570312 C 24.394531 -13.730469 21.664062 -15.789062 13.957031 -18.183594 C 9.878906 -19.496094 8.269531 -20.390625 8.269531 -22.488281 L 8.269531 -22.523438 C 8.269531 -24.285156 9.914062 -25.632812 13.394531 -25.632812 C 16.351562 -25.632812 19.34375 -24.769531 21.550781 -23.3125 L 23.796875 -28.210938 C 21.214844 -29.898438 17.285156 -30.871094 13.359375 -30.871094 C 6.472656 -30.871094 2.355469 -27.464844 2.355469 -22.414062 L 2.355469 -22.339844 C 2.355469 -17.324219 4.640625 -14.96875 11.261719 -12.984375 C 16.6875 -11.300781 18.445312 -10.476562 18.445312 -8.457031 L 18.445312 -8.417969 C 18.445312 -6.097656 16.015625 -4.789062 12.347656 -4.789062 C 9.054688 -4.789062 5.875 -5.6875 3.628906 -7.183594 L 1.382812 -2.320312 C 4.078125 -0.523438 8.230469 0.488281 12.574219 0.488281 Z M 12.574219 0.488281 "/></g></g></g><g fill="#ffffff" fill-opacity="1"><g transform="translate(62.150059, 214.283014)"><g><path d="M 12.046875 -22.226562 C 9.316406 -22.226562 6.136719 -21.628906 4.527344 -20.992188 L 3.21875 -15.714844 C 5.574219 -16.652344 8.644531 -17.210938 10.777344 -17.210938 C 14.070312 -17.210938 15.941406 -16.238281 15.941406 -13.546875 L 15.941406 -12.757812 C 14.179688 -12.984375 12.648438 -13.058594 11.074219 -13.058594 C 5.199219 -13.058594 1.496094 -10.964844 1.496094 -6.398438 L 1.496094 -6.324219 C 1.496094 -1.273438 5.574219 0.597656 12.160156 0.597656 C 15.078125 0.597656 18.933594 0.1875 21.890625 -0.449219 L 21.890625 -13.730469 C 21.890625 -20.09375 17.996094 -22.226562 12.046875 -22.226562 Z M 7.597656 -6.699219 C 7.597656 -8.605469 9.390625 -9.28125 12.386719 -9.28125 C 13.320312 -9.28125 14.742188 -9.167969 15.941406 -8.980469 L 15.941406 -4.339844 C 14.703125 -4.152344 13.394531 -4.042969 12.386719 -4.042969 C 9.355469 -4.042969 7.597656 -4.789062 7.597656 -6.621094 Z M 7.597656 -6.699219 "/></g></g></g><g fill="#ffffff" fill-opacity="1"><g transform="translate(84.555735, 214.283014)"><g><path d="M 11.863281 -4.191406 L 6.660156 -21.476562 L 0.449219 -21.476562 L 7.78125 0 L 15.941406 0 L 23.273438 -21.476562 L 17.0625 -21.476562 Z M 11.863281 -4.191406 "/></g></g></g><g fill="#ffffff" fill-opacity="1"><g transform="translate(106.849191, 214.283014)"><g><path d="M 23.761719 -10.027344 C 23.761719 -17.699219 19.570312 -22.339844 12.683594 -22.339844 C 5.875 -22.339844 1.496094 -17.625 1.496094 -10.925781 L 1.496094 -10.886719 C 1.496094 -4.078125 6.175781 0.5625 13.394531 0.5625 C 17.585938 0.5625 20.542969 -0.75 22.710938 -2.09375 L 20.128906 -6.699219 C 18.558594 -5.574219 16.277344 -4.640625 13.65625 -4.640625 C 10.402344 -4.640625 8.269531 -6.734375 7.671875 -9.503906 L 23.761719 -9.503906 Z M 12.648438 -17.511719 C 15.527344 -17.511719 17.25 -15.640625 17.699219 -13.171875 L 7.707031 -13.171875 C 8.269531 -15.640625 10.066406 -17.511719 12.648438 -17.511719 Z M 12.648438 -17.511719 "/></g></g></g><g fill="#ffffff" fill-opacity="1"><g transform="translate(130.713714, 214.283014)"><g><path d="M 7.96875 0 L 7.96875 -30.34375 L 2.019531 -30.34375 L 2.019531 0 Z M 7.96875 0 "/></g></g></g><g fill="#ffffff" fill-opacity="1"><g transform="translate(139.279078, 214.283014)"><g><path d="M 7.96875 0 L 7.96875 -30.34375 L 2.019531 -30.34375 L 2.019531 0 Z M 7.96875 0 "/></g></g></g><g fill="#ffffff" fill-opacity="1"><g transform="translate(147.844442, 214.283014)"><g><path d="M 4.976562 -24.285156 C 6.621094 -24.285156 7.933594 -25.105469 7.933594 -26.902344 C 7.933594 -28.511719 6.734375 -29.484375 4.976562 -29.484375 C 3.253906 -29.484375 2.019531 -28.511719 2.019531 -26.902344 C 2.019531 -25.105469 3.367188 -24.285156 4.976562 -24.285156 Z M 7.96875 0 L 7.96875 -21.476562 L 2.019531 -21.476562 L 2.019531 0 Z M 7.96875 0 "/></g></g></g><g fill="#ffffff" fill-opacity="1"><g transform="translate(37.500002, 266.033011)"><g><path d="M 16.277344 0 L 16.277344 -24.84375 L 25.894531 -24.84375 L 25.894531 -30.34375 L 0.75 -30.34375 L 0.75 -24.84375 L 10.402344 -24.84375 L 10.402344 0 Z M 16.277344 0 "/></g></g></g><g fill="#ffffff" fill-opacity="1"><g transform="translate(62.711151, 266.033011)"><g><path d="M 11.972656 -22.339844 C 10.964844 -22.339844 9.542969 -22.226562 7.96875 -22.078125 L 7.96875 -30.34375 L 2.019531 -30.34375 L 2.019531 0 L 7.96875 0 L 7.96875 -16.652344 C 9.316406 -16.875 10.738281 -17.023438 11.75 -17.023438 C 14.519531 -17.023438 15.976562 -16.015625 15.976562 -13.320312 L 15.976562 0 L 21.925781 0 L 21.925781 -14.03125 C 21.925781 -20.46875 17.285156 -22.339844 11.972656 -22.339844 Z M 11.972656 -22.339844 "/></g></g></g><g fill="#ffffff" fill-opacity="1"><g transform="translate(85.229049, 266.033011)"><g><path d="M 13.433594 0.597656 C 20.46875 0.597656 25.367188 -4.265625 25.367188 -10.886719 L 25.367188 -10.925781 C 25.367188 -17.511719 20.46875 -22.339844 13.433594 -22.339844 C 6.398438 -22.339844 1.535156 -17.511719 1.535156 -10.925781 L 1.535156 -10.886719 C 1.535156 -4.265625 6.4375 0.597656 13.433594 0.597656 Z M 13.433594 -4.714844 C 9.878906 -4.714844 7.484375 -7.410156 7.484375 -10.886719 L 7.484375 -10.964844 C 7.484375 -14.40625 9.839844 -17.023438 13.433594 -17.023438 C 17.0625 -17.023438 19.382812 -14.40625 19.382812 -10.964844 L 19.382812 -10.886719 C 19.382812 -7.410156 17.023438 -4.714844 13.433594 -4.714844 Z M 13.433594 -4.714844 "/></g></g></g><g fill="#ffffff" fill-opacity="1"><g transform="translate(110.66464, 266.033011)"><g><path d="M 7.96875 0 L 7.96875 -16.6875 C 9.167969 -16.949219 10.253906 -17.0625 11.1875 -17.0625 C 13.507812 -17.0625 15.003906 -16.089844 15.003906 -13.359375 L 15.003906 0 L 20.917969 0 L 20.917969 -13.359375 C 20.917969 -15.601562 21.589844 -17.0625 24.507812 -17.0625 C 27.425781 -17.0625 28.101562 -15.601562 28.101562 -13.359375 L 28.101562 0 L 34.050781 0 L 34.050781 -14.03125 C 34.050781 -20.207031 30.644531 -22.375 25.070312 -22.375 C 21.964844 -22.375 19.457031 -21.515625 17.921875 -19.496094 C 16.574219 -21.589844 14.179688 -22.375 11.449219 -22.375 C 9.542969 -22.375 5.6875 -21.925781 2.019531 -21.253906 L 2.019531 0 Z M 7.96875 0 "/></g></g></g><g fill="#ffffff" fill-opacity="1"><g transform="translate(145.302161, 266.033011)"><g><path d="M 12.046875 -22.226562 C 9.316406 -22.226562 6.136719 -21.628906 4.527344 -20.992188 L 3.21875 -15.714844 C 5.574219 -16.652344 8.644531 -17.210938 10.777344 -17.210938 C 14.070312 -17.210938 15.941406 -16.238281 15.941406 -13.546875 L 15.941406 -12.757812 C 14.179688 -12.984375 12.648438 -13.058594 11.074219 -13.058594 C 5.199219 -13.058594 1.496094 -10.964844 1.496094 -6.398438 L 1.496094 -6.324219 C 1.496094 -1.273438 5.574219 0.597656 12.160156 0.597656 C 15.078125 0.597656 18.933594 0.1875 21.890625 -0.449219 L 21.890625 -13.730469 C 21.890625 -20.09375 17.996094 -22.226562 12.046875 -22.226562 Z M 7.597656 -6.699219 C 7.597656 -8.605469 9.390625 -9.28125 12.386719 -9.28125 C 13.320312 -9.28125 14.742188 -9.167969 15.941406 -8.980469 L 15.941406 -4.339844 C 14.703125 -4.152344 13.394531 -4.042969 12.386719 -4.042969 C 9.355469 -4.042969 7.597656 -4.789062 7.597656 -6.621094 Z M 7.597656 -6.699219 "/></g></g></g><g fill="#ffffff" fill-opacity="1"><g transform="translate(167.707838, 266.033011)"><g><path d="M 10.964844 0.488281 C 17.363281 0.488281 20.542969 -1.832031 20.542969 -6.472656 C 20.542969 -9.878906 18.296875 -11.972656 13.46875 -13.320312 L 11.9375 -13.730469 C 9.355469 -14.480469 8.308594 -15.003906 8.308594 -16.089844 C 8.308594 -17.285156 9.578125 -17.699219 11.75 -17.699219 C 13.582031 -17.699219 16.164062 -17.285156 18.074219 -16.277344 L 19.792969 -20.429688 C 17.585938 -21.589844 14.292969 -22.300781 11.039062 -22.300781 C 5.464844 -22.300781 2.320312 -19.867188 2.320312 -15.902344 C 2.320312 -12.347656 4.339844 -10.253906 8.832031 -9.054688 L 10.851562 -8.53125 C 13.996094 -7.671875 14.703125 -7.183594 14.703125 -6.023438 C 14.703125 -4.453125 12.984375 -4.117188 10.441406 -4.117188 C 8.269531 -4.117188 5.648438 -4.601562 3.144531 -5.6875 L 1.535156 -1.382812 C 4.601562 -0.113281 7.597656 0.488281 10.964844 0.488281 Z M 10.964844 0.488281 "/></g></g></g><g fill="#8ed5be" fill-opacity="1"><g transform="translate(40.659647, 296.653399)"><g><path d="M 6.367188 0 C 11.773438 0 14.464844 -2.980469 14.464844 -7.867188 L 14.464844 -7.90625 C 14.464844 -12.660156 11.792969 -15.601562 6.367188 -15.601562 L 1.039062 -15.601562 L 1.039062 0 Z M 4.078125 -12.773438 L 6.289062 -12.773438 C 9.597656 -12.773438 11.371094 -11.0625 11.371094 -7.90625 L 11.371094 -7.867188 C 11.371094 -4.578125 9.582031 -2.828125 6.289062 -2.828125 L 4.078125 -2.828125 Z M 4.078125 -12.773438 "/></g></g></g><g fill="#8ed5be" fill-opacity="1"><g transform="translate(55.159109, 296.653399)"><g><path d="M 12.214844 -5.15625 C 12.214844 -9.097656 10.0625 -11.484375 6.523438 -11.484375 C 3.019531 -11.484375 0.769531 -9.0625 0.769531 -5.617188 L 0.769531 -5.597656 C 0.769531 -2.097656 3.175781 0.289062 6.886719 0.289062 C 9.042969 0.289062 10.5625 -0.382812 11.675781 -1.078125 L 10.351562 -3.445312 C 9.542969 -2.867188 8.367188 -2.386719 7.023438 -2.386719 C 5.347656 -2.386719 4.25 -3.460938 3.945312 -4.886719 L 12.214844 -4.886719 Z M 6.503906 -9.003906 C 7.984375 -9.003906 8.867188 -8.042969 9.097656 -6.773438 L 3.964844 -6.773438 C 4.25 -8.042969 5.175781 -9.003906 6.503906 -9.003906 Z M 6.503906 -9.003906 "/></g></g></g><g fill="#8ed5be" fill-opacity="1"><g transform="translate(67.427831, 296.653399)"><g><path d="M 6.097656 -2.15625 L 3.425781 -11.042969 L 0.230469 -11.042969 L 4 0 L 8.195312 0 L 11.964844 -11.042969 L 8.773438 -11.042969 Z M 6.097656 -2.15625 "/></g></g></g><g fill="#8ed5be" fill-opacity="1"><g transform="translate(78.888874, 296.653399)"><g><path d="M 12.214844 -5.15625 C 12.214844 -9.097656 10.0625 -11.484375 6.523438 -11.484375 C 3.019531 -11.484375 0.769531 -9.0625 0.769531 -5.617188 L 0.769531 -5.597656 C 0.769531 -2.097656 3.175781 0.289062 6.886719 0.289062 C 9.042969 0.289062 10.5625 -0.382812 11.675781 -1.078125 L 10.351562 -3.445312 C 9.542969 -2.867188 8.367188 -2.386719 7.023438 -2.386719 C 5.347656 -2.386719 4.25 -3.460938 3.945312 -4.886719 L 12.214844 -4.886719 Z M 6.503906 -9.003906 C 7.984375 -9.003906 8.867188 -8.042969 9.097656 -6.773438 L 3.964844 -6.773438 C 4.25 -8.042969 5.175781 -9.003906 6.503906 -9.003906 Z M 6.503906 -9.003906 "/></g></g></g><g fill="#8ed5be" fill-opacity="1"><g transform="translate(91.157598, 296.653399)"><g><path d="M 4.097656 0 L 4.097656 -15.601562 L 1.039062 -15.601562 L 1.039062 0 Z M 4.097656 0 "/></g></g></g><g fill="#8ed5be" fill-opacity="1"><g transform="translate(95.561026, 296.653399)"><g><path d="M 4.097656 0 L 4.097656 -15.601562 L 1.039062 -15.601562 L 1.039062 0 Z M 4.097656 0 "/></g></g></g><g fill="#8ed5be" fill-opacity="1"><g transform="translate(99.964455, 296.653399)"><g><path d="M 6.90625 0.308594 C 10.523438 0.308594 13.042969 -2.191406 13.042969 -5.597656 L 13.042969 -5.617188 C 13.042969 -9.003906 10.523438 -11.484375 6.90625 -11.484375 C 3.289062 -11.484375 0.789062 -9.003906 0.789062 -5.617188 L 0.789062 -5.597656 C 0.789062 -2.191406 3.308594 0.308594 6.90625 0.308594 Z M 6.90625 -2.425781 C 5.078125 -2.425781 3.847656 -3.808594 3.847656 -5.597656 L 3.847656 -5.636719 C 3.847656 -7.40625 5.058594 -8.753906 6.90625 -8.753906 C 8.773438 -8.753906 9.964844 -7.40625 9.964844 -5.636719 L 9.964844 -5.597656 C 9.964844 -3.808594 8.753906 -2.425781 6.90625 -2.425781 Z M 6.90625 -2.425781 "/></g></g></g><g fill="#8ed5be" fill-opacity="1"><g transform="translate(113.040857, 296.653399)"><g><path d="M 4.097656 4.230469 L 4.097656 -0.0195312 C 4.769531 0.152344 5.484375 0.289062 6.195312 0.289062 C 9.945312 0.289062 12.195312 -2.191406 12.195312 -5.558594 L 12.195312 -5.597656 C 12.195312 -8.984375 9.832031 -11.484375 6.058594 -11.484375 C 4 -11.484375 2.367188 -10.964844 1.039062 -10.425781 L 1.039062 4.230469 Z M 6.058594 -2.441406 C 5.40625 -2.441406 4.695312 -2.597656 4.097656 -2.75 L 4.097656 -8.523438 C 4.695312 -8.675781 5.347656 -8.753906 6.058594 -8.753906 C 8.078125 -8.753906 9.117188 -7.386719 9.117188 -5.597656 L 9.117188 -5.558594 C 9.117188 -3.789062 8.078125 -2.441406 6.058594 -2.441406 Z M 6.058594 -2.441406 "/></g></g></g><g fill="#8ed5be" fill-opacity="1"><g transform="translate(125.290355, 296.653399)"><g><path d="M 12.214844 -5.15625 C 12.214844 -9.097656 10.0625 -11.484375 6.523438 -11.484375 C 3.019531 -11.484375 0.769531 -9.0625 0.769531 -5.617188 L 0.769531 -5.597656 C 0.769531 -2.097656 3.175781 0.289062 6.886719 0.289062 C 9.042969 0.289062 10.5625 -0.382812 11.675781 -1.078125 L 10.351562 -3.445312 C 9.542969 -2.867188 8.367188 -2.386719 7.023438 -2.386719 C 5.347656 -2.386719 4.25 -3.460938 3.945312 -4.886719 L 12.214844 -4.886719 Z M 6.503906 -9.003906 C 7.984375 -9.003906 8.867188 -8.042969 9.097656 -6.773438 L 3.964844 -6.773438 C 4.25 -8.042969 5.175781 -9.003906 6.503906 -9.003906 Z M 6.503906 -9.003906 "/></g></g></g><g fill="#8ed5be" fill-opacity="1"><g transform="translate(137.559078, 296.653399)"><g><path d="M 6.15625 0.308594 C 7.273438 0.308594 9.445312 0.0585938 11.273438 -0.269531 L 11.273438 -11.042969 L 8.234375 -11.042969 L 8.234375 -2.5 C 7.523438 -2.367188 6.828125 -2.308594 6.289062 -2.308594 C 4.847656 -2.308594 4.097656 -2.808594 4.097656 -4.214844 L 4.097656 -11.042969 L 1.039062 -11.042969 L 1.039062 -3.964844 C 1.039062 -0.652344 3.425781 0.308594 6.15625 0.308594 Z M 6.15625 0.308594 "/></g></g></g><g fill="#8ed5be" fill-opacity="1"><g transform="translate(149.154724, 296.653399)"><g><path d="M 4.097656 0 L 4.097656 -8.078125 C 4.347656 -8.136719 5.597656 -8.234375 6.058594 -8.234375 L 7.714844 -8.234375 L 7.714844 -11.042969 L 5.558594 -11.042969 C 4.558594 -11.042969 2.65625 -10.964844 1.039062 -10.617188 L 1.039062 0 Z M 4.097656 0 "/></g></g></g><g fill="#8ed5be" fill-opacity="1"><g transform="translate(156.865798, 296.653399)"><g/></g></g><g fill="#8ed5be" fill-opacity="1"><g transform="translate(159.384631, 296.653399)"><g><path d="M 4.058594 0 L 4.058594 -6.636719 L 10.753906 -6.636719 L 10.753906 -9.3125 L 4.058594 -9.3125 L 4.058594 -12.773438 L 11.425781 -12.773438 L 11.425781 -15.601562 L 1.058594 -15.601562 L 1.058594 0 Z M 4.058594 0 "/></g></g></g><g fill="#8ed5be" fill-opacity="1"><g transform="translate(170.73028, 296.653399)"><g><path d="M 6.15625 0.308594 C 7.273438 0.308594 9.445312 0.0585938 11.273438 -0.269531 L 11.273438 -11.042969 L 8.234375 -11.042969 L 8.234375 -2.5 C 7.523438 -2.367188 6.828125 -2.308594 6.289062 -2.308594 C 4.847656 -2.308594 4.097656 -2.808594 4.097656 -4.214844 L 4.097656 -11.042969 L 1.039062 -11.042969 L 1.039062 -3.964844 C 1.039062 -0.652344 3.425781 0.308594 6.15625 0.308594 Z M 6.15625 0.308594 "/></g></g></g><g fill="#8ed5be" fill-opacity="1"><g transform="translate(182.325925, 296.653399)"><g><path d="M 4.097656 0 L 4.097656 -15.601562 L 1.039062 -15.601562 L 1.039062 0 Z M 4.097656 0 "/></g></g></g><g fill="#8ed5be" fill-opacity="1"><g transform="translate(186.729348, 296.653399)"><g><path d="M 4.097656 0 L 4.097656 -15.601562 L 1.039062 -15.601562 L 1.039062 0 Z M 4.097656 0 "/></g></g></g><g fill="#8ed5be" fill-opacity="1"><g transform="translate(191.132771, 296.653399)"><g/></g></g><g fill="#8ed5be" fill-opacity="1"><g transform="translate(193.651604, 296.653399)"><g><path d="M 6.464844 0.25 C 10.214844 0.25 12.542969 -1.441406 12.542969 -4.367188 L 12.542969 -4.40625 C 12.542969 -7.058594 11.136719 -8.117188 7.175781 -9.347656 C 5.078125 -10.023438 4.25 -10.484375 4.25 -11.5625 L 4.25 -11.582031 C 4.25 -12.484375 5.097656 -13.175781 6.886719 -13.175781 C 8.40625 -13.175781 9.945312 -12.734375 11.082031 -11.984375 L 12.234375 -14.503906 C 10.90625 -15.371094 8.886719 -15.871094 6.867188 -15.871094 C 3.328125 -15.871094 1.210938 -14.121094 1.210938 -11.523438 L 1.210938 -11.484375 C 1.210938 -8.90625 2.386719 -7.695312 5.789062 -6.675781 C 8.578125 -5.808594 9.484375 -5.386719 9.484375 -4.347656 L 9.484375 -4.328125 C 9.484375 -3.136719 8.234375 -2.460938 6.347656 -2.460938 C 4.65625 -2.460938 3.019531 -2.925781 1.867188 -3.695312 L 0.710938 -1.191406 C 2.097656 -0.269531 4.230469 0.25 6.464844 0.25 Z M 6.464844 0.25 "/></g></g></g><g fill="#8ed5be" fill-opacity="1"><g transform="translate(206.324161, 296.653399)"><g><path d="M 9.484375 0 L 9.484375 -2.828125 L 7.347656 -2.828125 C 6.039062 -2.828125 5.445312 -3.328125 5.445312 -4.558594 L 5.445312 -8.234375 L 9.464844 -8.234375 L 9.464844 -11.042969 L 5.445312 -11.042969 L 5.445312 -14.429688 L 2.386719 -14.429688 L 2.386719 -11.042969 L 0.441406 -11.042969 L 0.441406 -8.234375 L 2.386719 -8.234375 L 2.386719 -3.597656 C 2.386719 -1.191406 3.347656 0 5.984375 0 Z M 9.484375 0 "/></g></g></g><g fill="#8ed5be" fill-opacity="1"><g transform="translate(215.881373, 296.653399)"><g><path d="M 6.195312 -11.425781 C 4.789062 -11.425781 3.15625 -11.121094 2.328125 -10.792969 L 1.65625 -8.078125 C 2.867188 -8.5625 4.445312 -8.847656 5.539062 -8.847656 C 7.234375 -8.847656 8.195312 -8.347656 8.195312 -6.964844 L 8.195312 -6.558594 C 7.289062 -6.675781 6.503906 -6.714844 5.695312 -6.714844 C 2.675781 -6.714844 0.769531 -5.636719 0.769531 -3.289062 L 0.769531 -3.25 C 0.769531 -0.652344 2.867188 0.308594 6.253906 0.308594 C 7.753906 0.308594 9.734375 0.0976562 11.253906 -0.230469 L 11.253906 -7.058594 C 11.253906 -10.332031 9.253906 -11.425781 6.195312 -11.425781 Z M 3.90625 -3.445312 C 3.90625 -4.425781 4.828125 -4.769531 6.367188 -4.769531 C 6.847656 -4.769531 7.578125 -4.714844 8.195312 -4.617188 L 8.195312 -2.230469 C 7.558594 -2.136719 6.886719 -2.078125 6.367188 -2.078125 C 4.808594 -2.078125 3.90625 -2.460938 3.90625 -3.40625 Z M 3.90625 -3.445312 "/></g></g></g><g fill="#8ed5be" fill-opacity="1"><g transform="translate(227.400103, 296.653399)"><g><path d="M 6.773438 0.289062 C 8.097656 0.289062 9.542969 -0.0390625 10.582031 -0.617188 L 9.386719 -2.886719 C 8.617188 -2.480469 7.828125 -2.25 6.925781 -2.25 C 4.964844 -2.25 3.847656 -3.675781 3.847656 -5.578125 L 3.847656 -5.617188 C 3.847656 -7.542969 4.964844 -8.925781 6.925781 -8.925781 C 7.828125 -8.925781 8.636719 -8.675781 9.386719 -8.273438 L 10.601562 -10.542969 C 9.542969 -11.136719 8.097656 -11.484375 6.773438 -11.484375 C 3.136719 -11.484375 0.769531 -9.0625 0.769531 -5.617188 L 0.769531 -5.578125 C 0.769531 -2.117188 3.15625 0.289062 6.773438 0.289062 Z M 6.773438 0.289062 "/></g></g></g><g fill="#8ed5be" fill-opacity="1"><g transform="translate(237.726553, 296.653399)"><g><path d="M 4.097656 -5.753906 L 4.097656 -15.601562 L 1.058594 -15.601562 L 1.058594 0 L 4.097656 0 L 4.097656 -5.484375 L 4.195312 -5.617188 Z M 7.597656 -5.65625 L 11.523438 -11.042969 L 8.175781 -11.042969 L 4.195312 -5.617188 L 8.136719 0 L 11.714844 0 Z M 7.597656 -5.65625 "/></g></g></g><g clip-path="url(#f612c88e77)"><path fill="#8ed5be" d="M 165.605469 234.253906 L 205.597656 234.253906 C 206.226562 238.808594 210.082031 242.316406 214.777344 242.316406 C 219.886719 242.316406 224.058594 238.128906 224.058594 232.996094 C 224.058594 227.867188 219.886719 223.679688 214.777344 223.679688 C 210.082031 223.679688 206.226562 227.1875 205.597656 231.742188 L 165.605469 231.742188 C 164.929688 231.742188 164.355469 232.316406 164.355469 232.996094 C 164.355469 233.679688 164.929688 234.253906 165.605469 234.253906 Z M 214.777344 226.191406 C 218.480469 226.191406 221.503906 229.226562 221.503906 232.945312 C 221.503906 236.660156 218.480469 239.75 214.777344 239.75 C 211.074219 239.75 208.050781 236.714844 208.050781 232.996094 C 208.050781 229.226562 211.074219 226.191406 214.777344 226.191406 Z M 214.777344 226.191406 " fill-opacity="1" fill-rule="nonzero"/></g><g clip-path="url(#cf3f90b1b9)"><path fill="#8ed5be" d="M 165.605469 218.128906 L 200.488281 218.128906 C 200.90625 218.128906 201.324219 217.921875 201.585938 217.554688 L 206.484375 209.703125 L 227.96875 209.703125 L 233.289062 219.648438 C 233.496094 220.066406 233.914062 220.328125 234.382812 220.328125 L 245.644531 220.328125 C 246.269531 224.882812 250.128906 228.390625 254.824219 228.390625 C 259.933594 228.390625 264.105469 224.203125 264.105469 219.074219 C 264.105469 213.941406 259.933594 209.753906 254.824219 209.753906 C 250.128906 209.753906 246.269531 213.261719 245.644531 217.816406 L 235.164062 217.816406 L 229.847656 207.871094 C 229.636719 207.453125 229.21875 207.191406 228.75 207.191406 L 205.808594 207.191406 C 205.390625 207.191406 204.972656 207.398438 204.714844 207.765625 L 199.8125 215.617188 L 165.65625 215.617188 C 164.980469 215.617188 164.40625 216.195312 164.40625 216.875 C 164.355469 217.554688 164.929688 218.128906 165.605469 218.128906 Z M 254.824219 212.214844 C 258.523438 212.214844 261.550781 215.25 261.550781 218.96875 C 261.550781 222.683594 258.523438 225.722656 254.824219 225.722656 C 251.121094 225.722656 248.097656 222.683594 248.097656 218.96875 C 248.042969 215.25 251.070312 212.214844 254.824219 212.214844 Z M 254.824219 212.214844 " fill-opacity="1" fill-rule="nonzero"/></g><g clip-path="url(#6cd2203bdb)"><path fill="#8ed5be" d="M 165.605469 203.316406 L 185.734375 203.316406 C 186.203125 203.316406 186.621094 203.054688 186.828125 202.6875 L 192.773438 192.53125 L 223.121094 192.53125 C 223.746094 197.085938 227.605469 200.59375 232.296875 200.59375 C 237.40625 200.59375 241.578125 196.40625 241.578125 191.277344 C 241.578125 186.144531 237.40625 181.957031 232.296875 181.957031 C 227.605469 181.957031 223.746094 185.464844 223.121094 190.019531 L 192.042969 190.019531 C 191.574219 190.019531 191.15625 190.28125 190.949219 190.648438 L 185.003906 200.804688 L 165.605469 200.804688 C 164.929688 200.804688 164.355469 201.378906 164.355469 202.058594 C 164.355469 202.738281 164.929688 203.316406 165.605469 203.316406 Z M 232.296875 184.46875 C 236 184.46875 239.023438 187.507812 239.023438 191.222656 C 239.023438 194.941406 236 197.976562 232.296875 197.976562 C 228.59375 197.976562 225.570312 194.941406 225.570312 191.222656 C 225.519531 187.507812 228.542969 184.46875 232.296875 184.46875 Z M 232.296875 184.46875 " fill-opacity="1" fill-rule="nonzero"/></g><g clip-path="url(#eac29b322f)"><path fill="#8ed5be" d="M 240.980469 249.480469 C 236.996094 249.480469 233.714844 252.433594 233.183594 256.269531 L 219.714844 256.269531 L 213.957031 247.980469 C 213.734375 247.671875 213.425781 247.542969 213.070312 247.542969 L 180.421875 247.542969 C 179.84375 247.542969 179.355469 248.027344 179.355469 248.597656 C 179.355469 249.171875 179.84375 249.65625 180.421875 249.65625 L 212.539062 249.65625 L 218.296875 257.945312 C 218.519531 258.253906 218.832031 258.386719 219.183594 258.386719 L 233.226562 258.386719 C 233.761719 262.222656 237.039062 265.175781 241.027344 265.175781 C 245.367188 265.175781 248.910156 261.648438 248.910156 257.328125 C 248.910156 253.007812 245.324219 249.480469 240.980469 249.480469 Z M 240.980469 263.015625 C 237.835938 263.015625 235.265625 260.457031 235.265625 257.328125 C 235.265625 254.199219 237.835938 251.640625 240.980469 251.640625 C 244.125 251.640625 246.695312 254.199219 246.695312 257.328125 C 246.695312 260.457031 244.171875 263.015625 240.980469 263.015625 Z M 240.980469 263.015625 " fill-opacity="1" fill-rule="nonzero"/></g><g clip-path="url(#604d31d1ca)"><path fill="#8ed5be" d="M 180.421875 237.402344 L 214.398438 237.402344 C 214.933594 241.238281 218.210938 244.191406 222.195312 244.191406 C 226.539062 244.191406 230.082031 240.664062 230.082031 236.34375 C 230.082031 232.023438 226.539062 228.496094 222.195312 228.496094 C 218.210938 228.496094 214.933594 231.449219 214.398438 235.285156 L 180.421875 235.285156 C 179.84375 235.285156 179.355469 235.769531 179.355469 236.34375 C 179.355469 236.917969 179.84375 237.402344 180.421875 237.402344 Z M 222.195312 230.613281 C 225.34375 230.613281 227.914062 233.167969 227.914062 236.300781 C 227.914062 239.429688 225.34375 242.03125 222.195312 242.03125 C 219.050781 242.03125 216.480469 239.472656 216.480469 236.34375 C 216.480469 233.167969 219.050781 230.613281 222.195312 230.613281 Z M 222.195312 230.613281 " fill-opacity="1" fill-rule="nonzero"/></g></svg>