<svg xmlns="http://www.w3.org/2000/svg" xmlns:xlink="http://www.w3.org/1999/xlink" width="200" zoomAndPan="magnify" viewBox="0 0 150 149.999998" height="200" preserveAspectRatio="xMidYMid meet" version="1.0"><defs><clipPath id="96dae3364a"><path d="M 13.589844 5.019531 L 138.839844 5.019531 L 138.839844 145.269531 L 13.589844 145.269531 Z M 13.589844 5.019531 " clip-rule="nonzero"/></clipPath></defs><g clip-path="url(#96dae3364a)"><path fill="#0277bd" d="M 138.820312 5.019531 L 13.605469 5.019531 L 24.65625 130.503906 L 76.214844 145.269531 L 127.773438 130.503906 Z M 138.820312 5.019531 " fill-opacity="1" fill-rule="nonzero"/></g><path fill="#039be5" d="M 76.214844 16.089844 L 76.214844 133.828125 L 117.460938 122.015625 L 126.667969 16.089844 Z M 76.214844 16.089844 " fill-opacity="1" fill-rule="nonzero"/><path fill="#ffffff" d="M 109.726562 34.542969 L 76.214844 34.542969 L 76.214844 49.308594 L 94.261719 49.308594 L 93.15625 64.070312 L 76.214844 64.070312 L 76.214844 78.832031 L 92.417969 78.832031 L 91.3125 95.441406 L 76.214844 100.609375 L 76.214844 116.109375 L 105.308594 106.515625 L 107.886719 64.070312 Z M 109.726562 34.542969 " fill-opacity="1" fill-rule="nonzero"/><path fill="#eeeeee" d="M 76.214844 34.542969 L 76.214844 49.308594 L 43.4375 49.308594 L 42.332031 34.542969 Z M 59.273438 64.070312 L 60.011719 78.832031 L 76.214844 78.832031 L 76.214844 64.070312 Z M 60.746094 86.214844 L 46.015625 86.214844 L 47.121094 106.515625 L 76.214844 116.109375 L 76.214844 100.609375 L 61.113281 95.441406 Z M 60.746094 86.214844 " fill-opacity="1" fill-rule="nonzero"/></svg>