<svg xmlns="http://www.w3.org/2000/svg" xmlns:xlink="http://www.w3.org/1999/xlink" width="40" zoomAndPan="magnify" viewBox="0 0 30 30.000001" height="40" preserveAspectRatio="xMidYMid meet" version="1.0"><defs><clipPath id="b16b4c67aa"><path d="M 1 0.21875 L 29 0.21875 L 29 28 L 1 28 Z M 1 0.21875 " clip-rule="nonzero"/></clipPath></defs><g clip-path="url(#b16b4c67aa)"><path fill="#8ed5be" d="M 15.15625 27.328125 C 7.664062 27.328125 1.570312 21.292969 1.570312 13.878906 C 1.570312 6.464844 7.664062 0.429688 15.15625 0.429688 C 22.644531 0.429688 28.738281 6.464844 28.738281 13.878906 C 28.738281 21.296875 22.644531 27.328125 15.15625 27.328125 Z M 15.15625 2.5625 C 8.855469 2.5625 3.726562 7.636719 3.726562 13.875 C 3.730469 14.492188 3.78125 15.101562 3.882812 15.710938 C 3.984375 16.316406 4.132812 16.914062 4.335938 17.496094 C 4.535156 18.078125 4.78125 18.640625 5.070312 19.183594 C 5.363281 19.726562 5.699219 20.242188 6.074219 20.730469 C 6.453125 21.222656 6.867188 21.675781 7.320312 22.097656 C 7.773438 22.519531 8.253906 22.902344 8.769531 23.25 C 9.285156 23.59375 9.824219 23.894531 10.390625 24.148438 C 10.957031 24.40625 11.539062 24.617188 12.136719 24.78125 L 12.40625 24.851562 L 12.40625 24.578125 C 12.429688 22.984375 12.441406 22.148438 12.4375 22.023438 L 12.4375 21.90625 L 12.285156 21.8125 L 12.222656 21.8125 C 12.1875 21.8125 12.148438 21.820312 12.113281 21.828125 C 11.746094 21.910156 11.371094 21.953125 10.992188 21.957031 C 9.898438 21.957031 9.113281 21.574219 8.65625 20.832031 C 8.621094 20.773438 8.574219 20.664062 8.519531 20.539062 C 8.324219 20.089844 7.996094 19.332031 7.351562 18.855469 C 7.332031 18.839844 7.308594 18.824219 7.285156 18.8125 C 6.996094 18.648438 6.871094 18.535156 6.816406 18.472656 C 6.898438 18.453125 6.980469 18.441406 7.0625 18.441406 C 7.414062 18.441406 7.957031 18.597656 8.554688 19.328125 C 8.582031 19.367188 8.617188 19.417969 8.65625 19.476562 C 8.933594 19.910156 9.515625 20.8125 10.824219 20.8125 C 11.363281 20.796875 11.882812 20.683594 12.375 20.46875 L 12.476562 20.425781 L 12.507812 20.304688 C 12.578125 20.039062 12.691406 19.597656 13.34375 19.46875 L 14.660156 19.199219 L 13.324219 19.046875 C 9.566406 18.613281 7.382812 16.824219 6.832031 13.730469 C 6.503906 11.714844 7.644531 10.691406 8.558594 9.871094 L 8.847656 9.609375 L 8.726562 9.453125 C 8.648438 9.34375 8.167969 7.960938 8.824219 6.410156 C 8.871094 6.410156 8.921875 6.402344 8.972656 6.402344 C 9.765625 6.402344 11.011719 6.917969 12.144531 7.703125 L 12.234375 7.765625 L 12.339844 7.730469 C 13.097656 7.464844 14.144531 7.320312 15.289062 7.320312 C 16.46875 7.320312 17.644531 7.480469 18.285156 7.726562 L 18.402344 7.769531 L 18.5 7.695312 C 18.996094 7.296875 20.695312 6.394531 21.632812 6.394531 C 21.675781 6.394531 21.710938 6.394531 21.75 6.398438 C 21.855469 7.457031 21.886719 8.519531 21.847656 9.582031 L 21.847656 9.675781 L 21.914062 9.742188 C 23.101562 10.921875 23.671875 12.332031 23.570312 13.824219 C 23.5 15.269531 22.996094 16.453125 22.070312 17.339844 C 21.0625 18.300781 19.609375 18.863281 17.746094 19.019531 L 17.136719 19.070312 L 17.644531 19.414062 C 18.523438 19.996094 18.59375 20.894531 18.628906 21.324219 L 18.632812 21.371094 C 18.640625 21.96875 18.746094 23.464844 18.804688 24.304688 L 18.828125 24.589844 L 19.097656 24.492188 C 20.191406 24.089844 21.203125 23.535156 22.125 22.828125 C 23.050781 22.121094 23.847656 21.292969 24.515625 20.347656 C 25.1875 19.398438 25.699219 18.371094 26.050781 17.269531 C 26.402344 16.167969 26.578125 15.035156 26.582031 13.878906 C 26.582031 7.640625 21.457031 2.566406 15.15625 2.566406 Z M 15.15625 2.5625 " fill-opacity="1" fill-rule="nonzero"/><path fill="#fffdfd" d="M 15.15625 0.644531 C 15.667969 0.644531 16.175781 0.671875 16.683594 0.730469 C 17.191406 0.789062 17.691406 0.875 18.191406 0.992188 C 18.6875 1.105469 19.175781 1.246094 19.660156 1.417969 C 20.140625 1.589844 20.609375 1.785156 21.066406 2.007812 C 21.527344 2.234375 21.96875 2.480469 22.398438 2.757812 C 22.828125 3.03125 23.242188 3.328125 23.636719 3.648438 C 24.03125 3.96875 24.40625 4.3125 24.761719 4.675781 C 25.117188 5.039062 25.449219 5.421875 25.761719 5.824219 C 26.070312 6.222656 26.359375 6.640625 26.621094 7.074219 C 26.882812 7.507812 27.121094 7.957031 27.332031 8.417969 C 27.542969 8.878906 27.726562 9.347656 27.882812 9.832031 C 28.039062 10.3125 28.167969 10.800781 28.265625 11.296875 C 28.367188 11.792969 28.4375 12.292969 28.480469 12.796875 C 28.519531 13.300781 28.53125 13.808594 28.515625 14.3125 C 28.5 14.820312 28.453125 15.320312 28.378906 15.820312 C 28.304688 16.320312 28.199219 16.816406 28.066406 17.304688 C 27.9375 17.792969 27.777344 18.273438 27.589844 18.742188 C 27.398438 19.214844 27.1875 19.671875 26.945312 20.117188 C 26.703125 20.566406 26.4375 20.996094 26.148438 21.410156 C 25.855469 21.828125 25.542969 22.226562 25.207031 22.605469 C 24.871094 22.988281 24.511719 23.347656 24.132812 23.6875 C 23.753906 24.027344 23.359375 24.34375 22.941406 24.636719 C 22.527344 24.933594 22.097656 25.203125 21.648438 25.449219 C 21.203125 25.695312 20.742188 25.914062 20.269531 26.109375 C 19.800781 26.300781 19.316406 26.46875 18.828125 26.605469 C 18.335938 26.746094 17.835938 26.855469 17.332031 26.9375 C 16.828125 27.019531 16.320312 27.074219 15.8125 27.097656 C 15.300781 27.125 14.792969 27.121094 14.28125 27.085938 C 13.773438 27.054688 13.265625 26.992188 12.761719 26.902344 C 12.261719 26.8125 11.765625 26.691406 11.273438 26.546875 C 10.785156 26.398438 10.308594 26.222656 9.839844 26.023438 C 9.371094 25.820312 8.914062 25.59375 8.472656 25.34375 C 8.027344 25.089844 7.601562 24.8125 7.191406 24.511719 C 6.78125 24.210938 6.390625 23.886719 6.015625 23.539062 C 5.644531 23.195312 5.292969 22.828125 4.960938 22.441406 C 4.632812 22.058594 4.324219 21.652344 4.039062 21.234375 C 3.757812 20.8125 3.5 20.378906 3.265625 19.925781 C 3.03125 19.476562 2.824219 19.015625 2.644531 18.542969 C 2.464844 18.070312 2.3125 17.585938 2.1875 17.097656 C 2.0625 16.605469 1.96875 16.109375 1.902344 15.609375 C 1.835938 15.105469 1.796875 14.601562 1.789062 14.097656 C 1.78125 13.589844 1.800781 13.085938 1.851562 12.582031 C 1.902344 12.078125 1.980469 11.582031 2.089844 11.085938 C 2.195312 10.589844 2.332031 10.105469 2.496094 9.625 C 2.660156 9.148438 2.851562 8.679688 3.070312 8.222656 C 3.289062 7.765625 3.535156 7.320312 3.804688 6.890625 C 4.074219 6.460938 4.367188 6.046875 4.683594 5.652344 C 5.003906 5.257812 5.339844 4.878906 5.703125 4.519531 C 6.953125 3.277344 8.398438 2.316406 10.035156 1.644531 C 11.675781 0.972656 13.382812 0.640625 15.15625 0.644531 M 12.617188 25.132812 L 12.625 24.582031 C 12.652344 22.960938 12.660156 22.148438 12.660156 22.019531 L 12.660156 21.785156 L 12.457031 21.660156 L 12.351562 21.597656 L 12.230469 21.597656 C 12.179688 21.601562 12.125 21.609375 12.074219 21.621094 C 11.722656 21.699219 11.363281 21.738281 11 21.742188 C 9.988281 21.742188 9.261719 21.402344 8.847656 20.722656 C 8.820312 20.679688 8.769531 20.566406 8.722656 20.457031 C 8.535156 20.023438 8.230469 19.320312 7.644531 18.8125 C 7.9375 18.976562 8.183594 19.191406 8.390625 19.457031 C 8.414062 19.488281 8.445312 19.535156 8.476562 19.589844 C 8.777344 20.058594 9.402344 21.027344 10.828125 21.027344 C 11.394531 21.011719 11.941406 20.890625 12.460938 20.664062 L 12.660156 20.582031 L 12.714844 20.375 L 12.71875 20.355469 C 12.800781 20.054688 12.910156 19.773438 13.386719 19.671875 L 16.023438 19.136719 L 13.351562 18.828125 C 11.535156 18.621094 10.085938 18.085938 9.039062 17.246094 C 7.992188 16.40625 7.3125 15.195312 7.042969 13.691406 C 6.734375 11.789062 7.777344 10.851562 8.699219 10.027344 L 8.84375 9.898438 L 9.140625 9.628906 L 8.902344 9.332031 C 8.816406 9.160156 8.453125 7.964844 8.972656 6.613281 C 9.714844 6.613281 10.9375 7.121094 12.019531 7.871094 L 12.203125 8 L 12.410156 7.925781 C 13.144531 7.667969 14.167969 7.53125 15.289062 7.53125 C 16.441406 7.53125 17.589844 7.683594 18.207031 7.921875 L 18.441406 8.007812 L 18.632812 7.851562 C 19.152344 7.4375 20.703125 6.652344 21.550781 6.601562 C 21.640625 7.589844 21.667969 8.574219 21.632812 9.5625 L 21.621094 9.75 L 21.757812 9.882812 C 22.898438 11.019531 23.449219 12.371094 23.347656 13.800781 L 23.347656 13.8125 C 23.28125 15.195312 22.800781 16.328125 21.914062 17.175781 C 20.945312 18.101562 19.539062 18.648438 17.726562 18.800781 L 16.503906 18.902344 L 17.519531 19.578125 C 18.3125 20.105469 18.375 20.902344 18.410156 21.332031 L 18.410156 21.371094 C 18.417969 21.980469 18.523438 23.472656 18.582031 24.3125 L 18.625 24.878906 L 19.160156 24.683594 C 20.277344 24.273438 21.308594 23.710938 22.25 22.992188 C 23.191406 22.273438 24.003906 21.429688 24.6875 20.464844 C 25.371094 19.5 25.890625 18.453125 26.25 17.332031 C 26.609375 16.207031 26.792969 15.058594 26.796875 13.878906 C 26.796875 7.523438 21.574219 2.351562 15.15625 2.351562 C 8.734375 2.351562 3.511719 7.523438 3.511719 13.878906 C 3.511719 14.507812 3.566406 15.128906 3.671875 15.75 C 3.773438 16.367188 3.925781 16.972656 4.132812 17.566406 C 4.335938 18.160156 4.585938 18.734375 4.882812 19.285156 C 5.179688 19.839844 5.523438 20.367188 5.90625 20.863281 C 6.289062 21.363281 6.714844 21.824219 7.175781 22.257812 C 7.636719 22.6875 8.128906 23.078125 8.652344 23.425781 C 9.179688 23.777344 9.726562 24.082031 10.304688 24.34375 C 10.878906 24.605469 11.472656 24.820312 12.082031 24.988281 L 12.617188 25.132812 M 15.15625 0.21875 C 14.25 0.21875 13.351562 0.304688 12.464844 0.480469 C 11.574219 0.65625 10.710938 0.914062 9.875 1.257812 C 9.039062 1.601562 8.242188 2.023438 7.488281 2.519531 C 6.734375 3.019531 6.039062 3.585938 5.398438 4.21875 C 4.757812 4.855469 4.183594 5.542969 3.683594 6.289062 C 3.179688 7.035156 2.753906 7.824219 2.40625 8.652344 C 2.058594 9.480469 1.796875 10.335938 1.621094 11.214844 C 1.445312 12.09375 1.355469 12.984375 1.355469 13.878906 C 1.355469 14.777344 1.445312 15.664062 1.621094 16.546875 C 1.796875 17.425781 2.058594 18.28125 2.40625 19.109375 C 2.753906 19.9375 3.179688 20.722656 3.683594 21.46875 C 4.183594 22.214844 4.757812 22.90625 5.398438 23.539062 C 6.039062 24.175781 6.734375 24.742188 7.488281 25.238281 C 8.242188 25.738281 9.039062 26.160156 9.875 26.503906 C 10.710938 26.84375 11.574219 27.105469 12.464844 27.28125 C 13.351562 27.453125 14.25 27.542969 15.15625 27.542969 C 16.0625 27.542969 16.957031 27.453125 17.847656 27.28125 C 18.734375 27.105469 19.597656 26.84375 20.4375 26.503906 C 21.273438 26.160156 22.066406 25.738281 22.820312 25.238281 C 23.574219 24.742188 24.273438 24.175781 24.914062 23.539062 C 25.554688 22.90625 26.125 22.214844 26.628906 21.46875 C 27.132812 20.722656 27.558594 19.9375 27.902344 19.109375 C 28.25 18.28125 28.511719 17.425781 28.6875 16.546875 C 28.867188 15.664062 28.953125 14.777344 28.953125 13.878906 C 28.953125 12.984375 28.867188 12.09375 28.6875 11.214844 C 28.511719 10.335938 28.25 9.480469 27.902344 8.652344 C 27.558594 7.824219 27.132812 7.035156 26.628906 6.289062 C 26.125 5.542969 25.554688 4.855469 24.914062 4.21875 C 24.273438 3.585938 23.574219 3.019531 22.820312 2.519531 C 22.066406 2.023438 21.273438 1.601562 20.4375 1.257812 C 19.597656 0.914062 18.734375 0.65625 17.847656 0.480469 C 16.957031 0.304688 16.0625 0.21875 15.15625 0.21875 Z M 12.195312 24.574219 C 11.769531 24.460938 11.351562 24.320312 10.945312 24.15625 C 10.535156 23.992188 10.136719 23.804688 9.75 23.59375 C 9.363281 23.382812 8.988281 23.152344 8.628906 22.894531 C 8.269531 22.640625 7.929688 22.367188 7.601562 22.074219 C 7.277344 21.777344 6.96875 21.464844 6.679688 21.136719 C 6.390625 20.804688 6.121094 20.460938 5.875 20.097656 C 5.625 19.734375 5.402344 19.359375 5.199219 18.972656 C 4.996094 18.585938 4.816406 18.1875 4.660156 17.777344 C 4.503906 17.367188 4.375 16.949219 4.269531 16.527344 C 4.164062 16.101562 4.082031 15.671875 4.027344 15.238281 C 3.972656 14.804688 3.945312 14.371094 3.941406 13.933594 C 3.9375 13.496094 3.960938 13.058594 4.011719 12.625 C 4.0625 12.191406 4.136719 11.761719 4.238281 11.335938 C 4.335938 10.910156 4.464844 10.492188 4.613281 10.082031 C 4.765625 9.667969 4.9375 9.269531 5.136719 8.878906 C 5.335938 8.488281 5.558594 8.109375 5.800781 7.746094 C 6.042969 7.382812 6.308594 7.03125 6.59375 6.699219 C 6.878906 6.363281 7.183594 6.046875 7.503906 5.75 C 7.828125 5.453125 8.167969 5.175781 8.523438 4.914062 C 8.878906 4.65625 9.25 4.421875 9.632812 4.203125 C 10.019531 3.988281 10.414062 3.796875 10.820312 3.628906 C 11.230469 3.460938 11.644531 3.316406 12.070312 3.195312 C 12.492188 3.074219 12.921875 2.980469 13.359375 2.910156 C 13.796875 2.839844 14.234375 2.796875 14.675781 2.777344 C 15.117188 2.757812 15.554688 2.765625 15.996094 2.796875 C 16.4375 2.832031 16.875 2.890625 17.308594 2.972656 C 17.742188 3.058594 18.167969 3.167969 18.585938 3.300781 C 19.007812 3.433594 19.417969 3.59375 19.820312 3.773438 C 20.222656 3.957031 20.609375 4.160156 20.988281 4.386719 C 21.363281 4.617188 21.726562 4.863281 22.074219 5.132812 C 22.421875 5.402344 22.75 5.695312 23.066406 6 C 23.378906 6.308594 23.671875 6.636719 23.945312 6.980469 C 24.21875 7.320312 24.472656 7.679688 24.703125 8.050781 C 24.933594 8.421875 25.140625 8.808594 25.328125 9.203125 C 25.511719 9.601562 25.675781 10.007812 25.8125 10.421875 C 25.949219 10.839844 26.058594 11.261719 26.148438 11.691406 C 26.234375 12.117188 26.292969 12.550781 26.328125 12.984375 C 26.363281 13.421875 26.375 13.859375 26.355469 14.296875 C 26.339844 14.730469 26.296875 15.167969 26.226562 15.597656 C 26.160156 16.03125 26.066406 16.457031 25.945312 16.875 C 25.824219 17.296875 25.679688 17.710938 25.511719 18.113281 C 25.34375 18.515625 25.152344 18.910156 24.933594 19.292969 C 24.71875 19.671875 24.480469 20.039062 24.222656 20.394531 C 23.960938 20.746094 23.683594 21.085938 23.382812 21.40625 C 23.082031 21.726562 22.765625 22.027344 22.429688 22.3125 C 22.09375 22.597656 21.742188 22.859375 21.375 23.101562 C 21.007812 23.34375 20.628906 23.566406 20.234375 23.761719 C 19.839844 23.960938 19.4375 24.136719 19.023438 24.285156 C 18.941406 23.21875 18.851562 21.894531 18.847656 21.359375 C 18.8125 20.945312 18.769531 19.898438 17.765625 19.230469 C 21.75 18.898438 23.648438 16.71875 23.78125 13.835938 C 23.898438 12.195312 23.238281 10.753906 22.066406 9.589844 C 22.109375 8.460938 22.070312 7.339844 21.949219 6.21875 C 21.847656 6.191406 21.742188 6.179688 21.636719 6.179688 C 20.636719 6.179688 18.894531 7.105469 18.367188 7.523438 C 17.707031 7.269531 16.527344 7.105469 15.292969 7.105469 C 14.230469 7.105469 13.125 7.230469 12.277344 7.523438 C 11.117188 6.722656 9.820312 6.1875 8.980469 6.1875 C 8.878906 6.1875 8.78125 6.195312 8.683594 6.214844 C 7.9375 7.851562 8.417969 9.402344 8.5625 9.585938 C 7.601562 10.453125 6.261719 11.523438 6.625 13.765625 C 7.207031 17.050781 9.542969 18.824219 13.304688 19.257812 C 12.503906 19.417969 12.367188 20.011719 12.300781 20.265625 C 11.71875 20.503906 11.234375 20.597656 10.832031 20.597656 C 9.464844 20.597656 8.980469 19.53125 8.734375 19.195312 C 8.074219 18.386719 7.457031 18.226562 7.070312 18.226562 C 6.933594 18.226562 6.796875 18.246094 6.664062 18.296875 C 6.605469 18.324219 6.574219 18.371094 6.570312 18.4375 C 6.625 18.714844 7.203125 19 7.230469 19.023438 C 8.011719 19.601562 8.300781 20.648438 8.480469 20.941406 C 9.097656 21.945312 10.164062 22.167969 11 22.167969 C 11.417969 22.164062 11.828125 22.117188 12.234375 22.023438 C 12.234375 22.183594 12.214844 23.527344 12.199219 24.574219 Z M 12.195312 24.574219 " fill-opacity="1" fill-rule="nonzero"/></g></svg>