<svg xmlns="http://www.w3.org/2000/svg" xmlns:xlink="http://www.w3.org/1999/xlink" width="200" zoomAndPan="magnify" viewBox="0 0 150 149.999998" height="200" preserveAspectRatio="xMidYMid meet" version="1.0"><defs><clipPath id="2471155c82"><path d="M 27 9.339844 L 134 9.339844 L 134 140.589844 L 27 140.589844 Z M 27 9.339844 " clip-rule="nonzero"/></clipPath></defs><g clip-path="url(#2471155c82)"><path fill="#ffffff" d="M 98.71875 140.550781 C 98.410156 140.550781 98.105469 140.523438 97.800781 140.460938 C 97.5 140.402344 97.207031 140.3125 96.921875 140.195312 C 96.636719 140.074219 96.367188 139.929688 96.109375 139.757812 C 95.851562 139.585938 95.613281 139.390625 95.398438 139.171875 C 95.179688 138.953125 94.984375 138.71875 94.8125 138.460938 C 94.640625 138.203125 94.496094 137.933594 94.378906 137.648438 C 94.261719 137.359375 94.171875 137.066406 94.109375 136.765625 C 94.050781 136.460938 94.019531 136.15625 94.019531 135.847656 L 94.019531 111.503906 C 94.019531 111.328125 94.03125 111.15625 94.050781 110.980469 C 94.230469 109.394531 94.253906 107.808594 94.121094 106.21875 C 93.992188 104.628906 93.707031 103.066406 93.269531 101.53125 C 92.832031 100 92.25 98.523438 91.519531 97.101562 C 90.792969 95.683594 89.933594 94.347656 88.945312 93.097656 C 88.671875 92.75 88.453125 92.375 88.285156 91.964844 C 88.121094 91.554688 88.011719 91.132812 87.964844 90.691406 C 87.917969 90.253906 87.933594 89.816406 88.007812 89.378906 C 88.082031 88.945312 88.21875 88.527344 88.410156 88.128906 C 88.601562 87.734375 88.847656 87.371094 89.140625 87.042969 C 89.4375 86.710938 89.769531 86.429688 90.144531 86.195312 C 90.519531 85.960938 90.917969 85.785156 91.339844 85.664062 C 91.765625 85.539062 92.199219 85.480469 92.640625 85.480469 C 108.042969 85.480469 124.410156 75.394531 124.410156 56.703125 C 124.410156 56.601562 124.410156 56.503906 124.410156 56.402344 C 124.617188 53.152344 124.277344 49.957031 123.382812 46.824219 C 122.488281 43.6875 121.097656 40.792969 119.210938 38.140625 C 118.8125 37.582031 118.546875 36.96875 118.417969 36.292969 C 118.289062 35.621094 118.304688 34.953125 118.46875 34.285156 C 119.605469 29.5625 119.886719 24.789062 119.308594 19.964844 C 116.707031 21.039062 112.796875 23.085938 107.601562 26.992188 C 107.070312 27.386719 106.484375 27.660156 105.84375 27.808594 C 105.199219 27.960938 104.554688 27.972656 103.90625 27.847656 C 96.164062 26.375 88.351562 25.636719 80.46875 25.636719 C 72.585938 25.636719 64.773438 26.375 57.027344 27.847656 C 56.378906 27.972656 55.734375 27.960938 55.09375 27.808594 C 54.449219 27.660156 53.863281 27.386719 53.335938 26.992188 C 48.109375 23.035156 44.183594 21.003906 41.578125 19.9375 C 40.957031 24.753906 41.257812 29.511719 42.480469 34.210938 C 42.65625 34.886719 42.683594 35.570312 42.554688 36.257812 C 42.425781 36.945312 42.160156 37.570312 41.753906 38.140625 C 39.859375 40.792969 38.464844 43.683594 37.570312 46.816406 C 36.679688 49.953125 36.335938 53.144531 36.542969 56.398438 C 36.542969 56.503906 36.542969 56.605469 36.542969 56.710938 C 36.542969 75.402344 52.914062 85.484375 68.316406 85.484375 C 68.757812 85.484375 69.191406 85.546875 69.617188 85.667969 C 70.039062 85.789062 70.441406 85.96875 70.816406 86.203125 C 71.191406 86.441406 71.523438 86.722656 71.820312 87.050781 C 72.113281 87.382812 72.359375 87.746094 72.550781 88.144531 C 72.742188 88.546875 72.875 88.960938 72.949219 89.398438 C 73.023438 89.835938 73.035156 90.273438 72.988281 90.714844 C 72.9375 91.15625 72.828125 91.578125 72.660156 91.988281 C 72.492188 92.398438 72.269531 92.777344 71.992188 93.121094 C 69.988281 95.628906 68.546875 98.425781 67.671875 101.515625 C 66.792969 104.617188 66.539062 107.769531 66.90625 110.972656 C 66.929688 111.144531 66.9375 111.320312 66.9375 111.5 L 66.9375 135.847656 C 66.9375 136.15625 66.90625 136.460938 66.847656 136.765625 C 66.789062 137.066406 66.699219 137.359375 66.582031 137.648438 C 66.460938 137.933594 66.316406 138.203125 66.144531 138.460938 C 65.976562 138.71875 65.78125 138.953125 65.5625 139.171875 C 65.34375 139.390625 65.105469 139.585938 64.851562 139.757812 C 64.59375 139.929688 64.324219 140.074219 64.039062 140.195312 C 63.753906 140.3125 63.457031 140.402344 63.15625 140.460938 C 62.855469 140.523438 62.546875 140.550781 62.238281 140.550781 C 61.929688 140.550781 61.625 140.523438 61.324219 140.460938 C 61.019531 140.402344 60.726562 140.3125 60.441406 140.195312 C 60.15625 140.074219 59.886719 139.929688 59.628906 139.757812 C 59.371094 139.585938 59.136719 139.390625 58.917969 139.171875 C 58.699219 138.953125 58.503906 138.71875 58.332031 138.460938 C 58.160156 138.203125 58.015625 137.933594 57.898438 137.648438 C 57.78125 137.359375 57.691406 137.066406 57.632812 136.765625 C 57.570312 136.460938 57.539062 136.15625 57.539062 135.847656 L 57.539062 111.753906 C 57.078125 107.414062 57.441406 103.148438 58.632812 98.953125 C 59.089844 97.320312 59.671875 95.734375 60.375 94.195312 C 56.679688 93.570312 53.125 92.480469 49.714844 90.929688 C 46.300781 89.382812 43.140625 87.421875 40.234375 85.050781 C 31.84375 78.039062 27.214844 68.035156 27.15625 56.859375 C 26.917969 52.921875 27.289062 49.039062 28.269531 45.21875 C 29.25 41.398438 30.789062 37.816406 32.890625 34.480469 C 32.136719 30.914062 31.804688 27.308594 31.886719 23.664062 C 31.96875 20.019531 32.46875 16.433594 33.386719 12.90625 C 33.515625 12.402344 33.726562 11.933594 34.011719 11.5 C 34.300781 11.066406 34.648438 10.6875 35.058594 10.371094 C 35.472656 10.050781 35.921875 9.808594 36.414062 9.640625 C 36.90625 9.472656 37.414062 9.386719 37.933594 9.386719 C 39.15625 9.386719 45.609375 9.832031 57.316406 18.234375 C 64.980469 16.894531 72.703125 16.222656 80.480469 16.222656 C 88.261719 16.222656 95.984375 16.894531 103.648438 18.234375 C 115.351562 9.832031 121.8125 9.386719 123.03125 9.386719 C 123.554688 9.386719 124.066406 9.472656 124.566406 9.644531 C 125.0625 9.816406 125.519531 10.066406 125.933594 10.390625 C 126.347656 10.71875 126.695312 11.101562 126.980469 11.546875 C 127.265625 11.988281 127.472656 12.464844 127.597656 12.980469 C 129.324219 20.101562 129.480469 27.257812 128.066406 34.445312 C 130.171875 37.789062 131.714844 41.375 132.699219 45.203125 C 133.679688 49.027344 134.054688 52.914062 133.824219 56.859375 C 133.78125 68.03125 129.125 78.035156 120.738281 85.050781 C 117.828125 87.425781 114.664062 89.386719 111.246094 90.933594 C 107.828125 92.484375 104.269531 93.574219 100.570312 94.199219 C 101.820312 96.945312 102.691406 99.804688 103.175781 102.78125 C 103.660156 105.757812 103.746094 108.746094 103.433594 111.746094 L 103.433594 135.847656 C 103.433594 136.15625 103.402344 136.460938 103.339844 136.765625 C 103.28125 137.070312 103.191406 137.363281 103.074219 137.648438 C 102.953125 137.9375 102.808594 138.207031 102.636719 138.464844 C 102.464844 138.722656 102.269531 138.960938 102.050781 139.179688 C 101.832031 139.398438 101.59375 139.59375 101.335938 139.761719 C 101.078125 139.933594 100.808594 140.078125 100.523438 140.199219 C 100.234375 140.316406 99.941406 140.402344 99.636719 140.464844 C 99.335938 140.523438 99.027344 140.550781 98.71875 140.550781 Z M 98.71875 140.550781 " fill-opacity="1" fill-rule="nonzero"/></g><path fill="#ffffff" d="M 48.480469 119.585938 C 38.089844 119.585938 31.941406 113.601562 27.421875 109.199219 C 24.132812 105.992188 21.996094 104.019531 19.699219 104.019531 C 19.390625 104.019531 19.085938 103.992188 18.78125 103.929688 C 18.480469 103.871094 18.183594 103.78125 17.902344 103.664062 C 17.617188 103.542969 17.34375 103.398438 17.089844 103.226562 C 16.832031 103.054688 16.59375 102.859375 16.375 102.644531 C 16.15625 102.425781 15.964844 102.1875 15.792969 101.929688 C 15.621094 101.671875 15.476562 101.402344 15.359375 101.117188 C 15.238281 100.832031 15.152344 100.535156 15.089844 100.234375 C 15.03125 99.929688 15 99.625 15 99.316406 C 15 99.007812 15.03125 98.699219 15.089844 98.398438 C 15.152344 98.09375 15.238281 97.800781 15.359375 97.515625 C 15.476562 97.230469 15.621094 96.957031 15.792969 96.699219 C 15.964844 96.445312 16.15625 96.207031 16.375 95.988281 C 16.59375 95.769531 16.832031 95.574219 17.089844 95.402344 C 17.34375 95.230469 17.617188 95.085938 17.902344 94.96875 C 18.183594 94.847656 18.480469 94.761719 18.78125 94.699219 C 19.085938 94.640625 19.390625 94.609375 19.699219 94.609375 C 25.929688 94.609375 30.203125 98.773438 33.972656 102.445312 C 40.203125 108.511719 45.582031 113.738281 60.339844 107.191406 C 60.625 107.0625 60.917969 106.960938 61.21875 106.890625 C 61.523438 106.816406 61.828125 106.777344 62.140625 106.765625 C 62.449219 106.753906 62.761719 106.773438 63.066406 106.824219 C 63.375 106.875 63.671875 106.957031 63.964844 107.066406 C 64.253906 107.175781 64.53125 107.3125 64.796875 107.480469 C 65.058594 107.644531 65.304688 107.835938 65.53125 108.046875 C 65.757812 108.261719 65.960938 108.496094 66.140625 108.75 C 66.320312 109.003906 66.472656 109.273438 66.597656 109.558594 C 66.722656 109.84375 66.820312 110.140625 66.890625 110.445312 C 66.957031 110.746094 66.992188 111.054688 67 111.367188 C 67.007812 111.679688 66.984375 111.988281 66.929688 112.292969 C 66.875 112.601562 66.789062 112.898438 66.675781 113.191406 C 66.5625 113.480469 66.421875 113.753906 66.253906 114.015625 C 66.085938 114.28125 65.890625 114.523438 65.675781 114.746094 C 65.457031 114.96875 65.222656 115.167969 64.964844 115.347656 C 64.710938 115.523438 64.4375 115.671875 64.152344 115.792969 C 58.039062 118.515625 52.878906 119.585938 48.480469 119.585938 Z M 48.480469 119.585938 " fill-opacity="1" fill-rule="nonzero"/></svg>