<svg xmlns="http://www.w3.org/2000/svg" xmlns:xlink="http://www.w3.org/1999/xlink" width="200" zoomAndPan="magnify" viewBox="0 0 150 149.999998" height="200" preserveAspectRatio="xMidYMid meet" version="1.0"><defs><clipPath id="8d5d3f6366"><path d="M 6.484375 5.019531 L 143.734375 5.019531 L 143.734375 142.269531 L 6.484375 142.269531 Z M 6.484375 5.019531 " clip-rule="nonzero"/></clipPath></defs><g clip-path="url(#8d5d3f6366)"><path fill="#f03c2e" d="M 141.144531 67.53125 L 81.222656 7.609375 C 80.8125 7.199219 80.363281 6.832031 79.882812 6.507812 C 79.398438 6.1875 78.890625 5.914062 78.355469 5.691406 C 77.820312 5.46875 77.265625 5.300781 76.695312 5.1875 C 76.128906 5.074219 75.554688 5.019531 74.972656 5.019531 C 74.390625 5.019531 73.816406 5.074219 73.25 5.1875 C 72.679688 5.300781 72.125 5.46875 71.589844 5.691406 C 71.054688 5.914062 70.546875 6.1875 70.0625 6.507812 C 69.578125 6.832031 69.132812 7.199219 68.722656 7.609375 L 56.285156 20.046875 L 72.070312 35.832031 C 75.742188 34.542969 79.945312 35.421875 82.867188 38.347656 C 83.566406 39.046875 84.152344 39.824219 84.628906 40.6875 C 85.105469 41.550781 85.453125 42.460938 85.675781 43.421875 C 85.894531 44.382812 85.976562 45.355469 85.925781 46.339844 C 85.871094 47.324219 85.683594 48.28125 85.359375 49.210938 L 100.574219 64.425781 C 104.253906 63.15625 108.5 63.976562 111.4375 66.921875 C 111.925781 67.410156 112.363281 67.941406 112.746094 68.515625 C 113.132812 69.089844 113.457031 69.695312 113.71875 70.335938 C 113.984375 70.972656 114.183594 71.632812 114.320312 72.308594 C 114.453125 72.988281 114.523438 73.671875 114.523438 74.363281 C 114.523438 75.054688 114.453125 75.738281 114.320312 76.414062 C 114.183594 77.09375 113.984375 77.75 113.722656 78.390625 C 113.457031 79.027344 113.132812 79.632812 112.75 80.207031 C 112.363281 80.78125 111.929688 81.3125 111.441406 81.800781 C 110.949219 82.289062 110.417969 82.726562 109.84375 83.109375 C 109.269531 83.496094 108.664062 83.820312 108.027344 84.082031 C 107.386719 84.347656 106.730469 84.546875 106.050781 84.679688 C 105.375 84.816406 104.6875 84.882812 104 84.882812 C 103.308594 84.882812 102.625 84.8125 101.945312 84.679688 C 101.269531 84.542969 100.609375 84.34375 99.972656 84.078125 C 99.332031 83.816406 98.726562 83.492188 98.152344 83.105469 C 97.578125 82.722656 97.046875 82.285156 96.558594 81.796875 C 93.472656 78.707031 92.707031 74.160156 94.269531 70.359375 L 80.082031 56.167969 L 80.082031 93.503906 C 81.117188 94.019531 82.046875 94.683594 82.867188 95.496094 C 83.355469 95.984375 83.792969 96.515625 84.175781 97.089844 C 84.558594 97.664062 84.882812 98.269531 85.148438 98.90625 C 85.414062 99.546875 85.613281 100.203125 85.746094 100.882812 C 85.882812 101.558594 85.949219 102.242188 85.949219 102.933594 C 85.949219 103.625 85.882812 104.308594 85.746094 104.984375 C 85.613281 105.664062 85.414062 106.320312 85.148438 106.957031 C 84.882812 107.597656 84.558594 108.203125 84.175781 108.777344 C 83.792969 109.351562 83.355469 109.882812 82.867188 110.371094 C 82.378906 110.859375 81.847656 111.292969 81.273438 111.679688 C 80.699219 112.0625 80.09375 112.386719 79.457031 112.648438 C 78.820312 112.914062 78.160156 113.113281 77.484375 113.25 C 76.804688 113.382812 76.121094 113.449219 75.429688 113.449219 C 74.742188 113.449219 74.058594 113.382812 73.378906 113.25 C 72.703125 113.113281 72.042969 112.914062 71.40625 112.648438 C 70.769531 112.386719 70.164062 112.0625 69.589844 111.679688 C 69.015625 111.292969 68.484375 110.859375 67.996094 110.371094 C 67.503906 109.882812 67.070312 109.351562 66.683594 108.777344 C 66.300781 108.203125 65.976562 107.597656 65.710938 106.957031 C 65.445312 106.320312 65.246094 105.664062 65.113281 104.984375 C 64.976562 104.308594 64.910156 103.625 64.910156 102.933594 C 64.910156 102.242188 64.976562 101.558594 65.113281 100.878906 C 65.246094 100.203125 65.445312 99.546875 65.710938 98.90625 C 65.976562 98.269531 66.300781 97.664062 66.683594 97.089844 C 67.070312 96.515625 67.503906 95.984375 67.996094 95.496094 C 69.011719 94.484375 70.140625 93.714844 71.4375 93.203125 L 71.4375 55.515625 C 70.1875 55.003906 69.011719 54.242188 67.996094 53.222656 C 67.257812 52.484375 66.640625 51.65625 66.148438 50.734375 C 65.660156 49.816406 65.3125 48.84375 65.109375 47.820312 C 64.910156 46.792969 64.859375 45.761719 64.964844 44.726562 C 65.070312 43.6875 65.324219 42.6875 65.730469 41.722656 L 50.160156 26.164062 L 9.070312 67.210938 C 8.660156 67.621094 8.292969 68.066406 7.972656 68.546875 C 7.648438 69.03125 7.375 69.539062 7.152344 70.078125 C 6.929688 70.613281 6.761719 71.167969 6.648438 71.734375 C 6.535156 72.304688 6.480469 72.878906 6.480469 73.460938 C 6.480469 74.042969 6.535156 74.617188 6.648438 75.1875 C 6.761719 75.753906 6.929688 76.308594 7.152344 76.84375 C 7.375 77.378906 7.648438 77.890625 7.972656 78.371094 C 8.292969 78.855469 8.660156 79.300781 9.070312 79.710938 L 68.996094 139.628906 C 69.410156 140.039062 69.855469 140.40625 70.335938 140.730469 C 70.820312 141.050781 71.328125 141.324219 71.863281 141.546875 C 72.402344 141.769531 72.953125 141.9375 73.523438 142.050781 C 74.09375 142.164062 74.667969 142.21875 75.246094 142.21875 C 75.828125 142.21875 76.402344 142.164062 76.972656 142.050781 C 77.539062 141.9375 78.09375 141.769531 78.628906 141.546875 C 79.164062 141.324219 79.675781 141.050781 80.15625 140.730469 C 80.640625 140.40625 81.085938 140.039062 81.496094 139.628906 L 141.144531 80.078125 C 141.554688 79.667969 141.921875 79.21875 142.246094 78.738281 C 142.566406 78.253906 142.839844 77.746094 143.0625 77.207031 C 143.285156 76.671875 143.453125 76.121094 143.566406 75.550781 C 143.679688 74.980469 143.734375 74.40625 143.734375 73.824219 C 143.734375 73.246094 143.679688 72.667969 143.566406 72.101562 C 143.453125 71.53125 143.285156 70.976562 143.0625 70.441406 C 142.839844 69.90625 142.566406 69.394531 142.246094 68.914062 C 141.921875 68.429688 141.554688 67.984375 141.144531 67.574219 " fill-opacity="1" fill-rule="nonzero"/></g></svg>