<svg xmlns="http://www.w3.org/2000/svg" xmlns:xlink="http://www.w3.org/1999/xlink" width="200" zoomAndPan="magnify" viewBox="0 0 150 149.999998" height="200" preserveAspectRatio="xMidYMid meet" version="1.0"><defs><clipPath id="9815577ee7"><path d="M 13.589844 5.019531 L 136.589844 5.019531 L 136.589844 145 L 13.589844 145 Z M 13.589844 5.019531 " clip-rule="nonzero"/></clipPath></defs><g clip-path="url(#9815577ee7)"><path fill="#e44d26" d="M 24.753906 130.855469 L 13.554688 5.519531 L 136.625 5.519531 L 125.414062 130.835938 L 75.011719 144.769531 Z M 24.753906 130.855469 " fill-opacity="1" fill-rule="nonzero"/></g><path fill="#f16529" d="M 115.816406 122.855469 L 125.398438 15.769531 L 75.089844 15.769531 L 75.089844 134.121094 Z M 115.816406 122.855469 " fill-opacity="1" fill-rule="nonzero"/><path fill="#ebebeb" d="M 75.039062 31.136719 L 36.453125 31.136719 L 40.609375 77.625 L 75.089844 77.625 L 75.089844 62.253906 L 54.703125 62.253906 L 53.292969 46.511719 L 75.089844 46.511719 L 75.089844 31.136719 Z M 75.089844 102.125 L 75.023438 102.140625 L 57.863281 97.519531 L 56.773438 85.261719 L 41.300781 85.261719 L 43.457031 109.394531 L 75.019531 118.097656 L 75.089844 118.078125 Z M 75.089844 102.125 " fill-opacity="1" fill-rule="nonzero"/><path fill="#ffffff" d="M 75.039062 77.625 L 94.011719 77.625 L 92.265625 97.554688 L 75.082031 102.179688 L 75.082031 118.171875 L 106.667969 109.4375 L 110.898438 62.246094 L 75.089844 62.246094 Z M 113.261719 35.265625 L 113.628906 31.136719 L 75.027344 31.136719 L 75.027344 46.507812 L 112.242188 46.507812 L 112.546875 43.054688 Z M 113.261719 35.265625 " fill-opacity="1" fill-rule="nonzero"/></svg>