<svg xmlns="http://www.w3.org/2000/svg" xmlns:xlink="http://www.w3.org/1999/xlink" width="200" zoomAndPan="magnify" viewBox="0 0 150 149.999998" height="200" preserveAspectRatio="xMidYMid meet" version="1.0"><defs><clipPath id="1ca559d53f"><path d="M 5.46875 7.359375 L 147.96875 7.359375 L 147.96875 149.859375 L 5.46875 149.859375 Z M 5.46875 7.359375 " clip-rule="nonzero"/></clipPath><clipPath id="163e973b8e"><path d="M 5.46875 7.359375 L 78 7.359375 L 78 149.859375 L 5.46875 149.859375 Z M 5.46875 7.359375 " clip-rule="nonzero"/></clipPath></defs><g clip-path="url(#1ca559d53f)"><path fill="#ffc44d" d="M 10.769531 7.027344 C 9.34375 7.027344 7.988281 7.640625 7.042969 8.707031 C 6.101562 9.777344 5.660156 11.199219 5.839844 12.613281 L 19.09375 118.660156 C 19.300781 120.3125 20.316406 121.746094 21.804688 122.492188 L 74.828125 149.003906 C 76.226562 149.703125 77.875 149.703125 79.273438 149.003906 L 132.296875 122.492188 C 133.78125 121.746094 134.800781 120.3125 135.003906 118.660156 L 148.261719 12.613281 C 148.4375 11.199219 148 9.777344 147.054688 8.707031 C 146.113281 7.640625 144.753906 7.027344 143.328125 7.027344 Z M 10.769531 7.027344 " fill-opacity="1" fill-rule="nonzero"/></g><g clip-path="url(#163e973b8e)"><path fill="#e5b045" d="M 77.050781 7.027344 L 77.050781 149.527344 C 76.289062 149.527344 75.527344 149.351562 74.828125 149.003906 L 21.804688 122.492188 C 20.316406 121.746094 19.300781 120.3125 19.09375 118.660156 L 5.839844 12.613281 C 5.660156 11.199219 6.101562 9.777344 7.042969 8.707031 C 7.988281 7.640625 9.34375 7.027344 10.769531 7.027344 Z M 77.050781 7.027344 " fill-opacity="1" fill-rule="evenodd"/></g><path fill="#cfd8dc" d="M 67.109375 26.910156 C 69.855469 26.910156 72.078125 29.136719 72.078125 31.882812 L 72.078125 118.042969 C 72.078125 119.816406 71.136719 121.453125 69.601562 122.34375 C 68.070312 123.234375 66.179688 123.238281 64.640625 122.359375 L 41.445312 109.105469 C 39.0625 107.742188 38.234375 104.707031 39.59375 102.324219 C 40.957031 99.9375 43.992188 99.109375 46.378906 100.472656 L 62.136719 109.480469 L 62.136719 31.882812 C 62.136719 29.136719 64.363281 26.910156 67.109375 26.910156 Z M 67.109375 26.910156 " fill-opacity="1" fill-rule="evenodd"/><path fill="#eceff1" d="M 82.023438 31.882812 C 82.023438 29.136719 84.246094 26.910156 86.992188 26.910156 L 120.132812 26.910156 C 122.878906 26.910156 125.101562 29.136719 125.101562 31.882812 C 125.101562 34.628906 122.878906 36.851562 120.132812 36.851562 L 91.964844 36.851562 L 91.964844 68.765625 L 115.742188 63.484375 C 117.289062 63.140625 118.910156 63.554688 120.101562 64.601562 C 121.292969 65.652344 121.914062 67.203125 121.769531 68.785156 L 118.453125 105.238281 C 118.300781 106.953125 117.265625 108.464844 115.726562 109.234375 L 89.214844 122.492188 C 86.761719 123.71875 83.773438 122.722656 82.546875 120.269531 C 81.320312 117.8125 82.3125 114.828125 84.769531 113.597656 L 108.804688 101.582031 L 111.25 74.664062 L 88.070312 79.816406 C 86.597656 80.144531 85.058594 79.785156 83.882812 78.839844 C 82.707031 77.898438 82.023438 76.472656 82.023438 74.964844 Z M 82.023438 31.882812 " fill-opacity="1" fill-rule="evenodd"/></svg>