<svg xmlns="http://www.w3.org/2000/svg" xmlns:xlink="http://www.w3.org/1999/xlink" width="200" zoomAndPan="magnify" viewBox="0 0 150 149.999998" height="200" preserveAspectRatio="xMidYMid meet" version="1.0"><path fill="#f06292" d="M 126.046875 83.5625 C 121.101562 83.585938 116.816406 84.773438 113.226562 86.546875 C 111.914062 83.925781 110.582031 81.621094 110.359375 79.90625 C 110.101562 77.90625 109.796875 76.710938 110.113281 74.328125 C 110.429688 71.945312 111.808594 68.566406 111.789062 68.3125 C 111.769531 68.058594 111.480469 66.847656 108.625 66.824219 C 105.773438 66.804688 103.332031 67.375 103.046875 68.125 C 102.757812 68.878906 102.210938 70.574219 101.867188 72.34375 C 101.371094 74.929688 96.171875 84.152344 93.222656 88.976562 C 92.257812 87.09375 91.4375 85.433594 91.265625 84.121094 C 91.003906 82.121094 90.703125 80.925781 91.019531 78.542969 C 91.332031 76.160156 92.714844 72.78125 92.695312 72.527344 C 92.675781 72.273438 92.386719 71.0625 89.53125 71.039062 C 86.679688 71.019531 84.238281 71.589844 83.953125 72.34375 C 83.664062 73.09375 83.355469 74.855469 82.773438 76.558594 C 82.1875 78.257812 75.28125 93.644531 73.472656 97.636719 C 72.546875 99.667969 71.746094 101.304688 71.179688 102.414062 C 71.179688 102.414062 71.179688 102.410156 71.179688 102.410156 C 71.179688 102.410156 71.140625 102.484375 71.085938 102.609375 C 70.597656 103.558594 70.3125 104.082031 70.3125 104.082031 C 70.3125 104.082031 70.316406 104.085938 70.320312 104.101562 C 69.9375 104.796875 69.523438 105.445312 69.320312 105.445312 C 69.179688 105.445312 68.894531 103.589844 69.382812 101.042969 C 70.414062 95.703125 72.878906 87.382812 72.855469 87.09375 C 72.84375 86.945312 73.316406 85.496094 71.246094 84.734375 C 69.230469 84 68.515625 85.226562 68.332031 85.230469 C 68.152344 85.234375 68.023438 85.664062 68.023438 85.664062 C 68.023438 85.664062 70.265625 76.304688 63.742188 76.304688 C 59.664062 76.304688 54.015625 80.765625 51.234375 84.804688 C 49.476562 85.765625 45.71875 87.816406 41.730469 90.007812 C 40.199219 90.847656 38.636719 91.707031 37.15625 92.523438 C 37.054688 92.410156 36.953125 92.300781 36.847656 92.191406 C 28.9375 83.753906 14.324219 77.789062 14.941406 66.449219 C 15.164062 62.324219 16.601562 51.46875 43.03125 38.304688 C 64.683594 27.519531 82.019531 30.488281 85.011719 37.0625 C 89.292969 46.464844 75.75 63.925781 53.265625 66.449219 C 44.699219 67.410156 40.183594 64.089844 39.0625 62.851562 C 37.882812 61.550781 37.703125 61.492188 37.265625 61.738281 C 36.546875 62.136719 37 63.285156 37.265625 63.96875 C 37.9375 65.714844 40.691406 68.8125 45.386719 70.355469 C 49.519531 71.710938 59.578125 72.457031 71.742188 67.75 C 85.367188 62.484375 96.003906 47.828125 92.878906 35.578125 C 89.699219 23.121094 69.035156 19.023438 49.476562 25.96875 C 37.824219 30.105469 25.222656 36.59375 16.164062 45.0625 C 5.390625 55.136719 3.671875 63.90625 4.378906 67.566406 C 6.894531 80.585938 24.839844 89.0625 32.027344 95.339844 C 31.671875 95.539062 31.339844 95.71875 31.035156 95.886719 C 27.433594 97.667969 13.753906 104.828125 10.332031 112.386719 C 6.449219 120.964844 10.949219 127.117188 13.925781 127.949219 C 23.15625 130.515625 32.625 125.894531 37.71875 118.308594 C 42.804688 110.722656 42.1875 100.839844 39.851562 96.332031 C 39.820312 96.277344 39.789062 96.222656 39.761719 96.164062 C 40.691406 95.613281 41.640625 95.054688 42.578125 94.5 C 44.410156 93.425781 46.214844 92.421875 47.773438 91.574219 C 46.898438 93.964844 46.257812 96.835938 45.925781 100.980469 C 45.535156 105.851562 47.53125 112.144531 50.144531 114.617188 C 51.296875 115.710938 52.679688 115.734375 53.554688 115.734375 C 56.59375 115.734375 57.980469 113.207031 59.507812 110.214844 C 61.378906 106.550781 63.042969 102.28125 63.042969 102.28125 C 63.042969 102.28125 60.957031 113.8125 66.640625 113.8125 C 68.710938 113.8125 70.792969 111.125 71.722656 109.761719 C 71.726562 109.777344 71.726562 109.78125 71.726562 109.78125 C 71.726562 109.78125 71.78125 109.691406 71.886719 109.515625 C 72.101562 109.1875 72.222656 108.980469 72.222656 108.980469 C 72.222656 108.980469 72.226562 108.957031 72.234375 108.917969 C 73.066406 107.472656 74.914062 104.179688 77.679688 98.75 C 81.253906 91.734375 84.683594 82.941406 84.683594 82.941406 C 84.683594 82.941406 85.003906 85.089844 86.046875 88.644531 C 86.664062 90.734375 87.96875 93.046875 89 95.265625 C 88.171875 96.417969 87.664062 97.078125 87.664062 97.078125 C 87.664062 97.078125 87.667969 97.089844 87.675781 97.113281 C 87.011719 97.992188 86.269531 98.941406 85.492188 99.867188 C 82.667969 103.230469 79.304688 107.070312 78.855469 108.175781 C 78.324219 109.480469 78.449219 110.4375 79.476562 111.214844 C 80.226562 111.777344 81.558594 111.867188 82.949219 111.773438 C 85.488281 111.601562 87.269531 110.972656 88.152344 110.589844 C 89.527344 110.105469 91.125 109.34375 92.625 108.238281 C 95.394531 106.203125 97.0625 103.292969 96.902344 99.433594 C 96.8125 97.308594 96.136719 95.203125 95.277344 93.214844 C 95.527344 92.855469 95.777344 92.488281 96.035156 92.121094 C 100.398438 85.742188 103.785156 78.730469 103.785156 78.730469 C 103.785156 78.730469 104.105469 80.878906 105.148438 84.4375 C 105.675781 86.234375 106.722656 88.199219 107.660156 90.121094 C 103.558594 93.457031 101.011719 97.332031 100.128906 99.871094 C 98.492188 104.574219 99.773438 106.703125 102.175781 107.1875 C 103.261719 107.40625 104.796875 106.90625 105.953125 106.417969 C 107.390625 105.941406 109.117188 105.148438 110.734375 103.960938 C 113.503906 101.925781 116.167969 99.078125 116.003906 95.222656 C 115.933594 93.464844 115.457031 91.722656 114.808594 90.050781 C 118.289062 88.601562 122.792969 87.796875 128.53125 88.464844 C 140.84375 89.902344 143.253906 97.585938 142.792969 100.800781 C 142.332031 104.015625 139.75 105.785156 138.886719 106.320312 C 138.023438 106.851562 137.761719 107.039062 137.832031 107.433594 C 137.9375 108.011719 138.335938 107.992188 139.074219 107.867188 C 140.085938 107.695312 145.535156 105.25 145.769531 99.316406 C 146.0625 91.773438 138.839844 83.496094 126.046875 83.5625 Z M 31.164062 115.539062 C 27.085938 119.984375 21.394531 121.664062 18.949219 120.25 C 16.308594 118.722656 17.355469 112.175781 22.359375 107.453125 C 25.40625 104.578125 29.34375 101.929688 31.957031 100.300781 C 32.550781 99.941406 33.421875 99.417969 34.484375 98.78125 C 34.660156 98.683594 34.761719 98.628906 34.761719 98.628906 L 34.757812 98.621094 C 34.964844 98.5 35.171875 98.375 35.390625 98.242188 C 37.210938 104.960938 35.445312 110.871094 31.164062 115.539062 Z M 60.871094 95.355469 C 59.453125 98.8125 56.480469 107.667969 54.667969 107.195312 C 53.117188 106.785156 52.171875 100.054688 54.359375 93.429688 C 55.460938 90.097656 57.816406 86.113281 59.199219 84.566406 C 61.425781 82.078125 63.875 81.261719 64.472656 82.273438 C 65.226562 83.558594 61.761719 93.183594 60.871094 95.355469 Z M 85.410156 107.058594 C 84.808594 107.375 84.257812 107.570312 84.003906 107.417969 C 83.8125 107.304688 84.25 106.890625 84.25 106.890625 C 84.25 106.890625 87.320312 103.589844 88.527344 102.085938 C 89.234375 101.210938 90.046875 100.175781 90.933594 99.015625 C 90.941406 99.132812 90.945312 99.25 90.945312 99.359375 C 90.9375 103.316406 87.117188 105.984375 85.410156 107.058594 Z M 104.316406 102.75 C 103.867188 102.429688 103.941406 101.398438 105.417969 98.179688 C 106 96.917969 107.324219 94.792969 109.621094 92.757812 C 109.886719 93.59375 110.046875 94.394531 110.046875 95.140625 C 110.015625 100.121094 106.464844 101.976562 104.316406 102.75 Z M 104.316406 102.75 " fill-opacity="1" fill-rule="nonzero"/></svg>