<svg xmlns="http://www.w3.org/2000/svg" xmlns:xlink="http://www.w3.org/1999/xlink" width="1280" zoomAndPan="magnify" viewBox="0 0 960 337.499995" height="450" preserveAspectRatio="xMidYMid meet" version="1.0"><defs><filter x="0%" y="0%" width="100%" height="100%" id="8ad4c60364"><feColorMatrix values="0 0 0 0 1 0 0 0 0 1 0 0 0 0 1 0 0 0 1 0" color-interpolation-filters="sRGB"/></filter><g/><clipPath id="6aac7f76f3"><path d="M 0.710938 0 L 959.289062 0 L 959.289062 337 L 0.710938 337 Z M 0.710938 0 " clip-rule="nonzero"/></clipPath><clipPath id="2c1262dd2a"><path d="M 0.710938 0 L 739 0 L 739 337 L 0.710938 337 Z M 0.710938 0 " clip-rule="nonzero"/></clipPath><mask id="697a1f9bea"><g filter="url(#8ad4c60364)"><rect x="-96" width="1152" fill="#000000" y="-33.75" height="404.999994" fill-opacity="0.29"/></g></mask><clipPath id="8e58676f49"><path d="M 589 0 L 673.214844 0 L 673.214844 85 L 589 85 Z M 589 0 " clip-rule="nonzero"/></clipPath><clipPath id="16233d0ef6"><path d="M 0.710938 84 L 85 84 L 85 169 L 0.710938 169 Z M 0.710938 84 " clip-rule="nonzero"/></clipPath><clipPath id="4ec02ce7c9"><path d="M 0.710938 252 L 85 252 L 85 337 L 0.710938 337 Z M 0.710938 252 " clip-rule="nonzero"/></clipPath><clipPath id="8c13dc6ace"><path d="M 420 0 L 505 0 L 505 85 L 420 85 Z M 420 0 " clip-rule="nonzero"/></clipPath><clipPath id="cc354a3eb0"><path d="M 252 0 L 337 0 L 337 85 L 252 85 Z M 252 0 " clip-rule="nonzero"/></clipPath><clipPath id="5cd7cd64b0"><path d="M 252 336 L 337 336 L 337 337 L 252 337 Z M 252 336 " clip-rule="nonzero"/></clipPath><clipPath id="a215338758"><path d="M 84 0 L 169 0 L 169 85 L 84 85 Z M 84 0 " clip-rule="nonzero"/></clipPath><clipPath id="c9a76adf6b"><path d="M 84 336 L 169 336 L 169 337 L 84 337 Z M 84 336 " clip-rule="nonzero"/></clipPath><clipPath id="2e4ca198a0"><rect x="0" width="739" y="0" height="337"/></clipPath><mask id="3f302634d9"><g filter="url(#8ad4c60364)"><rect x="-96" width="1152" fill="#000000" y="-33.75" height="404.999994" fill-opacity="0.18"/></g></mask><clipPath id="9ab1692e8b"><path d="M 0.78125 0 L 168.535156 0 L 168.535156 337 L 0.78125 337 Z M 0.78125 0 " clip-rule="nonzero"/></clipPath><clipPath id="30ebdafdce"><rect x="0" width="170" y="0" height="337"/></clipPath></defs><g clip-path="url(#6aac7f76f3)"><path fill="#ffffff" d="M 0.710938 0 L 959.289062 0 L 959.289062 337 L 0.710938 337 Z M 0.710938 0 " fill-opacity="1" fill-rule="nonzero"/><path fill="#000000" d="M 0.710938 0 L 959.289062 0 L 959.289062 337 L 0.710938 337 Z M 0.710938 0 " fill-opacity="1" fill-rule="nonzero"/></g><g clip-path="url(#2c1262dd2a)"><g mask="url(#697a1f9bea)"><g transform="matrix(1, 0, 0, 1, -0.000000000000000111, 0)"><g clip-path="url(#2e4ca198a0)"><g clip-path="url(#8e58676f49)"><path fill="#ffffff" d="M 589.011719 -0.0234375 L 673.050781 -0.0234375 L 673.050781 84.011719 L 589.011719 84.011719 Z M 589.011719 -0.0234375 " fill-opacity="1" fill-rule="evenodd"/></g><path fill="#ffffff" d="M 504.976562 84.011719 L 589.011719 84.011719 L 589.011719 168.046875 L 504.976562 168.046875 Z M 504.976562 84.011719 " fill-opacity="1" fill-rule="evenodd"/><path fill="#ffffff" d="M 336.90625 84.011719 L 420.941406 84.011719 L 420.941406 168.046875 L 336.90625 168.046875 Z M 336.90625 84.011719 " fill-opacity="1" fill-rule="evenodd"/><path fill="#ffffff" d="M 168.835938 84.011719 L 252.871094 84.011719 L 252.871094 168.046875 L 168.835938 168.046875 Z M 168.835938 84.011719 " fill-opacity="1" fill-rule="evenodd"/><g clip-path="url(#16233d0ef6)"><path fill="#ffffff" d="M 0.765625 84.011719 L 84.800781 84.011719 L 84.800781 168.046875 L 0.765625 168.046875 Z M 0.765625 84.011719 " fill-opacity="1" fill-rule="evenodd"/></g><g clip-path="url(#4ec02ce7c9)"><path fill="#ffffff" d="M 0.765625 252.082031 L 84.800781 252.082031 L 84.800781 336.117188 L 0.765625 336.117188 Z M 0.765625 252.082031 " fill-opacity="1" fill-rule="evenodd"/></g><path fill="#ffffff" d="M 168.835938 252.082031 L 252.871094 252.082031 L 252.871094 336.117188 L 168.835938 336.117188 Z M 168.835938 252.082031 " fill-opacity="1" fill-rule="evenodd"/><path fill="#ffffff" d="M 336.90625 252.082031 L 420.941406 252.082031 L 420.941406 336.117188 L 336.90625 336.117188 Z M 336.90625 252.082031 " fill-opacity="1" fill-rule="evenodd"/><path fill="#ffffff" d="M 84.800781 168.046875 L 168.835938 168.046875 L 168.835938 252.082031 L 84.800781 252.082031 Z M 84.800781 168.046875 " fill-opacity="1" fill-rule="evenodd"/><path fill="#ffffff" d="M 252.871094 168.046875 L 336.90625 168.046875 L 336.90625 252.082031 L 252.871094 252.082031 Z M 252.871094 168.046875 " fill-opacity="1" fill-rule="evenodd"/><path fill="#ffffff" d="M 420.941406 168.046875 L 504.980469 168.046875 L 504.980469 252.082031 L 420.941406 252.082031 Z M 420.941406 168.046875 " fill-opacity="1" fill-rule="evenodd"/><g clip-path="url(#8c13dc6ace)"><path fill="#ffffff" d="M 420.941406 -0.0234375 L 504.980469 -0.0234375 L 504.980469 84.011719 L 420.941406 84.011719 Z M 420.941406 -0.0234375 " fill-opacity="1" fill-rule="evenodd"/></g><g clip-path="url(#cc354a3eb0)"><path fill="#ffffff" d="M 252.871094 -0.0234375 L 336.90625 -0.0234375 L 336.90625 84.011719 L 252.871094 84.011719 Z M 252.871094 -0.0234375 " fill-opacity="1" fill-rule="evenodd"/></g><g clip-path="url(#5cd7cd64b0)"><path fill="#ffffff" d="M 252.871094 336.117188 L 336.90625 336.117188 L 336.90625 420.152344 L 252.871094 420.152344 Z M 252.871094 336.117188 " fill-opacity="1" fill-rule="evenodd"/></g><g clip-path="url(#a215338758)"><path fill="#ffffff" d="M 84.800781 -0.0234375 L 168.835938 -0.0234375 L 168.835938 84.011719 L 84.800781 84.011719 Z M 84.800781 -0.0234375 " fill-opacity="1" fill-rule="evenodd"/></g><g clip-path="url(#c9a76adf6b)"><path fill="#ffffff" d="M 84.800781 336.117188 L 168.835938 336.117188 L 168.835938 420.152344 L 84.800781 420.152344 Z M 84.800781 336.117188 " fill-opacity="1" fill-rule="evenodd"/></g></g></g></g></g><g mask="url(#3f302634d9)"><g transform="matrix(1, 0, 0, 1, 761, 0)"><g clip-path="url(#30ebdafdce)"><path fill="#ffffff" d="M 49.480469 252.640625 L 56.457031 167.253906 L 112.835938 167.253906 L 119.808594 252.640625 Z M 127.007812 252.640625 L 41.539062 252.640625 C 41.539062 266.40625 34.375 279.515625 24.761719 288.65625 L 13.976562 298.910156 C 10.691406 300.996094 8.675781 304.773438 8.675781 308.871094 C 8.675781 315.269531 13.519531 320.453125 19.488281 320.445312 L 149.808594 320.386719 C 155.78125 320.386719 160.613281 315.203125 160.613281 308.8125 L 160.613281 308.804688 C 160.613281 304.714844 158.597656 300.929688 155.316406 298.84375 L 142.414062 286.820312 C 133.21875 278.253906 128.5 266.058594 127.851562 253.023438 Z M 166.4375 327.554688 C 166.4375 323.625 163.257812 320.445312 159.335938 320.445312 L 9.953125 320.445312 C 6.03125 320.445312 2.855469 323.625 2.855469 327.554688 C 2.855469 331.488281 6.03125 334.667969 9.953125 334.667969 L 159.335938 334.667969 C 163.257812 334.667969 166.4375 331.488281 166.4375 327.554688 Z M 135.820312 158.589844 C 135.820312 153.777344 131.933594 149.882812 127.128906 149.882812 L 42.160156 149.882812 C 37.359375 149.882812 33.46875 153.777344 33.46875 158.589844 C 33.46875 163.398438 37.359375 167.296875 42.160156 167.296875 L 127.128906 167.296875 C 131.933594 167.296875 135.820312 163.398438 135.820312 158.589844 Z M 130.125 141.175781 C 130.125 136.363281 126.234375 132.464844 121.433594 132.464844 L 47.855469 132.464844 C 43.054688 132.464844 39.167969 136.363281 39.167969 141.175781 C 39.167969 145.984375 43.054688 149.882812 47.855469 149.882812 L 121.425781 149.882812 C 126.234375 149.882812 130.125 145.984375 130.125 141.175781 Z M 108.496094 46.300781 C 108.496094 41.488281 104.609375 37.59375 99.808594 37.59375 L 69.484375 37.59375 C 64.683594 37.59375 60.792969 41.488281 60.792969 46.300781 C 60.792969 51.109375 64.683594 55.007812 69.484375 55.007812 L 99.800781 55.007812 C 104.609375 55.007812 108.496094 51.109375 108.496094 46.300781 Z M 126.226562 55.007812 L 43.0625 55.007812 C 36.664062 55.007812 31.992188 61.097656 33.660156 67.296875 L 51.125 132.464844 L 118.175781 132.464844 L 135.636719 67.296875 C 137.296875 61.097656 132.636719 55.007812 126.226562 55.007812 Z M 103.472656 13.574219 L 92.253906 13.574219 L 92.253906 2.332031 L 79.5 2.332031 L 79.5 13.574219 L 68.28125 13.574219 L 68.28125 26.359375 L 79.5 26.359375 L 79.5 37.601562 L 92.261719 37.601562 L 92.261719 26.351562 L 103.480469 26.351562 L 103.480469 13.574219 Z M 103.472656 13.574219 " fill-opacity="1" fill-rule="nonzero"/><g clip-path="url(#9ab1692e8b)"><path fill="#010101" d="M 119.808594 254.714844 L 49.492188 254.714844 C 48.910156 254.714844 48.355469 254.476562 47.964844 254.042969 C 47.574219 253.613281 47.375 253.046875 47.425781 252.464844 L 54.398438 167.078125 C 54.492188 166 55.386719 165.167969 56.464844 165.167969 L 112.84375 165.167969 C 113.921875 165.167969 114.824219 166 114.90625 167.078125 L 121.882812 252.464844 C 121.929688 253.046875 121.730469 253.613281 121.34375 254.042969 C 120.9375 254.476562 120.390625 254.714844 119.808594 254.714844 Z M 51.738281 250.5625 L 117.5625 250.5625 L 110.925781 169.332031 L 58.363281 169.332031 Z M 19.488281 322.523438 C 16.023438 322.523438 12.773438 321.085938 10.335938 318.476562 C 7.929688 315.898438 6.613281 312.492188 6.613281 308.871094 C 6.613281 304.167969 8.933594 299.75 12.699219 297.273438 L 23.34375 287.152344 C 33.445312 277.546875 39.472656 264.644531 39.472656 252.640625 C 39.472656 251.492188 40.402344 250.5625 41.546875 250.5625 L 127.015625 250.5625 C 127.304688 250.5625 127.59375 250.628906 127.859375 250.746094 L 128.707031 251.128906 C 129.417969 251.441406 129.890625 252.140625 129.925781 252.921875 C 130.570312 266.050781 135.503906 277.546875 143.824219 285.300781 L 156.59375 297.199219 C 160.355469 299.671875 162.6875 304.101562 162.6875 308.804688 C 162.6875 316.339844 156.90625 322.464844 149.808594 322.472656 Z M 43.5625 254.714844 C 42.941406 267.371094 36.6875 280.191406 26.1875 290.167969 L 15.402344 300.421875 C 15.300781 300.511719 15.195312 300.597656 15.085938 300.671875 C 12.417969 302.367188 10.75 305.515625 10.75 308.871094 C 10.75 311.4375 11.679688 313.839844 13.363281 315.640625 C 15.003906 317.402344 17.183594 318.375 19.488281 318.375 L 149.808594 318.316406 C 154.628906 318.316406 158.542969 314.054688 158.542969 308.820312 C 158.542969 305.449219 156.882812 302.308594 154.203125 300.605469 C 154.097656 300.539062 153.996094 300.453125 153.90625 300.371094 L 141.003906 288.347656 C 132.230469 280.171875 126.898438 268.285156 125.886719 254.726562 L 43.5625 254.726562 Z M 159.335938 336.746094 L 9.953125 336.746094 C 4.894531 336.746094 0.78125 332.625 0.78125 327.554688 C 0.78125 322.488281 4.894531 318.367188 9.953125 318.367188 L 159.335938 318.367188 C 164.394531 318.367188 168.507812 322.488281 168.507812 327.554688 C 168.507812 332.625 164.394531 336.746094 159.335938 336.746094 Z M 9.953125 322.523438 C 7.183594 322.523438 4.929688 324.78125 4.929688 327.554688 C 4.929688 330.332031 7.183594 332.589844 9.953125 332.589844 L 159.335938 332.589844 C 162.105469 332.589844 164.363281 330.332031 164.363281 327.554688 C 164.363281 324.78125 162.105469 322.523438 159.335938 322.523438 Z M 127.128906 169.371094 L 42.160156 169.371094 C 36.222656 169.371094 31.398438 164.539062 31.398438 158.589844 C 31.398438 152.640625 36.222656 147.804688 42.160156 147.804688 L 127.128906 147.804688 C 133.066406 147.804688 137.894531 152.640625 137.894531 158.589844 C 137.894531 164.539062 133.066406 169.371094 127.128906 169.371094 Z M 42.160156 151.957031 C 38.511719 151.957031 35.542969 154.933594 35.542969 158.589844 C 35.542969 162.242188 38.511719 165.21875 42.160156 165.21875 L 127.128906 165.21875 C 130.777344 165.21875 133.746094 162.242188 133.746094 158.589844 C 133.746094 154.933594 130.777344 151.957031 127.128906 151.957031 Z M 121.433594 151.957031 L 47.855469 151.957031 C 41.917969 151.957031 37.09375 147.121094 37.09375 141.175781 C 37.09375 135.226562 41.917969 130.390625 47.855469 130.390625 L 121.433594 130.390625 C 127.371094 130.390625 132.195312 135.226562 132.195312 141.175781 C 132.195312 147.121094 127.371094 151.957031 121.433594 151.957031 Z M 47.855469 134.542969 C 44.207031 134.542969 41.238281 137.519531 41.238281 141.175781 C 41.238281 144.828125 44.207031 147.804688 47.855469 147.804688 L 121.433594 147.804688 C 125.082031 147.804688 128.050781 144.828125 128.050781 141.175781 C 128.050781 137.519531 125.082031 134.542969 121.433594 134.542969 Z M 99.808594 57.085938 L 69.484375 57.085938 C 63.546875 57.085938 58.71875 52.25 58.71875 46.300781 C 58.71875 40.351562 63.546875 35.515625 69.484375 35.515625 L 99.800781 35.515625 C 105.738281 35.515625 110.5625 40.351562 110.5625 46.300781 C 110.570312 52.25 105.738281 57.085938 99.808594 57.085938 Z M 69.484375 39.671875 C 65.835938 39.671875 62.867188 42.644531 62.867188 46.300781 C 62.867188 49.957031 65.835938 52.929688 69.484375 52.929688 L 99.800781 52.929688 C 103.449219 52.929688 106.417969 49.957031 106.417969 46.300781 C 106.417969 42.644531 103.449219 39.671875 99.800781 39.671875 Z M 118.167969 134.542969 L 51.125 134.542969 C 50.1875 134.542969 49.367188 133.914062 49.125 133.007812 L 31.652344 67.835938 C 30.691406 64.253906 31.4375 60.507812 33.6875 57.566406 C 35.941406 54.625 39.359375 52.929688 43.054688 52.929688 L 126.21875 52.929688 C 129.925781 52.929688 133.332031 54.617188 135.589844 57.566406 C 137.84375 60.515625 138.582031 64.253906 137.621094 67.835938 L 120.15625 133.007812 C 119.933594 133.914062 119.113281 134.542969 118.167969 134.542969 Z M 52.707031 130.390625 L 116.574219 130.390625 L 133.625 66.753906 C 134.246094 64.429688 133.765625 62.003906 132.304688 60.09375 C 130.84375 58.179688 128.625 57.085938 126.21875 57.085938 L 43.0625 57.085938 C 40.660156 57.085938 38.445312 58.179688 36.976562 60.09375 C 35.519531 62.003906 35.039062 64.429688 35.660156 66.753906 Z M 57.527344 111.164062 C 58.628906 110.863281 59.285156 109.726562 58.992188 108.621094 L 51.339844 80.058594 C 51.042969 78.953125 49.90625 78.296875 48.800781 78.585938 C 47.699219 78.886719 47.042969 80.023438 47.335938 81.128906 L 54.988281 109.695312 C 55.238281 110.625 56.074219 111.230469 56.988281 111.230469 C 57.160156 111.238281 57.34375 111.214844 57.527344 111.164062 Z M 92.261719 39.671875 L 79.5 39.671875 C 78.355469 39.671875 77.425781 38.738281 77.425781 37.59375 L 77.425781 28.429688 L 68.28125 28.429688 C 67.136719 28.429688 66.207031 27.5 66.207031 26.351562 L 66.207031 13.574219 C 66.207031 12.425781 67.136719 11.496094 68.28125 11.496094 L 77.425781 11.496094 L 77.425781 2.332031 C 77.425781 1.1875 78.355469 0.253906 79.5 0.253906 L 92.261719 0.253906 C 93.40625 0.253906 94.335938 1.1875 94.335938 2.332031 L 94.335938 11.496094 L 103.480469 11.496094 C 104.625 11.496094 105.554688 12.425781 105.554688 13.574219 L 105.554688 26.359375 C 105.554688 27.507812 104.625 28.4375 103.480469 28.4375 L 94.335938 28.4375 L 94.335938 37.601562 C 94.335938 38.738281 93.40625 39.671875 92.261719 39.671875 Z M 81.574219 35.515625 L 90.1875 35.515625 L 90.1875 26.351562 C 90.1875 25.207031 91.117188 24.273438 92.261719 24.273438 L 101.40625 24.273438 L 101.40625 15.652344 L 92.261719 15.652344 C 91.117188 15.652344 90.1875 14.71875 90.1875 13.574219 L 90.1875 4.410156 L 81.574219 4.410156 L 81.574219 13.574219 C 81.574219 14.71875 80.644531 15.652344 79.5 15.652344 L 70.355469 15.652344 L 70.355469 24.28125 L 79.5 24.28125 C 80.644531 24.28125 81.574219 25.214844 81.574219 26.359375 Z M 81.574219 35.515625 " fill-opacity="1" fill-rule="nonzero"/></g></g></g></g><g fill="#00bd62" fill-opacity="1"><g transform="translate(12.528998, 192.207741)"><g><path d="M 90.1875 -39.9375 C 90.1875 -39.9375 90.863281 -39.9375 92.21875 -39.9375 L 98.484375 -39.9375 L 98.484375 -70.78125 L 5.0625 -70.78125 L 5.0625 0 L 17.59375 0 L 17.59375 -23.65625 C 17.59375 -25.007812 18.082031 -26.191406 19.0625 -27.203125 C 20.039062 -28.210938 21.238281 -28.71875 22.65625 -28.71875 L 87.15625 -28.71875 L 87.15625 -34.984375 C 87.15625 -36.328125 87.660156 -37.503906 88.671875 -38.515625 C 89.679688 -39.460938 90.1875 -39.9375 90.1875 -39.9375 Z M 85.9375 -46.203125 C 85.9375 -44.859375 85.445312 -43.695312 84.46875 -42.71875 C 83.5 -41.738281 82.304688 -41.25 80.890625 -41.25 L 22.65625 -41.25 C 21.238281 -41.25 20.039062 -41.738281 19.0625 -42.71875 C 18.082031 -43.695312 17.59375 -44.859375 17.59375 -46.203125 L 17.59375 -58.234375 L 85.9375 -58.234375 Z M 85.9375 -46.203125 "/></g></g></g><g fill="#00bd62" fill-opacity="1"><g transform="translate(116.062524, 192.207741)"><g><path d="M 90.09375 -40.4375 C 90.09375 -40.4375 90.800781 -40.4375 92.21875 -40.4375 L 98.484375 -40.4375 L 98.484375 -70.78125 L 5.0625 -70.78125 L 5.0625 0 L 17.890625 0 L 17.890625 -28.921875 L 80.78125 -28.921875 C 82.875 -28.921875 84.238281 -28.546875 84.875 -27.796875 C 85.519531 -27.054688 85.84375 -25.742188 85.84375 -23.859375 L 85.84375 0 L 98.484375 0 L 98.484375 -30.234375 L 92.21875 -30.234375 C 90.800781 -30.234375 89.601562 -30.785156 88.625 -31.890625 C 87.644531 -33.003906 87.15625 -34.269531 87.15625 -35.6875 C 87.15625 -37.101562 87.660156 -38.25 88.671875 -39.125 C 89.617188 -40 90.09375 -40.4375 90.09375 -40.4375 Z M 85.84375 -57.9375 L 85.84375 -46.921875 C 85.84375 -45.296875 85.519531 -44.03125 84.875 -43.125 C 84.238281 -42.21875 82.875 -41.765625 80.78125 -41.765625 L 17.890625 -41.765625 L 17.890625 -57.9375 Z M 85.84375 -57.9375 "/></g></g></g><g fill="#00bd62" fill-opacity="1"><g transform="translate(219.59605, 192.207741)"><g><path d="M 88.96875 -11.328125 C 88.96875 -11.328125 89.441406 -11.328125 90.390625 -11.328125 L 98.484375 -11.328125 L 98.484375 -58.84375 L 90.390625 -58.84375 C 89.441406 -58.84375 88.628906 -59.179688 87.953125 -59.859375 C 87.285156 -60.535156 86.953125 -61.34375 86.953125 -62.28125 L 86.953125 -70.78125 L 16.578125 -70.78125 L 16.578125 -62.390625 C 16.578125 -61.441406 16.238281 -60.628906 15.5625 -59.953125 C 14.894531 -59.285156 14.085938 -58.953125 13.140625 -58.953125 L 5.0625 -58.953125 L 5.0625 -11.328125 L 13.140625 -11.328125 C 14.085938 -11.328125 14.894531 -10.988281 15.5625 -10.3125 C 16.238281 -9.632812 16.578125 -8.828125 16.578125 -7.890625 L 16.578125 0 L 86.953125 0 L 86.953125 -7.890625 C 86.953125 -8.828125 87.289062 -9.632812 87.96875 -10.3125 C 88.632812 -10.988281 88.96875 -11.328125 88.96875 -11.328125 Z M 82.203125 -57.734375 C 83.148438 -57.734375 83.957031 -57.394531 84.625 -56.71875 C 85.300781 -56.050781 85.640625 -55.242188 85.640625 -54.296875 L 85.640625 -16.078125 C 85.640625 -15.128906 85.300781 -14.316406 84.625 -13.640625 C 83.957031 -12.972656 83.148438 -12.640625 82.203125 -12.640625 L 21.328125 -12.640625 C 20.390625 -12.640625 19.582031 -12.972656 18.90625 -13.640625 C 18.226562 -14.316406 17.890625 -15.128906 17.890625 -16.078125 L 17.890625 -54.296875 C 17.890625 -55.242188 18.226562 -56.050781 18.90625 -56.71875 C 19.582031 -57.394531 20.390625 -57.734375 21.328125 -57.734375 Z M 82.203125 -57.734375 "/></g></g></g><g fill="#00bd62" fill-opacity="1"><g transform="translate(323.129575, 192.207741)"><g><path d="M 18.90625 -56.828125 C 19.582031 -57.492188 20.390625 -57.828125 21.328125 -57.828125 L 98.484375 -57.828125 L 98.484375 -70.78125 L 16.578125 -70.78125 L 16.578125 -62.59375 C 16.578125 -61.644531 16.238281 -60.832031 15.5625 -60.15625 C 14.894531 -59.488281 14.085938 -59.15625 13.140625 -59.15625 L 5.0625 -59.15625 L 5.0625 -11.53125 L 13.140625 -11.53125 C 14.085938 -11.53125 14.894531 -11.191406 15.5625 -10.515625 C 16.238281 -9.835938 16.578125 -9.03125 16.578125 -8.09375 L 16.578125 0 L 87.0625 0 L 87.0625 -8.09375 C 87.0625 -9.03125 87.394531 -9.835938 88.0625 -10.515625 C 88.738281 -11.191406 89.550781 -11.53125 90.5 -11.53125 L 98.484375 -11.53125 L 98.484375 -30.234375 L 92.109375 -30.234375 C 90.691406 -30.234375 89.476562 -30.71875 88.46875 -31.6875 C 87.457031 -32.664062 86.953125 -33.863281 86.953125 -35.28125 L 86.953125 -41.65625 L 56.015625 -41.65625 L 56.015625 -28.921875 L 80.578125 -28.921875 C 81.992188 -28.921875 83.191406 -28.566406 84.171875 -27.859375 C 85.148438 -27.148438 85.640625 -26.050781 85.640625 -24.5625 L 85.640625 -16.78125 C 85.640625 -15.84375 85.316406 -14.929688 84.671875 -14.046875 C 84.035156 -13.171875 83.242188 -12.734375 82.296875 -12.734375 L 21.328125 -12.734375 C 20.390625 -12.734375 19.582031 -13.070312 18.90625 -13.75 C 18.226562 -14.425781 17.890625 -15.234375 17.890625 -16.171875 L 17.890625 -54.390625 C 17.890625 -55.335938 18.226562 -56.148438 18.90625 -56.828125 Z M 18.90625 -56.828125 "/></g></g></g><g fill="#00bd62" fill-opacity="1"><g transform="translate(426.663101, 192.207741)"><g><path d="M 17.890625 -23.96875 C 17.890625 -25.382812 18.378906 -26.597656 19.359375 -27.609375 C 20.335938 -28.617188 21.535156 -29.125 22.953125 -29.125 L 86.859375 -29.125 L 86.859375 -41.953125 L 22.953125 -41.953125 C 21.535156 -41.953125 20.335938 -42.441406 19.359375 -43.421875 C 18.378906 -44.398438 17.890625 -45.597656 17.890625 -47.015625 L 17.890625 -58.03125 L 98.484375 -58.03125 L 98.484375 -70.78125 L 5.0625 -70.78125 L 5.0625 -40.640625 L 11.421875 -40.640625 C 12.835938 -40.640625 14.050781 -40.132812 15.0625 -39.125 C 16.070312 -38.113281 16.578125 -36.898438 16.578125 -35.484375 C 16.578125 -34.066406 16.070312 -32.867188 15.0625 -31.890625 C 14.050781 -30.921875 12.835938 -30.4375 11.421875 -30.4375 L 5.0625 -30.4375 L 5.0625 0 L 98.484375 0 L 98.484375 -12.734375 L 17.890625 -12.734375 Z M 17.890625 -23.96875 "/></g></g></g><g fill="#00bd62" fill-opacity="1"><g transform="translate(530.196627, 192.207741)"><g><path d="M 85.640625 -25.890625 C 85.640625 -25.890625 85.640625 -25.179688 85.640625 -23.765625 L 85.640625 -12.734375 L 5.0625 -12.734375 L 5.0625 0 L 98.484375 0 L 98.484375 -30.234375 L 92.109375 -30.234375 C 90.691406 -30.234375 89.476562 -30.71875 88.46875 -31.6875 C 87.457031 -32.664062 86.953125 -33.863281 86.953125 -35.28125 L 86.953125 -41.765625 L 22.953125 -41.765625 C 21.535156 -41.765625 20.335938 -42.25 19.359375 -43.21875 C 18.378906 -44.195312 17.890625 -45.394531 17.890625 -46.8125 L 17.890625 -57.828125 L 98.484375 -57.828125 L 98.484375 -70.78125 L 5.0625 -70.78125 L 5.0625 -40.4375 L 11.421875 -40.4375 C 12.835938 -40.4375 14.050781 -39.929688 15.0625 -38.921875 C 16.070312 -37.910156 16.578125 -36.695312 16.578125 -35.28125 L 16.578125 -28.921875 L 80.484375 -28.921875 C 81.898438 -28.921875 83.113281 -28.414062 84.125 -27.40625 C 85.132812 -26.394531 85.640625 -25.890625 85.640625 -25.890625 Z M 85.640625 -25.890625 "/></g></g></g><g fill="#00bd62" fill-opacity="1"><g transform="translate(633.730152, 192.207741)"><g><path d="M 58.140625 0 L 58.140625 -57.9375 L 98.484375 -57.9375 L 98.484375 -70.78125 L 5.0625 -70.78125 L 5.0625 -57.9375 L 45.296875 -57.9375 L 45.296875 0 Z M 58.140625 0 "/></g></g></g><g fill="#00bd62" fill-opacity="1"><g transform="translate(737.263678, 192.207741)"><g><path d="M 17.890625 -23.96875 C 17.890625 -25.382812 18.378906 -26.597656 19.359375 -27.609375 C 20.335938 -28.617188 21.535156 -29.125 22.953125 -29.125 L 86.859375 -29.125 L 86.859375 -41.953125 L 22.953125 -41.953125 C 21.535156 -41.953125 20.335938 -42.441406 19.359375 -43.421875 C 18.378906 -44.398438 17.890625 -45.597656 17.890625 -47.015625 L 17.890625 -58.03125 L 98.484375 -58.03125 L 98.484375 -70.78125 L 5.0625 -70.78125 L 5.0625 -40.640625 L 11.421875 -40.640625 C 12.835938 -40.640625 14.050781 -40.132812 15.0625 -39.125 C 16.070312 -38.113281 16.578125 -36.898438 16.578125 -35.484375 C 16.578125 -34.066406 16.070312 -32.867188 15.0625 -31.890625 C 14.050781 -30.921875 12.835938 -30.4375 11.421875 -30.4375 L 5.0625 -30.4375 L 5.0625 0 L 98.484375 0 L 98.484375 -12.734375 L 17.890625 -12.734375 Z M 17.890625 -23.96875 "/></g></g></g><g fill="#00bd62" fill-opacity="1"><g transform="translate(840.797204, 192.207741)"><g><path d="M 98.484375 -70.78125 L 5.0625 -70.78125 L 5.0625 -0.09375 L 98.484375 -0.09375 L 98.484375 -12.84375 L 17.890625 -12.84375 L 17.890625 -57.9375 L 98.484375 -57.9375 Z M 98.484375 -70.78125 "/></g></g></g><g fill="#ffffff" fill-opacity="1"><g transform="translate(15.664559, 195.358106)"><g><path d="M 90.1875 -39.9375 C 90.1875 -39.9375 90.863281 -39.9375 92.21875 -39.9375 L 98.484375 -39.9375 L 98.484375 -70.78125 L 5.0625 -70.78125 L 5.0625 0 L 17.59375 0 L 17.59375 -23.65625 C 17.59375 -25.007812 18.082031 -26.191406 19.0625 -27.203125 C 20.039062 -28.210938 21.238281 -28.71875 22.65625 -28.71875 L 87.15625 -28.71875 L 87.15625 -34.984375 C 87.15625 -36.328125 87.660156 -37.503906 88.671875 -38.515625 C 89.679688 -39.460938 90.1875 -39.9375 90.1875 -39.9375 Z M 85.9375 -46.203125 C 85.9375 -44.859375 85.445312 -43.695312 84.46875 -42.71875 C 83.5 -41.738281 82.304688 -41.25 80.890625 -41.25 L 22.65625 -41.25 C 21.238281 -41.25 20.039062 -41.738281 19.0625 -42.71875 C 18.082031 -43.695312 17.59375 -44.859375 17.59375 -46.203125 L 17.59375 -58.234375 L 85.9375 -58.234375 Z M 85.9375 -46.203125 "/></g></g></g><g fill="#ffffff" fill-opacity="1"><g transform="translate(119.198084, 195.358106)"><g><path d="M 90.09375 -40.4375 C 90.09375 -40.4375 90.800781 -40.4375 92.21875 -40.4375 L 98.484375 -40.4375 L 98.484375 -70.78125 L 5.0625 -70.78125 L 5.0625 0 L 17.890625 0 L 17.890625 -28.921875 L 80.78125 -28.921875 C 82.875 -28.921875 84.238281 -28.546875 84.875 -27.796875 C 85.519531 -27.054688 85.84375 -25.742188 85.84375 -23.859375 L 85.84375 0 L 98.484375 0 L 98.484375 -30.234375 L 92.21875 -30.234375 C 90.800781 -30.234375 89.601562 -30.785156 88.625 -31.890625 C 87.644531 -33.003906 87.15625 -34.269531 87.15625 -35.6875 C 87.15625 -37.101562 87.660156 -38.25 88.671875 -39.125 C 89.617188 -40 90.09375 -40.4375 90.09375 -40.4375 Z M 85.84375 -57.9375 L 85.84375 -46.921875 C 85.84375 -45.296875 85.519531 -44.03125 84.875 -43.125 C 84.238281 -42.21875 82.875 -41.765625 80.78125 -41.765625 L 17.890625 -41.765625 L 17.890625 -57.9375 Z M 85.84375 -57.9375 "/></g></g></g><g fill="#ffffff" fill-opacity="1"><g transform="translate(222.73161, 195.358106)"><g><path d="M 88.96875 -11.328125 C 88.96875 -11.328125 89.441406 -11.328125 90.390625 -11.328125 L 98.484375 -11.328125 L 98.484375 -58.84375 L 90.390625 -58.84375 C 89.441406 -58.84375 88.628906 -59.179688 87.953125 -59.859375 C 87.285156 -60.535156 86.953125 -61.34375 86.953125 -62.28125 L 86.953125 -70.78125 L 16.578125 -70.78125 L 16.578125 -62.390625 C 16.578125 -61.441406 16.238281 -60.628906 15.5625 -59.953125 C 14.894531 -59.285156 14.085938 -58.953125 13.140625 -58.953125 L 5.0625 -58.953125 L 5.0625 -11.328125 L 13.140625 -11.328125 C 14.085938 -11.328125 14.894531 -10.988281 15.5625 -10.3125 C 16.238281 -9.632812 16.578125 -8.828125 16.578125 -7.890625 L 16.578125 0 L 86.953125 0 L 86.953125 -7.890625 C 86.953125 -8.828125 87.289062 -9.632812 87.96875 -10.3125 C 88.632812 -10.988281 88.96875 -11.328125 88.96875 -11.328125 Z M 82.203125 -57.734375 C 83.148438 -57.734375 83.957031 -57.394531 84.625 -56.71875 C 85.300781 -56.050781 85.640625 -55.242188 85.640625 -54.296875 L 85.640625 -16.078125 C 85.640625 -15.128906 85.300781 -14.316406 84.625 -13.640625 C 83.957031 -12.972656 83.148438 -12.640625 82.203125 -12.640625 L 21.328125 -12.640625 C 20.390625 -12.640625 19.582031 -12.972656 18.90625 -13.640625 C 18.226562 -14.316406 17.890625 -15.128906 17.890625 -16.078125 L 17.890625 -54.296875 C 17.890625 -55.242188 18.226562 -56.050781 18.90625 -56.71875 C 19.582031 -57.394531 20.390625 -57.734375 21.328125 -57.734375 Z M 82.203125 -57.734375 "/></g></g></g><g fill="#ffffff" fill-opacity="1"><g transform="translate(326.265136, 195.358106)"><g><path d="M 18.90625 -56.828125 C 19.582031 -57.492188 20.390625 -57.828125 21.328125 -57.828125 L 98.484375 -57.828125 L 98.484375 -70.78125 L 16.578125 -70.78125 L 16.578125 -62.59375 C 16.578125 -61.644531 16.238281 -60.832031 15.5625 -60.15625 C 14.894531 -59.488281 14.085938 -59.15625 13.140625 -59.15625 L 5.0625 -59.15625 L 5.0625 -11.53125 L 13.140625 -11.53125 C 14.085938 -11.53125 14.894531 -11.191406 15.5625 -10.515625 C 16.238281 -9.835938 16.578125 -9.03125 16.578125 -8.09375 L 16.578125 0 L 87.0625 0 L 87.0625 -8.09375 C 87.0625 -9.03125 87.394531 -9.835938 88.0625 -10.515625 C 88.738281 -11.191406 89.550781 -11.53125 90.5 -11.53125 L 98.484375 -11.53125 L 98.484375 -30.234375 L 92.109375 -30.234375 C 90.691406 -30.234375 89.476562 -30.71875 88.46875 -31.6875 C 87.457031 -32.664062 86.953125 -33.863281 86.953125 -35.28125 L 86.953125 -41.65625 L 56.015625 -41.65625 L 56.015625 -28.921875 L 80.578125 -28.921875 C 81.992188 -28.921875 83.191406 -28.566406 84.171875 -27.859375 C 85.148438 -27.148438 85.640625 -26.050781 85.640625 -24.5625 L 85.640625 -16.78125 C 85.640625 -15.84375 85.316406 -14.929688 84.671875 -14.046875 C 84.035156 -13.171875 83.242188 -12.734375 82.296875 -12.734375 L 21.328125 -12.734375 C 20.390625 -12.734375 19.582031 -13.070312 18.90625 -13.75 C 18.226562 -14.425781 17.890625 -15.234375 17.890625 -16.171875 L 17.890625 -54.390625 C 17.890625 -55.335938 18.226562 -56.148438 18.90625 -56.828125 Z M 18.90625 -56.828125 "/></g></g></g><g fill="#ffffff" fill-opacity="1"><g transform="translate(429.798662, 195.358106)"><g><path d="M 17.890625 -23.96875 C 17.890625 -25.382812 18.378906 -26.597656 19.359375 -27.609375 C 20.335938 -28.617188 21.535156 -29.125 22.953125 -29.125 L 86.859375 -29.125 L 86.859375 -41.953125 L 22.953125 -41.953125 C 21.535156 -41.953125 20.335938 -42.441406 19.359375 -43.421875 C 18.378906 -44.398438 17.890625 -45.597656 17.890625 -47.015625 L 17.890625 -58.03125 L 98.484375 -58.03125 L 98.484375 -70.78125 L 5.0625 -70.78125 L 5.0625 -40.640625 L 11.421875 -40.640625 C 12.835938 -40.640625 14.050781 -40.132812 15.0625 -39.125 C 16.070312 -38.113281 16.578125 -36.898438 16.578125 -35.484375 C 16.578125 -34.066406 16.070312 -32.867188 15.0625 -31.890625 C 14.050781 -30.921875 12.835938 -30.4375 11.421875 -30.4375 L 5.0625 -30.4375 L 5.0625 0 L 98.484375 0 L 98.484375 -12.734375 L 17.890625 -12.734375 Z M 17.890625 -23.96875 "/></g></g></g><g fill="#ffffff" fill-opacity="1"><g transform="translate(533.332187, 195.358106)"><g><path d="M 85.640625 -25.890625 C 85.640625 -25.890625 85.640625 -25.179688 85.640625 -23.765625 L 85.640625 -12.734375 L 5.0625 -12.734375 L 5.0625 0 L 98.484375 0 L 98.484375 -30.234375 L 92.109375 -30.234375 C 90.691406 -30.234375 89.476562 -30.71875 88.46875 -31.6875 C 87.457031 -32.664062 86.953125 -33.863281 86.953125 -35.28125 L 86.953125 -41.765625 L 22.953125 -41.765625 C 21.535156 -41.765625 20.335938 -42.25 19.359375 -43.21875 C 18.378906 -44.195312 17.890625 -45.394531 17.890625 -46.8125 L 17.890625 -57.828125 L 98.484375 -57.828125 L 98.484375 -70.78125 L 5.0625 -70.78125 L 5.0625 -40.4375 L 11.421875 -40.4375 C 12.835938 -40.4375 14.050781 -39.929688 15.0625 -38.921875 C 16.070312 -37.910156 16.578125 -36.695312 16.578125 -35.28125 L 16.578125 -28.921875 L 80.484375 -28.921875 C 81.898438 -28.921875 83.113281 -28.414062 84.125 -27.40625 C 85.132812 -26.394531 85.640625 -25.890625 85.640625 -25.890625 Z M 85.640625 -25.890625 "/></g></g></g><g fill="#ffffff" fill-opacity="1"><g transform="translate(636.865713, 195.358106)"><g><path d="M 58.140625 0 L 58.140625 -57.9375 L 98.484375 -57.9375 L 98.484375 -70.78125 L 5.0625 -70.78125 L 5.0625 -57.9375 L 45.296875 -57.9375 L 45.296875 0 Z M 58.140625 0 "/></g></g></g><g fill="#ffffff" fill-opacity="1"><g transform="translate(740.399239, 195.358106)"><g><path d="M 17.890625 -23.96875 C 17.890625 -25.382812 18.378906 -26.597656 19.359375 -27.609375 C 20.335938 -28.617188 21.535156 -29.125 22.953125 -29.125 L 86.859375 -29.125 L 86.859375 -41.953125 L 22.953125 -41.953125 C 21.535156 -41.953125 20.335938 -42.441406 19.359375 -43.421875 C 18.378906 -44.398438 17.890625 -45.597656 17.890625 -47.015625 L 17.890625 -58.03125 L 98.484375 -58.03125 L 98.484375 -70.78125 L 5.0625 -70.78125 L 5.0625 -40.640625 L 11.421875 -40.640625 C 12.835938 -40.640625 14.050781 -40.132812 15.0625 -39.125 C 16.070312 -38.113281 16.578125 -36.898438 16.578125 -35.484375 C 16.578125 -34.066406 16.070312 -32.867188 15.0625 -31.890625 C 14.050781 -30.921875 12.835938 -30.4375 11.421875 -30.4375 L 5.0625 -30.4375 L 5.0625 0 L 98.484375 0 L 98.484375 -12.734375 L 17.890625 -12.734375 Z M 17.890625 -23.96875 "/></g></g></g><g fill="#ffffff" fill-opacity="1"><g transform="translate(843.932764, 195.358106)"><g><path d="M 98.484375 -70.78125 L 5.0625 -70.78125 L 5.0625 -0.09375 L 98.484375 -0.09375 L 98.484375 -12.84375 L 17.890625 -12.84375 L 17.890625 -57.9375 L 98.484375 -57.9375 Z M 98.484375 -70.78125 "/></g></g></g></svg>